<svg width="246" height="74" viewBox="0 0 246 74" fill="none" xmlns="http://www.w3.org/2000/svg">
<path d="M48.9207 45.3232C49.6136 45.3232 50.2089 45.181 50.7064 44.8967C51.2216 44.6124 51.6125 44.1505 51.879 43.5108C52.1456 42.8712 52.2877 42.045 52.3055 41.0322H59.3149C59.3149 43.1999 58.8529 45.0744 57.929 46.6558C57.0228 48.2193 55.7969 49.4275 54.2511 50.2804C52.723 51.1155 50.9906 51.533 49.0539 51.533C47.1172 51.533 45.4293 51.2221 43.9901 50.6002C42.5509 49.9783 41.3604 49.0722 40.4187 47.8817C39.4948 46.6913 38.793 45.2432 38.3133 43.5375C37.8513 41.814 37.6203 39.8418 37.6203 37.6208V35.5153C37.6203 33.3298 37.8513 31.3754 38.3133 29.6519C38.793 27.9284 39.4948 26.4714 40.4187 25.281C41.3604 24.0905 42.542 23.1844 43.9634 22.5625C45.4026 21.9406 47.0906 21.6297 49.0273 21.6297C51.1061 21.6297 52.9096 22.065 54.4376 22.9356C55.9657 23.7885 57.1561 25.05 58.009 26.7202C58.8796 28.3904 59.3149 30.4514 59.3149 32.9034H52.3055C52.2877 31.8018 52.1544 30.8867 51.9057 30.1583C51.6747 29.412 51.3105 28.8434 50.813 28.4525C50.3332 28.0439 49.6936 27.8396 48.894 27.8396C48.0589 27.8396 47.3838 28.0172 46.8685 28.3726C46.371 28.7102 45.989 29.2077 45.7225 29.8651C45.4737 30.5047 45.3049 31.3043 45.2161 32.2638C45.1272 33.2232 45.0828 34.3071 45.0828 35.5153V37.6208C45.0828 38.9178 45.1184 40.0461 45.1894 41.0056C45.2783 41.9473 45.4471 42.7468 45.6958 43.4042C45.9623 44.0439 46.3443 44.5236 46.8418 44.8434C47.3571 45.1632 48.0501 45.3232 48.9207 45.3232ZM70.4185 47.6952L76.4418 22.1627H84.2241L74.7361 55.3176C74.5229 56.0461 74.2297 56.8279 73.8566 57.663C73.4834 58.5158 72.9859 59.3154 72.3641 60.0616C71.76 60.8256 70.9959 61.4475 70.072 61.9273C69.1481 62.407 68.0376 62.6469 66.7405 62.6469C66.0831 62.6469 65.5501 62.6024 65.1414 62.5136C64.7505 62.4425 64.253 62.3181 63.6489 62.1405V56.3304C63.8088 56.3304 63.9599 56.3304 64.102 56.3304C64.2619 56.3481 64.4129 56.357 64.5551 56.357C65.3902 56.357 66.0565 56.2415 66.554 56.0105C67.0515 55.7973 67.4512 55.4597 67.7533 54.9978C68.0731 54.5358 68.3396 53.9584 68.5529 53.2654L70.4185 47.6952ZM68.8727 22.1627L73.3502 42.8445L74.363 51.2665L69.3258 51.7463L60.8771 22.1627H68.8727ZM87.0656 10.0628H94.5015V44.3104L93.9685 51H87.0656V10.0628ZM109.48 35.6219V37.5142C109.48 39.8595 109.293 41.9028 108.92 43.6441C108.565 45.3853 108.005 46.8423 107.241 48.015C106.495 49.1877 105.535 50.0672 104.363 50.6535C103.19 51.2399 101.804 51.533 100.205 51.533C98.7658 51.533 97.5309 51.1954 96.5004 50.5203C95.4699 49.8273 94.5992 48.8767 93.8885 47.6685C93.1956 46.4425 92.627 45.0122 92.1828 43.3776C91.7564 41.7252 91.4454 39.9217 91.25 37.9673V35.1688C91.4277 33.2499 91.7297 31.4642 92.1561 29.8118C92.6003 28.1594 93.1689 26.7291 93.8619 25.5208C94.5548 24.2949 95.4166 23.3443 96.4471 22.6691C97.4954 21.9762 98.7303 21.6297 100.152 21.6297C101.786 21.6297 103.19 21.9317 104.363 22.5358C105.535 23.1222 106.495 24.0017 107.241 25.1744C108.005 26.3471 108.565 27.8129 108.92 29.5719C109.293 31.3132 109.48 33.3298 109.48 35.6219ZM102.044 37.5142V35.6219C102.044 34.2893 101.991 33.1433 101.884 32.1838C101.777 31.2243 101.582 30.4248 101.298 29.7851C101.013 29.1455 100.605 28.6658 100.072 28.3459C99.5565 28.0261 98.8724 27.8662 98.0195 27.8662C97.2555 27.8662 96.6159 28.0172 96.1006 28.3193C95.5853 28.6036 95.1411 29.03 94.768 29.5986C94.4127 30.1494 94.155 30.8068 93.9951 31.5708C93.8352 32.3171 93.7375 33.1433 93.7019 34.0494V39.0866C93.7197 40.3126 93.8707 41.3965 94.155 42.3382C94.4393 43.2799 94.8924 44.0083 95.5143 44.5236C96.1539 45.0389 97.0068 45.2965 98.0729 45.2965C98.9079 45.2965 99.5831 45.1544 100.098 44.8701C100.614 44.5858 101.013 44.1327 101.298 43.5108C101.6 42.889 101.795 42.0894 101.884 41.1122C101.991 40.1172 102.044 38.9178 102.044 37.5142ZM125.247 51.533C123.275 51.533 121.525 51.231 119.997 50.6269C118.487 50.0228 117.208 49.1521 116.159 48.015C115.111 46.8601 114.311 45.4653 113.761 43.8307C113.21 42.196 112.934 40.3304 112.934 38.2338V35.8618C112.934 33.5164 113.201 31.4642 113.734 29.7052C114.267 27.9284 115.022 26.4359 115.999 25.2277C116.977 24.0195 118.176 23.1222 119.597 22.5358C121.036 21.9317 122.662 21.6297 124.475 21.6297C126.287 21.6297 127.877 21.9317 129.245 22.5358C130.631 23.1222 131.777 24.0106 132.683 25.201C133.59 26.3737 134.274 27.8307 134.736 29.5719C135.198 31.3132 135.428 33.3387 135.428 35.6485V39.06H116.106V33.8096H128.099V33.1433C128.099 31.9706 127.975 30.9934 127.726 30.2116C127.477 29.412 127.086 28.8168 126.553 28.4259C126.02 28.035 125.31 27.8396 124.421 27.8396C123.675 27.8396 123.044 27.9906 122.529 28.2926C122.014 28.5947 121.605 29.0655 121.303 29.7052C121.001 30.3448 120.779 31.1799 120.637 32.2105C120.495 33.2232 120.424 34.4403 120.424 35.8618V38.2338C120.424 39.5664 120.539 40.6857 120.77 41.5919C121.001 42.4803 121.339 43.2088 121.783 43.7774C122.245 44.3282 122.804 44.7279 123.462 44.9767C124.119 45.2077 124.883 45.3232 125.754 45.3232C127.069 45.3232 128.25 45.0922 129.299 44.6302C130.365 44.1505 131.271 43.502 132.017 42.6846L135.002 47.2154C134.487 47.8906 133.776 48.5658 132.87 49.241C131.964 49.9162 130.88 50.467 129.618 50.8934C128.357 51.3198 126.9 51.533 125.247 51.533ZM146.772 28.5858V51H139.309V22.1627H146.346L146.772 28.5858ZM153.568 21.9495L153.462 29.3854C153.124 29.3143 152.715 29.261 152.236 29.2255C151.774 29.1899 151.365 29.1721 151.01 29.1721C150.174 29.1721 149.464 29.3054 148.877 29.5719C148.291 29.8207 147.802 30.2027 147.412 30.718C147.038 31.2155 146.754 31.8373 146.559 32.5836C146.363 33.3298 146.248 34.1738 146.212 35.1155L144.8 34.5825C144.8 32.6991 144.942 30.9756 145.226 29.412C145.528 27.8307 145.972 26.4625 146.559 25.3076C147.145 24.135 147.847 23.2288 148.664 22.5891C149.499 21.9495 150.441 21.6297 151.489 21.6297C151.845 21.6297 152.218 21.6652 152.609 21.7363C153.017 21.7896 153.337 21.8607 153.568 21.9495ZM166.831 45.3232C167.523 45.3232 168.119 45.181 168.616 44.8967C169.131 44.6124 169.522 44.1505 169.789 43.5108C170.055 42.8712 170.198 42.045 170.215 41.0322H177.225C177.225 43.1999 176.763 45.0744 175.839 46.6558C174.933 48.2193 173.707 49.4275 172.161 50.2804C170.633 51.1155 168.9 51.533 166.964 51.533C165.027 51.533 163.339 51.2221 161.9 50.6002C160.461 49.9783 159.27 49.0722 158.329 47.8817C157.405 46.6913 156.703 45.2432 156.223 43.5375C155.761 41.814 155.53 39.8418 155.53 37.6208V35.5153C155.53 33.3298 155.761 31.3754 156.223 29.6519C156.703 27.9284 157.405 26.4714 158.329 25.281C159.27 24.0905 160.452 23.1844 161.873 22.5625C163.312 21.9406 165 21.6297 166.937 21.6297C169.016 21.6297 170.819 22.065 172.347 22.9356C173.875 23.7885 175.066 25.05 175.919 26.7202C176.789 28.3904 177.225 30.4514 177.225 32.9034H170.215C170.198 31.8018 170.064 30.8867 169.816 30.1583C169.585 29.412 169.22 28.8434 168.723 28.4525C168.243 28.0439 167.603 27.8396 166.804 27.8396C165.969 27.8396 165.294 28.0172 164.778 28.3726C164.281 28.7102 163.899 29.2077 163.632 29.8651C163.384 30.5047 163.215 31.3043 163.126 32.2638C163.037 33.2232 162.993 34.3071 162.993 35.5153V37.6208C162.993 38.9178 163.028 40.0461 163.099 41.0056C163.188 41.9473 163.357 42.7468 163.606 43.4042C163.872 44.0439 164.254 44.5236 164.752 44.8434C165.267 45.1632 165.96 45.3232 166.831 45.3232ZM180.226 37.5675V35.6219C180.226 33.3654 180.493 31.3665 181.026 29.6252C181.577 27.884 182.358 26.427 183.371 25.2543C184.384 24.0639 185.601 23.1666 187.022 22.5625C188.462 21.9406 190.07 21.6297 191.846 21.6297C193.641 21.6297 195.249 21.9406 196.67 22.5625C198.11 23.1666 199.336 24.0639 200.348 25.2543C201.379 26.427 202.17 27.884 202.72 29.6252C203.271 31.3665 203.547 33.3654 203.547 35.6219V37.5675C203.547 39.8062 203.271 41.7962 202.72 43.5375C202.17 45.2787 201.379 46.7446 200.348 47.935C199.336 49.1255 198.118 50.0228 196.697 50.6269C195.276 51.231 193.676 51.533 191.9 51.533C190.123 51.533 188.515 51.231 187.076 50.6269C185.654 50.0228 184.428 49.1255 183.398 47.935C182.367 46.7446 181.577 45.2787 181.026 43.5375C180.493 41.7962 180.226 39.8062 180.226 37.5675ZM187.689 35.6219V37.5675C187.689 38.9001 187.778 40.055 187.955 41.0322C188.151 42.0094 188.426 42.8179 188.781 43.4575C189.155 44.0972 189.599 44.568 190.114 44.8701C190.629 45.1721 191.224 45.3232 191.9 45.3232C192.575 45.3232 193.179 45.1721 193.712 44.8701C194.245 44.568 194.68 44.0972 195.018 43.4575C195.373 42.8179 195.631 42.0094 195.791 41.0322C195.969 40.055 196.057 38.9001 196.057 37.5675V35.6219C196.057 34.3248 195.96 33.1877 195.764 32.2105C195.569 31.2155 195.293 30.407 194.938 29.7851C194.583 29.1455 194.138 28.6658 193.605 28.3459C193.09 28.0084 192.504 27.8396 191.846 27.8396C191.189 27.8396 190.603 28.0084 190.087 28.3459C189.59 28.6658 189.155 29.1455 188.781 29.7851C188.426 30.407 188.151 31.2155 187.955 32.2105C187.778 33.1877 187.689 34.3248 187.689 35.6219ZM215.343 28.1327V51H207.854V22.1627H214.89L215.343 28.1327ZM214.304 35.5952L212.225 35.6485C212.189 33.623 212.367 31.7574 212.758 30.0517C213.149 28.3459 213.735 26.8623 214.517 25.6008C215.316 24.3393 216.32 23.362 217.529 22.6691C218.737 21.9762 220.149 21.6297 221.766 21.6297C222.814 21.6297 223.783 21.8251 224.671 22.216C225.56 22.5891 226.324 23.1844 226.963 24.0017C227.621 24.8012 228.127 25.8496 228.482 27.1466C228.856 28.4259 229.042 29.9628 229.042 31.7574V51H221.58V32.6635C221.58 31.3843 221.455 30.407 221.206 29.7318C220.958 29.0389 220.602 28.5592 220.14 28.2926C219.678 28.0084 219.11 27.8662 218.435 27.8662C217.724 27.8662 217.102 28.0617 216.569 28.4525C216.036 28.8434 215.601 29.3942 215.263 30.105C214.943 30.7979 214.695 31.6152 214.517 32.5569C214.357 33.4986 214.286 34.5114 214.304 35.5952ZM228.323 34.849L225.631 35.1955C225.595 33.2943 225.764 31.5264 226.137 29.8917C226.51 28.2393 227.088 26.8001 227.869 25.5742C228.651 24.3304 229.628 23.362 230.801 22.6691C231.992 21.9762 233.369 21.6297 234.932 21.6297C236.105 21.6297 237.171 21.8251 238.13 22.216C239.09 22.6069 239.907 23.2377 240.582 24.1083C241.275 24.9612 241.799 26.0894 242.155 27.4931C242.528 28.879 242.714 30.5847 242.714 32.6102V51H235.225V32.6369C235.225 31.3398 235.101 30.3448 234.852 29.6519C234.621 28.9589 234.266 28.4881 233.786 28.2393C233.324 27.9906 232.773 27.8662 232.134 27.8662C231.494 27.8662 230.934 28.0439 230.455 28.3992C229.993 28.7546 229.602 29.2521 229.282 29.8917C228.962 30.5314 228.722 31.2688 228.562 32.1039C228.402 32.9389 228.323 33.854 228.323 34.849Z" fill="#35363A"/>
<rect y="23.1121" width="31.7304" height="7.74559" rx="3.87279" fill="#FACA37"/>
<rect y="32.4189" width="31.7304" height="7.74559" rx="3.87279" fill="#F7A02F"/>
<rect y="41.7263" width="31.7304" height="7.74559" rx="3.87279" fill="#FACA37"/>
<path d="M163.731 67.7734C164.054 67.7734 164.347 67.7094 164.609 67.5815C164.877 67.4475 165.096 67.2404 165.266 66.9601C165.437 66.6738 165.535 66.3022 165.559 65.8453H167.076C167.051 66.5033 166.884 67.082 166.573 67.5815C166.269 68.075 165.867 68.4618 165.367 68.742C164.874 69.0161 164.328 69.1532 163.731 69.1532C163.092 69.1532 162.534 69.0497 162.059 68.8425C161.59 68.6354 161.2 68.3369 160.889 67.947C160.585 67.5511 160.356 67.0728 160.204 66.5124C160.052 65.9459 159.976 65.3032 159.976 64.5843V63.4695C159.976 62.7507 160.052 62.111 160.204 61.5506C160.356 60.984 160.585 60.5058 160.889 60.116C161.2 59.72 161.59 59.4184 162.059 59.2113C162.534 59.0042 163.092 58.9006 163.731 58.9006C164.401 58.9006 164.98 59.0438 165.468 59.3301C165.961 59.6103 166.345 60.0185 166.619 60.5546C166.899 61.0846 167.051 61.7273 167.076 62.4826H165.559C165.535 61.9953 165.446 61.5902 165.294 61.2673C165.142 60.9384 164.934 60.6947 164.673 60.5363C164.411 60.3718 164.097 60.2896 163.731 60.2896C163.305 60.2896 162.952 60.3657 162.671 60.518C162.397 60.6642 162.181 60.8774 162.023 61.1577C161.864 61.4379 161.751 61.7729 161.684 62.1628C161.624 62.5527 161.593 62.9883 161.593 63.4695V64.5843C161.593 65.0656 161.624 65.5042 161.684 65.9002C161.751 66.29 161.861 66.6251 162.013 66.9053C162.172 67.1855 162.391 67.4018 162.671 67.5541C162.952 67.7003 163.305 67.7734 163.731 67.7734ZM174.122 60.6368V68.9705H172.505V59.0834H174.067L174.122 60.6368ZM176.58 59.0286L176.589 60.6003C176.455 60.5698 176.333 60.5515 176.224 60.5454C176.12 60.5332 175.998 60.5272 175.858 60.5272C175.554 60.5272 175.286 60.5881 175.054 60.7099C174.829 60.8318 174.634 61.0023 174.469 61.2216C174.305 61.4409 174.174 61.7029 174.076 62.0075C173.979 62.306 173.912 62.6349 173.875 62.9944L173.455 63.2685C173.455 62.6715 173.501 62.111 173.592 61.5871C173.69 61.0632 173.839 60.6003 174.04 60.1982C174.241 59.79 174.497 59.4733 174.807 59.2479C175.124 59.0164 175.502 58.9006 175.941 58.9006C176.038 58.9006 176.157 58.9159 176.297 58.9463C176.443 58.9707 176.538 58.9981 176.58 59.0286ZM185.116 69.1532C184.525 69.1532 183.992 69.0649 183.517 68.8882C183.042 68.7116 182.637 68.4435 182.301 68.0841C181.966 67.7186 181.711 67.2586 181.534 66.7043C181.357 66.1499 181.269 65.4951 181.269 64.7397V63.6249C181.269 62.7537 181.369 62.0166 181.57 61.4135C181.778 60.8104 182.055 60.3261 182.402 59.9606C182.749 59.589 183.142 59.321 183.581 59.1565C184.019 58.9859 184.47 58.9006 184.933 58.9006C185.555 58.9006 186.085 59.0011 186.523 59.2022C186.962 59.4032 187.318 59.7017 187.592 60.0977C187.866 60.4937 188.067 60.981 188.195 61.5597C188.329 62.1385 188.396 62.8055 188.396 63.5609V64.5021H182.219V63.1223H186.779V62.8938C186.755 62.3821 186.685 61.9313 186.569 61.5415C186.459 61.1516 186.276 60.847 186.021 60.6277C185.765 60.4023 185.402 60.2896 184.933 60.2896C184.635 60.2896 184.357 60.3414 184.102 60.4449C183.852 60.5424 183.636 60.716 183.453 60.9658C183.276 61.2094 183.136 61.5475 183.033 61.9801C182.935 62.4126 182.886 62.9609 182.886 63.6249V64.7397C182.886 65.2697 182.935 65.7265 183.033 66.1103C183.136 66.488 183.285 66.8018 183.48 67.0515C183.681 67.2952 183.925 67.478 184.211 67.5998C184.504 67.7155 184.836 67.7734 185.207 67.7734C185.749 67.7734 186.197 67.6698 186.551 67.4627C186.904 67.2495 187.212 66.9784 187.473 66.6495L188.323 67.6638C188.147 67.9135 187.915 68.1542 187.629 68.3856C187.349 68.611 187.001 68.7968 186.587 68.943C186.179 69.0832 185.689 69.1532 185.116 69.1532ZM198.751 67.28V61.9161C198.751 61.5262 198.69 61.2125 198.568 60.9749C198.452 60.7373 198.275 60.5637 198.038 60.4541C197.806 60.3444 197.514 60.2896 197.161 60.2896C196.819 60.2896 196.524 60.3596 196.274 60.4997C196.031 60.6399 195.842 60.8257 195.708 61.0571C195.58 61.2886 195.516 61.5445 195.516 61.8247H193.898C193.898 61.4714 193.975 61.1211 194.127 60.7739C194.285 60.4266 194.511 60.1129 194.803 59.8327C195.095 59.5464 195.446 59.321 195.854 59.1565C196.268 58.9859 196.731 58.9006 197.243 58.9006C197.852 58.9006 198.391 59.0011 198.86 59.2022C199.329 59.3971 199.698 59.7169 199.966 60.1616C200.234 60.6064 200.368 61.1973 200.368 61.9344V66.8139C200.368 67.1429 200.392 67.4932 200.441 67.8648C200.496 68.2364 200.572 68.5562 200.67 68.8243V68.9705H198.997C198.918 68.7755 198.857 68.5166 198.815 68.1937C198.772 67.8648 198.751 67.5602 198.751 67.28ZM199.006 62.9761L199.025 64.164H197.901C197.517 64.164 197.167 64.2066 196.85 64.2919C196.539 64.3772 196.271 64.5021 196.046 64.6666C195.82 64.825 195.647 65.0229 195.525 65.2605C195.409 65.4981 195.351 65.7692 195.351 66.0738C195.351 66.4698 195.406 66.7865 195.516 67.0241C195.625 67.2556 195.79 67.4231 196.009 67.5267C196.229 67.6303 196.506 67.682 196.841 67.682C197.249 67.682 197.608 67.5876 197.919 67.3988C198.23 67.2099 198.47 66.9815 198.641 66.7134C198.818 66.4454 198.9 66.1956 198.888 65.9641L199.244 66.7226C199.22 66.9601 199.14 67.2191 199.006 67.4993C198.879 67.7734 198.699 68.0384 198.467 68.2943C198.236 68.544 197.962 68.7512 197.645 68.9156C197.334 69.074 196.984 69.1532 196.594 69.1532C196.021 69.1532 195.519 69.0436 195.086 68.8243C194.66 68.6049 194.328 68.2821 194.09 67.8557C193.853 67.4292 193.734 66.9023 193.734 66.2748C193.734 65.7997 193.816 65.361 193.981 64.959C194.145 64.5569 194.389 64.2097 194.712 63.9173C195.035 63.6188 195.44 63.3873 195.927 63.2228C196.42 63.0583 196.99 62.9761 197.636 62.9761H199.006ZM210.046 59.0834V60.381H205.431V59.0834H210.046ZM206.939 56.6802H208.557V66.5215C208.557 66.8566 208.596 67.1094 208.675 67.28C208.761 67.4505 208.867 67.5632 208.995 67.6181C209.123 67.6729 209.26 67.7003 209.406 67.7003C209.516 67.7003 209.638 67.6881 209.772 67.6638C209.906 67.6333 209.997 67.6089 210.046 67.5907L210.037 68.9705C209.927 69.0131 209.781 69.0527 209.598 69.0893C209.415 69.1319 209.184 69.1532 208.904 69.1532C208.557 69.1532 208.234 69.071 207.935 68.9065C207.637 68.742 207.396 68.4679 207.213 68.0841C207.03 67.6942 206.939 67.1703 206.939 66.5124V56.6802ZM217.266 59.0834V68.9705H215.658V59.0834H217.266ZM215.566 56.4608C215.566 56.1867 215.642 55.9552 215.795 55.7664C215.947 55.5775 216.175 55.4831 216.48 55.4831C216.785 55.4831 217.013 55.5775 217.165 55.7664C217.324 55.9552 217.403 56.1867 217.403 56.4608C217.403 56.7228 217.324 56.9482 217.165 57.137C217.013 57.3198 216.785 57.4112 216.48 57.4112C216.175 57.4112 215.947 57.3198 215.795 57.137C215.642 56.9482 215.566 56.7228 215.566 56.4608ZM223.042 64.5021V63.5609C223.042 62.7933 223.14 62.1202 223.334 61.5415C223.529 60.9566 223.8 60.4693 224.148 60.0794C224.495 59.6895 224.9 59.3971 225.363 59.2022C225.826 59.0011 226.323 58.9006 226.853 58.9006C227.395 58.9006 227.897 59.0011 228.36 59.2022C228.823 59.3971 229.228 59.6895 229.576 60.0794C229.929 60.4693 230.203 60.9566 230.398 61.5415C230.593 62.1202 230.69 62.7933 230.69 63.5609V64.5021C230.69 65.2697 230.593 65.9459 230.398 66.5307C230.203 67.1094 229.932 67.5937 229.585 67.9836C229.237 68.3735 228.832 68.6659 228.369 68.8608C227.906 69.0557 227.407 69.1532 226.871 69.1532C226.335 69.1532 225.835 69.0557 225.372 68.8608C224.909 68.6659 224.501 68.3735 224.148 67.9836C223.8 67.5937 223.529 67.1094 223.334 66.5307C223.14 65.9459 223.042 65.2697 223.042 64.5021ZM224.659 63.5609V64.5021C224.659 65.0443 224.714 65.5194 224.824 65.9276C224.934 66.3357 225.089 66.6769 225.29 66.951C225.491 67.2251 225.726 67.4323 225.994 67.5724C226.262 67.7064 226.554 67.7734 226.871 67.7734C227.236 67.7734 227.556 67.7064 227.83 67.5724C228.11 67.4323 228.342 67.2251 228.525 66.951C228.707 66.6769 228.845 66.3357 228.936 65.9276C229.027 65.5194 229.073 65.0443 229.073 64.5021V63.5609C229.073 63.0187 229.018 62.5466 228.909 62.1445C228.799 61.7364 228.644 61.3952 228.442 61.1211C228.241 60.8409 228.004 60.6338 227.73 60.4997C227.462 60.3596 227.169 60.2896 226.853 60.2896C226.542 60.2896 226.252 60.3596 225.984 60.4997C225.716 60.6338 225.482 60.8409 225.281 61.1211C225.086 61.3952 224.934 61.7364 224.824 62.1445C224.714 62.5466 224.659 63.0187 224.659 63.5609ZM237.947 61.1942V68.9705H236.329V59.0834H237.855L237.947 61.1942ZM237.554 63.6523L236.896 63.6249C236.89 62.9487 236.966 62.3243 237.124 61.7516C237.289 61.1729 237.52 60.6703 237.819 60.2439C238.124 59.8175 238.486 59.4885 238.906 59.257C239.327 59.0194 239.793 58.9006 240.304 58.9006C240.706 58.9006 241.072 58.9676 241.401 59.1017C241.73 59.2296 242.01 59.4367 242.242 59.723C242.473 60.0094 242.65 60.381 242.772 60.8378C242.9 61.2886 242.964 61.84 242.964 62.4918V68.9705H241.346V62.4735C241.346 61.9557 241.288 61.5415 241.173 61.2308C241.063 60.914 240.892 60.6855 240.661 60.5454C240.435 60.3992 240.149 60.3261 239.802 60.3261C239.485 60.3261 239.19 60.4145 238.915 60.5911C238.641 60.7678 238.401 61.0115 238.194 61.3221C237.993 61.6328 237.834 61.9892 237.718 62.3913C237.609 62.7872 237.554 63.2076 237.554 63.6523Z" fill="#F7A02F"/>
</svg>
