<svg width="25" height="24" viewBox="0 0 25 24" fill="none" xmlns="http://www.w3.org/2000/svg">
<path d="M10.0077 13.3358L8.03825 8.64379L6.01775 13.3358H10.0077ZM15.05 18.219H9.74825V17.1953L10.0917 17.178C10.3439 17.1955 10.596 17.1436 10.8207 17.028C10.854 17.0069 10.8813 16.9778 10.9003 16.9433C10.9193 16.9088 10.9294 16.8701 10.9295 16.8308C10.8876 16.465 10.7812 16.1095 10.6153 15.7808L10.0063 14.3325H5.9915L5.3 15.9443C5.16038 16.2151 5.07166 16.5092 5.03825 16.812C5.03825 16.839 5.03825 16.9013 5.15375 16.9928C5.43152 17.1277 5.73849 17.1914 6.047 17.178L6.383 17.2028V18.2183H2V17.2358L2.3 17.1833C2.56564 17.1658 2.82305 17.0839 3.05 16.9448C3.44047 16.489 3.74079 15.9632 3.935 15.3953L8.11625 5.61829H8.9L13.034 15.4988C13.2003 16.0061 13.468 16.4743 13.8207 16.875C14.0773 17.0702 14.3909 17.1757 14.7133 17.175L15.0538 17.1953L15.05 18.219Z" fill="#86969D"/>
<path d="M19.881 16.17V13.1813C19.3118 13.3936 18.7545 13.6365 18.2115 13.9088C17.8354 14.0976 17.5052 14.3663 17.244 14.6963C17.0539 14.9578 16.952 15.273 16.953 15.5963C16.9402 15.9714 17.072 16.3371 17.3213 16.6178C17.4244 16.7433 17.5536 16.8448 17.7 16.9153C17.8464 16.9858 18.0063 17.0235 18.1688 17.0258C18.8154 16.9279 19.4146 16.6284 19.881 16.17ZM17.3813 18.3818C17.0818 18.3896 16.784 18.3339 16.5075 18.2185C16.231 18.1031 15.9821 17.9305 15.777 17.712C15.3518 17.245 15.1273 16.6294 15.1523 15.9983C15.1432 15.5827 15.251 15.1729 15.4635 14.8155C15.8048 14.3055 16.266 13.887 16.8068 13.5968C17.6766 13.1255 18.5839 12.7272 19.5195 12.4058V12.3503C19.5781 11.8729 19.4771 11.3895 19.2323 10.9755C19.1298 10.8667 19.004 10.7824 18.8645 10.7289C18.7249 10.6754 18.575 10.6541 18.426 10.6665C18.2046 10.6507 17.9855 10.7205 17.814 10.8615C17.7511 10.9083 17.6997 10.9689 17.6636 11.0385C17.6276 11.1082 17.608 11.1851 17.6063 11.2635L17.6235 11.748C17.6411 12.0657 17.5333 12.3775 17.3235 12.6165C17.2194 12.7194 17.0959 12.8006 16.9603 12.8556C16.8246 12.9106 16.6794 12.9382 16.5331 12.9369C16.3867 12.9355 16.242 12.9053 16.1074 12.8479C15.9728 12.7905 15.8508 12.707 15.7485 12.6023C15.5465 12.3662 15.4417 12.0622 15.4553 11.7518C15.4679 11.4299 15.5544 11.1152 15.7081 10.8321C15.8619 10.5489 16.0787 10.305 16.3418 10.119C17.0179 9.62041 17.8467 9.37322 18.6855 9.42004C19.335 9.39768 19.9803 9.5325 20.5665 9.81304C20.9798 10.0311 21.3023 10.3888 21.4763 10.8225C21.6328 11.3577 21.6947 11.9161 21.6593 12.4725V15.135C21.6459 15.5727 21.6587 16.0107 21.6975 16.4468C21.703 16.4986 21.7167 16.5492 21.738 16.5968C21.8018 16.5383 21.951 16.428 22.386 15.9923L23.0003 15.3713V16.8465L22.9253 16.9425C22.2068 17.9048 21.513 18.3728 20.8028 18.3728C20.6245 18.3776 20.4473 18.3426 20.2842 18.2703C20.1212 18.1981 19.9762 18.0904 19.86 17.955C19.7286 17.7934 19.6367 17.6034 19.5915 17.4C19.2559 17.6759 18.8962 17.9212 18.5168 18.1328C18.161 18.2977 17.7734 18.3827 17.3813 18.3818Z" fill="#86969D"/>
</svg>
