<svg width="32" height="33" viewBox="0 0 32 33" fill="none" xmlns="http://www.w3.org/2000/svg">
<path d="M15.9998 24.7663C18.9454 24.7663 21.3332 22.3785 21.3332 19.4329C21.3332 16.4874 18.9454 14.0996 15.9998 14.0996C13.0543 14.0996 10.6665 16.4874 10.6665 19.4329C10.6665 22.3785 13.0543 24.7663 15.9998 24.7663Z" stroke="#58C1EE" stroke-width="1.5" stroke-miterlimit="10" stroke-linecap="round" stroke-linejoin="round"/>
<path d="M16.3332 17.7666V19.0066C16.3332 19.4733 16.0932 19.9133 15.6798 20.1533L14.6665 20.7666" stroke="#58C1EE" stroke-width="1.5" stroke-miterlimit="10" stroke-linecap="round" stroke-linejoin="round"/>
<path d="M10.6668 29.8333H21.3334C26.6934 29.8333 27.6534 27.6867 27.9334 25.0733L28.9334 14.4067C29.2934 11.1533 28.3601 8.5 22.6668 8.5H9.33343C3.64009 8.5 2.70676 11.1533 3.06676 14.4067L4.06676 25.0733C4.34676 27.6867 5.30676 29.8333 10.6668 29.8333Z" stroke="#58C1EE" stroke-width="1.5" stroke-miterlimit="10" stroke-linecap="round" stroke-linejoin="round"/>
<path d="M10.6665 8.50033V7.43366C10.6665 5.07366 10.6665 3.16699 14.9332 3.16699H17.0665C21.3332 3.16699 21.3332 5.07366 21.3332 7.43366V8.50033" stroke="#58C1EE" stroke-width="1.5" stroke-miterlimit="10" stroke-linecap="round" stroke-linejoin="round"/>
<path d="M28.8667 15.167C26.56 16.847 24 18.0203 21.3467 18.687" stroke="#58C1EE" stroke-width="1.5" stroke-miterlimit="10" stroke-linecap="round" stroke-linejoin="round"/>
<path d="M3.49316 15.5264C5.71983 17.0464 8.1465 18.1264 10.6665 18.7397" stroke="#58C1EE" stroke-width="1.5" stroke-miterlimit="10" stroke-linecap="round" stroke-linejoin="round"/>
</svg>
