<svg width="64" height="64" viewBox="0 0 64 64" fill="none" xmlns="http://www.w3.org/2000/svg">
<rect width="64" height="64" rx="8" fill="#5EAD56" fill-opacity="0.1"/>
<path d="M32.0007 32.0003C35.6825 32.0003 38.6673 29.0156 38.6673 25.3337C38.6673 21.6518 35.6825 18.667 32.0007 18.667C28.3188 18.667 25.334 21.6518 25.334 25.3337C25.334 29.0156 28.3188 32.0003 32.0007 32.0003Z" stroke="#5EAD56" stroke-width="2" stroke-linecap="round" stroke-linejoin="round"/>
<path d="M20.5469 45.3333C20.5469 40.1733 25.6802 36 32.0002 36C33.2802 36 34.5202 36.1733 35.6802 36.4933" stroke="#5EAD56" stroke-width="2" stroke-linecap="round" stroke-linejoin="round"/>
<path d="M45.3346 39.9993C45.3346 40.9993 45.0547 41.946 44.5613 42.746C44.2813 43.226 43.9213 43.6527 43.508 43.9993C42.5746 44.8393 41.348 45.3327 40.0013 45.3327C38.0546 45.3327 36.3613 44.2927 35.4413 42.746C34.948 41.946 34.668 40.9993 34.668 39.9993C34.668 38.3193 35.4413 36.8127 36.668 35.8394C37.588 35.106 38.748 34.666 40.0013 34.666C42.948 34.666 45.3346 37.0527 45.3346 39.9993Z" stroke="#5EAD56" stroke-width="2" stroke-miterlimit="10" stroke-linecap="round" stroke-linejoin="round"/>
<path d="M37.9199 39.999L39.2399 41.319L42.0799 38.6924" stroke="#5EAD56" stroke-width="2" stroke-linecap="round" stroke-linejoin="round"/>
</svg>
