<svg width="24" height="25" viewBox="0 0 24 25" fill="none" xmlns="http://www.w3.org/2000/svg">
<path d="M8.00007 22.2785H16.0001C20.0201 22.2785 20.7401 20.6602 20.9501 18.6901L21.7001 10.6489C21.9701 8.1963 21.2701 6.19604 17.0001 6.19604H7.00007C2.73007 6.19604 2.03007 8.1963 2.30007 10.6489L3.05007 18.6901C3.26007 20.6602 3.98007 22.2785 8.00007 22.2785Z" stroke="white" stroke-width="1.5" stroke-miterlimit="10" stroke-linecap="round" stroke-linejoin="round"/>
<path d="M8 6.19591V5.39179C8 3.61266 8 2.17529 11.2 2.17529H12.8C16 2.17529 16 3.61266 16 5.39179V6.19591" stroke="white" stroke-width="1.5" stroke-miterlimit="10" stroke-linecap="round" stroke-linejoin="round"/>
<path d="M14 13.232V14.2371C14 14.2472 14 14.2472 14 14.2572C14 15.3528 13.99 16.2474 12 16.2474C10.02 16.2474 10 15.3629 10 14.2673V13.232C10 12.2268 10 12.2268 11 12.2268H13C14 12.2268 14 12.2268 14 13.232Z" stroke="white" stroke-width="1.5" stroke-miterlimit="10" stroke-linecap="round" stroke-linejoin="round"/>
<path d="M21.65 11.2217C19.34 12.9103 16.7 13.9155 14 14.2572" stroke="white" stroke-width="1.5" stroke-miterlimit="10" stroke-linecap="round" stroke-linejoin="round"/>
<path d="M2.62012 11.4932C4.87012 13.0411 7.41012 13.9759 10.0001 14.2674" stroke="white" stroke-width="1.5" stroke-miterlimit="10" stroke-linecap="round" stroke-linejoin="round"/>
</svg>
