<svg width="32" height="32" viewBox="0 0 32 32" fill="none" xmlns="http://www.w3.org/2000/svg">
<g id="vuesax/linear/cake">
<g id="cake">
<path id="Vector" d="M2.6665 29.3334H29.3332" stroke="#F1A5C9" stroke-width="1.8" stroke-linecap="round" stroke-linejoin="round"/>
<path id="Vector_2" d="M4.14648 29.3334V17.3334C4.14648 15.12 6.13315 13.3334 8.58648 13.3334H23.3998C25.8531 13.3334 27.8398 15.12 27.8398 17.3334V29.3334" stroke="#F1A5C9" stroke-width="1.8" stroke-linecap="round" stroke-linejoin="round"/>
<path id="Vector_3" d="M7.41357 13.3333V9.55996C7.41357 7.95996 8.85357 6.66663 10.6402 6.66663H21.3736C23.1469 6.66663 24.5869 7.95996 24.5869 9.55996V13.3333" stroke="#F1A5C9" stroke-width="1.8" stroke-linecap="round" stroke-linejoin="round"/>
<path id="Vector_4" d="M4.70654 18.64L5.19988 18.6533C6.18654 18.6667 6.97321 19.4667 6.97321 20.4533V20.8933C6.97321 21.88 7.77321 22.6933 8.77321 22.6933C9.75988 22.6933 10.5732 21.8933 10.5732 20.8933V20.48C10.5732 19.4933 11.3732 18.68 12.3732 18.68C13.3599 18.68 14.1732 19.48 14.1732 20.48V20.8933C14.1732 21.88 14.9732 22.6933 15.9732 22.6933C16.9599 22.6933 17.7732 21.8933 17.7732 20.8933V20.48C17.7732 19.4933 18.5732 18.68 19.5732 18.68C20.5599 18.68 21.3732 19.48 21.3732 20.48V20.8933C21.3732 21.88 22.1732 22.6933 23.1732 22.6933C24.1599 22.6933 24.9732 21.8933 24.9732 20.8933V20.48C24.9732 19.4933 25.7732 18.68 26.7732 18.68H27.3732" stroke="#F1A5C9" stroke-width="1.8" stroke-linecap="round" stroke-linejoin="round"/>
<path id="Vector_5" d="M10.6665 6.66667V4" stroke="#F1A5C9" stroke-width="1.8" stroke-linecap="round" stroke-linejoin="round"/>
<path id="Vector_6" d="M21.3335 6.66667V4" stroke="#F1A5C9" stroke-width="1.8" stroke-linecap="round" stroke-linejoin="round"/>
<path id="Vector_7" d="M16 6.66663V2.66663" stroke="#F1A5C9" stroke-width="1.8" stroke-linecap="round" stroke-linejoin="round"/>
</g>
</g>
</svg>
