<svg width="226" height="162" viewBox="0 0 226 162" fill="none" xmlns="http://www.w3.org/2000/svg">
<g filter="url(#filter0_d_9266_45887)">
<path d="M47.8194 0.683295C47.1904 1.32322 47.1368 1.60914 47.1368 3.86929C47.1368 5.24444 47.525 10.5817 47.9934 15.7691C48.4619 20.9566 48.743 25.2726 48.6091 25.3815C48.4753 25.4905 47.5517 25.8036 46.5747 26.0759C42.5325 27.1788 39.0793 29.4525 38.0085 31.7127C36.5764 34.7217 38.1424 38.5612 41.3681 39.9364C42.9474 40.6171 46.6416 40.5354 48.1273 39.8002C51.0853 38.3434 52.919 34.3949 53.4543 28.4042L53.6551 26.1712L55.0605 25.6947C57.2556 24.9322 58.768 24.0609 60.16 22.7129L61.4583 21.4739L61.7929 25.7764C62.1945 30.9638 62.7298 33.7278 63.7872 36.0696C64.7777 38.2481 65.6075 39.1058 67.0932 39.5143C69.4891 40.1678 71.5369 38.9424 72.969 35.9879C73.4509 34.994 73.8926 34.1634 73.9327 34.1634C73.9729 34.1634 74.2673 34.5991 74.602 35.1301C75.5389 36.6823 76.7033 37.2541 78.9252 37.2541C80.7722 37.2541 80.8124 37.2405 81.9367 36.056C82.6595 35.2935 83.3689 34.0954 83.8775 32.7747L84.6805 30.6915L85.1624 32.2709C85.7781 34.3132 87.2236 36.6142 88.3345 37.295C89.3919 37.9485 92.0287 38.0166 93.1664 37.4175C93.6214 37.1861 94.197 36.6551 94.5182 36.2194L95.067 35.4433L95.0937 39.5551C95.1339 45.2872 96.0307 52.0132 96.8337 52.5306C97.3825 52.8846 98.547 52.8301 99.1091 52.4216C99.5508 52.0949 99.6445 51.278 99.8453 45.5731C100.22 35.4705 101.21 30.4056 103.807 25.2999C104.972 23.0125 107.394 20.0171 107.782 20.3983C108.211 20.8204 108.211 23.6388 107.796 25.4905C107.006 28.9352 106.377 30.0652 104.69 31.0319C103.633 31.631 103.124 32.1211 103.004 32.6521C102.71 33.8367 103.191 34.2996 104.798 34.3813C106.564 34.4766 107.568 33.9728 109.549 31.985C110.392 31.1408 112.092 29.7793 113.297 28.976C114.595 28.1182 116 26.8928 116.696 26.0351L117.874 24.551L117.74 25.7492C117.674 26.4027 117.419 30.3103 117.192 34.4221C116.67 43.7487 116.643 51.1282 117.098 51.6047C117.473 51.986 119.213 52.054 119.708 51.7136C120.591 51.1146 122.117 41.897 123.027 31.631C123.161 30.1469 123.456 29.0305 123.991 27.9276C125.048 25.7764 127.23 23.1622 128.635 22.3589L129.773 21.7054L130.242 22.427C131.286 24.0336 130.938 27.0835 129.358 30.2558C128.809 31.3587 128.488 31.6582 127.605 31.8897C124.352 32.7747 124.138 35.5522 127.31 35.5522C128.89 35.5522 130.041 35.0484 131.46 33.7414C132.008 33.224 133.119 32.6249 134.029 32.3526C134.899 32.0803 136.251 31.4268 137.041 30.8821C137.831 30.3375 138.513 29.9018 138.58 29.9018C138.634 29.9018 138.687 30.1741 138.687 30.4873C138.687 31.4268 139.999 33.7686 140.882 34.4085C142.435 35.525 145.554 35.7292 147.334 34.817C148.324 34.3132 149.676 32.6658 150.104 31.454C150.292 30.923 150.559 30.4601 150.68 30.4601C150.8 30.4601 150.907 31.6718 150.907 33.1423V35.8245L147.213 39.5824C142.957 43.8984 141.926 45.5867 141.913 48.2826C141.913 49.1403 142.087 50.2296 142.315 50.6516C143.278 52.4897 146.531 53.0616 148.967 51.7953C152.38 50.039 154.548 45.0557 155.538 36.6959C155.927 33.401 155.94 32.2028 155.659 27.9821C155.07 19.2138 154.588 17.9067 151.938 17.9884C150.827 18.0156 150.359 18.5466 150.359 19.7584C150.359 22.7674 147.508 30.5281 145.808 32.1484L145.098 32.8291L144.737 32.0122C144.483 31.4268 144.376 29.3436 144.362 24.6872C144.349 17.1034 144.362 17.3621 143.814 16.8175C143.292 16.2865 140.815 16.2184 140.401 16.7358C140.24 16.9264 139.798 18.533 139.41 20.2894C138.567 24.0745 137.295 26.7431 135.448 28.5403C134.766 29.2075 134.257 29.5887 134.337 29.3436C135.555 26.0895 135.662 23.2303 134.632 21.7871C133.775 20.5889 131.901 19.7448 130.108 19.7584C128.127 19.772 126.427 20.5481 124.767 22.2092L123.442 23.5299V21.7871C123.442 17.648 122.465 15.7963 120.297 15.7963C118.851 15.7963 118.597 16.0414 117.914 18.0837C116.924 21.0382 114.595 24.9186 113.029 26.2393C112.587 26.6069 112.574 26.5525 112.788 25.5313C113.23 23.3801 113.069 20.8204 112.4 19.7312C111.222 17.7842 108.492 17.2804 106.002 18.533C104.423 19.3227 103.245 20.6706 101.947 23.1759L101.09 24.8097L101.197 21.188C101.304 17.6616 101.291 17.5663 100.648 17.1034C99.8854 16.5588 97.9447 16.5043 97.262 17.0217C96.6999 17.4438 96.1779 20.2077 95.6693 25.4224C95.4819 27.3558 95.1473 29.3164 94.9331 29.7793C94.304 31.0728 91.1721 35.8518 90.9579 35.8518C90.8508 35.8518 90.6367 35.4978 90.4761 35.0757C89.4588 32.4343 89.3651 29.8065 90.0076 22.7402C90.6099 16.1231 90.2887 14.9658 87.8661 14.9658C87.3173 14.9658 86.4205 14.7071 85.9387 14.4076C84.5065 13.5226 81.0266 13.6043 79.1259 14.571C75.5121 16.3954 72.6746 21.8143 72.6746 26.8792C72.6746 28.5675 72.514 29.1666 71.229 32.1211C69.8772 35.2391 68.6726 37.5537 68.3915 37.5537C68.3112 37.5537 68.0435 37.1452 67.7758 36.6414C67.0664 35.3208 66.9594 25.9942 67.5215 16.4771C68.2309 4.69982 68.0837 1.24152 66.8657 0.587987C66.1697 0.206758 64.5635 0.220373 63.7203 0.601603C63.1849 0.84668 62.9574 1.26875 62.7165 2.50775C62.1275 5.50313 61.8598 7.74966 61.6859 11.4258C61.5119 15.0339 61.4851 15.1564 60.3072 17.5255C58.9956 20.1532 57.0146 22.3453 54.9802 23.4073L53.8157 24.0064V21.6646C53.8157 15.5921 52.6646 2.41244 52.0222 1.15983C51.5403 0.220373 51.0853 0.00252689 49.613 0.00252689C48.7965 -0.0247038 48.328 0.165911 47.8194 0.683295ZM84.6002 16.8583L85.4301 17.6344L84.3058 21.4195C82.8335 26.3891 81.4415 30.1469 80.1967 32.5705L79.1929 34.5311L78.8583 33.401C78.189 31.1136 78.6307 25.5313 79.7818 21.8416C80.6786 18.9687 82.5658 16.0686 83.5161 16.0686C83.6499 16.0823 84.1452 16.4363 84.6002 16.8583ZM48.6894 29.7112C48.3548 33.7686 47.3644 36.5189 45.7314 37.9213C44.7811 38.7382 44.219 38.711 42.9341 37.7851C41.7964 36.9682 40.6587 34.3949 40.8728 33.1559C41.087 31.985 42.3719 30.4056 43.9379 29.4117C44.8079 28.8535 48.2344 27.4238 48.7697 27.383C48.8367 27.383 48.7965 28.4178 48.6894 29.7112ZM150.238 42.9181C149.556 46.1994 148.016 49.4263 146.678 50.3657C146.102 50.7742 146.009 50.7742 145.701 50.3385C144.684 48.9089 145.982 45.4778 148.619 42.6458C149.542 41.6519 150.385 40.8758 150.466 40.9575C150.559 41.0256 150.452 41.9106 150.238 42.9181Z" fill="white"/>
<path d="M104.25 68.0543C101.401 69.4467 98.4094 73.637 96.5444 78.8813C95.599 81.536 94.3039 87.8995 93.9542 91.6473C93.7988 93.339 93.4232 95.9156 93.1254 97.3731C92.3613 101.121 89.5768 109.606 88.2946 112.065C87.2456 114.095 85.549 116.177 84.9403 116.177C83.8784 116.177 82.3372 112.937 81.7285 109.449C81.3659 107.328 81.3011 105.676 81.4177 99.9888C81.5342 94.263 82.389 82.6682 82.7905 81.484C82.8423 81.3148 83.8654 81.1066 85.0439 81.0155C87.1161 80.8593 90.1337 79.9484 91.4677 79.0765C92.3483 78.5039 92.2577 77.4499 91.2604 76.5129C90.574 75.8622 90.1855 75.7191 89.1624 75.7191C87.8802 75.7321 84.5389 76.1485 83.6841 76.4218C83.2697 76.5519 83.2178 76.2787 83.2178 73.4288C83.2178 69.4467 82.907 68.731 81.1457 68.718C79.6045 68.705 78.8663 70.1494 78.0245 74.8212L77.6878 76.6691H71.6526C66.3815 76.6691 65.5138 76.7341 64.7497 77.1506C64.1669 77.4759 63.882 77.8272 63.882 78.2697C63.882 79.3758 64.3741 79.5059 67.7932 79.3498C70.5 79.2197 71.4324 79.2977 73.9449 79.8313L76.8978 80.4559L76.8848 81.6661C76.8719 82.3298 76.7294 84.6592 76.5481 86.8454C76.3668 89.0446 76.2243 93.0657 76.2243 95.8376V100.861L74.3594 106.365C72.5462 111.714 70.9791 115.227 70.4482 115.188C69.3862 115.11 68.894 107.901 69.5934 102.709C69.8265 100.991 70.2539 98.232 70.5647 96.5273C70.8626 94.8355 71.1087 92.9616 71.1087 92.35C71.1087 89.7474 69.2178 88.1337 66.1484 88.1337C64.6202 88.1337 62.4315 88.407 60.9033 88.7844C60.3334 88.9275 60.178 88.8234 59.8672 88.1077C58.87 85.8434 56.3575 84.1517 54.5184 84.49C53.0161 84.7763 52.1743 85.3229 51.6951 86.3249C50.3741 89.1227 52.1484 91.335 56.1114 91.8165L57.8209 92.0247L57.9116 93.8986C58.2483 101.147 54.5443 112.547 50.5684 116.542L49.8042 117.309L49.2344 116.594C48.5221 115.696 47.8875 113.666 47.486 111.05C47.1104 108.578 47.2918 97.23 47.7968 92.5712C47.9911 90.8014 48.0559 89.0056 47.9652 88.6152C47.7062 87.6132 46.1003 87.1057 44.5979 87.5611C43.6914 87.8344 43.4583 88.0817 42.8755 89.422C42.3186 90.6973 41.3472 91.8165 37.2029 95.9547L32.2038 100.952L30.4036 99.0518C27.2436 95.7074 23.8375 93.7685 19.2399 92.6753L16.6497 92.0507L17.6728 90.9706C20.6386 87.8474 23.0604 84.1126 24.1871 80.9504C25.0031 78.6341 25.016 75.2376 24.2001 73.4288C23.4619 71.7631 21.9596 70.1494 20.535 69.4858C19.2787 68.9002 16.6756 68.8091 15.2639 69.2775C13.0234 70.0323 10.9512 72.2966 9.12512 75.9663C8.10199 78.0224 6.44426 82.6421 6.43131 83.488C6.41836 84.5811 5.96508 83.0195 5.79671 81.2757C5.31753 76.3698 4.15194 71.2035 3.32307 70.3837C2.64962 69.707 1.40632 69.5638 0.4868 70.0583C-0.0700933 70.3576 -0.0700924 70.4618 0.0982708 79.1676C0.370242 92.7274 0.875333 100.626 1.87256 107.276C2.57191 111.974 3.94472 118.116 4.3462 118.376C4.52752 118.494 5.03261 118.585 5.49884 118.585C7.18247 118.585 7.10477 119.118 7.10477 106.821V95.5382L8.71069 95.4992C9.65612 95.4732 10.9642 95.2129 11.8837 94.8616C13.0881 94.3931 13.7357 94.302 14.6941 94.4451C19.0974 95.1218 23.4489 98.271 25.9873 102.63C27.3213 104.921 27.3083 105.103 25.8319 106.196C24.0576 107.51 20.8717 109.527 16.8828 111.87C15.0437 112.95 12.8032 114.329 11.9225 114.915C5.75786 119.053 3.97062 123.881 7.23428 127.603C10.6274 131.481 18.1908 131.767 25.0678 128.267C30.2353 125.638 34.1206 121.005 35.2732 116.086C36.0762 112.664 35.584 107.523 34.1983 104.83C33.8227 104.088 33.8357 104.062 36.0373 101.824C37.2547 100.587 39.0161 98.7135 39.9226 97.6854L41.5804 95.8115V99.8977C41.5804 109.71 44.3001 117.934 47.9523 119.144C50.2964 119.925 53.1974 118.754 55.0753 116.294C56.3963 114.551 58.0152 111.44 59.0124 108.721C60.6572 104.218 61.6674 97.2039 61.2011 93.5082C61.0587 92.4021 60.9939 91.4521 61.0457 91.4C61.3566 91.0877 65.1253 90.372 65.3455 90.5802C65.6304 90.8535 65.2807 93.8465 64.4259 98.4922C62.9754 106.326 63.7007 113.067 66.3427 116.268C67.3917 117.544 68.5185 118.038 70.3316 118.038C71.9634 118.038 72.8829 117.596 74.0615 116.268C74.8904 115.318 76.5869 111.948 76.9366 110.569C77.1438 109.723 77.3381 110.009 78.1929 112.39C79.6693 116.503 81.5342 118.064 84.9792 118.051C87.3363 118.038 88.5925 117.479 90.2243 115.709C91.5195 114.303 93.0865 111.492 93.6823 109.488L94.0319 108.33L94.6536 111.362C95.0033 113.028 95.4695 114.577 95.6897 114.811C96.1948 115.318 98.3317 115.383 98.8109 114.889C99.044 114.655 99.1346 113.939 99.0958 112.807C99.0051 110.529 99.7045 105.871 100.559 103.125C100.935 101.928 101.777 99.9107 102.424 98.6744C103.642 96.3321 106.128 92.9746 106.633 92.9746C106.931 92.9746 106.828 96.7224 106.31 104.582C105.934 110.386 106.556 114.837 108.2 118.103C108.757 119.196 109.146 119.418 110.544 119.405C112.772 119.391 114.054 117.687 115.803 112.429L116.657 109.866L116.981 111.479C117.603 114.616 119.325 117.322 121.359 118.363C122.498 118.949 124.855 119.066 126.086 118.598C128.352 117.739 130.45 114.238 132.483 107.966C132.976 106.456 133.118 106.196 133.222 106.73C134.491 113.379 135.488 116.229 137.249 118.246C138.583 119.769 139.62 120.25 141.536 120.237C144.398 120.224 146.652 117.778 148.465 112.716L149.087 110.998L149.799 112.56C151.12 115.488 152.791 116.854 155.433 117.166C158.8 117.57 161.39 115.618 163.087 111.401L163.67 109.957L164.252 112.195C165.016 115.071 166.13 117.049 167.555 117.999C168.5 118.637 168.967 118.754 170.495 118.754C173.059 118.754 174.225 117.908 175.714 114.98C176.31 113.796 176.893 112.508 176.996 112.143C177.164 111.518 177.229 111.597 177.877 112.95C179.34 116.086 180.881 117.244 183.601 117.257C186.256 117.27 187.81 116.008 189.494 112.494C190.077 111.284 190.634 110.36 190.737 110.464C191.152 110.881 190.685 118.611 190.051 121.851C189.895 122.671 189.533 124.167 189.248 125.169C188.665 127.225 188.924 127.069 184.145 128.058C180.972 128.722 178.55 129.021 172.515 129.555C164.537 130.245 160.846 130.973 156.844 132.639C152.959 134.253 149.566 137.285 148.452 140.148C147.546 142.464 147.584 145.756 148.53 147.799C149.773 150.493 152.596 152.614 156.197 153.551C158.437 154.137 163.89 154.15 166.325 153.59C169.2 152.914 173.383 151.144 176.271 149.374C183.394 145.015 188.833 139.094 192.524 131.689L194.143 128.423L196.746 127.395C208.558 122.71 215.15 116.398 217.351 107.615C217.895 105.454 217.999 104.426 217.999 100.809C218.012 98.4662 217.895 96.2279 217.753 95.8506C217.429 95.0177 215.875 94.6403 214.904 95.1609C214.127 95.5773 214.088 95.7204 212.663 102.604C212.08 105.454 211.226 108.76 210.759 109.983C208.674 115.422 204.53 119.691 197.77 123.348L195.361 124.649L195.529 123.868C195.62 123.439 195.956 121.929 196.267 120.511C197.135 116.594 197.239 109.645 196.565 99.3381C195.943 89.7604 195.918 89.6823 193.807 89.5391C193.146 89.5001 192.434 89.6172 192.175 89.8124C191.54 90.2939 190.944 92.8315 190.608 96.4752C190.413 98.6094 190.128 99.9627 189.688 100.965C189.338 101.746 188.432 104.062 187.655 106.118C186.088 110.334 184.275 114.303 183.925 114.303C183.588 114.303 182.928 112.468 182.578 110.647C182.164 108.447 182.215 103.268 182.695 95.9026C182.915 92.4541 183.031 89.1748 182.941 88.6022C182.746 87.405 182.008 86.7803 180.778 86.7803C178.939 86.7803 177.942 89.2919 176.918 96.5403C175.908 103.711 171.803 116.516 170.663 116.125C170.495 116.073 170.132 115.435 169.834 114.681C168.966 112.429 168.954 107.107 169.808 98.3621C170.21 94.302 170.469 90.359 170.378 89.6302C170.184 87.9125 169.329 87.0666 167.762 87.0666C166.998 87.0666 166.519 87.2358 166.104 87.6652L165.522 88.2638L164.343 87.6652C162.711 86.8324 159.59 86.8324 157.414 87.6522C153.438 89.1488 150.136 94.2499 148.879 100.835C148.646 102.058 147.973 104.153 147.364 105.506C146.756 106.86 145.901 108.942 145.46 110.126C144.463 112.82 142.767 116.372 142.041 117.27C141.497 117.934 141.497 117.934 141.096 117.4C140.384 116.477 139.619 114.082 139.153 111.388C138.273 106.235 138.596 92.7664 139.879 81.9394C140.604 75.8492 140.863 69.4077 140.422 68.8611C140.06 68.4187 137.845 68.2755 137.262 68.6529C136.265 69.2906 135.203 73.7151 134.232 81.2497C133.545 86.5982 133.235 88.5241 132.872 89.8515C132.613 90.7754 132.535 90.8405 132.121 90.4761C130.398 88.9536 126.824 88.6022 124.506 89.7344C121.721 91.0877 119.144 94.9396 117.732 99.8717C116.774 103.229 114.3 109.423 112.306 113.483L110.648 116.854L110.635 114.655C110.622 113.444 111.05 109.241 111.581 105.337C112.992 94.8485 112.72 91.7774 110.285 90.5282C109.107 89.9295 106.931 89.8645 105.688 90.385C104.509 90.8795 102.644 93.0787 100.935 95.9807C100.158 97.295 99.5232 98.3751 99.4973 98.3751C99.3548 98.3751 100.093 91.1268 100.443 88.9926C100.715 87.379 100.779 87.2749 101.841 86.7283C102.45 86.416 104.004 85.1016 105.286 83.8133C107.216 81.8613 107.825 81.0285 108.835 78.9204C110.739 74.9643 111.581 70.9563 110.881 69.1084C110.195 67.2995 106.879 66.766 104.25 68.0543ZM107.631 71.8802C107.643 73.1815 106.866 76.4218 106.154 78.0485C105.312 79.9744 103.344 82.9414 102.165 84.0606L101.194 84.9845L102.01 81.9524C103.279 77.2286 104.911 73.2856 106.491 71.1645C107.255 70.1364 107.631 70.3707 107.631 71.8802ZM18.2426 71.9322C21.8948 77.0855 17.8541 86.468 9.69497 91.7514C8.62004 92.4411 7.66166 92.9616 7.571 92.8705C7.37674 92.6753 7.94658 89.0446 8.59413 86.468C10.3166 79.532 13.1399 73.9103 15.8856 71.9192C17.2584 70.9302 17.5303 70.9432 18.2426 71.9322ZM56.6165 88.0166C57.3158 89.5131 57.2511 89.8254 56.3575 89.383C55.5156 88.9536 54.9199 87.7433 55.1401 86.8714C55.3602 85.9735 55.8265 86.3509 56.6165 88.0166ZM163.385 90.8925C164.563 92.0767 164.783 92.4541 164.654 93.0007C164.071 95.4732 160.691 107.016 159.991 108.955C159.111 111.375 157.336 114.381 156.624 114.655C155.692 115.019 154.513 112.273 154.202 108.981C153.866 105.389 155.303 98.8046 157.336 94.6143C158.437 92.35 160.82 89.4481 161.584 89.4481C161.792 89.4611 162.595 90.0987 163.385 90.8925ZM129.557 92.0507C131.214 93.339 131.797 94.1198 131.616 94.8746C129.621 103.606 126.656 112.599 125.024 114.863C124.247 115.943 124.195 115.969 123.832 115.475C123.625 115.188 123.288 114.342 123.081 113.601C121.851 109.241 122.589 101.785 124.816 95.9807C125.658 93.7684 127.446 91.361 128.223 91.361C128.469 91.361 129.077 91.6733 129.557 92.0507ZM28.6812 110.061C29.769 116.385 27.4897 122.124 22.4258 125.742C20.5997 127.056 18.0225 128.149 16.0539 128.449C13.2954 128.865 10.1612 127.121 9.21578 124.623C8.8143 123.569 8.7884 123.204 9.07332 122.15C9.83743 119.274 12.7385 116.893 20.5091 112.742C22.7366 111.558 25.3398 110.087 26.2982 109.475C27.2695 108.864 28.1243 108.356 28.2149 108.343C28.3056 108.356 28.5128 109.111 28.6812 110.061ZM187.253 130.83C186.942 131.858 184.417 136.205 183.135 137.896C180.001 142.035 177.061 144.832 173.214 147.331C164.926 152.705 157.842 153.213 153.892 148.71C153.412 148.164 152.842 147.071 152.596 146.212C151.703 143.102 152.7 139.952 155.381 137.441C158.878 134.175 164.304 132.652 175.3 131.832C179.34 131.533 184.404 130.908 186.036 130.505C187.448 130.153 187.448 130.153 187.253 130.83Z" fill="white"/>
<path d="M43.6396 76.305C43.0438 77.1639 43.0438 81.3671 43.6525 82.6555C44.1447 83.7095 45.8673 84.9848 46.6056 84.8417C47.8878 84.6074 48.7168 80.6514 47.9267 78.5693C47.033 76.2009 44.611 74.9256 43.6396 76.305Z" fill="white"/>
</g>
<defs>
<filter id="filter0_d_9266_45887" x="0" y="0" width="226" height="162" filterUnits="userSpaceOnUse" color-interpolation-filters="sRGB">
<feFlood flood-opacity="0" result="BackgroundImageFix"/>
<feColorMatrix in="SourceAlpha" type="matrix" values="0 0 0 0 0 0 0 0 0 0 0 0 0 0 0 0 0 0 127 0" result="hardAlpha"/>
<feOffset dx="4" dy="4"/>
<feGaussianBlur stdDeviation="2"/>
<feComposite in2="hardAlpha" operator="out"/>
<feColorMatrix type="matrix" values="0 0 0 0 0 0 0 0 0 0 0 0 0 0 0 0 0 0 0.25 0"/>
<feBlend mode="normal" in2="BackgroundImageFix" result="effect1_dropShadow_9266_45887"/>
<feBlend mode="normal" in="SourceGraphic" in2="effect1_dropShadow_9266_45887" result="shape"/>
</filter>
</defs>
</svg>
