<svg width="22" height="22" viewBox="0 0 22 22" fill="none" xmlns="http://www.w3.org/2000/svg">
<path d="M7.33334 20.1667H14.6667C18.3517 20.1667 19.0117 18.6908 19.2042 16.8942L19.8917 9.56083C20.1392 7.32417 19.4975 5.5 15.5833 5.5H6.41667C2.5025 5.5 1.86084 7.32417 2.10834 9.56083L2.79584 16.8942C2.98834 18.6908 3.64834 20.1667 7.33334 20.1667Z" stroke="#A7A7A7" stroke-width="1.5" stroke-miterlimit="10" stroke-linecap="round" stroke-linejoin="round"/>
<path d="M7.33325 5.50016V4.76683C7.33325 3.14433 7.33325 1.8335 10.2666 1.8335H11.7333C14.6666 1.8335 14.6666 3.14433 14.6666 4.76683V5.50016" stroke="#A7A7A7" stroke-width="1.5" stroke-miterlimit="10" stroke-linecap="round" stroke-linejoin="round"/>
<path d="M12.8334 11.9167V12.8333C12.8334 12.8425 12.8334 12.8425 12.8334 12.8517C12.8334 13.8508 12.8242 14.6667 11.0001 14.6667C9.18508 14.6667 9.16675 13.86 9.16675 12.8608V11.9167C9.16675 11 9.16675 11 10.0834 11H11.9167C12.8334 11 12.8334 11 12.8334 11.9167Z" stroke="#A7A7A7" stroke-width="1.5" stroke-miterlimit="10" stroke-linecap="round" stroke-linejoin="round"/>
<path d="M19.8458 10.0835C17.7283 11.6235 15.3083 12.5402 12.8333 12.8518" stroke="#A7A7A7" stroke-width="1.5" stroke-miterlimit="10" stroke-linecap="round" stroke-linejoin="round"/>
<path d="M2.40161 10.3311C4.46411 11.7427 6.79244 12.5952 9.16661 12.8611" stroke="#A7A7A7" stroke-width="1.5" stroke-miterlimit="10" stroke-linecap="round" stroke-linejoin="round"/>
</svg>
