<svg width="32" height="33" viewBox="0 0 32 33" fill="none" xmlns="http://www.w3.org/2000/svg">
<path d="M2.6665 29.833H29.3332" stroke="#F1A5C9" stroke-width="1.8" stroke-linecap="round" stroke-linejoin="round"/>
<path d="M4.14648 29.833V17.833C4.14648 15.6197 6.13315 13.833 8.58648 13.833H23.3998C25.8531 13.833 27.8398 15.6197 27.8398 17.833V29.833" stroke="#F1A5C9" stroke-width="1.8" stroke-linecap="round" stroke-linejoin="round"/>
<path d="M7.41357 13.8337V10.0603C7.41357 8.46033 8.85357 7.16699 10.6402 7.16699H21.3736C23.1469 7.16699 24.5869 8.46033 24.5869 10.0603V13.8337" stroke="#F1A5C9" stroke-width="1.8" stroke-linecap="round" stroke-linejoin="round"/>
<path d="M4.70654 19.1396L5.19988 19.153C6.18654 19.1663 6.97321 19.9663 6.97321 20.953V21.393C6.97321 22.3796 7.77321 23.193 8.77321 23.193C9.75988 23.193 10.5732 22.393 10.5732 21.393V20.9796C10.5732 19.993 11.3732 19.1796 12.3732 19.1796C13.3599 19.1796 14.1732 19.9796 14.1732 20.9796V21.393C14.1732 22.3796 14.9732 23.193 15.9732 23.193C16.9599 23.193 17.7732 22.393 17.7732 21.393V20.9796C17.7732 19.993 18.5732 19.1796 19.5732 19.1796C20.5599 19.1796 21.3732 19.9796 21.3732 20.9796V21.393C21.3732 22.3796 22.1732 23.193 23.1732 23.193C24.1599 23.193 24.9732 22.393 24.9732 21.393V20.9796C24.9732 19.993 25.7732 19.1796 26.7732 19.1796H27.3732" stroke="#F1A5C9" stroke-width="1.8" stroke-linecap="round" stroke-linejoin="round"/>
<path d="M10.6665 7.16667V4.5" stroke="#F1A5C9" stroke-width="1.8" stroke-linecap="round" stroke-linejoin="round"/>
<path d="M21.3335 7.16667V4.5" stroke="#F1A5C9" stroke-width="1.8" stroke-linecap="round" stroke-linejoin="round"/>
<path d="M16 7.16699V3.16699" stroke="#F1A5C9" stroke-width="1.8" stroke-linecap="round" stroke-linejoin="round"/>
</svg>
