<svg width="22" height="22" viewBox="0 0 22 22" fill="none" xmlns="http://www.w3.org/2000/svg">
<path d="M6.41675 19.25V13.75" stroke="#A7A7A7" stroke-width="1.5" stroke-miterlimit="10" stroke-linecap="round" stroke-linejoin="round"/>
<path d="M6.41675 4.58333V2.75" stroke="#A7A7A7" stroke-width="1.5" stroke-miterlimit="10" stroke-linecap="round" stroke-linejoin="round"/>
<path d="M15.5833 19.2498V17.4165" stroke="#A7A7A7" stroke-width="1.5" stroke-miterlimit="10" stroke-linecap="round" stroke-linejoin="round"/>
<path d="M15.5833 8.25V2.75" stroke="#A7A7A7" stroke-width="1.5" stroke-miterlimit="10" stroke-linecap="round" stroke-linejoin="round"/>
<path d="M9.16675 6.41683V11.9168C9.16675 12.9252 8.70841 13.7502 7.33341 13.7502H5.50008C4.12508 13.7502 3.66675 12.9252 3.66675 11.9168V6.41683C3.66675 5.4085 4.12508 4.5835 5.50008 4.5835H7.33341C8.70841 4.5835 9.16675 5.4085 9.16675 6.41683Z" stroke="#A7A7A7" stroke-width="1.5" stroke-miterlimit="10" stroke-linecap="round" stroke-linejoin="round"/>
<path d="M18.3333 10.0833V15.5833C18.3333 16.5917 17.8749 17.4167 16.4999 17.4167H14.6666C13.2916 17.4167 12.8333 16.5917 12.8333 15.5833V10.0833C12.8333 9.075 13.2916 8.25 14.6666 8.25H16.4999C17.8749 8.25 18.3333 9.075 18.3333 10.0833Z" stroke="#A7A7A7" stroke-width="1.5" stroke-miterlimit="10" stroke-linecap="round" stroke-linejoin="round"/>
</svg>
