<svg width="16" height="14" viewBox="0 0 16 14" fill="none" xmlns="http://www.w3.org/2000/svg">
<path fill-rule="evenodd" clip-rule="evenodd" d="M1.6 8.05982C1.6 4.49877 4.46538 1.61196 8 1.61196C11.5346 1.61196 14.4 4.49877 14.4 8.05982C14.4 9.84057 13.6845 11.4514 12.5255 12.6191C12.2131 12.9339 12.2131 13.4442 12.5255 13.759C12.8379 14.0737 13.3444 14.0737 13.6569 13.759C15.1037 12.3013 16 10.2853 16 8.05982C16 3.60851 12.4183 0 8 0C3.58172 0 0 3.60851 0 8.05982C0 10.2881 0.898565 12.3064 2.34861 13.7645C2.66133 14.0789 3.16786 14.0784 3.47998 13.7634C3.7921 13.4483 3.79161 12.938 3.47889 12.6236C2.31727 11.4555 1.6 9.84281 1.6 8.05982ZM11.7657 4.26604C12.0781 4.58079 12.0781 5.09111 11.7657 5.40587L10.1661 7.01741C10.316 7.33306 10.4 7.68659 10.4 8.05988C10.4 9.39528 9.32548 10.4778 8 10.4778C6.67451 10.4778 5.6 9.39528 5.6 8.05988C5.6 6.72448 6.67451 5.64193 8 5.64193C8.37051 5.64193 8.72142 5.72652 9.03473 5.87758L10.6343 4.26604C10.9467 3.95128 11.4533 3.95128 11.7657 4.26604ZM8 7.2539C7.55817 7.2539 7.2 7.61475 7.2 8.05988C7.2 8.50501 7.55817 8.86586 8 8.86586C8.44182 8.86586 8.8 8.50501 8.8 8.05988C8.8 7.61475 8.44182 7.2539 8 7.2539Z" fill="#B6B6B6"/>
</svg>
