<svg width="482" height="113" viewBox="0 0 482 113" fill="none" xmlns="http://www.w3.org/2000/svg">
<path d="M31.9098 91.1C26.7098 91.1 21.7098 90.0667 16.9098 88C12.1764 86 8.37643 83.0333 5.50977 79.1C2.70977 75.1667 1.00977 70.8667 0.409766 66.2C0.143099 64.2 0.00976586 62 0.00976586 59.6C0.00976586 57.2 0.309766 54.0333 0.909766 50.1C1.50977 46.1667 2.80977 41.9 4.80977 37.3C6.87643 32.7 9.30977 28.6333 12.1098 25.1C10.9764 20.6333 10.4098 16.5333 10.4098 12.8C10.4098 9 10.8431 5.46666 11.7098 2.2C11.8431 1.66666 12.0431 1.29999 12.3098 1.1C12.6431 0.83333 12.8764 0.699997 13.0098 0.699997C13.6764 0.699997 13.8764 1.53333 13.6098 3.19999C13.3431 4.8 13.2098 7.13333 13.2098 10.2C13.2098 13.2 13.6431 17.0333 14.5098 21.7C19.8431 14.8333 26.1098 9.83333 33.3098 6.7C38.8431 4.3 44.6431 3.1 50.7098 3.1C52.4431 3.1 54.2431 3.2 56.1098 3.4C66.3764 4.53333 73.3098 8.46666 76.9098 15.2C78.3764 18 79.1098 20.9 79.1098 23.9C79.1098 26.9 78.4098 30 77.0098 33.2C74.0764 39.6 69.0431 44.3333 61.9098 47.4C57.3098 49.4 52.2764 50.4 46.8098 50.4C44.4764 50.4 42.1098 50.2333 39.7098 49.9C27.7764 48.1667 19.5098 42.5 14.9098 32.9C13.3098 35.1667 11.6431 38.9667 9.90977 44.3C8.2431 49.6333 7.27643 53.7333 7.00977 56.6C6.7431 59.4667 6.60977 61.8667 6.60977 63.8C6.60977 65.7333 6.7431 67.7333 7.00977 69.8C7.47643 73.4667 8.87643 76.8 11.2098 79.8C13.5431 82.7333 16.6431 84.7667 20.5098 85.9C24.4431 87.1 27.8431 87.7 30.7098 87.7C39.9764 87.7 47.8764 85.7667 54.4098 81.9C58.3431 79.5667 61.4098 76.9333 63.6098 74C65.8764 71 68.2764 66.9 70.8098 61.7C71.2098 60.8333 71.6098 60.5333 72.0098 60.8C72.4764 61.0667 72.4764 61.7 72.0098 62.7C69.4764 67.8333 67.1098 71.9 64.9098 74.9C62.7764 77.9 59.8431 80.7 56.1098 83.3C48.6431 88.5 40.5764 91.1 31.9098 91.1ZM16.9098 29.7C21.6431 41.7667 31.5098 47.8 46.5098 47.8C54.9764 47.8 61.7431 45.4333 66.8098 40.7C71.9431 35.9667 74.5098 30.6 74.5098 24.6C74.5098 18.6 71.9098 13.9333 66.7098 10.6C62.8431 8.13333 58.0764 6.89999 52.4098 6.89999C46.7431 6.89999 41.0431 8.53333 35.3098 11.8C28.1098 16 21.9764 21.9667 16.9098 29.7ZM88.9059 46C93.7725 46 96.2059 49.0667 96.2059 55.2C96.2059 58 95.4725 61 94.0059 64.2C92.1392 68.5333 89.3392 72.4667 85.6059 76C86.4725 77.6667 88.0392 78.5 90.3059 78.5C92.1059 78.5 93.8059 77.6 95.4059 75.8C97.4059 73.7333 98.8392 71.9333 99.7059 70.4C100.573 68.8 101.206 67.6333 101.606 66.9C102.006 66.1667 102.506 65.1333 103.106 63.8C103.773 62.4 104.173 61.5667 104.306 61.3C104.439 60.9667 104.673 60.8 105.006 60.8C105.673 60.7333 106.006 60.9667 106.006 61.5C106.006 61.7 105.939 61.9333 105.806 62.2L105.206 63.6C104.806 64.5333 104.506 65.2 104.306 65.6C104.106 66 103.739 66.7333 103.206 67.8C102.739 68.8 102.306 69.6 101.906 70.2C101.573 70.8 101.073 71.6 100.406 72.6C99.8059 73.6 99.2392 74.4 98.7059 75C98.2392 75.6 97.6392 76.2667 96.9059 77C96.1725 77.7333 95.4725 78.3 94.8059 78.7C93.1392 79.7 91.5725 80.2 90.1059 80.2C87.3725 80.2 85.2392 79.3333 83.7059 77.6C80.6392 79.8667 77.8059 81 75.2059 81C70.3392 81 67.9059 77.9333 67.9059 71.8C67.9059 69 68.6392 66 70.1059 62.8C72.1059 58.1333 74.9059 54.1667 78.5059 50.9C82.1725 47.6333 85.6392 46 88.9059 46ZM90.0059 49.1C88.2059 49.1 86.0725 50.3 83.6059 52.7C81.1392 55.1 78.9392 58.3667 77.0059 62.5C74.6725 67.3 73.5059 71.2333 73.5059 74.3C73.5059 77.3667 74.6725 78.9 77.0059 78.9C78.6725 78.9 80.5392 78 82.6059 76.2C81.5392 74.6667 81.0059 73.0333 81.0059 71.3C81.1392 68.4333 82.3059 67 84.5059 67C85.3725 67 86.0725 67.3 86.6059 67.9C87.2059 68.5 87.5059 69.0667 87.5059 69.6C87.5059 70.0667 87.4392 70.5667 87.3059 71.1C88.4392 69.4333 89.7392 67.0667 91.2059 64C92.8725 60.6 93.7059 57.2667 93.7059 54C93.7059 50.7333 92.4725 49.1 90.0059 49.1ZM134.402 48.2C126.202 62.6 122.102 72 122.102 76.4C122.102 78.1333 122.735 79 124.002 79C127.402 79 131.969 73.2333 137.702 61.7C138.102 60.7667 138.502 60.4 138.902 60.6C139.302 60.8 139.502 61.0667 139.502 61.4C139.502 61.7333 139.369 62.1333 139.102 62.6C135.569 69.7333 132.569 74.6667 130.102 77.4C127.702 80.0667 125.269 81.4 122.802 81.4C120.402 81.4 118.569 80.4667 117.302 78.6C116.635 77.7333 116.302 76.5667 116.302 75.1C116.302 73.5667 116.635 71.7333 117.302 69.6C117.969 67.4667 119.802 64 122.802 59.2C123.535 58 123.902 57.0667 123.902 56.4C123.902 55.6667 123.335 55.3 122.202 55.3C121.069 55.3 118.902 56.8 115.702 59.8C110.902 64.2 106.269 70.8 101.802 79.6C101.402 80.2667 100.935 80.7 100.402 80.9C99.9353 81.0333 98.9686 81.1333 97.502 81.2C96.0353 81.2667 95.0686 81.4333 94.602 81.7C95.6686 79.5667 97.7686 75.2 100.902 68.6C106.502 56.9333 110.169 50.2667 111.902 48.6C112.702 47.8 113.802 47.4 115.202 47.4C115.469 47.4 116.135 47.5 117.202 47.7C118.335 47.9 119.169 47.9333 119.702 47.8C117.235 49.1333 113.202 55.4 107.602 66.6C110.735 62.7333 113.569 59.6667 116.102 57.4C118.702 55.0667 121.802 52.9333 125.402 51C129.002 49 131.635 48 133.302 48C133.702 48 134.069 48.0667 134.402 48.2ZM130.798 112.6C124.531 112.6 121.398 110.033 121.398 104.9C121.398 100.633 124.298 96.8 130.098 93.4C135.031 90.5333 141.331 87.8333 148.998 85.3C152.531 84.1667 155.098 83.2667 156.698 82.6C158.431 77.5333 159.298 72 159.298 66C159.298 64.8 159.231 63.9 159.098 63.3C157.231 67.1 154.665 71 151.398 75C147.531 79.8 143.698 81.6667 139.898 80.6C136.431 79.1333 134.698 76.2667 134.698 72C134.698 66.2667 137.565 59.9667 143.298 53.1C146.431 49.3667 150.098 47 154.298 46C155.431 45.6667 156.565 45.5 157.698 45.5C160.698 45.5 163.631 46.5 166.498 48.5C167.565 49.3667 168.098 50.1 168.098 50.7C168.098 51.3 167.898 51.9 167.498 52.5C167.098 53.0333 166.665 53.1 166.198 52.7C165.798 52.2333 165.531 51.8 165.398 51.4C164.531 48.9333 163.131 47.7 161.198 47.7C157.665 47.7 153.698 50.1667 149.298 55.1C146.831 57.9 144.698 60.9 142.898 64.1C140.698 68.1 139.598 71.2 139.598 73.4C139.598 75.5333 140.265 76.9667 141.598 77.7C142.065 77.9 142.531 78 142.998 78C144.531 78 146.431 76.9667 148.698 74.9C151.031 72.7667 153.165 70.1 155.098 66.9C157.098 63.6333 158.365 61.1 158.898 59.3C159.431 57.5 160.065 56.3667 160.798 55.9C161.598 55.4333 162.465 55.1667 163.398 55.1C164.331 55.0333 164.965 54.8667 165.298 54.6C165.831 57.6 166.098 61.1333 166.098 65.2C166.098 69.2 165.398 73.7667 163.998 78.9C167.065 76.7 169.231 74.7333 170.498 73C171.831 71.2667 172.865 69.7 173.598 68.3C174.398 66.9 175.098 65.5333 175.698 64.2C176.298 62.8 176.698 61.9 176.898 61.5C177.098 61.1 177.431 60.8667 177.898 60.8C178.365 60.6667 178.598 60.8667 178.598 61.4C178.598 61.7333 178.498 62.1333 178.298 62.6C175.365 68.6667 172.898 73.0667 170.898 75.8C168.965 78.4667 166.298 80.6 162.898 82.2C161.298 86.7333 158.965 91.2333 155.898 95.7C152.898 100.167 149.098 104.1 144.498 107.5C139.898 110.9 135.331 112.6 130.798 112.6ZM123.498 106.8C123.498 109.333 125.131 110.6 128.398 110.6C130.331 110.6 132.498 110.033 134.898 108.9C137.365 107.767 139.398 106.6 140.998 105.4C143.731 103.2 146.731 99.9333 149.998 95.6C152.465 92.1333 154.365 88.7667 155.698 85.5L152.198 86.7C141.798 90.3 134.465 93.5 130.198 96.3C127.065 98.3667 124.998 101 123.998 104.2C123.665 105.2 123.498 106.067 123.498 106.8ZM190.358 40.9C190.358 43.9 188.458 46.7333 184.658 49.4C185.992 49.4667 187.758 49.5 189.958 49.5C192.225 49.5 195.058 49.3333 198.458 49C198.592 49.2 198.658 49.7333 198.658 50.6C198.658 51.4667 198.258 52.7667 197.458 54.5C196.658 56.1667 195.925 57.6333 195.258 58.9C194.658 60.1 194.058 61.2667 193.458 62.4C192.925 63.4667 192.292 64.8 191.558 66.4C190.892 68 190.325 69.4667 189.858 70.8C188.192 75.8667 188.458 78.4 190.658 78.4C193.458 78.4 197.592 72.8333 203.058 61.7C203.525 60.8333 203.892 60.5 204.158 60.7C204.492 60.9 204.658 61.1667 204.658 61.5C204.658 61.7667 204.225 62.8 203.358 64.6C202.492 66.3333 201.558 68.1333 200.558 70C199.558 71.8667 197.992 74.0333 195.858 76.5C193.325 79.5667 190.892 81.1 188.558 81.1C185.958 81.1 184.158 79.5333 183.158 76.4C182.958 75.8 182.858 74.9 182.858 73.7C182.858 72.5 183.225 70.9 183.958 68.9C184.758 66.9 185.992 64.4667 187.658 61.6C189.325 58.7333 190.258 57.0667 190.458 56.6C190.658 56.0667 190.758 55.5667 190.758 55.1C190.758 53.0333 188.092 51.9333 182.758 51.8L181.558 55C177.358 66 173.325 73.3667 169.458 77.1C168.792 77.7 168.458 77.5 168.458 76.5C168.458 76.3 168.525 76.0667 168.658 75.8C172.392 70.8667 175.625 65.0333 178.358 58.3C181.092 51.5667 182.992 45.1667 184.058 39.1C184.458 37.0333 185.392 36 186.858 36C188.325 36 189.392 36.9333 190.058 38.8C190.258 39.4 190.358 40.1 190.358 40.9ZM233.235 53.9C232.035 55.1 230.335 57.8333 228.135 62.1C225.935 66.3 224.601 69.4667 224.135 71.6C223.735 73.6667 223.535 75.3667 223.535 76.7C223.535 77.9667 224.035 78.6 225.035 78.6C226.301 78.6 227.868 77.4333 229.735 75.1C232.468 71.7 235.168 67.2667 237.835 61.8C238.101 61.2 238.401 60.8667 238.735 60.8C239.268 60.6 239.535 60.8 239.535 61.4C239.535 61.7333 239.435 62.1333 239.235 62.6C233.101 75 227.935 81.2 223.735 81.2C221.801 81.2 220.235 80.2667 219.035 78.4C218.435 77.4 218.135 76.0667 218.135 74.4C218.135 72.7333 218.468 70.7 219.135 68.3C213.801 76.9 209.201 81.2 205.335 81.2C204.268 81.2 203.301 80.8667 202.435 80.2C200.435 78.8 199.435 76.4 199.435 73C199.435 66.4667 202.268 59.8333 207.935 53.1C211.135 49.3667 215.068 46.9333 219.735 45.8C221.001 45.4667 222.201 45.3 223.335 45.3C226.401 45.3 229.001 46.3667 231.135 48.5C231.801 49.2333 232.001 49.9333 231.735 50.6C231.468 51.2667 230.901 51.5333 230.035 51.4C229.301 49 227.701 47.8 225.235 47.8C222.368 47.8 218.835 50.0667 214.635 54.6C212.235 57.2667 210.001 60.4 207.935 64C205.335 68.3333 204.035 71.8 204.035 74.4C204.035 77 204.868 78.3 206.535 78.3C210.535 78.3 215.768 72.1667 222.235 59.9C223.501 57.4333 224.568 55.7667 225.435 54.9C226.301 53.9667 227.401 53.5 228.735 53.5C229.001 53.5 229.668 53.6 230.735 53.8C231.868 54 232.701 54.0333 233.235 53.9ZM235.296 73C235.296 67.4667 237.962 58.2 243.296 45.2H238.096C237.762 45.2 237.529 45.0333 237.396 44.7C237.329 44.3 237.362 43.9333 237.496 43.6C237.696 43.2 237.962 43 238.296 43H244.296C246.696 37.7333 248.929 33.3333 250.996 29.8C253.062 26.2667 254.962 23.9 256.696 22.7C258.429 21.4333 259.662 20.8 260.396 20.8C261.196 20.8 261.762 20.8667 262.096 21C263.629 21.7333 264.396 23.2667 264.396 25.6C264.396 27.8667 263.629 30.6333 262.096 33.9C260.562 37.1667 259.062 40.2 257.596 43H262.396C262.729 43 262.929 43.2 262.996 43.6C263.129 43.9333 263.096 44.3 262.896 44.7C262.762 45.0333 262.529 45.2 262.196 45.2H256.396C252.729 51.4 248.296 56.9 243.096 61.7L240.796 71.9C240.596 72.7667 240.496 73.6333 240.496 74.5C240.496 75.3 240.729 76.1333 241.196 77C241.662 77.8667 242.396 78.3 243.396 78.3C244.529 78.3 245.796 77.9 247.196 77.1C250.396 74.7 253.929 69.6667 257.796 62C258.062 61.4 258.362 61.0333 258.696 60.9C259.096 60.7667 259.329 60.8667 259.396 61.2C259.462 61.4667 259.362 61.9333 259.096 62.6C256.896 67.2 255.162 70.4667 253.896 72.4C250.296 78.2 246.462 81.1 242.396 81.1C240.329 81.1 238.629 80.3333 237.296 78.8C235.962 77.2667 235.296 75.3333 235.296 73ZM255.396 43C259.796 35.1333 261.996 29.6667 261.996 26.6C261.996 25.2667 261.762 24.6 261.296 24.6C260.562 24.6 259.429 25.6667 257.896 27.8C256.429 29.9333 253.929 35 250.396 43H255.396ZM254.096 45.2H249.396C248.596 47.0667 246.796 51.5 243.996 58.5C247.596 54.7667 250.962 50.3333 254.096 45.2ZM254.315 75.2C254.315 72.3333 255.549 68.8667 258.015 64.8C256.949 64.8 256.649 64.2667 257.115 63.2L258.915 59.7C261.182 55.3667 263.049 51.7 264.515 48.7C265.182 47.3 266.482 46.6 268.415 46.6H274.515C272.115 48.3333 269.682 51.7 267.215 56.7C264.815 61.6333 262.949 65.5333 261.615 68.4C260.282 71.2 259.615 73.3333 259.615 74.8C259.615 76.2667 259.849 77.3 260.315 77.9C260.849 78.5 261.549 78.8 262.415 78.8C263.682 78.8 265.449 77.4667 267.715 74.8C271.249 70.6667 276.215 61.9667 282.615 48.7C283.349 47.3 284.649 46.6 286.515 46.6H291.915C290.449 47.7333 289.282 48.9 288.415 50.1C287.615 51.3 286.482 53.4333 285.015 56.5C281.015 64.5 278.782 69.8 278.315 72.4C278.115 73.3333 278.015 74.2 278.015 75C278.015 77.1333 278.749 78.2667 280.215 78.4C283.815 78.4 288.249 72.8333 293.515 61.7C293.915 60.7667 294.315 60.4 294.715 60.6C295.115 60.8 295.315 61.0667 295.315 61.4C295.315 61.7333 295.015 62.5 294.415 63.7C293.815 64.9 293.215 66.0667 292.615 67.2C292.082 68.3333 291.215 69.9 290.015 71.9C288.882 73.8333 287.815 75.3667 286.815 76.5C284.215 79.4333 281.649 80.9 279.115 80.9C276.649 80.9 274.949 79.8 274.015 77.6C273.615 76.6 273.415 75.3333 273.415 73.8C273.415 72.2667 273.749 70.3667 274.415 68.1C269.549 76.6333 265.049 80.9 260.915 80.9C257.315 80.9 255.215 79.4 254.615 76.4C254.415 76.0667 254.315 75.6667 254.315 75.2ZM299.057 61.7C298.991 61.9667 298.691 62.9 298.157 64.5C297.624 66.0333 297.157 67.5333 296.757 69C296.424 70.4 296.257 71.8333 296.257 73.3C296.257 74.7 296.591 76.0333 297.257 77.3C297.924 78.5 298.991 79.1 300.457 79.1C302.857 79.1 305.191 77.5 307.457 74.3C309.724 71.0333 312.124 66.9 314.657 61.9C315.191 60.9667 315.691 60.6 316.157 60.8C316.491 61.0667 316.557 61.4333 316.357 61.9C316.157 62.3 315.724 63.2333 315.057 64.7C314.457 66.1 313.991 67.1 313.657 67.7C313.391 68.2333 312.857 69.2333 312.057 70.7C311.324 72.1 310.657 73.1667 310.057 73.9C309.524 74.5667 308.757 75.4667 307.757 76.6C306.824 77.6667 305.924 78.4667 305.057 79C302.724 80.4667 300.524 81.2 298.457 81.2C296.391 81.2 294.791 80.7667 293.657 79.9C292.524 78.9667 291.824 78 291.557 77C291.357 75.9333 291.257 75 291.257 74.2C291.257 73.4 291.291 72.3667 291.357 71.1C291.557 68.9667 291.957 66.9 292.557 64.9C293.224 62.9 293.591 61.7667 293.657 61.5C295.191 55.9667 297.357 49.9333 300.157 43.4C303.024 36.8667 305.424 31.9667 307.357 28.7C309.357 25.3667 310.924 23.1 312.057 21.9C314.324 19.5 316.557 18.3 318.757 18.3C320.291 18.3 321.324 19.4 321.857 21.6C321.924 22 321.957 22.5 321.957 23.1C321.957 25.3667 321.157 28.2333 319.557 31.7C313.824 44.4333 306.991 54.4333 299.057 61.7ZM299.857 58.5C303.257 55.0333 306.624 50.6667 309.957 45.4C313.291 40.1333 315.724 35.6667 317.257 32C318.857 28.2667 319.657 25.7333 319.657 24.4C319.657 23.0667 319.424 22.4 318.957 22.4C318.291 22.4 317.024 23.7333 315.157 26.4C313.291 29 310.757 33.7333 307.557 40.6C304.424 47.4 301.857 53.3667 299.857 58.5ZM345.149 53.9C343.949 55.1 342.249 57.8333 340.049 62.1C337.849 66.3 336.515 69.4667 336.049 71.6C335.649 73.6667 335.449 75.3667 335.449 76.7C335.449 77.9667 335.949 78.6 336.949 78.6C338.215 78.6 339.782 77.4333 341.649 75.1C344.382 71.7 347.082 67.2667 349.749 61.8C350.015 61.2 350.315 60.8667 350.649 60.8C351.182 60.6 351.449 60.8 351.449 61.4C351.449 61.7333 351.349 62.1333 351.149 62.6C345.015 75 339.849 81.2 335.649 81.2C333.715 81.2 332.149 80.2667 330.949 78.4C330.349 77.4 330.049 76.0667 330.049 74.4C330.049 72.7333 330.382 70.7 331.049 68.3C325.715 76.9 321.115 81.2 317.249 81.2C316.182 81.2 315.215 80.8667 314.349 80.2C312.349 78.8 311.349 76.4 311.349 73C311.349 66.4667 314.182 59.8333 319.849 53.1C323.049 49.3667 326.982 46.9333 331.649 45.8C332.915 45.4667 334.115 45.3 335.249 45.3C338.315 45.3 340.915 46.3667 343.049 48.5C343.715 49.2333 343.915 49.9333 343.649 50.6C343.382 51.2667 342.815 51.5333 341.949 51.4C341.215 49 339.615 47.8 337.149 47.8C334.282 47.8 330.749 50.0667 326.549 54.6C324.149 57.2667 321.915 60.4 319.849 64C317.249 68.3333 315.949 71.8 315.949 74.4C315.949 77 316.782 78.3 318.449 78.3C322.449 78.3 327.682 72.1667 334.149 59.9C335.415 57.4333 336.482 55.7667 337.349 54.9C338.215 53.9667 339.315 53.5 340.649 53.5C340.915 53.5 341.582 53.6 342.649 53.8C343.782 54 344.615 54.0333 345.149 53.9ZM347.21 73C347.21 67.4667 349.876 58.2 355.21 45.2H350.01C349.676 45.2 349.443 45.0333 349.31 44.7C349.243 44.3 349.276 43.9333 349.41 43.6C349.61 43.2 349.876 43 350.21 43H356.21C358.61 37.7333 360.843 33.3333 362.91 29.8C364.976 26.2667 366.876 23.9 368.61 22.7C370.343 21.4333 371.576 20.8 372.31 20.8C373.11 20.8 373.676 20.8667 374.01 21C375.543 21.7333 376.31 23.2667 376.31 25.6C376.31 27.8667 375.543 30.6333 374.01 33.9C372.476 37.1667 370.976 40.2 369.51 43H374.31C374.643 43 374.843 43.2 374.91 43.6C375.043 43.9333 375.01 44.3 374.81 44.7C374.676 45.0333 374.443 45.2 374.11 45.2H368.31C364.643 51.4 360.21 56.9 355.01 61.7L352.71 71.9C352.51 72.7667 352.41 73.6333 352.41 74.5C352.41 75.3 352.643 76.1333 353.11 77C353.576 77.8667 354.31 78.3 355.31 78.3C356.443 78.3 357.71 77.9 359.11 77.1C362.31 74.7 365.843 69.6667 369.71 62C369.976 61.4 370.276 61.0333 370.61 60.9C371.01 60.7667 371.243 60.8667 371.31 61.2C371.376 61.4667 371.276 61.9333 371.01 62.6C368.81 67.2 367.076 70.4667 365.81 72.4C362.21 78.2 358.376 81.1 354.31 81.1C352.243 81.1 350.543 80.3333 349.21 78.8C347.876 77.2667 347.21 75.3333 347.21 73ZM367.31 43C371.71 35.1333 373.91 29.6667 373.91 26.6C373.91 25.2667 373.676 24.6 373.21 24.6C372.476 24.6 371.343 25.6667 369.81 27.8C368.343 29.9333 365.843 35 362.31 43H367.31ZM366.01 45.2H361.31C360.51 47.0667 358.71 51.5 355.91 58.5C359.51 54.7667 362.876 50.3333 366.01 45.2ZM383.429 42.1C382.496 42.9 381.463 43.3 380.329 43.3C379.196 43.3 378.296 42.9 377.629 42.1C376.963 41.3 376.696 40.3333 376.829 39.2C377.029 38.0667 377.596 37.1 378.529 36.3C379.463 35.5 380.496 35.1 381.629 35.1C382.763 35.1 383.663 35.5 384.329 36.3C385.063 37.1 385.329 38.0667 385.129 39.2C384.929 40.3333 384.363 41.3 383.429 42.1ZM373.629 78.8C374.896 78.8 376.229 78.1667 377.629 76.9C380.096 74.4333 383.229 69.4 387.029 61.8C387.496 60.8 387.963 60.5 388.429 60.9C388.563 61.0333 388.629 61.2667 388.629 61.6C388.629 61.8667 388.363 62.6 387.829 63.8C387.296 64.9333 386.796 65.9667 386.329 66.9C385.929 67.8333 385.096 69.3667 383.829 71.5C382.629 73.5667 381.529 75.1667 380.529 76.3C377.796 79.4333 375.196 81 372.729 81C370.329 81 368.596 80.2667 367.529 78.8C366.463 77.3333 365.929 75.7 365.929 73.9C365.929 72.1 366.363 70.1333 367.229 68L373.629 51.7C373.763 51.3 373.829 50.7667 373.829 50.1C373.829 49.4333 373.429 48.5667 372.629 47.5L378.129 47.4C379.663 47.4 380.563 47.7 380.829 48.3C381.096 48.8333 380.896 49.7 380.229 50.9L372.229 69.6C371.096 72.0667 370.529 74.1667 370.529 75.9C370.529 77.8333 371.563 78.8 373.629 78.8ZM405.312 46C410.179 46 412.612 49.0667 412.612 55.2C412.612 58 411.879 61 410.412 64.2C408.545 68.5333 405.745 72.4667 402.012 76C402.879 77.6667 404.445 78.5 406.712 78.5C408.512 78.5 410.212 77.6 411.812 75.8C413.812 73.7333 415.245 71.9333 416.112 70.4C416.979 68.8 417.612 67.6333 418.012 66.9C418.412 66.1667 418.912 65.1333 419.512 63.8C420.179 62.4 420.579 61.5667 420.712 61.3C420.845 60.9667 421.079 60.8 421.412 60.8C422.079 60.7333 422.412 60.9667 422.412 61.5C422.412 61.7 422.345 61.9333 422.212 62.2L421.612 63.6C421.212 64.5333 420.912 65.2 420.712 65.6C420.512 66 420.145 66.7333 419.612 67.8C419.145 68.8 418.712 69.6 418.312 70.2C417.979 70.8 417.479 71.6 416.812 72.6C416.212 73.6 415.645 74.4 415.112 75C414.645 75.6 414.045 76.2667 413.312 77C412.579 77.7333 411.879 78.3 411.212 78.7C409.545 79.7 407.979 80.2 406.512 80.2C403.779 80.2 401.645 79.3333 400.112 77.6C397.045 79.8667 394.212 81 391.612 81C386.745 81 384.312 77.9333 384.312 71.8C384.312 69 385.045 66 386.512 62.8C388.512 58.1333 391.312 54.1667 394.912 50.9C398.579 47.6333 402.045 46 405.312 46ZM406.412 49.1C404.612 49.1 402.479 50.3 400.012 52.7C397.545 55.1 395.345 58.3667 393.412 62.5C391.079 67.3 389.912 71.2333 389.912 74.3C389.912 77.3667 391.079 78.9 393.412 78.9C395.079 78.9 396.945 78 399.012 76.2C397.945 74.6667 397.412 73.0333 397.412 71.3C397.545 68.4333 398.712 67 400.912 67C401.779 67 402.479 67.3 403.012 67.9C403.612 68.5 403.912 69.0667 403.912 69.6C403.912 70.0667 403.845 70.5667 403.712 71.1C404.845 69.4333 406.145 67.0667 407.612 64C409.279 60.6 410.112 57.2667 410.112 54C410.112 50.7333 408.879 49.1 406.412 49.1ZM450.808 48.2C442.608 62.6 438.508 72 438.508 76.4C438.508 78.1333 439.142 79 440.408 79C443.808 79 448.375 73.2333 454.108 61.7C454.508 60.7667 454.908 60.4 455.308 60.6C455.708 60.8 455.908 61.0667 455.908 61.4C455.908 61.7333 455.775 62.1333 455.508 62.6C451.975 69.7333 448.975 74.6667 446.508 77.4C444.108 80.0667 441.675 81.4 439.208 81.4C436.808 81.4 434.975 80.4667 433.708 78.6C433.042 77.7333 432.708 76.5667 432.708 75.1C432.708 73.5667 433.042 71.7333 433.708 69.6C434.375 67.4667 436.208 64 439.208 59.2C439.942 58 440.308 57.0667 440.308 56.4C440.308 55.6667 439.742 55.3 438.608 55.3C437.475 55.3 435.308 56.8 432.108 59.8C427.308 64.2 422.675 70.8 418.208 79.6C417.808 80.2667 417.342 80.7 416.808 80.9C416.342 81.0333 415.375 81.1333 413.908 81.2C412.442 81.2667 411.475 81.4333 411.008 81.7C412.075 79.5667 414.175 75.2 417.308 68.6C422.908 56.9333 426.575 50.2667 428.308 48.6C429.108 47.8 430.208 47.4 431.608 47.4C431.875 47.4 432.542 47.5 433.608 47.7C434.742 47.9 435.575 47.9333 436.108 47.8C433.642 49.1333 429.608 55.4 424.008 66.6C427.142 62.7333 429.975 59.6667 432.508 57.4C435.108 55.0667 438.208 52.9333 441.808 51C445.408 49 448.042 48 449.708 48C450.108 48 450.475 48.0667 450.808 48.2ZM462.704 79.1C463.571 79.2333 464.171 79.3 464.504 79.3C467.171 79.3 469.804 77.7333 472.404 74.6C473.804 72.8667 476.304 68.5 479.904 61.5C480.038 61.1667 480.271 61 480.604 61C481.204 60.9333 481.504 61.1667 481.504 61.7C481.504 61.8333 481.338 62.2333 481.004 62.9C480.738 63.5 480.471 64.1333 480.204 64.8C479.938 65.4 479.504 66.3 478.904 67.5C478.304 68.7 477.771 69.6667 477.304 70.4C476.904 71.1333 476.371 72.0333 475.704 73.1C475.038 74.1667 474.371 75 473.704 75.6L471.604 77.8C470.471 78.9333 469.138 79.7333 467.604 80.2C465.138 81 462.738 81.0667 460.404 80.4C458.871 81.0667 457.504 81.4 456.304 81.4C451.571 81.4 448.704 79.5333 447.704 75.8C447.504 74.9333 447.404 73.9 447.404 72.7C447.404 71.4333 447.804 70.2333 448.604 69.1C449.471 67.9667 450.371 67.3667 451.304 67.3C454.704 60.8333 457.604 55 460.004 49.8C462.671 44.1333 465.771 41.3 469.304 41.3C470.238 41.3 471.138 41.5333 472.004 42C472.938 42.4 473.271 42.8667 473.004 43.4C472.804 43.9333 472.338 44.0333 471.604 43.7C470.871 43.3667 470.238 43.2 469.704 43.2C469.171 43.2 468.704 43.3 468.304 43.5C466.038 44.5667 464.904 46.8667 464.904 50.4C464.904 52.2667 465.171 53.8 465.704 55C466.238 56.2 466.838 57.5 467.504 58.9C469.038 62.3667 469.804 65.2 469.804 67.4C469.804 69.6 469.104 71.7667 467.704 73.9C466.304 76.0333 464.638 77.7667 462.704 79.1ZM459.304 78.4C462.238 76.1333 463.704 72.4667 463.704 67.4C463.704 65.3333 463.471 62.5 463.004 58.9C462.538 55.3 462.304 52.8667 462.304 51.6C462.304 50.3333 462.338 49.4667 462.404 49C457.338 59.1333 454.204 65.3 453.004 67.5C454.404 67.5 455.104 68.5 455.104 70.5C455.104 74.4333 456.504 77.0667 459.304 78.4ZM451.804 75.7C451.804 76.1 451.838 76.5333 451.904 77C452.438 78.8 453.671 79.7 455.604 79.7C456.404 79.7 457.071 79.5667 457.604 79.3C455.138 77.7667 453.804 75.2667 453.604 71.8C452.404 73 451.804 74.3 451.804 75.7Z" fill="white"/>
</svg>
