<svg width="14" height="14" viewBox="0 0 14 14" fill="none" xmlns="http://www.w3.org/2000/svg">
<g id="Frame" clip-path="url(#clip0_10153_16470)">
<g id="Group">
<path id="Vector" d="M0.784314 10.0398C0.816721 9.87779 0.842647 9.71251 0.884776 9.55371C1.01117 9.07408 1.24126 8.64955 1.59126 8.29631C2.47598 7.4051 3.35098 6.50742 4.25839 5.63566C5.56116 4.38473 7.75515 4.68288 8.69496 6.21575C8.70792 6.23844 8.72413 6.26436 8.72413 6.26436C8.55237 6.45232 8.40329 6.64677 8.21857 6.80232C7.93987 7.03566 7.54774 6.99677 7.26904 6.73427C6.97089 6.45232 6.62089 6.31297 6.21255 6.31945C5.82691 6.32594 5.48987 6.45881 5.21765 6.73103C4.36209 7.58334 3.50654 8.43242 2.65746 9.29121C2.10005 9.8551 2.10978 10.769 2.66718 11.3296C3.23107 11.8968 4.13848 11.913 4.71209 11.3523C5.25978 10.8176 5.79774 10.2732 6.3357 9.72871C6.41996 9.64445 6.48154 9.61853 6.60468 9.66066C7.12968 9.84538 7.66765 9.89399 8.21857 9.82269C8.23802 9.81945 8.25746 9.81945 8.30283 9.81945C8.2607 9.86482 8.23154 9.89723 8.19913 9.9264C7.40191 10.7236 6.60468 11.5176 5.8107 12.3148C5.31487 12.8171 4.72181 13.1218 4.01857 13.1995C3.99913 13.2028 3.98292 13.2125 3.96348 13.219C3.78524 13.219 3.607 13.219 3.42876 13.219C3.40283 13.2125 3.37691 13.1995 3.34774 13.1963C2.15191 13.0148 1.34172 12.3537 0.930147 11.2162C0.85561 11.0088 0.829684 10.7852 0.777832 10.5681C0.784314 10.3963 0.784314 10.2181 0.784314 10.0398Z" fill="#495057"/>
<path id="Vector_2" d="M13.2236 3.96348C13.1749 4.17413 13.1393 4.39126 13.0777 4.59867C12.9578 5.00376 12.7504 5.36672 12.4523 5.66811C11.5611 6.56904 10.6763 7.47644 9.7592 8.35468C8.6217 9.44681 6.75179 9.382 5.66939 8.23478C5.52031 8.07598 5.40041 7.89126 5.25781 7.70654C5.4555 7.51857 5.62726 7.32737 5.82494 7.17505C6.10041 6.96441 6.47633 7.00654 6.74531 7.25931C6.98837 7.48617 7.26707 7.62552 7.59439 7.66441C8.07078 7.7195 8.48235 7.58015 8.82263 7.24311C9.35411 6.71487 9.88235 6.18339 10.4138 5.65515C10.7217 5.34728 11.0361 5.04265 11.3407 4.72505C11.7296 4.31996 11.8592 3.83061 11.7036 3.29265C11.5448 2.75144 11.1786 2.40792 10.6277 2.28154C10.1157 2.16487 9.66198 2.29774 9.28605 2.66394C8.73513 3.20191 8.19392 3.74959 7.65272 4.29728C7.58142 4.36857 7.52633 4.37505 7.43559 4.34265C6.88466 4.15144 6.31753 4.09959 5.73744 4.17737C5.72448 4.16117 5.70828 4.14496 5.69531 4.12876C5.73744 4.10931 5.78605 4.09959 5.81522 4.06718C6.6092 3.27644 7.40642 2.4857 8.19392 1.68848C8.68976 1.18292 9.27957 0.878295 9.98281 0.797276C10.0023 0.794036 10.0217 0.784314 10.0379 0.777832C10.2161 0.777832 10.3944 0.777832 10.5726 0.777832C10.5986 0.784314 10.6245 0.797276 10.6536 0.800517C11.83 0.933388 12.8217 1.79542 13.1231 2.94589C13.1652 3.10468 13.1911 3.26672 13.2236 3.42876C13.2236 3.607 13.2236 3.78524 13.2236 3.96348Z" fill="#495057"/>
</g>
</g>
<defs>
<clipPath id="clip0_10153_16470">
<rect width="14" height="14" fill="white"/>
</clipPath>
</defs>
</svg>
