<svg width="22" height="22" viewBox="0 0 22 22" fill="none" xmlns="http://www.w3.org/2000/svg">
<path d="M5.90325 1.8335H16.0874C19.3508 1.8335 20.1666 2.64933 20.1666 5.9035V11.706C20.1666 14.9693 19.3508 15.776 16.0966 15.776H5.90325C2.64909 15.7852 1.83325 14.9693 1.83325 11.7152V5.9035C1.83325 2.64933 2.64909 1.8335 5.90325 1.8335Z" stroke="#A7A7A7" stroke-width="1.5" stroke-linecap="round" stroke-linejoin="round"/>
<path d="M11 15.7852V20.1668" stroke="#A7A7A7" stroke-width="1.5" stroke-linecap="round" stroke-linejoin="round"/>
<path d="M6.875 20.1665H15.125" stroke="#A7A7A7" stroke-width="1.5" stroke-linecap="round" stroke-linejoin="round"/>
<path d="M10.9999 8.39664C12.1795 8.39664 13.1357 7.44038 13.1357 6.26079C13.1357 5.0812 12.1795 4.125 10.9999 4.125C9.82027 4.125 8.86401 5.0812 8.86401 6.26079C8.86401 7.44038 9.82027 8.39664 10.9999 8.39664Z" stroke="#A7A7A7" stroke-width="1.5" stroke-linecap="round" stroke-linejoin="round"/>
<path d="M14.6666 13.5855C14.6666 11.9355 13.0258 10.5972 10.9999 10.5972C8.97409 10.5972 7.33325 11.9355 7.33325 13.5855" stroke="#A7A7A7" stroke-width="1.5" stroke-linecap="round" stroke-linejoin="round"/>
</svg>
