<svg width="22" height="22" viewBox="0 0 22 22" fill="none" xmlns="http://www.w3.org/2000/svg">
<path d="M18.3334 10.3417V5.24169C18.3334 4.11669 17.8503 3.66669 16.65 3.66669H13.6002C12.3999 3.66669 11.9167 4.11669 11.9167 5.24169V10.3417C11.9167 11.4667 12.3999 11.9167 13.6002 11.9167H16.65C17.8503 11.9167 18.3334 11.4667 18.3334 10.3417Z" stroke="#A7A7A7" stroke-width="1.5" stroke-linecap="round" stroke-linejoin="round"/>
<path d="M18.3333 17.05V15.95C18.3333 15.0334 17.9191 14.6667 16.8903 14.6667H14.2762C13.2474 14.6667 12.8333 15.0334 12.8333 15.95V17.05C12.8333 17.9667 13.2474 18.3334 14.2762 18.3334H16.8903C17.9191 18.3334 18.3333 17.9667 18.3333 17.05Z" stroke="#A7A7A7" stroke-width="1.5" stroke-linecap="round" stroke-linejoin="round"/>
<path d="M10.0834 11.6583V16.7583C10.0834 17.8833 9.60028 18.3333 8.39998 18.3333H5.35018C4.14989 18.3333 3.66675 17.8833 3.66675 16.7583V11.6583C3.66675 10.5333 4.14989 10.0833 5.35018 10.0833H8.39998C9.60028 10.0833 10.0834 10.5333 10.0834 11.6583Z" stroke="#A7A7A7" stroke-width="1.5" stroke-linecap="round" stroke-linejoin="round"/>
<path d="M9.16675 4.95002V6.05002C9.16675 6.96669 8.75263 7.33335 7.72381 7.33335H5.10969C4.08087 7.33335 3.66675 6.96669 3.66675 6.05002V4.95002C3.66675 4.03335 4.08087 3.66669 5.10969 3.66669H7.72381C8.75263 3.66669 9.16675 4.03335 9.16675 4.95002Z" stroke="#A7A7A7" stroke-width="1.5" stroke-linecap="round" stroke-linejoin="round"/>
</svg>
