<svg width="16" height="16" viewBox="0 0 16 16" fill="none" xmlns="http://www.w3.org/2000/svg">
<path d="M13.3333 9.33329C14.0697 9.33329 14.6667 8.73634 14.6667 7.99996C14.6667 7.26358 14.0697 6.66663 13.3333 6.66663C12.597 6.66663 12 7.26358 12 7.99996C12 8.73634 12.597 9.33329 13.3333 9.33329Z" stroke="#86969D" stroke-linecap="round" stroke-linejoin="round"/>
<path d="M13.3333 4.00004C14.0697 4.00004 14.6667 3.40309 14.6667 2.66671C14.6667 1.93033 14.0697 1.33337 13.3333 1.33337C12.597 1.33337 12 1.93033 12 2.66671C12 3.40309 12.597 4.00004 13.3333 4.00004Z" stroke="#86969D" stroke-linecap="round" stroke-linejoin="round"/>
<path d="M13.3333 14.6667C14.0697 14.6667 14.6667 14.0697 14.6667 13.3333C14.6667 12.597 14.0697 12 13.3333 12C12.597 12 12 12.597 12 13.3333C12 14.0697 12.597 14.6667 13.3333 14.6667Z" stroke="#86969D" stroke-linecap="round" stroke-linejoin="round"/>
<path d="M2.66683 9.33329C3.40321 9.33329 4.00016 8.73634 4.00016 7.99996C4.00016 7.26358 3.40321 6.66663 2.66683 6.66663C1.93045 6.66663 1.3335 7.26358 1.3335 7.99996C1.3335 8.73634 1.93045 9.33329 2.66683 9.33329Z" stroke="#86969D" stroke-linecap="round" stroke-linejoin="round"/>
<path d="M4 8H12" stroke="#86969D" stroke-linecap="round" stroke-linejoin="round"/>
<path d="M12.0002 2.66663H9.3335C8.00016 2.66663 7.3335 3.33329 7.3335 4.66663V11.3333C7.3335 12.6666 8.00016 13.3333 9.3335 13.3333H12.0002" stroke="#86969D" stroke-linecap="round" stroke-linejoin="round"/>
</svg>
