<svg width="32" height="32" viewBox="0 0 32 32" fill="none" xmlns="http://www.w3.org/2000/svg">
<circle cx="16" cy="16" r="16" fill="#F7F7F7"/>
<path d="M7 21.1706C7.02813 21.0565 7.04689 20.9423 7.07971 20.8282C7.31883 19.9815 7.83928 19.3965 8.65043 19.0826C8.76765 19.0398 8.80047 18.9874 8.79578 18.8685C8.79109 17.941 8.79109 17.0135 8.79109 16.086C8.79109 15.5675 9.07241 15.2822 9.58349 15.2822C11.4121 15.2822 13.2407 15.2822 15.0693 15.2822C15.1396 15.2822 15.2053 15.2822 15.285 15.2822C15.285 14.5021 15.285 13.7411 15.285 12.9753C13.7658 12.4568 13.311 10.968 13.5689 9.92639C13.8455 8.80386 14.8583 7.99526 16.0164 8.00002C17.1839 8.00478 18.1732 8.82289 18.4405 9.99298C18.6796 11.0346 18.1873 12.4758 16.7057 12.9753C16.7057 13.7316 16.7057 14.4926 16.7057 15.2822C16.776 15.2822 16.8416 15.2822 16.9073 15.2822C18.7359 15.2822 20.5645 15.2822 22.3931 15.2822C22.9276 15.2822 23.2042 15.558 23.2042 16.105C23.2042 17.0278 23.2042 17.9458 23.2042 18.8685C23.2042 18.9589 23.2042 19.0255 23.3167 19.0731C24.2498 19.4298 24.8031 20.11 24.9719 21.1088C24.9766 21.1326 24.9906 21.1516 25 21.1706C25 21.3609 25 21.5512 25 21.7414C24.9859 21.7937 24.9719 21.8413 24.9625 21.8936C24.7796 22.9733 23.945 23.7915 22.8338 23.9722C21.8351 24.1339 20.7755 23.5774 20.2878 22.6309C19.7908 21.6701 19.9596 20.4905 20.7004 19.7104C21.0052 19.387 21.3756 19.1682 21.7882 19.0302C21.7882 18.2549 21.7882 17.4892 21.7882 16.7234C20.0862 16.7234 18.3983 16.7234 16.7057 16.7234C16.7057 17.4987 16.7057 18.2549 16.7057 19.016C18.1404 19.4964 18.6796 20.8995 18.4405 21.984C18.1826 23.1588 17.1933 23.9817 16.0305 23.996C14.8677 24.0055 13.8549 23.2112 13.5736 22.0886C13.3063 21.028 13.7658 19.5392 15.285 19.0207C15.285 18.2549 15.285 17.4892 15.285 16.7281C13.583 16.7281 11.895 16.7281 10.2024 16.7281C10.2024 17.5034 10.2024 18.2597 10.2024 19.0255C10.2587 19.0493 10.3149 19.0683 10.3665 19.0921C11.3183 19.4869 11.8716 20.2051 11.9794 21.242C12.1107 22.5215 11.2152 23.7154 9.98203 23.9532C8.71138 24.191 7.46887 23.4347 7.10315 22.1838C7.06564 22.0506 7.03282 21.9127 7 21.7747C7 21.5749 7 21.3704 7 21.1706ZM14.9099 10.5257C14.9052 11.1393 15.3975 11.6387 15.9977 11.6435C16.5978 11.6435 17.0901 11.144 17.0901 10.5352C17.0901 9.93114 16.6072 9.43647 16.0117 9.43171C15.4069 9.42696 14.9146 9.91687 14.9099 10.5257ZM9.50378 22.5643C10.1086 22.5643 10.5916 22.0649 10.5916 21.4513C10.5869 20.8472 10.0992 20.3525 9.50847 20.3525C8.90362 20.3478 8.40662 20.852 8.40662 21.4608C8.40662 22.0744 8.89893 22.569 9.50378 22.5643ZM22.4962 22.5643C23.1011 22.569 23.5934 22.0744 23.5981 21.4655C23.5981 20.8567 23.1058 20.3525 22.5056 20.3525C21.9101 20.3525 21.4225 20.8425 21.4178 21.4465C21.4131 22.0649 21.8914 22.5595 22.4962 22.5643ZM16.007 22.5643C16.6119 22.5643 17.0948 22.0649 17.0901 21.4513C17.0854 20.8472 16.5978 20.3573 16.0023 20.3573C15.3975 20.3573 14.9099 20.852 14.9099 21.4655C14.9146 22.0744 15.4022 22.569 16.007 22.5643Z" fill="#5C5C5C"/>
</svg>
