<svg width="16" height="16" viewBox="0 0 16 16" fill="none" xmlns="http://www.w3.org/2000/svg">
<path d="M7.08349 15.3333C6.82377 15.3333 6.60606 15.2455 6.43036 15.0698C6.25467 14.8941 6.16682 14.6764 6.16682 14.4167V8.91666L0.850155 2.13332C0.620988 1.82777 0.586613 1.50693 0.74703 1.17082C0.907447 0.834712 1.18627 0.666656 1.58349 0.666656H14.4168C14.814 0.666656 15.0929 0.834712 15.2533 1.17082C15.4137 1.50693 15.3793 1.82777 15.1502 2.13332L9.83349 8.91666V14.4167C9.83349 14.6764 9.74564 14.8941 9.56995 15.0698C9.39425 15.2455 9.17654 15.3333 8.91682 15.3333H7.08349ZM8.00015 8.27499L12.5377 2.49999H3.46266L8.00015 8.27499Z" fill="#86969D"/>
</svg>
