<svg width="32" height="32" viewBox="0 0 32 32" fill="none" xmlns="http://www.w3.org/2000/svg">
<rect width="32" height="32" rx="16" fill="#86969D"/>
<path d="M18.9833 15.9999C18.9833 17.6499 17.6499 18.9833 15.9999 18.9833C14.3499 18.9833 13.0166 17.6499 13.0166 15.9999C13.0166 14.3499 14.3499 13.0166 15.9999 13.0166C17.6499 13.0166 18.9833 14.3499 18.9833 15.9999Z" stroke="white" stroke-width="1.2" stroke-linecap="round" stroke-linejoin="round"/>
<path d="M15.9999 22.8913C18.9415 22.8913 21.6832 21.1579 23.5915 18.1579C24.3415 16.9829 24.3415 15.0079 23.5915 13.8329C21.6832 10.8329 18.9415 9.09961 15.9999 9.09961C13.0582 9.09961 10.3165 10.8329 8.4082 13.8329C7.6582 15.0079 7.6582 16.9829 8.4082 18.1579C10.3165 21.1579 13.0582 22.8913 15.9999 22.8913Z" stroke="white" stroke-width="1.2" stroke-linecap="round" stroke-linejoin="round"/>
</svg>
