<svg width="32" height="32" viewBox="0 0 32 32" fill="none" xmlns="http://www.w3.org/2000/svg">
<mask id="mask0_6748_59726" style="mask-type:alpha" maskUnits="userSpaceOnUse" x="0" y="0" width="32" height="32">
<rect width="32" height="32" rx="1" fill="#D9D9D9"/>
</mask>
<g mask="url(#mask0_6748_59726)">
<path d="M5.25586 26.0001C4.70357 26.0001 4.25586 25.5523 4.25586 25.0001V14.0297C4.25586 13.7645 4.36122 13.5101 4.54875 13.3226L10.882 6.98933C11.2725 6.59881 11.9057 6.59881 12.2962 6.98933L18.6295 13.3226C18.8171 13.5101 18.9224 13.7645 18.9224 14.0297V25.0001C18.9224 25.5523 18.4747 26.0001 17.9224 26.0001H5.25586ZM6.25579 24.0001H9.40966C9.96195 24.0001 10.4097 23.5524 10.4097 23.0001V21.4617C10.4097 20.9094 10.8574 20.4617 11.4097 20.4617H11.7686C12.3209 20.4617 12.7686 20.9094 12.7686 21.4617V23.0001C12.7686 23.5524 13.2163 24.0001 13.7686 24.0001H16.9225V14.8476C16.9225 14.5824 16.8171 14.3281 16.6296 14.1405L12.2962 9.8072C11.9057 9.41668 11.2725 9.41668 10.882 9.8072L6.54869 14.1405C6.36115 14.3281 6.25579 14.5824 6.25579 14.8476V24.0001ZM11.4097 17.1796C10.8574 17.1796 10.4097 16.7318 10.4097 16.1796V15.8206C10.4097 15.2683 10.8574 14.8206 11.4097 14.8206H11.7686C12.3209 14.8206 12.7686 15.2683 12.7686 15.8206V16.1796C12.7686 16.7318 12.3209 17.1796 11.7686 17.1796H11.4097ZM22.3326 26.0129C21.7804 26.0129 21.3327 25.5652 21.3327 25.0129V13.0323C21.3327 12.7671 21.2273 12.5127 21.0398 12.3252L16.7039 7.98934C16.0739 7.35937 16.522 6.28223 17.413 6.28223C17.6782 6.28223 17.9328 6.38758 18.1204 6.57512L23.0397 11.4944C23.2273 11.682 23.3326 11.9363 23.3326 12.2015V25.0129C23.3326 25.5652 22.8849 26.0129 22.3326 26.0129ZM26.7428 26.0129C26.1906 26.0129 25.7429 25.5652 25.7429 25.0129V11.2041C25.7429 10.9389 25.6375 10.6845 25.45 10.497L22.9423 7.98934C22.3123 7.35937 22.7705 6.28223 23.6614 6.28223C23.9272 6.28223 24.1842 6.38806 24.3718 6.57635L27.4511 9.66645C27.6379 9.85388 27.7428 10.1077 27.7428 10.3723V25.0129C27.7428 25.5652 27.2951 26.0129 26.7428 26.0129Z" fill="#FF5959"/>
</g>
</svg>
