<svg width="32" height="33" viewBox="0 0 32 33" fill="none" xmlns="http://www.w3.org/2000/svg">
<path fill-rule="evenodd" clip-rule="evenodd" d="M10.2707 6.43315C10.5414 5.6389 11.5514 5.40411 12.1448 5.99746L26.7249 20.5776C27.3183 21.171 27.0835 22.181 26.2892 22.4517L4.1676 29.9932C3.2769 30.2968 2.42554 29.4455 2.72919 28.5548L10.2707 6.43315ZM11.7146 8.39575L11.2344 9.80438L19.7447 22.5698L24.3266 21.0078L11.7146 8.39575ZM8.22193 18.6409L10.4211 12.19L17.7861 23.2375L12.3649 25.0856L8.22193 18.6409ZM7.398 21.0578L5.19115 27.5312L10.4147 25.7505L7.398 21.0578Z" fill="#9B89B9"/>
<path fill-rule="evenodd" clip-rule="evenodd" d="M17.4961 2.16602C18.0484 2.16602 18.4961 2.61373 18.4961 3.16602L18.4961 7.27166C18.4961 7.82394 18.0484 8.27166 17.4961 8.27166C16.9438 8.27166 16.4961 7.82394 16.4961 7.27166V3.16602C16.4961 2.61373 16.9438 2.16602 17.4961 2.16602ZM24.4507 15.1748C24.4507 14.6225 24.8984 14.1748 25.4507 14.1748H29.5563C30.1086 14.1748 30.5563 14.6225 30.5563 15.1748C30.5563 15.7271 30.1086 16.1748 29.5563 16.1748H25.4507C24.8984 16.1748 24.4507 15.7271 24.4507 15.1748ZM26.1327 7.75521C26.5137 7.35535 26.4983 6.72237 26.0985 6.34141C25.6986 5.96046 25.0656 5.97578 24.6847 6.37565L21.8527 9.34821C21.4717 9.74807 21.487 10.381 21.8869 10.762C22.2868 11.143 22.9198 11.1276 23.3007 10.7278L26.1327 7.75521Z" fill="#9B89B9"/>
</svg>
