<svg width="18" height="19" viewBox="0 0 18 19" fill="none" xmlns="http://www.w3.org/2000/svg">
<path d="M9 2.25C7.51664 2.25 6.0666 2.68987 4.83323 3.51398C3.59986 4.33809 2.63856 5.50943 2.07091 6.87987C1.50325 8.25032 1.35472 9.75832 1.64411 11.2132C1.9335 12.668 2.64781 14.0044 3.6967 15.0533C4.7456 16.1022 6.08197 16.8165 7.53683 17.1059C8.99168 17.3953 10.4997 17.2468 11.8701 16.6791C13.2406 16.1114 14.4119 15.1501 15.236 13.9168C16.0601 12.6834 16.5 11.2334 16.5 9.75C16.4978 7.76155 15.7069 5.85519 14.3009 4.44914C12.8948 3.0431 10.9884 2.25221 9 2.25ZM9 15.75C7.81332 15.75 6.65328 15.3981 5.66658 14.7388C4.67989 14.0795 3.91085 13.1425 3.45673 12.0461C3.0026 10.9497 2.88378 9.74334 3.11529 8.57946C3.3468 7.41557 3.91825 6.34647 4.75736 5.50736C5.59648 4.66824 6.66558 4.0968 7.82946 3.86529C8.99335 3.63378 10.1997 3.7526 11.2961 4.20672C12.3925 4.66085 13.3295 5.42988 13.9888 6.41658C14.6481 7.40327 15 8.56331 15 9.75C14.9982 11.3407 14.3655 12.8658 13.2406 13.9906C12.1158 15.1155 10.5907 15.7482 9 15.75ZM9 9.375C8.80109 9.375 8.61033 9.45402 8.46967 9.59467C8.32902 9.73532 8.25 9.92609 8.25 10.125V12.375C8.25 12.5739 8.32902 12.7647 8.46967 12.9053C8.61033 13.046 8.80109 13.125 9 13.125C9.19892 13.125 9.38968 13.046 9.53033 12.9053C9.67099 12.7647 9.75 12.5739 9.75 12.375V10.125C9.75 9.92609 9.67099 9.73532 9.53033 9.59467C9.38968 9.45402 9.19892 9.375 9 9.375ZM9 6.375C8.81458 6.375 8.63333 6.42998 8.47916 6.533C8.32499 6.63601 8.20482 6.78243 8.13387 6.95373C8.06291 7.12504 8.04434 7.31354 8.08052 7.4954C8.11669 7.67725 8.20598 7.8443 8.33709 7.97541C8.4682 8.10652 8.63525 8.19581 8.81711 8.23199C8.99896 8.26816 9.18746 8.24959 9.35877 8.17864C9.53008 8.10768 9.67649 7.98752 9.77951 7.83335C9.88252 7.67918 9.9375 7.49792 9.9375 7.3125C9.9375 7.06386 9.83873 6.8254 9.66292 6.64959C9.4871 6.47377 9.24864 6.375 9 6.375Z" fill="#86969D"/>
</svg>
