<svg width="64" height="64" viewBox="0 0 64 64" fill="none" xmlns="http://www.w3.org/2000/svg">
<rect width="64" height="64" rx="8" fill="#FF5959" fill-opacity="0.1"/>
<path d="M32.0007 32.0003C35.6825 32.0003 38.6673 29.0156 38.6673 25.3337C38.6673 21.6518 35.6825 18.667 32.0007 18.667C28.3188 18.667 25.334 21.6518 25.334 25.3337C25.334 29.0156 28.3188 32.0003 32.0007 32.0003Z" stroke="#FF5959" stroke-width="2" stroke-linecap="round" stroke-linejoin="round"/>
<path d="M20.5469 45.3333C20.5469 40.1733 25.6802 36 32.0002 36C33.2802 36 34.5203 36.1733 35.6803 36.4933" stroke="#FF5959" stroke-width="2" stroke-linecap="round" stroke-linejoin="round"/>
<path d="M45.3327 40.0003C45.3327 40.427 45.2794 40.8403 45.1727 41.2403C45.0527 41.7736 44.8393 42.2937 44.5593 42.747C43.6393 44.2937 41.946 45.3337 39.9993 45.3337C38.626 45.3337 37.3861 44.8136 36.4527 43.9603C36.0527 43.6136 35.706 43.2003 35.4394 42.747C34.946 41.947 34.666 41.0003 34.666 40.0003C34.666 38.5603 35.2394 37.2404 36.1727 36.2804C37.146 35.2804 38.506 34.667 39.9993 34.667C41.5727 34.667 42.9993 35.347 43.9593 36.4403C44.8126 37.387 45.3327 38.6403 45.3327 40.0003Z" stroke="#FF5959" stroke-width="2" stroke-miterlimit="10" stroke-linecap="round" stroke-linejoin="round"/>
<path d="M41.987 39.9736H38.0137" stroke="#FF5959" stroke-width="2" stroke-miterlimit="10" stroke-linecap="round" stroke-linejoin="round"/>
</svg>
