<svg width="172" height="8" viewBox="0 0 172 8" fill="none" xmlns="http://www.w3.org/2000/svg">
<path d="M171.177 4.17679C171.274 4.07916 171.274 3.92087 171.177 3.82324L169.586 2.23225C169.488 2.13462 169.33 2.13462 169.232 2.23225C169.135 2.32988 169.135 2.48817 169.232 2.5858L170.646 4.00001L169.232 5.41423C169.135 5.51186 169.135 5.67015 169.232 5.76778C169.33 5.86541 169.488 5.86541 169.586 5.76778L171.177 4.17679ZM-2.18557e-08 4.25L1.47414 4.25L1.47414 3.75L2.18557e-08 3.75L-2.18557e-08 4.25ZM4.42241 4.25L7.37069 4.25L7.37069 3.75L4.42241 3.75L4.42241 4.25ZM10.319 4.25L13.2672 4.25L13.2672 3.75L10.319 3.75L10.319 4.25ZM16.2155 4.25L19.1638 4.25L19.1638 3.75L16.2155 3.75L16.2155 4.25ZM22.1121 4.25L25.0603 4.25L25.0603 3.75L22.1121 3.75L22.1121 4.25ZM28.0086 4.25L30.9569 4.25L30.9569 3.75L28.0086 3.75L28.0086 4.25ZM33.9052 4.25L36.8535 4.25L36.8535 3.75L33.9052 3.75L33.9052 4.25ZM39.8017 4.25L42.75 4.25L42.75 3.75L39.8017 3.75L39.8017 4.25ZM45.6983 4.25L48.6466 4.25L48.6466 3.75L45.6983 3.75L45.6983 4.25ZM51.5948 4.25L54.5431 4.25L54.5431 3.75L51.5948 3.75L51.5948 4.25ZM57.4914 4.25001L60.4397 4.25001L60.4397 3.75001L57.4914 3.75001L57.4914 4.25001ZM63.3879 4.25001L66.3362 4.25001L66.3362 3.75001L63.3879 3.75001L63.3879 4.25001ZM69.2845 4.25001L72.2328 4.25001L72.2328 3.75001L69.2845 3.75001L69.2845 4.25001ZM75.181 4.25001L78.1293 4.25001L78.1293 3.75001L75.181 3.75001L75.181 4.25001ZM81.0776 4.25001L84.0258 4.25001L84.0258 3.75001L81.0776 3.75001L81.0776 4.25001ZM86.9741 4.25001L89.9224 4.25001L89.9224 3.75001L86.9741 3.75001L86.9741 4.25001ZM92.8707 4.25001L95.8189 4.25001L95.8189 3.75001L92.8707 3.75001L92.8707 4.25001ZM98.7672 4.25001L101.715 4.25001L101.715 3.75001L98.7672 3.75001L98.7672 4.25001ZM104.664 4.25001L107.612 4.25001L107.612 3.75001L104.664 3.75001L104.664 4.25001ZM110.56 4.25001L113.509 4.25001L113.509 3.75001L110.56 3.75001L110.56 4.25001ZM116.457 4.25001L119.405 4.25001L119.405 3.75001L116.457 3.75001L116.457 4.25001ZM122.353 4.25001L125.302 4.25001L125.302 3.75001L122.353 3.75001L122.353 4.25001ZM128.25 4.25001L131.198 4.25001L131.198 3.75001L128.25 3.75001L128.25 4.25001ZM134.146 4.25001L137.095 4.25001L137.095 3.75001L134.146 3.75001L134.146 4.25001ZM140.043 4.25001L142.991 4.25001L142.991 3.75001L140.043 3.75001L140.043 4.25001ZM145.94 4.25001L148.888 4.25001L148.888 3.75001L145.94 3.75001L145.94 4.25001ZM151.836 4.25001L154.784 4.25001L154.784 3.75001L151.836 3.75001L151.836 4.25001ZM157.733 4.25001L160.681 4.25001L160.681 3.75001L157.733 3.75001L157.733 4.25001ZM163.629 4.25001L166.577 4.25001L166.577 3.75001L163.629 3.75001L163.629 4.25001ZM169.526 4.25001L171 4.25001L171 3.75001L169.526 3.75001L169.526 4.25001ZM171.354 4.35357C171.549 4.15831 171.549 3.84172 171.354 3.64646L168.172 0.464481C167.976 0.269219 167.66 0.269219 167.464 0.464481C167.269 0.659743 167.269 0.976325 167.464 1.17159L170.293 4.00001L167.464 6.82844C167.269 7.0237 167.269 7.34029 167.464 7.53555C167.66 7.73081 167.976 7.73081 168.172 7.53555L171.354 4.35357ZM-4.37114e-08 4.5L1.47414 4.5L1.47414 3.5L4.37114e-08 3.5L-4.37114e-08 4.5ZM4.42241 4.5L7.37069 4.5L7.37069 3.5L4.42241 3.5L4.42241 4.5ZM10.319 4.5L13.2672 4.5L13.2672 3.5L10.319 3.5L10.319 4.5ZM16.2155 4.5L19.1638 4.5L19.1638 3.5L16.2155 3.5L16.2155 4.5ZM22.1121 4.5L25.0603 4.5L25.0603 3.5L22.1121 3.5L22.1121 4.5ZM28.0086 4.5L30.9569 4.5L30.9569 3.5L28.0086 3.5L28.0086 4.5ZM33.9052 4.5L36.8535 4.5L36.8535 3.5L33.9052 3.5L33.9052 4.5ZM39.8017 4.5L42.75 4.5L42.75 3.5L39.8017 3.5L39.8017 4.5ZM45.6983 4.5L48.6466 4.5L48.6466 3.5L45.6983 3.5L45.6983 4.5ZM51.5948 4.5L54.5431 4.5L54.5431 3.5L51.5948 3.5L51.5948 4.5ZM57.4914 4.50001L60.4397 4.50001L60.4397 3.50001L57.4914 3.50001L57.4914 4.50001ZM63.3879 4.50001L66.3362 4.50001L66.3362 3.50001L63.3879 3.50001L63.3879 4.50001ZM69.2845 4.50001L72.2328 4.50001L72.2328 3.50001L69.2845 3.50001L69.2845 4.50001ZM75.181 4.50001L78.1293 4.50001L78.1293 3.50001L75.181 3.50001L75.181 4.50001ZM81.0776 4.50001L84.0258 4.50001L84.0258 3.50001L81.0776 3.50001L81.0776 4.50001ZM86.9741 4.50001L89.9224 4.50001L89.9224 3.50001L86.9741 3.50001L86.9741 4.50001ZM92.8707 4.50001L95.8189 4.50001L95.8189 3.50001L92.8707 3.50001L92.8707 4.50001ZM98.7672 4.50001L101.715 4.50001L101.715 3.50001L98.7672 3.50001L98.7672 4.50001ZM104.664 4.50001L107.612 4.50001L107.612 3.50001L104.664 3.50001L104.664 4.50001ZM110.56 4.50001L113.509 4.50001L113.509 3.50001L110.56 3.50001L110.56 4.50001ZM116.457 4.50001L119.405 4.50001L119.405 3.50001L116.457 3.50001L116.457 4.50001ZM122.353 4.50001L125.302 4.50001L125.302 3.50001L122.353 3.50001L122.353 4.50001ZM128.25 4.50001L131.198 4.50001L131.198 3.50001L128.25 3.50001L128.25 4.50001ZM134.146 4.50001L137.095 4.50001L137.095 3.50001L134.146 3.50001L134.146 4.50001ZM140.043 4.50001L142.991 4.50001L142.991 3.50001L140.043 3.50001L140.043 4.50001ZM145.94 4.50001L148.888 4.50001L148.888 3.50001L145.94 3.50001L145.94 4.50001ZM151.836 4.50001L154.784 4.50001L154.784 3.50001L151.836 3.50001L151.836 4.50001ZM157.733 4.50001L160.681 4.50001L160.681 3.50001L157.733 3.50001L157.733 4.50001ZM163.629 4.50001L166.577 4.50001L166.577 3.50001L163.629 3.50001L163.629 4.50001ZM169.526 4.50001L171 4.50001L171 3.50001L169.526 3.50001L169.526 4.50001Z" fill="#86969D"/>
</svg>
