<svg width="888" height="800" viewBox="0 0 888 800" fill="none" xmlns="http://www.w3.org/2000/svg">
<g clip-path="url(#clip0_9405_87111)">
<path opacity="0.1" d="M-27.3068 630C-71.5225 721.325 -76.3535 773.288 -73.242 787.854C-74.634 812.731 -61.8443 857.33 0.450798 836.708C62.7458 816.086 156.107 823.86 195 830.325C190.873 794.188 172.626 781.186 155.206 780.489C142.924 779.998 115.657 770.031 104.849 734.091C94.0408 698.15 66.2621 696.284 50.0707 699.967C-2.39866 712.536 -23.3765 658.559 -27.3068 630Z" fill="white"/>
<path opacity="0.1" d="M896.307 613C940.523 704.325 945.354 756.288 942.242 770.854C943.634 795.731 930.844 840.33 868.549 819.708C806.254 799.086 712.893 806.86 674 813.325C678.127 777.188 696.374 764.186 713.794 763.489C726.076 762.998 753.343 753.031 764.151 717.091C774.959 681.15 802.738 679.284 818.929 682.967C871.399 695.536 892.377 641.559 896.307 613Z" fill="white"/>
<path d="M9.99984 468.802C11.9531 468.184 14.3812 468.791 18.5371 471.151C22.4255 473.358 25.9204 470.427 27.3579 467.071C28.7953 463.716 31.5479 459.408 37.6736 462.626C45.3402 466.655 48.2318 464.228 50.2264 459.193C52.1567 454.32 55.1867 453.473 60.9615 456.12C66.7363 458.767 69.3633 458.726 72.8997 451.376C73.8554 449.248 77.7565 445.543 82.7857 448.679C87.7072 451.748 89.453 450.867 90.888 450.306" stroke="white" stroke-width="4"/>
<path d="M729.305 96.9998C730.338 98.7691 730.28 101.271 728.894 105.845C727.597 110.124 731.226 112.887 734.815 113.551C738.405 114.214 743.214 115.95 741.423 122.634C739.181 131 742.185 133.286 747.536 134.123C752.715 134.933 754.209 137.702 752.898 143.918C751.588 150.134 752.206 152.687 760.154 154.518C762.441 154.982 766.914 157.971 764.962 163.568C763.052 169.044 764.296 170.553 765.159 171.829" stroke="white" stroke-width="4"/>
<circle opacity="0.1" cx="91.8392" cy="224.262" r="16.8123" transform="rotate(29.2558 91.8392 224.262)" fill="white"/>
<circle cx="76.8841" cy="215.884" r="15.3123" transform="rotate(29.2558 76.8841 215.884)" stroke="white" stroke-width="3"/>
<rect x="733.255" y="398" width="32" height="32" rx="4" transform="rotate(45 733.255 398)" fill="#7A74C4"/>
<rect x="715.627" y="400.494" width="29" height="29" rx="2.5" transform="rotate(45 715.627 400.494)" stroke="white" stroke-width="3"/>
<path d="M195.666 375.155C196.904 374.44 198.429 374.44 199.666 375.155L208.079 380.012C209.317 380.726 210.079 382.047 210.079 383.476V393.191C210.079 394.62 209.317 395.94 208.079 396.655L199.666 401.512C198.429 402.226 196.904 402.226 195.666 401.512L187.253 396.655C186.016 395.94 185.253 394.62 185.253 393.191V383.476C185.253 382.047 186.016 380.726 187.253 380.012L195.666 375.155Z" fill="#7A74C4"/>
<path d="M181.833 376.021C182.762 375.485 183.905 375.485 184.833 376.021L193.246 380.878C194.175 381.414 194.746 382.404 194.746 383.476V393.191C194.746 394.262 194.175 395.253 193.246 395.789L184.833 400.646C183.905 401.182 182.762 401.182 181.833 400.646L173.42 395.789C172.492 395.253 171.92 394.262 171.92 393.191V383.476C171.92 382.404 172.492 381.414 173.42 380.878L181.833 376.021Z" stroke="white" stroke-width="2"/>
<path d="M702.242 283.818C702.54 284.881 703.644 285.502 704.708 285.204C705.771 284.905 706.392 283.802 706.094 282.738L702.242 283.818ZM693.999 247L688.279 269.374L710.516 263.141L693.999 247ZM706.094 282.738L700.783 263.792L696.932 264.872L702.242 283.818L706.094 282.738Z" fill="white"/>
<path d="M61.1233 65.7436C61.0833 65.8536 61.0333 66.1936 60.8533 66.4236C60.5633 66.7836 60.2133 67.1336 59.8233 67.3936C57.6833 68.7936 55.3433 69.7636 52.9033 70.5136C52.5633 70.6136 52.2133 70.5336 52.1033 70.2136C52.0133 69.9536 52.0532 69.5736 52.2032 69.3536C52.4132 69.0336 52.7433 68.7736 53.0733 68.5636C54.8933 67.4336 56.7132 66.3036 58.5432 65.2036C58.9432 64.9636 59.4132 64.8136 59.8632 64.6836C60.3932 64.5436 61.0533 65.0336 61.1233 65.7436Z" fill="white"/>
<path d="M57.8829 82.7337C58.2229 82.9737 58.7129 83.4337 58.6129 83.9637C58.5429 84.3737 58.0929 84.4737 57.8229 84.5937C57.6229 84.6837 57.3129 84.6937 57.1229 84.5937C55.3929 83.6237 53.6629 82.6237 51.9529 81.6137C51.7629 81.5037 51.6129 81.2637 51.5429 81.0537C51.4829 80.8537 51.4829 80.5637 51.5829 80.3937C51.6829 80.2137 51.9229 80.0937 52.1329 80.0037C52.2629 79.9437 52.4529 79.9537 52.6029 80.0037C54.4929 80.6437 56.2529 81.5837 57.8829 82.7337Z" fill="white"/>
<path d="M56.8926 75.8536C57.0526 75.9136 57.2226 76.2836 57.1726 76.4236C57.0826 76.6736 56.8526 76.9236 56.6226 77.0736C56.4426 77.1936 56.1726 77.1636 55.8826 77.2136C55.4826 77.0836 55.0226 76.9736 54.5926 76.7736C54.2226 76.6036 53.9426 76.2736 54.0326 75.8436C54.1226 75.4236 54.5026 75.1436 54.9026 75.2236C55.6026 75.3536 56.2526 75.5936 56.8926 75.8536Z" fill="white"/>
<path d="M50.773 63.6535C50.813 63.8035 50.883 63.9735 50.853 64.1135C50.553 65.3335 49.823 66.2435 48.713 66.8135C48.563 66.8935 48.273 66.7635 48.083 66.6635C47.973 66.6035 47.943 66.4035 47.833 66.1835C48.253 65.0335 48.763 63.8935 49.993 63.2735C50.223 63.1535 50.693 63.3935 50.773 63.6535Z" fill="white"/>
<path d="M48.2227 90.8234C48.1527 91.1234 48.1027 91.3534 48.0427 91.5834C47.9527 91.9234 47.2927 92.0934 47.0527 91.8134C46.8027 91.5234 46.5027 91.2034 46.4127 90.8534C45.8427 88.7134 45.3227 86.5534 44.7927 84.4034C44.7427 84.1834 44.7327 83.8934 44.8327 83.7034C44.9627 83.4434 45.1827 83.1334 45.4327 83.0434C45.6827 82.9634 46.0627 83.0634 46.3027 83.2134C46.5527 83.3634 46.7527 83.6534 46.8927 83.9234C47.0727 84.2634 47.2327 84.6534 47.2927 85.0334C47.6227 86.9734 47.9227 88.9334 48.2227 90.8234Z" fill="white"/>
<path d="M44.2426 64.8737C44.2826 65.4337 44.1326 65.9737 43.7326 66.4137C43.4826 66.6937 42.8626 66.6737 42.7026 66.3337C42.5726 66.0537 42.4326 65.7637 42.3826 65.4637C42.1426 63.8937 41.9226 62.3237 41.6826 60.6237C41.7426 60.0337 41.7726 59.3137 41.9126 58.6237C41.9926 58.2137 42.3826 57.9337 42.8026 58.0137C43.0726 58.0637 43.3426 58.3037 43.5426 58.5337C43.6826 58.6937 43.7726 58.9537 43.7926 59.1837C43.9626 61.0737 44.1126 62.9737 44.2426 64.8737Z" fill="white"/>
<path d="M40.6829 82.7137C40.8229 82.8837 40.9729 83.1637 40.9229 83.3337C40.5629 84.7337 39.6529 85.6837 38.3029 86.1837C38.2429 86.2037 38.1429 86.1637 37.9729 86.1337C37.8929 86.0137 37.7329 85.8437 37.6629 85.6437C37.6129 85.5137 37.6429 85.3137 37.7029 85.1737C38.1929 84.1537 38.8629 83.2637 39.8129 82.6337C40.1229 82.4537 40.4529 82.4337 40.6829 82.7137Z" fill="white"/>
<path d="M38.8827 68.0335C38.9827 68.4735 38.5127 68.8735 38.2727 68.7435C37.6427 68.4235 36.9527 68.1535 36.4027 67.7035C34.9327 66.4935 33.5127 65.2035 32.0827 63.9335C31.9127 63.7835 31.7226 63.5735 31.6726 63.3635C31.6026 63.0835 31.5527 62.6935 31.6927 62.4935C31.8427 62.2835 32.2327 62.1235 32.5027 62.1535C32.8727 62.1935 33.2827 62.3635 33.5927 62.5835C35.5527 63.9835 37.1626 65.7535 38.7026 67.5735C38.8426 67.7435 38.8727 68.0035 38.8827 68.0335Z" fill="white"/>
<path d="M37.343 79.0937C37.223 79.3337 37.173 79.5937 37.013 79.7437C36.673 80.0637 36.303 80.3837 35.893 80.6137C34.013 81.6337 32.133 82.6537 30.213 83.6037C29.743 83.8337 29.153 83.8737 28.623 83.9137C28.153 83.9437 27.823 83.2137 28.103 82.8337C28.293 82.5837 28.483 82.2837 28.733 82.1537C31.063 80.9637 33.383 79.7837 35.743 78.6537C36.063 78.4937 36.523 78.5337 36.893 78.5937C37.063 78.6137 37.193 78.9137 37.343 79.0937Z" fill="white"/>
<path d="M35.1726 72.4838C35.3226 72.5938 35.4426 72.9038 35.4026 73.0838C35.3526 73.2638 35.1226 73.4538 34.9226 73.5338C34.7126 73.6238 34.4526 73.5938 34.2126 73.6138C33.3526 73.4838 32.4626 73.4338 31.7526 72.8338C31.5426 72.6538 31.5826 72.1538 31.8326 72.0238C31.9626 71.9538 32.1026 71.8338 32.2426 71.8038C33.3126 71.6038 34.3026 71.8538 35.1726 72.4838Z" fill="white"/>
<path d="M846.123 607.744C846.083 607.854 846.033 608.194 845.853 608.424C845.563 608.784 845.213 609.134 844.823 609.394C842.683 610.794 840.343 611.764 837.903 612.514C837.563 612.614 837.213 612.534 837.103 612.214C837.013 611.954 837.053 611.574 837.203 611.354C837.413 611.034 837.743 610.774 838.073 610.564C839.893 609.434 841.713 608.304 843.543 607.204C843.943 606.964 844.413 606.814 844.863 606.684C845.393 606.544 846.053 607.034 846.123 607.744Z" fill="white"/>
<path d="M842.883 624.734C843.223 624.974 843.713 625.434 843.613 625.964C843.543 626.374 843.093 626.474 842.823 626.594C842.623 626.684 842.313 626.694 842.123 626.594C840.393 625.624 838.663 624.624 836.953 623.614C836.763 623.504 836.613 623.264 836.543 623.054C836.483 622.854 836.483 622.564 836.583 622.394C836.683 622.214 836.923 622.094 837.133 622.004C837.263 621.944 837.453 621.954 837.603 622.004C839.493 622.644 841.253 623.584 842.883 624.734Z" fill="white"/>
<path d="M841.893 617.854C842.053 617.914 842.223 618.284 842.173 618.424C842.083 618.674 841.853 618.924 841.623 619.074C841.443 619.194 841.173 619.164 840.883 619.214C840.483 619.084 840.023 618.974 839.593 618.774C839.223 618.604 838.943 618.274 839.033 617.844C839.123 617.424 839.503 617.144 839.903 617.224C840.603 617.354 841.253 617.594 841.893 617.854Z" fill="white"/>
<path d="M835.773 605.653C835.813 605.803 835.883 605.973 835.853 606.113C835.553 607.333 834.823 608.243 833.713 608.813C833.563 608.893 833.273 608.763 833.083 608.663C832.973 608.603 832.943 608.403 832.833 608.183C833.253 607.033 833.763 605.893 834.993 605.273C835.223 605.153 835.693 605.393 835.773 605.653Z" fill="white"/>
<path d="M833.223 632.823C833.153 633.123 833.103 633.353 833.043 633.583C832.953 633.923 832.293 634.093 832.053 633.813C831.803 633.523 831.503 633.203 831.413 632.853C830.843 630.713 830.323 628.553 829.793 626.403C829.743 626.183 829.733 625.893 829.833 625.703C829.963 625.443 830.183 625.133 830.433 625.043C830.683 624.963 831.063 625.063 831.303 625.213C831.553 625.363 831.753 625.653 831.893 625.923C832.073 626.263 832.233 626.653 832.293 627.033C832.623 628.973 832.923 630.933 833.223 632.823Z" fill="white"/>
<path d="M829.243 606.874C829.283 607.434 829.133 607.974 828.733 608.414C828.483 608.694 827.863 608.674 827.703 608.334C827.573 608.054 827.433 607.764 827.383 607.464C827.143 605.894 826.923 604.324 826.683 602.624C826.743 602.034 826.773 601.314 826.913 600.624C826.993 600.214 827.383 599.934 827.803 600.014C828.073 600.064 828.343 600.304 828.543 600.534C828.683 600.694 828.773 600.954 828.793 601.184C828.963 603.074 829.113 604.974 829.243 606.874Z" fill="white"/>
<path d="M825.683 624.714C825.823 624.884 825.973 625.164 825.923 625.334C825.563 626.734 824.653 627.684 823.303 628.184C823.243 628.204 823.143 628.164 822.973 628.134C822.893 628.014 822.733 627.844 822.663 627.644C822.613 627.514 822.643 627.314 822.703 627.174C823.193 626.154 823.863 625.264 824.813 624.634C825.123 624.454 825.453 624.434 825.683 624.714Z" fill="white"/>
<path d="M823.883 610.034C823.983 610.474 823.513 610.874 823.273 610.744C822.643 610.424 821.953 610.154 821.403 609.704C819.933 608.494 818.513 607.204 817.083 605.934C816.913 605.784 816.723 605.574 816.673 605.364C816.603 605.084 816.553 604.694 816.693 604.494C816.843 604.284 817.233 604.124 817.503 604.154C817.873 604.194 818.283 604.364 818.593 604.584C820.553 605.984 822.163 607.754 823.703 609.574C823.843 609.744 823.873 610.004 823.883 610.034Z" fill="white"/>
<path d="M822.343 621.094C822.223 621.334 822.173 621.594 822.013 621.744C821.673 622.064 821.303 622.384 820.893 622.614C819.013 623.634 817.133 624.654 815.213 625.604C814.743 625.834 814.153 625.874 813.623 625.914C813.153 625.944 812.823 625.214 813.103 624.834C813.293 624.584 813.483 624.284 813.733 624.154C816.063 622.964 818.383 621.784 820.743 620.654C821.063 620.494 821.523 620.534 821.893 620.594C822.063 620.614 822.193 620.914 822.343 621.094Z" fill="white"/>
<path d="M820.173 614.484C820.323 614.594 820.443 614.904 820.403 615.084C820.353 615.264 820.123 615.454 819.923 615.534C819.713 615.624 819.453 615.594 819.213 615.614C818.353 615.484 817.463 615.434 816.753 614.834C816.543 614.654 816.583 614.154 816.833 614.024C816.963 613.954 817.103 613.834 817.243 613.804C818.313 613.604 819.303 613.854 820.173 614.484Z" fill="white"/>
<path d="M36.0764 596.637C36.0364 597.017 36.0364 597.327 35.9564 597.617C35.7264 598.387 35.4664 599.147 35.2264 599.907C34.9264 600.837 35.0564 601.627 35.9064 602.237C36.1264 602.397 36.2464 602.697 36.5264 603.077C35.6964 603.137 35.0664 603.147 34.4364 603.227C33.4964 603.347 33.0164 603.827 32.8664 604.767C32.7664 605.397 32.7464 606.047 32.6264 606.667C32.5564 607.027 32.3664 607.357 32.1264 607.957C31.7164 607.047 31.4564 606.387 31.1264 605.757C30.7864 605.097 30.2764 604.867 29.5264 605.017C28.8264 605.167 28.1364 605.387 27.4364 605.537C27.2264 605.587 26.8964 605.537 26.7764 605.397C26.6764 605.277 26.7164 604.927 26.8064 604.757C27.3264 603.857 27.8864 602.977 28.4164 602.087C28.8964 601.277 28.9964 600.557 28.3764 599.657C27.9064 598.967 27.8164 598.017 27.6064 597.167C27.5564 596.967 27.5964 596.647 27.7264 596.517C27.8264 596.427 28.1864 596.487 28.3464 596.597C29.1364 597.147 29.8864 597.737 30.6564 598.317C31.5364 598.987 32.3964 598.947 33.3064 598.317C34.1564 597.717 34.9164 596.977 36.0764 596.637Z" fill="#5452A5"/>
<path d="M42.226 604.347C42.606 604.777 42.686 605.367 42.356 605.917C42.016 606.477 41.466 606.577 40.886 606.467C40.266 606.347 39.656 606.117 39.036 605.967C38.336 605.797 37.636 605.597 36.926 605.517C35.496 605.367 35.336 605.507 34.966 606.927C34.586 608.397 34.196 609.867 33.786 611.327C33.676 611.707 33.486 612.067 33.256 612.387C32.956 612.827 32.106 612.877 31.766 612.457C31.476 612.087 31.216 611.677 31.016 611.247C30.556 610.227 30.156 609.177 29.706 608.157C29.456 607.587 29.206 607.457 28.566 607.577C27.226 607.817 25.896 608.107 24.556 608.317C23.526 608.487 22.786 607.717 23.056 606.737C23.246 606.057 23.536 605.377 23.886 604.757C24.476 603.707 25.116 602.687 25.786 601.697C26.286 600.967 26.306 600.307 25.976 599.467C25.446 598.137 25.076 596.737 24.706 595.347C24.546 594.737 24.466 594.077 24.486 593.447C24.506 592.377 25.556 591.707 26.536 592.127C27.036 592.337 27.496 592.697 27.926 593.047C28.986 593.897 30.006 594.797 31.056 595.657C31.656 596.137 31.966 596.147 32.576 595.737C33.636 595.027 34.666 594.257 35.746 593.567C36.346 593.177 36.986 592.827 37.666 592.597C38.856 592.187 39.766 592.927 39.686 594.507C39.576 594.877 39.396 595.577 39.166 596.247C38.776 597.377 38.346 598.507 37.916 599.627C37.716 600.157 37.836 600.577 38.266 600.897C38.836 601.327 39.476 601.687 40.016 602.157C40.806 602.847 41.546 603.577 42.226 604.347ZM35.956 597.617C36.036 597.337 36.026 597.017 36.076 596.637C34.916 596.967 34.156 597.717 33.316 598.307C32.406 598.937 31.546 598.967 30.666 598.307C29.896 597.737 29.146 597.137 28.356 596.587C28.196 596.477 27.826 596.407 27.736 596.507C27.606 596.637 27.566 596.957 27.616 597.157C27.836 598.007 27.916 598.957 28.386 599.647C29.006 600.547 28.906 601.267 28.426 602.077C27.896 602.967 27.336 603.847 26.816 604.747C26.716 604.927 26.676 605.277 26.786 605.387C26.906 605.527 27.236 605.577 27.446 605.527C28.156 605.387 28.836 605.157 29.536 605.007C30.286 604.847 30.796 605.087 31.136 605.747C31.456 606.377 31.726 607.037 32.136 607.947C32.376 607.337 32.566 607.007 32.636 606.657C32.756 606.037 32.766 605.387 32.876 604.757C33.036 603.817 33.506 603.347 34.446 603.217C35.076 603.137 35.706 603.127 36.536 603.067C36.256 602.687 36.146 602.387 35.916 602.227C35.066 601.617 34.936 600.827 35.236 599.897C35.466 599.137 35.736 598.387 35.956 597.617Z" fill="white"/>
<path d="M822.076 241.637C822.036 242.017 822.036 242.327 821.956 242.617C821.726 243.387 821.466 244.147 821.226 244.907C820.926 245.837 821.056 246.627 821.906 247.237C822.126 247.397 822.246 247.697 822.526 248.077C821.696 248.137 821.066 248.147 820.436 248.227C819.496 248.347 819.016 248.827 818.866 249.767C818.766 250.397 818.746 251.047 818.626 251.667C818.556 252.027 818.366 252.357 818.126 252.957C817.716 252.047 817.456 251.387 817.126 250.757C816.786 250.097 816.276 249.867 815.526 250.017C814.826 250.167 814.136 250.387 813.436 250.537C813.226 250.587 812.896 250.537 812.776 250.397C812.676 250.277 812.716 249.927 812.806 249.757C813.326 248.857 813.886 247.977 814.416 247.087C814.896 246.277 814.996 245.557 814.376 244.657C813.906 243.967 813.816 243.017 813.606 242.167C813.556 241.967 813.596 241.647 813.726 241.517C813.826 241.427 814.186 241.487 814.346 241.597C815.136 242.147 815.886 242.737 816.656 243.317C817.536 243.987 818.396 243.947 819.306 243.317C820.156 242.717 820.916 241.977 822.076 241.637Z" fill="#6560B7"/>
<path d="M828.226 249.347C828.606 249.777 828.686 250.367 828.356 250.917C828.016 251.477 827.466 251.577 826.886 251.467C826.266 251.347 825.656 251.117 825.036 250.967C824.336 250.797 823.636 250.597 822.926 250.517C821.496 250.367 821.336 250.507 820.966 251.927C820.586 253.397 820.196 254.867 819.786 256.327C819.676 256.707 819.486 257.067 819.256 257.387C818.956 257.827 818.106 257.877 817.766 257.457C817.476 257.087 817.216 256.677 817.016 256.247C816.556 255.227 816.156 254.177 815.706 253.157C815.456 252.587 815.206 252.457 814.566 252.577C813.226 252.817 811.896 253.107 810.556 253.317C809.526 253.487 808.786 252.717 809.056 251.737C809.246 251.057 809.536 250.377 809.886 249.757C810.476 248.707 811.116 247.687 811.786 246.697C812.286 245.967 812.306 245.307 811.976 244.467C811.446 243.137 811.076 241.737 810.706 240.347C810.546 239.737 810.466 239.077 810.486 238.447C810.506 237.377 811.556 236.707 812.536 237.127C813.036 237.337 813.496 237.697 813.926 238.047C814.986 238.897 816.006 239.797 817.056 240.657C817.656 241.137 817.966 241.147 818.576 240.737C819.636 240.027 820.666 239.257 821.746 238.567C822.346 238.177 822.986 237.827 823.666 237.597C824.856 237.187 825.766 237.927 825.686 239.507C825.576 239.877 825.396 240.577 825.166 241.247C824.776 242.377 824.346 243.507 823.916 244.627C823.716 245.157 823.836 245.577 824.266 245.897C824.836 246.327 825.476 246.687 826.016 247.157C826.806 247.847 827.546 248.577 828.226 249.347ZM821.956 242.617C822.036 242.337 822.026 242.017 822.076 241.637C820.916 241.967 820.156 242.717 819.316 243.307C818.406 243.937 817.546 243.967 816.666 243.307C815.896 242.737 815.146 242.137 814.356 241.587C814.196 241.477 813.826 241.407 813.736 241.507C813.606 241.637 813.566 241.957 813.616 242.157C813.836 243.007 813.916 243.957 814.386 244.647C815.006 245.547 814.906 246.267 814.426 247.077C813.896 247.967 813.336 248.847 812.816 249.747C812.716 249.927 812.676 250.277 812.786 250.387C812.906 250.527 813.236 250.577 813.446 250.527C814.156 250.387 814.836 250.157 815.536 250.007C816.286 249.847 816.796 250.087 817.136 250.747C817.456 251.377 817.726 252.037 818.136 252.947C818.376 252.337 818.566 252.007 818.636 251.657C818.756 251.037 818.766 250.387 818.876 249.757C819.036 248.817 819.506 248.347 820.446 248.217C821.076 248.137 821.706 248.127 822.536 248.067C822.256 247.687 822.146 247.387 821.916 247.227C821.066 246.617 820.936 245.827 821.236 244.897C821.466 244.137 821.736 243.387 821.956 242.617Z" fill="white"/>
</g>
<defs>
<clipPath id="clip0_9405_87111">
<path d="M0 0H868C879.046 0 888 8.95431 888 20V780C888 791.046 879.046 800 868 800H0V0Z" fill="white"/>
</clipPath>
</defs>
</svg>
