<svg width="890" height="800" viewBox="0 0 890 800" fill="none" xmlns="http://www.w3.org/2000/svg">
<g clip-path="url(#clip0_10138_53231)">
<path d="M0 20C0 8.95429 8.95431 0 20 0H890V800H20C8.9543 800 0 791.046 0 780V20Z" fill="white"/>
<path d="M781.699 554.179L781.699 554.175C781.699 548.202 779.326 542.473 775.102 538.248C773.011 536.157 770.528 534.498 767.795 533.366C765.062 532.234 762.133 531.651 759.176 531.651C753.202 531.651 747.473 534.024 743.249 538.248C739.025 542.473 736.652 548.202 736.652 554.175C736.652 560.149 739.025 565.878 743.249 570.102C747.473 574.326 753.202 576.699 759.176 576.699L780.307 576.699L780.327 576.699L780.347 576.7C780.623 576.712 780.896 576.641 781.131 576.497C781.362 576.356 781.547 576.151 781.663 575.907C781.765 575.658 781.791 575.384 781.74 575.119C781.689 574.85 781.558 574.602 781.366 574.406C781.366 574.405 781.365 574.405 781.364 574.404L776.673 569.713L776.059 569.099L776.611 568.43C779.919 564.419 781.719 559.378 781.699 554.179ZM759.176 573.914L759.175 573.914C754.608 573.91 750.185 572.323 746.657 569.424C743.129 566.524 740.716 562.491 739.828 558.012C738.941 553.533 739.634 548.884 741.789 544.859C743.945 540.833 747.429 537.679 751.649 535.934C755.869 534.19 760.563 533.962 764.932 535.291C769.301 536.619 773.074 539.421 775.609 543.219C778.143 547.018 779.283 551.577 778.832 556.121C778.382 560.665 776.371 564.912 773.141 568.139C772.882 568.4 772.737 568.752 772.737 569.12C772.737 569.487 772.882 569.84 773.141 570.101C773.141 570.101 773.142 570.101 773.142 570.102L775.324 572.283L776.954 573.914L774.648 573.914L759.176 573.914ZM770.915 548.087L747.436 548.087C747.067 548.087 746.712 548.233 746.451 548.495C746.19 548.756 746.043 549.11 746.043 549.479C746.043 549.849 746.19 550.203 746.451 550.464C746.712 550.726 747.067 550.872 747.436 550.872L770.915 550.872C771.284 550.872 771.639 550.726 771.9 550.464C772.161 550.203 772.308 549.849 772.308 549.479C772.308 549.11 772.161 548.756 771.9 548.495C771.639 548.233 771.284 548.087 770.915 548.087ZM770.915 557.478L756.828 557.478C756.458 557.478 756.104 557.625 755.843 557.886C755.582 558.147 755.435 558.502 755.435 558.871C755.435 559.24 755.582 559.595 755.843 559.856C756.104 560.117 756.458 560.264 756.828 560.264L770.915 560.264C771.284 560.264 771.639 560.117 771.9 559.856C772.161 559.595 772.308 559.24 772.308 558.871C772.308 558.502 772.161 558.147 771.9 557.886C771.639 557.625 771.284 557.478 770.915 557.478Z" fill="black" stroke="white" stroke-width="1.91016"/>
<path d="M766.237 715.833C766.237 708.038 772.55 701.719 780.338 701.719H867.67C875.457 701.719 881.77 708.038 881.77 715.833C881.77 723.627 875.457 729.946 867.67 729.946H780.338C772.55 729.946 766.237 723.627 766.237 715.833Z" fill="#ECECEC"/>
<path d="M766.237 749.754C766.237 741.96 772.55 735.641 780.338 735.641H867.67C875.457 735.641 881.77 741.96 881.77 749.754C881.77 757.549 875.457 763.868 867.67 763.868H780.338C772.55 763.868 766.237 757.549 766.237 749.754Z" fill="#D7D7D7"/>
<path d="M766.237 783.658C766.237 775.863 772.55 769.544 780.338 769.544H867.67C875.457 769.544 881.77 775.863 881.77 783.658C881.77 791.452 875.457 797.771 867.67 797.771H780.338C772.55 797.771 766.237 791.452 766.237 783.658Z" fill="#ECECEC"/>
<path d="M863.012 664.552L863.012 664.554C863.06 664.982 862.726 665.354 862.293 665.354H821.934C821.501 665.354 821.166 664.981 821.221 664.546C821.221 664.546 821.221 664.545 821.221 664.545L826.629 619.076C826.629 619.076 826.629 619.076 826.629 619.076L826.629 619.076L826.84 619.101C826.863 618.911 826.997 618.744 827.181 618.683L863.012 664.552ZM863.012 664.552C862.596 661.073 859.811 642.062 846.633 618.551L846.632 618.549L843.691 613.398L843.69 613.397C843.516 613.096 843.16 612.963 842.831 613.072L842.831 613.072L842.829 613.073L827.114 618.481C827.113 618.481 827.113 618.481 827.112 618.481L863.012 664.552Z" fill="black" stroke="white" stroke-width="0.425262"/>
<path d="M808.282 652.845L808.171 653.012L808.331 653.133L822.614 663.871L822.792 664.005L822.917 663.821L841.899 635.898L841.9 635.897L841.724 635.778C841.9 635.897 841.9 635.897 841.9 635.897L841.9 635.897L841.901 635.895L841.904 635.891L841.915 635.875C841.924 635.86 841.937 635.84 841.954 635.813C841.987 635.76 842.035 635.682 842.093 635.581C842.208 635.38 842.365 635.089 842.53 634.724C842.861 633.996 843.23 632.971 843.377 631.788C843.525 630.604 843.452 629.259 842.895 627.897C842.338 626.533 841.3 625.167 839.541 623.933C836.623 621.888 833.839 621.841 831.494 622.722C829.162 623.599 827.277 625.389 826.113 627.003C821.987 632.72 817.529 639.181 814.103 644.212C812.39 646.727 810.935 648.885 809.908 650.415C809.394 651.18 808.988 651.787 808.71 652.203C808.571 652.412 808.464 652.572 808.392 652.68L808.31 652.803L808.289 652.835L808.284 652.842L808.282 652.844L808.282 652.845C808.282 652.845 808.282 652.845 808.459 652.963L808.282 652.845Z" fill="#232323" stroke="white" stroke-width="0.425262"/>
<path d="M867.98 607.425C872.445 608.016 875.337 613.821 874.678 618.336C874.019 622.852 845.064 618.336 845.064 618.336M867.98 607.425L829.845 594.778L829.984 594.917C829.951 594.832 829.941 594.747 829.945 594.666C830.161 594.641 830.282 594.617 830.284 594.616C830.284 594.616 830.284 594.616 830.284 594.616M867.98 607.425C864.782 607.006 862.366 603.657 861.244 601.788M867.98 607.425L860.434 599.499C860.557 600.309 860.825 601.084 861.244 601.788M845.064 618.336L833.222 601.206C833.221 601.207 833.219 601.208 833.218 601.209L833.206 601.216L833.202 601.218L833.201 601.219L833.201 601.219C833.2 601.219 833.2 601.219 832.98 600.856M845.064 618.336L844.998 618.756L844.818 618.728L844.714 618.578L832.63 601.097L832.373 600.726L832.759 600.492L832.759 600.492L832.76 600.492C832.76 600.492 832.76 600.492 832.98 600.856M845.064 618.336C844.998 618.756 844.998 618.757 844.998 618.757L845 618.757L845.004 618.757L845.02 618.76L845.082 618.769C845.137 618.778 845.219 618.79 845.326 618.806C845.539 618.839 845.851 618.885 846.248 618.942C847.043 619.057 848.179 619.216 849.544 619.393C852.273 619.746 855.921 620.171 859.591 620.454C863.257 620.736 866.964 620.879 869.805 620.665C871.221 620.558 872.452 620.361 873.361 620.033C874.241 619.715 874.98 619.213 875.099 618.398C875.443 616.035 874.86 613.36 873.619 611.198C872.38 609.037 870.443 607.322 868.036 607.003L868.036 607.003C866.566 606.811 865.244 605.939 864.131 604.847C863.023 603.759 862.16 602.489 861.609 601.57M832.98 600.856L833.236 600.679C834.091 600.042 836.691 597.701 834.811 593.913M832.98 600.856L832.76 600.492L832.765 600.488C832.771 600.485 832.78 600.479 832.792 600.471C832.817 600.455 832.855 600.429 832.903 600.395C833 600.326 833.139 600.221 833.3 600.081C833.624 599.8 834.03 599.384 834.37 598.841C835.038 597.776 835.469 596.197 834.43 594.102M834.811 593.913C834.398 593.086 833.722 592.394 832.863 592.054M834.811 593.913L834.43 594.102C834.43 594.102 834.43 594.102 834.43 594.102M834.811 593.913L834.43 594.103C834.43 594.103 834.43 594.102 834.43 594.102M832.863 592.054C831.819 591.641 830.513 591.741 830.284 594.616M832.863 592.054L832.706 592.449C832.706 592.449 832.706 592.449 832.706 592.449M832.863 592.054L832.706 592.449M830.284 594.616L830.616 594.642M830.284 594.616L830.585 594.315C830.628 594.426 830.632 594.54 830.616 594.642M830.616 594.642C830.587 594.836 830.488 594.988 830.454 595.006C830.438 595.012 830.414 595.021 830.406 595.023C830.394 595.027 830.384 595.029 830.382 595.03L830.382 595.03C830.374 595.032 830.368 595.033 830.365 595.034C830.357 595.035 830.348 595.037 830.338 595.039C830.319 595.042 830.292 595.047 830.259 595.052C830.192 595.063 830.096 595.077 829.974 595.091C829.731 595.119 829.384 595.148 828.959 595.156C828.112 595.17 826.949 595.096 825.693 594.742C823.319 594.071 820.639 592.402 819.138 588.522C819.102 588.571 819.064 588.622 819.024 588.674C818.638 589.182 818.073 589.861 817.355 590.545C815.929 591.904 813.846 593.334 811.325 593.406L810.962 593.416L810.895 593.059L811.313 592.98C810.895 593.059 810.895 593.058 810.895 593.058L810.895 593.057L810.895 593.055L810.894 593.049L810.89 593.028C810.887 593.01 810.883 592.985 810.878 592.952C810.869 592.888 810.857 592.795 810.845 592.675C810.821 592.437 810.798 592.093 810.799 591.663C810.802 590.804 810.903 589.598 811.291 588.197C812.069 585.386 813.998 581.816 818.558 578.693C823.135 575.557 828.425 575.242 832.862 576.126C835.081 576.569 837.098 577.314 838.723 578.167C840.338 579.014 841.601 579.988 842.276 580.908L842.276 580.908C843.398 582.441 844.246 583.878 844.981 585.149C845.046 585.261 845.11 585.372 845.173 585.481C845.83 586.618 846.394 587.595 847.003 588.4C847.665 589.273 848.359 589.915 849.242 590.309C850.125 590.703 851.239 590.868 852.768 590.715L852.769 590.715C855.151 590.481 857.084 592.077 858.43 593.933C859.784 595.8 860.643 598.059 860.855 599.435L860.855 599.436C860.97 600.194 861.22 600.917 861.609 601.57M830.616 594.642L830.708 594.65C830.82 593.25 831.186 592.674 831.508 592.453C831.819 592.24 832.232 592.262 832.706 592.449M832.706 592.449C833.453 592.745 834.056 593.354 834.43 594.102M861.609 601.57C861.609 601.569 861.609 601.569 861.608 601.569L861.244 601.788M861.609 601.57C861.609 601.57 861.609 601.57 861.609 601.57L861.244 601.788" fill="black" stroke="white" stroke-width="0.850523"/>
<path d="M729.07 617.471L750.609 671.694C751.25 673.307 752.992 674.194 754.677 673.765L793.819 663.701L791.324 659.37L758.395 666.771C757.842 666.894 757.284 666.609 757.061 666.09L737.626 621.066C736.125 617.84 732.419 616.283 729.07 617.471Z" fill="#383838"/>
<path d="M778.024 752.734C778.024 752.734 783.12 760.989 780.296 765.27C777.472 769.551 776.913 774.518 778.074 775.377L797.402 765.063L788.757 747.348L778.024 752.734Z" fill="black" stroke="white" stroke-width="0.425262" stroke-miterlimit="10"/>
<path d="M729.562 740.918C729.562 740.918 726.67 748.275 721.552 748.537C716.429 748.799 712.098 751.294 712.098 752.74L731.861 762.194L740.267 746.371L729.562 740.918Z" fill="black" stroke="white" stroke-width="0.425262" stroke-miterlimit="10"/>
<path d="M722.864 738.423L750.972 682.471L774.737 696.658L746.507 751.294L722.864 738.423Z" fill="white" stroke="black" stroke-width="0.425262" stroke-miterlimit="10"/>
<path d="M828.791 618.337L825.052 609.479L835.589 604.601L841.93 613.604L828.791 618.337Z" fill="#FCF7F7" stroke="black" stroke-width="0.425262" stroke-miterlimit="10"/>
<path d="M813.185 590.519C813.185 590.519 810.182 611.259 827.434 609.239C827.718 609.205 828.544 608.982 828.812 608.87C830.554 608.162 835.571 606.08 836.922 604.601C838.496 602.876 842.782 589.481 837.614 585.786C832.44 582.097 818.894 577.269 813.185 590.519Z" fill="white" stroke="black" stroke-width="0.425262" stroke-miterlimit="10"/>
<path d="M835.601 577.742C835.584 577.728 835.569 577.717 835.556 577.708L835.798 577.358C835.563 577.297 835.412 577.079 835.435 576.839L835.601 577.742ZM835.601 577.742C835.215 577.598 834.973 577.215 835.011 576.8L835.012 576.797L835.012 576.797C835.1 575.907 835.439 573.788 836.627 572.073C837.227 571.208 838.05 570.435 839.174 569.984C840.3 569.534 841.69 569.421 843.395 569.817C847.464 570.758 848.927 574.712 848.605 578.04C848.443 579.713 847.829 581.303 846.804 582.352C845.759 583.424 844.302 583.908 842.578 583.354C842.099 583.2 841.455 582.77 840.789 582.261C840.106 581.74 839.345 581.092 838.62 580.451C837.987 579.893 837.377 579.335 836.865 578.868C836.789 578.798 836.715 578.731 836.644 578.666C836.129 578.196 835.765 577.869 835.601 577.742Z" fill="black" stroke="white" stroke-width="0.850523"/>
<path d="M835.798 577.358C835.563 577.297 835.412 577.079 835.435 576.839C835.608 575.104 836.752 568.713 843.299 570.231C850.856 571.978 848.959 584.959 842.708 582.949C841.112 582.436 836.456 577.814 835.798 577.358Z" fill="black"/>
<path d="M821.934 665.141H862.293C862.6 665.141 862.834 664.879 862.801 664.578C862.388 661.117 859.608 642.135 846.447 618.655L843.506 613.503C843.383 613.291 843.132 613.196 842.898 613.274L827.181 618.683C826.997 618.744 826.863 618.911 826.84 619.101L821.432 664.572C821.393 664.879 821.627 665.141 821.934 665.141Z" fill="black"/>
<path d="M825.052 609.479L826.503 610.556C826.771 610.752 827.128 610.774 827.413 610.607L836.298 605.488C836.309 605.483 836.013 605.064 836.002 605.07C834.523 605.946 832.737 606.867 830.661 607.704C828.607 608.53 826.709 609.088 825.052 609.479Z" fill="black"/>
<path d="M819.261 587.594C819.261 587.594 816.046 592.846 811.313 592.98C811.313 592.98 809.851 585.172 818.798 579.044C827.711 572.938 839.454 577.777 841.932 581.159C846.364 587.215 846.492 591.769 852.81 591.139C857.114 590.714 860.033 596.893 860.434 599.499C860.557 600.309 860.825 601.084 861.244 601.788C862.366 603.657 864.782 607.006 867.98 607.425C872.445 608.016 875.337 613.821 874.678 618.336C874.019 622.852 845.064 618.336 845.064 618.336L832.98 600.856C832.98 600.856 837.038 598.4 834.811 593.913C834.398 593.086 833.722 592.394 832.863 592.054C831.819 591.641 830.513 591.741 830.284 594.616C830.29 594.621 822.018 596.195 819.261 587.594Z" fill="black"/>
<path d="M830.684 598.69C830.684 598.69 832.129 596.575 833.491 597.116" stroke="black" stroke-width="0.425262" stroke-miterlimit="10" stroke-linecap="round"/>
<path d="M821.424 603.323C821.424 603.323 823.919 603.373 824.711 601.302" stroke="black" stroke-width="0.425262" stroke-miterlimit="10" stroke-linecap="round"/>
<path d="M815.056 655.034L780.586 649.91L770.734 655.034L765.287 661.447C765.136 661.625 765.081 661.865 765.136 662.094L765.287 662.686C765.315 662.803 765.432 662.876 765.549 662.859L766.13 662.781C766.303 662.758 766.465 662.669 766.582 662.535L770.121 658.41L767.771 662.541C767.453 663.099 767.274 663.718 767.241 664.36L767.218 664.795C767.202 665.097 767.525 665.298 767.788 665.153L768.228 664.918C768.351 664.851 768.457 664.751 768.53 664.628L771.348 659.962L769.59 665.426C769.579 665.46 769.579 665.499 769.585 665.532L769.791 666.381C769.825 666.52 769.998 666.576 770.109 666.481L770.651 666.023C770.673 666.007 770.69 665.984 770.701 665.962L773.095 661.101L771.834 665.387C771.806 665.476 771.823 665.577 771.873 665.661C771.94 665.767 772.041 666.051 772.18 666.118C772.258 666.152 772.604 665.862 772.677 665.817C772.772 665.761 772.861 665.705 772.956 665.649C773 665.622 773.034 665.588 773.062 665.549L775.311 662.139L776.885 661.698L786.982 661.648L814.068 665.158L815.056 655.034Z" fill="white" stroke="black" stroke-width="0.425262" stroke-miterlimit="10"/>
<path d="M787.773 666.358C787.773 666.358 750.836 670.198 749.457 687.433C748.079 704.668 760.687 735.008 772.207 757.066L796.731 746.528L776.638 701.911L834.455 701.319C834.455 701.319 856.289 696.134 851.165 665.141L806.911 663.696L787.773 666.358Z" fill="white" stroke="black" stroke-width="0.425262" stroke-miterlimit="10"/>
<path d="M839.898 581.673C839.898 581.673 842.622 584.068 844.246 588.416" stroke="#383838" stroke-width="0.425262" stroke-miterlimit="10" stroke-linecap="round"/>
<path d="M812.332 653.917L808.458 660.548C808.458 660.548 772.638 641.571 763.183 641.504C755.525 641.449 751.658 646.048 750.463 647.8C750.223 648.152 750.34 648.632 750.709 648.838C750.949 648.972 751.245 648.961 751.468 648.81L756.089 645.713L751.585 649.977C751.3 650.245 751.239 650.68 751.44 651.015C751.708 651.467 752.316 651.568 752.712 651.227L757.071 647.482L753.728 651.936C753.499 652.237 753.55 652.661 753.834 652.913C754.108 653.147 754.515 653.147 754.783 652.907L758.121 649.915L755.849 652.617C755.598 652.918 755.676 653.376 756.022 653.571C756.257 653.7 756.547 653.672 756.748 653.493L759.103 651.422C759.103 651.422 760.286 650.568 762.781 651.618C765.276 652.667 776.439 657.065 789.705 667.312C802.967 677.554 816.362 678.079 822.669 662.06L812.332 653.917Z" fill="white" stroke="black" stroke-width="0.425262" stroke-miterlimit="10"/>
<path d="M844.677 627.223V621.15C844.677 620.843 844.922 620.598 845.229 620.598C845.536 620.598 845.782 620.843 845.782 621.15V627.223C845.782 627.53 845.536 627.775 845.229 627.775C844.922 627.775 844.677 627.524 844.677 627.223Z" fill="black"/>
<path d="M835.099 619.035L840.67 616.629C840.949 616.506 841.278 616.635 841.395 616.919C841.518 617.198 841.39 617.528 841.105 617.645L835.535 620.05C835.256 620.173 834.926 620.045 834.809 619.76C834.686 619.481 834.815 619.157 835.099 619.035Z" fill="black"/>
<path d="M832.817 656.574L837.109 652.282C837.327 652.065 837.679 652.065 837.891 652.282C838.108 652.5 838.108 652.852 837.891 653.064L833.599 657.356C833.381 657.573 833.029 657.573 832.817 657.356C832.605 657.144 832.605 656.792 832.817 656.574Z" fill="black"/>
<path d="M842.937 659.979H849.01C849.317 659.979 849.562 660.225 849.562 660.532C849.562 660.839 849.317 661.084 849.01 661.084H842.937C842.63 661.084 842.385 660.839 842.385 660.532C842.385 660.23 842.63 659.979 842.937 659.979Z" fill="black"/>
<path d="M858.983 651.785V657.858C858.983 658.165 858.737 658.41 858.43 658.41C858.124 658.41 857.878 658.165 857.878 657.858V651.785C857.878 651.478 858.124 651.233 858.43 651.233C858.732 651.233 858.983 651.478 858.983 651.785Z" fill="black"/>
<path d="M859.843 661.441L854.373 664.075C854.1 664.209 853.765 664.092 853.631 663.818C853.497 663.545 853.614 663.21 853.887 663.076L859.357 660.442C859.631 660.308 859.965 660.425 860.099 660.698C860.233 660.978 860.116 661.307 859.843 661.441Z" fill="black"/>
<path d="M825.779 659.488L831.768 660.492C832.069 660.543 832.276 660.827 832.22 661.129C832.17 661.43 831.885 661.636 831.584 661.581L825.595 660.576C825.294 660.526 825.087 660.241 825.143 659.94C825.193 659.638 825.478 659.437 825.779 659.488Z" fill="black"/>
<path d="M840.717 643.022L846.705 644.027C847.007 644.077 847.213 644.362 847.158 644.663C847.107 644.965 846.823 645.171 846.521 645.115L840.533 644.111C840.231 644.06 840.025 643.776 840.08 643.474C840.131 643.173 840.415 642.972 840.717 643.022Z" fill="black"/>
<path d="M850.071 642.599L854.363 638.307C854.581 638.09 854.933 638.09 855.145 638.307C855.363 638.525 855.363 638.877 855.145 639.089L850.853 643.381C850.635 643.598 850.284 643.598 850.071 643.381C849.854 643.169 849.854 642.817 850.071 642.599Z" fill="black"/>
<path d="M841.753 650.898L846.229 655C846.452 655.207 846.469 655.558 846.262 655.782C846.056 656.005 845.704 656.022 845.481 655.815L841.005 651.713C840.781 651.506 840.765 651.155 840.971 650.931C841.178 650.708 841.529 650.691 841.753 650.898Z" fill="black"/>
<path d="M849.705 651.769L854.963 648.733C855.225 648.582 855.566 648.671 855.722 648.934C855.873 649.196 855.783 649.537 855.521 649.693L850.263 652.729C850.001 652.88 849.661 652.79 849.504 652.528C849.348 652.26 849.443 651.92 849.705 651.769Z" fill="black"/>
<path d="M841.807 634.964L846.099 630.672C846.317 630.454 846.668 630.454 846.88 630.672C847.098 630.889 847.098 631.241 846.88 631.453L842.588 635.745C842.371 635.963 842.019 635.963 841.807 635.745C841.589 635.527 841.589 635.176 841.807 634.964Z" fill="black"/>
<path d="M808.459 652.963L822.742 663.701L841.724 635.778C841.724 635.778 846.339 628.958 839.419 624.107C833.703 620.1 828.58 623.946 826.286 627.127C818.037 638.558 808.459 652.963 808.459 652.963Z" fill="#232323"/>
<path d="M831.462 640.221L833.315 634.439C833.41 634.149 833.722 633.987 834.012 634.082C834.303 634.177 834.465 634.489 834.37 634.78L832.517 640.562C832.422 640.852 832.109 641.014 831.819 640.919C831.529 640.824 831.367 640.512 831.462 640.221Z" fill="#868686"/>
<path d="M825.977 652.985L830.269 648.693C830.486 648.475 830.838 648.475 831.05 648.693C831.268 648.911 831.268 649.262 831.05 649.474L826.758 653.766C826.54 653.984 826.189 653.984 825.977 653.766C825.759 653.554 825.759 653.203 825.977 652.985Z" fill="#868686"/>
<path d="M817.713 657.641L819.131 651.741C819.203 651.445 819.499 651.261 819.8 651.334C820.096 651.406 820.281 651.702 820.208 652.003L818.79 657.903C818.718 658.199 818.422 658.383 818.121 658.31C817.825 658.238 817.641 657.942 817.713 657.641Z" fill="#868686"/>
<path d="M820.651 638.424L826.221 636.019C826.5 635.896 826.829 636.024 826.947 636.309C827.069 636.588 826.941 636.917 826.656 637.034L821.086 639.44C820.807 639.563 820.478 639.434 820.361 639.15C820.244 638.871 820.372 638.541 820.651 638.424Z" fill="#868686"/>
<path d="M817.436 644.692H823.509C823.816 644.692 824.061 644.937 824.061 645.244C824.061 645.551 823.816 645.797 823.509 645.797H817.436C817.129 645.797 816.884 645.551 816.884 645.244C816.884 644.937 817.129 644.692 817.436 644.692Z" fill="#868686"/>
<path d="M831.466 627.223H837.538C837.845 627.223 838.091 627.468 838.091 627.775C838.091 628.082 837.845 628.328 837.538 628.328H831.466C831.159 628.328 830.913 628.082 830.913 627.775C830.913 627.468 831.159 627.223 831.466 627.223Z" fill="#868686"/>
<path d="M811.308 593.142C811.308 593.142 816.124 592.785 819.194 587.695C819.194 587.695 821.326 595.793 830.29 594.616C830.29 594.616 830.295 591.356 832.483 591.931C834.671 592.506 837.741 597.853 832.014 601.296" stroke="black" stroke-width="0.425262" stroke-miterlimit="10" stroke-linecap="round" stroke-linejoin="round"/>
<g clip-path="url(#clip1_10138_53231)">
<rect x="650.438" y="762.009" width="105.465" height="35.722" rx="3.40209" fill="#FCF4EF"/>
<path fill-rule="evenodd" clip-rule="evenodd" d="M661.782 767.562C661.451 767.855 661.333 768.32 661.268 768.746C661.207 769.141 661.39 769.499 661.425 769.89C661.466 770.357 661.26 770.879 661.491 771.275C661.73 771.686 662.181 772.03 662.67 772.03C663.164 772.03 663.51 771.496 663.967 771.275C664.332 771.099 664.773 771.129 665.084 770.864C665.403 770.592 665.642 770.203 665.702 769.797C665.76 769.406 665.583 769.039 665.404 768.703C665.252 768.418 664.93 768.283 664.752 768.014C664.519 767.661 664.59 767.066 664.204 766.888C663.837 766.719 663.41 767.097 663.004 767.21C662.588 767.326 662.11 767.272 661.782 767.562Z" fill="#FD822E"/>
<path fill-rule="evenodd" clip-rule="evenodd" d="M665.939 782.067C665.646 781.736 665.181 781.619 664.755 781.553C664.36 781.493 664.002 781.676 663.611 781.71C663.144 781.752 662.622 781.546 662.226 781.777C661.815 782.016 661.471 782.467 661.471 782.956C661.471 783.45 662.005 783.796 662.226 784.253C662.402 784.618 662.372 785.058 662.637 785.369C662.909 785.689 663.298 785.928 663.704 785.988C664.094 786.046 664.462 785.869 664.798 785.69C665.083 785.538 665.218 785.215 665.487 785.037C665.84 784.804 666.435 784.876 666.613 784.49C666.782 784.122 666.404 783.696 666.291 783.289C666.175 782.874 666.229 782.395 665.939 782.067Z" fill="#FD822E"/>
<path fill-rule="evenodd" clip-rule="evenodd" d="M654.486 789.155C654.398 788.722 654.055 788.388 653.718 788.118C653.407 787.868 653.005 787.847 652.649 787.682C652.223 787.484 651.875 787.045 651.416 787.047C650.941 787.048 650.417 787.267 650.173 787.69C649.926 788.118 650.216 788.685 650.178 789.191C650.149 789.595 649.902 789.962 649.976 790.363C650.052 790.777 650.269 791.178 650.591 791.433C650.9 791.678 651.307 791.709 651.687 791.722C652.01 791.733 652.288 791.521 652.61 791.501C653.032 791.476 653.512 791.836 653.859 791.59C654.189 791.356 654.075 790.798 654.18 790.389C654.288 789.972 654.574 789.584 654.486 789.155Z" fill="#FD822E"/>
<path fill-rule="evenodd" clip-rule="evenodd" d="M663.58 797.441C663.44 797.86 663.571 798.321 663.727 798.723C663.872 799.095 664.21 799.314 664.435 799.636C664.705 800.019 664.787 800.574 665.185 800.802C665.597 801.038 666.16 801.11 666.584 800.866C667.011 800.619 667.044 799.983 667.329 799.564C667.557 799.228 667.954 799.034 668.091 798.65C668.232 798.254 668.244 797.797 668.093 797.416C667.948 797.049 667.611 796.819 667.288 796.618C667.013 796.447 666.667 796.491 666.379 796.347C666 796.158 665.764 795.606 665.341 795.646C664.939 795.683 664.758 796.224 664.463 796.525C664.161 796.833 663.719 797.025 663.58 797.441Z" fill="#FD822E"/>
<path fill-rule="evenodd" clip-rule="evenodd" d="M675.199 776.891C675.64 776.918 676.052 776.672 676.399 776.417C676.721 776.181 676.845 775.798 677.097 775.497C677.398 775.137 677.912 774.914 678.029 774.471C678.151 774.011 678.075 773.449 677.73 773.103C677.38 772.754 676.758 772.887 676.279 772.72C675.896 772.586 675.606 772.253 675.199 772.221C674.78 772.187 674.336 772.294 674.007 772.538C673.69 772.773 673.555 773.158 673.444 773.522C673.35 773.832 673.482 774.155 673.418 774.471C673.333 774.885 672.861 775.255 673.009 775.654C673.149 776.033 673.718 776.068 674.086 776.275C674.461 776.487 674.761 776.864 675.199 776.891Z" fill="#FD822E"/>
<path fill-rule="evenodd" clip-rule="evenodd" d="M691.769 774.934C691.35 774.794 690.889 774.925 690.487 775.081C690.115 775.226 689.896 775.564 689.574 775.789C689.19 776.059 688.636 776.141 688.408 776.539C688.172 776.951 688.1 777.514 688.344 777.938C688.591 778.365 689.227 778.398 689.646 778.683C689.981 778.911 690.176 779.308 690.56 779.445C690.956 779.586 691.412 779.598 691.794 779.447C692.161 779.302 692.391 778.965 692.592 778.642C692.763 778.367 692.719 778.021 692.863 777.733C693.052 777.354 693.603 777.118 693.564 776.695C693.527 776.293 692.986 776.112 692.685 775.817C692.377 775.515 692.185 775.073 691.769 774.934Z" fill="#FD822E"/>
<path fill-rule="evenodd" clip-rule="evenodd" d="M717.601 759.18C717.206 759.377 716.972 759.795 716.799 760.19C716.638 760.556 716.722 760.949 716.654 761.336C716.573 761.798 716.24 762.248 716.36 762.691C716.485 763.15 716.831 763.599 717.303 763.725C717.781 763.853 718.253 763.427 718.752 763.332C719.15 763.256 719.568 763.399 719.936 763.224C720.316 763.044 720.647 762.729 720.81 762.353C720.967 761.991 720.891 761.59 720.805 761.219C720.732 760.904 720.456 760.691 720.354 760.385C720.22 759.984 720.443 759.427 720.116 759.156C719.805 758.897 719.295 759.152 718.873 759.156C718.442 759.16 717.994 758.984 717.601 759.18Z" fill="#FD822E"/>
<path fill-rule="evenodd" clip-rule="evenodd" d="M676.307 790.333C676.726 790.473 677.188 790.342 677.589 790.186C677.961 790.041 678.18 789.703 678.502 789.478C678.886 789.209 679.44 789.126 679.668 788.728C679.904 788.316 679.977 787.753 679.732 787.329C679.485 786.902 678.849 786.869 678.43 786.584C678.095 786.356 677.901 785.959 677.516 785.822C677.12 785.681 676.664 785.669 676.282 785.82C675.915 785.965 675.685 786.302 675.484 786.625C675.313 786.9 675.358 787.246 675.213 787.535C675.025 787.913 674.473 788.149 674.512 788.572C674.549 788.975 675.09 789.155 675.391 789.45C675.699 789.752 675.892 790.194 676.307 790.333Z" fill="#FD822E"/>
<path fill-rule="evenodd" clip-rule="evenodd" d="M691.899 790.146C691.987 790.578 692.331 790.913 692.668 791.182C692.979 791.432 693.381 791.453 693.737 791.619C694.162 791.816 694.511 792.255 694.969 792.254C695.445 792.252 695.968 792.033 696.213 791.61C696.46 791.182 696.17 790.615 696.207 790.109C696.237 789.705 696.484 789.338 696.41 788.937C696.334 788.524 696.116 788.122 695.795 787.868C695.486 787.622 695.079 787.592 694.699 787.579C694.375 787.568 694.098 787.78 693.776 787.799C693.354 787.825 692.874 787.465 692.527 787.71C692.197 787.944 692.311 788.503 692.206 788.911C692.098 789.329 691.812 789.716 691.899 790.146Z" fill="#FD822E"/>
<path fill-rule="evenodd" clip-rule="evenodd" d="M720.638 795.88C721.033 795.683 721.267 795.265 721.44 794.87C721.601 794.504 721.517 794.111 721.585 793.724C721.666 793.262 722 792.812 721.879 792.369C721.755 791.911 721.408 791.461 720.936 791.335C720.459 791.207 719.986 791.634 719.488 791.728C719.09 791.804 718.672 791.661 718.303 791.836C717.923 792.016 717.592 792.331 717.429 792.707C717.272 793.069 717.348 793.47 717.434 793.841C717.507 794.156 717.784 794.369 717.886 794.675C718.02 795.076 717.796 795.633 718.123 795.904C718.434 796.163 718.944 795.908 719.366 795.904C719.797 795.9 720.246 796.076 720.638 795.88Z" fill="#FD822E"/>
<path fill-rule="evenodd" clip-rule="evenodd" d="M721.73 772.672C721.486 773.04 721.492 773.519 721.54 773.948C721.583 774.345 721.853 774.644 721.988 775.013C722.148 775.453 722.084 776.01 722.41 776.333C722.747 776.668 723.272 776.884 723.744 776.757C724.221 776.629 724.417 776.024 724.801 775.692C725.108 775.427 725.542 775.343 725.774 775.007C726.012 774.661 726.142 774.223 726.095 773.815C726.05 773.423 725.784 773.114 725.524 772.836C725.303 772.6 724.957 772.553 724.716 772.339C724.399 772.059 724.314 771.465 723.895 771.393C723.497 771.325 723.182 771.801 722.819 772.015C722.448 772.235 721.971 772.306 721.73 772.672Z" fill="#FD822E"/>
<path fill-rule="evenodd" clip-rule="evenodd" d="M750.442 789.834C750.245 789.439 749.826 789.205 749.431 789.031C749.066 788.871 748.672 788.955 748.285 788.887C747.824 788.806 747.373 788.472 746.931 788.592C746.472 788.717 746.023 789.064 745.896 789.536C745.769 790.013 746.195 790.486 746.29 790.984C746.366 791.382 746.222 791.8 746.398 792.169C746.578 792.548 746.892 792.879 747.268 793.043C747.631 793.2 748.032 793.124 748.402 793.038C748.717 792.965 748.931 792.688 749.237 792.586C749.638 792.452 750.195 792.676 750.466 792.349C750.724 792.037 750.469 791.527 750.465 791.106C750.461 790.674 750.637 790.226 750.442 789.834Z" fill="#FD822E"/>
<path fill-rule="evenodd" clip-rule="evenodd" d="M728.948 785.329C729.089 785.747 729.471 786.037 729.838 786.263C730.178 786.473 730.579 786.444 730.953 786.565C731.399 786.709 731.799 787.101 732.254 787.043C732.726 786.983 733.218 786.702 733.409 786.252C733.601 785.797 733.244 785.27 733.219 784.763C733.199 784.358 733.399 783.964 733.276 783.575C733.15 783.174 732.885 782.803 732.534 782.589C732.198 782.384 731.79 782.403 731.411 782.437C731.089 782.466 730.839 782.71 730.522 782.769C730.106 782.847 729.586 782.548 729.272 782.835C728.973 783.107 729.155 783.648 729.101 784.066C729.045 784.493 728.809 784.913 728.948 785.329Z" fill="#FD822E"/>
<path fill-rule="evenodd" clip-rule="evenodd" d="M735.43 768.629C735.627 769.024 736.046 769.258 736.441 769.432C736.806 769.592 737.2 769.508 737.587 769.576C738.048 769.657 738.499 769.991 738.941 769.871C739.4 769.746 739.849 769.399 739.976 768.927C740.104 768.45 739.677 767.977 739.582 767.479C739.506 767.081 739.65 766.663 739.474 766.294C739.294 765.915 738.98 765.583 738.604 765.42C738.241 765.263 737.84 765.339 737.47 765.425C737.155 765.498 736.941 765.775 736.636 765.877C736.234 766.011 735.678 765.787 735.406 766.114C735.148 766.426 735.403 766.936 735.407 767.357C735.411 767.788 735.235 768.237 735.43 768.629Z" fill="#FD822E"/>
<path fill-rule="evenodd" clip-rule="evenodd" d="M754.016 784.476C754.309 784.807 754.774 784.924 755.2 784.99C755.595 785.05 755.953 784.867 756.344 784.833C756.811 784.791 757.333 784.997 757.729 784.766C758.14 784.527 758.484 784.076 758.484 783.587C758.484 783.093 757.95 782.747 757.729 782.29C757.553 781.925 757.583 781.485 757.318 781.174C757.046 780.854 756.657 780.615 756.251 780.555C755.861 780.497 755.493 780.674 755.157 780.853C754.872 781.005 754.737 781.328 754.468 781.505C754.115 781.739 753.52 781.667 753.342 782.053C753.173 782.42 753.551 782.847 753.664 783.254C753.78 783.669 753.726 784.148 754.016 784.476Z" fill="#FD822E"/>
<path fill-rule="evenodd" clip-rule="evenodd" d="M739.839 798.579C740.28 798.606 740.692 798.36 741.04 798.105C741.361 797.869 741.486 797.486 741.738 797.185C742.039 796.826 742.553 796.602 742.67 796.159C742.792 795.7 742.716 795.137 742.37 794.792C742.021 794.442 741.398 794.575 740.919 794.408C740.537 794.275 740.246 793.942 739.839 793.909C739.421 793.876 738.977 793.982 738.647 794.226C738.33 794.462 738.195 794.847 738.084 795.211C737.99 795.52 738.123 795.843 738.059 796.159C737.974 796.573 737.502 796.944 737.649 797.343C737.79 797.722 738.359 797.756 738.726 797.964C739.102 798.176 739.402 798.552 739.839 798.579Z" fill="#FD822E"/>
<path fill-rule="evenodd" clip-rule="evenodd" d="M753.023 765.834C753.464 765.861 753.876 765.615 754.223 765.36C754.545 765.124 754.669 764.741 754.921 764.44C755.223 764.081 755.737 763.857 755.854 763.414C755.975 762.954 755.899 762.392 755.554 762.046C755.204 761.697 754.582 761.83 754.103 761.663C753.72 761.53 753.43 761.197 753.023 761.164C752.604 761.131 752.16 761.237 751.831 761.481C751.514 761.716 751.379 762.102 751.268 762.466C751.174 762.775 751.307 763.098 751.242 763.414C751.158 763.828 750.686 764.199 750.833 764.597C750.973 764.977 751.543 765.011 751.91 765.218C752.285 765.43 752.585 765.807 753.023 765.834Z" fill="#FD822E"/>
<path fill-rule="evenodd" clip-rule="evenodd" d="M744.179 776.098C743.811 775.854 743.332 775.861 742.903 775.908C742.506 775.952 742.207 776.222 741.838 776.356C741.398 776.517 740.841 776.453 740.518 776.779C740.183 777.116 739.967 777.641 740.094 778.113C740.222 778.59 740.828 778.786 741.159 779.17C741.424 779.477 741.508 779.911 741.845 780.142C742.19 780.381 742.628 780.511 743.036 780.464C743.428 780.419 743.737 780.153 744.015 779.893C744.251 779.672 744.298 779.326 744.512 779.084C744.792 778.768 745.386 778.683 745.458 778.264C745.526 777.865 745.05 777.551 744.836 777.188C744.617 776.816 744.545 776.34 744.179 776.098Z" fill="#FD822E"/>
<path fill-rule="evenodd" clip-rule="evenodd" d="M692.492 765.571C692.925 765.483 693.259 765.139 693.529 764.803C693.778 764.491 693.799 764.089 693.965 763.733C694.163 763.308 694.601 762.959 694.6 762.501C694.598 762.025 694.379 761.502 693.956 761.257C693.528 761.01 692.961 761.3 692.455 761.263C692.051 761.233 691.685 760.986 691.283 761.06C690.87 761.136 690.469 761.354 690.214 761.675C689.968 761.984 689.938 762.391 689.925 762.772C689.914 763.095 690.126 763.372 690.145 763.694C690.171 764.116 689.811 764.597 690.056 764.943C690.29 765.273 690.849 765.159 691.257 765.264C691.675 765.372 692.062 765.658 692.492 765.571Z" fill="#FD822E"/>
<path fill-rule="evenodd" clip-rule="evenodd" d="M652.662 766.259C653.102 766.286 653.514 766.041 653.862 765.785C654.184 765.549 654.308 765.166 654.56 764.865C654.861 764.506 655.375 764.283 655.492 763.839C655.614 763.38 655.538 762.817 655.192 762.472C654.843 762.122 654.221 762.256 653.742 762.089C653.359 761.955 653.069 761.622 652.662 761.589C652.243 761.556 651.799 761.662 651.469 761.907C651.152 762.142 651.018 762.527 650.907 762.891C650.812 763.2 650.945 763.523 650.881 763.839C650.796 764.254 650.324 764.624 650.472 765.023C650.612 765.402 651.181 765.436 651.549 765.644C651.924 765.856 652.224 766.232 652.662 766.259Z" fill="#FD822E"/>
<path fill-rule="evenodd" clip-rule="evenodd" d="M650.108 779.017C650.549 779.044 650.961 778.798 651.308 778.543C651.63 778.307 651.754 777.924 652.006 777.623C652.307 777.264 652.822 777.04 652.939 776.597C653.06 776.138 652.984 775.575 652.639 775.23C652.289 774.88 651.667 775.013 651.188 774.846C650.805 774.713 650.515 774.38 650.108 774.347C649.689 774.314 649.245 774.42 648.916 774.664C648.599 774.9 648.464 775.285 648.353 775.649C648.259 775.958 648.392 776.281 648.327 776.597C648.243 777.011 647.77 777.382 647.918 777.781C648.058 778.16 648.628 778.194 648.995 778.402C649.37 778.613 649.67 778.99 650.108 779.017Z" fill="#FD822E"/>
<path fill-rule="evenodd" clip-rule="evenodd" d="M675.199 764.133C675.64 764.16 676.052 763.914 676.399 763.659C676.721 763.423 676.845 763.04 677.097 762.739C677.398 762.379 677.912 762.156 678.029 761.713C678.151 761.253 678.075 760.691 677.73 760.345C677.38 759.996 676.758 760.129 676.279 759.962C675.896 759.829 675.606 759.495 675.199 759.463C674.78 759.429 674.336 759.536 674.007 759.78C673.69 760.015 673.555 760.4 673.444 760.764C673.35 761.074 673.482 761.397 673.418 761.713C673.333 762.127 672.861 762.498 673.009 762.896C673.149 763.276 673.718 763.31 674.086 763.517C674.461 763.729 674.761 764.106 675.199 764.133Z" fill="#FD822E"/>
<path fill-rule="evenodd" clip-rule="evenodd" d="M707.641 782.725C707.614 783.166 707.859 783.578 708.115 783.926C708.351 784.247 708.734 784.371 709.035 784.624C709.394 784.925 709.617 785.439 710.061 785.556C710.52 785.677 711.083 785.602 711.428 785.256C711.778 784.907 711.644 784.284 711.811 783.805C711.945 783.422 712.278 783.132 712.311 782.725C712.344 782.306 712.238 781.862 711.993 781.533C711.758 781.216 711.373 781.081 711.009 780.97C710.7 780.876 710.377 781.009 710.061 780.944C709.646 780.86 709.276 780.388 708.877 780.535C708.498 780.676 708.464 781.245 708.256 781.612C708.044 781.987 707.667 782.288 707.641 782.725Z" fill="#FD822E"/>
<path fill-rule="evenodd" clip-rule="evenodd" d="M686.219 798.314C686.462 797.945 686.456 797.466 686.409 797.037C686.365 796.641 686.095 796.342 685.961 795.973C685.8 795.532 685.864 794.975 685.538 794.652C685.201 794.317 684.676 794.102 684.204 794.228C683.727 794.356 683.531 794.962 683.147 795.293C682.84 795.558 682.406 795.643 682.175 795.979C681.936 796.325 681.806 796.762 681.853 797.17C681.898 797.562 682.164 797.871 682.424 798.149C682.645 798.386 682.991 798.432 683.233 798.646C683.549 798.926 683.634 799.52 684.053 799.592C684.452 799.66 684.766 799.184 685.129 798.97C685.5 798.751 685.977 798.679 686.219 798.314Z" fill="#FD822E"/>
<path fill-rule="evenodd" clip-rule="evenodd" d="M706.485 767.964C706.044 767.937 705.632 768.183 705.284 768.438C704.963 768.674 704.839 769.057 704.586 769.358C704.285 769.717 703.771 769.94 703.654 770.384C703.533 770.843 703.608 771.406 703.954 771.751C704.303 772.101 704.926 771.968 705.405 772.135C705.788 772.268 706.078 772.601 706.485 772.634C706.904 772.667 707.348 772.561 707.677 772.316C707.994 772.081 708.129 771.696 708.24 771.332C708.334 771.023 708.201 770.7 708.266 770.384C708.35 769.97 708.822 769.599 708.675 769.2C708.534 768.821 707.965 768.787 707.598 768.579C707.223 768.367 706.922 767.991 706.485 767.964Z" fill="#FD822E"/>
<path fill-rule="evenodd" clip-rule="evenodd" d="M705.818 800.705C706.259 800.732 706.671 800.486 707.018 800.231C707.34 799.995 707.464 799.612 707.716 799.311C708.017 798.952 708.532 798.728 708.649 798.285C708.77 797.826 708.694 797.263 708.349 796.917C707.999 796.568 707.377 796.701 706.898 796.534C706.515 796.401 706.225 796.068 705.818 796.035C705.399 796.002 704.955 796.108 704.626 796.352C704.309 796.588 704.174 796.973 704.063 797.337C703.969 797.646 704.102 797.969 704.037 798.285C703.953 798.699 703.48 799.07 703.628 799.469C703.768 799.848 704.338 799.882 704.705 800.09C705.08 800.301 705.38 800.678 705.818 800.705Z" fill="#FD822E"/>
</g>
<g clip-path="url(#clip2_10138_53231)">
<path fill-rule="evenodd" clip-rule="evenodd" d="M37.8106 394.144L76.5064 385.086C79.1667 384.464 81.8463 386.103 82.461 388.729L89.167 417.379C89.7817 420.005 88.108 422.663 85.4477 423.286L46.7519 432.343C44.0916 432.966 41.412 431.327 40.7973 428.701L34.0913 400.051C33.4766 397.425 35.1503 394.766 37.8106 394.144Z" stroke="black" stroke-width="1.09072" stroke-linecap="round" stroke-linejoin="round"/>
<path d="M82.4625 388.729L62.1895 411.102L34.0928 400.051" stroke="black" stroke-width="1.09072" stroke-linecap="round" stroke-linejoin="round"/>
</g>
<path d="M-38.9938 175.741C-7.70494 202.496 32.0521 176.57 36.4295 156.846C41.3235 134.794 5.55377 163.422 25.722 192.596C41.8566 215.936 78.2867 196.943 95.448 183.325C108.364 174.694 132.576 162.154 127.456 204.743C120.827 259.885 165.172 212.327 193.43 223.488" stroke="black"/>
<path d="M754.488 300.754C766.397 298.113 787.122 275.358 779.85 258.512C771.72 239.678 760.064 279.828 790.937 290.526C815.635 299.083 832.956 265.669 838.611 246.492C843.735 233.249 855.291 211.102 874.264 245.164C898.829 289.266 906.808 230.613 934.129 223.742" stroke="black"/>
<circle cx="51.0529" cy="191.936" r="5.70602" transform="rotate(21.5525 51.0529 191.936)" stroke="black"/>
<rect x="211.341" y="751.889" width="9.09607" height="52.5068" rx="4.54803" transform="rotate(-30 211.341 751.889)" stroke="black" stroke-width="0.5"/>
<rect x="227.588" y="763.316" width="9.09607" height="52.5068" rx="4.54803" transform="rotate(-49.2524 227.588 763.316)" stroke="black" stroke-width="0.5"/>
<rect x="254.31" y="775.136" width="9.09607" height="52.5068" rx="4.54803" transform="rotate(-64.7086 254.31 775.136)" stroke="black" stroke-width="0.5"/>
<g clip-path="url(#clip3_10138_53231)">
<rect x="20.999" y="728.116" width="163.864" height="68.0566" rx="5.28595" fill="#FCF4EF"/>
<path fill-rule="evenodd" clip-rule="evenodd" d="M37.4243 733.115C37.7304 733.729 38.3809 734.093 38.9944 734.362C39.5622 734.612 40.1736 734.481 40.7748 734.587C41.4924 734.713 42.192 735.231 42.8795 735.044C43.5923 734.85 44.2901 734.312 44.4867 733.578C44.6854 732.837 44.0226 732.103 43.8752 731.328C43.7574 730.709 43.9802 730.06 43.7079 729.487C43.4276 728.898 42.9395 728.383 42.3548 728.13C41.7922 727.886 41.1692 728.003 40.5931 728.137C40.1036 728.251 39.7723 728.68 39.297 728.839C38.6738 729.047 37.8085 728.7 37.3868 729.208C36.9854 729.691 37.3815 730.484 37.3877 731.139C37.3942 731.809 37.1205 732.506 37.4243 733.115Z" fill="#FD822E"/>
<path fill-rule="evenodd" clip-rule="evenodd" d="M42.6647 749.921C41.9798 749.879 41.3397 750.26 40.7996 750.657C40.2998 751.024 40.107 751.619 39.715 752.087C39.2472 752.645 38.4485 752.992 38.2665 753.681C38.0778 754.395 38.1955 755.268 38.7326 755.805C39.2753 756.348 40.2425 756.141 40.9868 756.401C41.5815 756.608 42.0324 757.126 42.6647 757.176C43.3154 757.228 44.0052 757.063 44.517 756.683C45.0096 756.318 45.2192 755.72 45.3915 755.154C45.5379 754.673 45.3314 754.171 45.4316 753.681C45.563 753.037 46.2965 752.461 46.0673 751.842C45.8492 751.252 44.9648 751.199 44.3941 750.877C43.8109 750.548 43.3444 749.962 42.6647 749.921Z" fill="#FD822E"/>
<path fill-rule="evenodd" clip-rule="evenodd" d="M184.5 773.815C184.045 773.301 183.323 773.118 182.661 773.017C182.048 772.923 181.491 773.207 180.883 773.261C180.157 773.325 179.347 773.005 178.731 773.364C178.093 773.735 177.558 774.436 177.558 775.196C177.558 775.963 178.389 776.501 178.731 777.211C179.005 777.778 178.958 778.463 179.37 778.946C179.793 779.443 180.398 779.813 181.028 779.907C181.635 779.997 182.206 779.722 182.728 779.444C183.171 779.207 183.38 778.707 183.798 778.43C184.346 778.068 185.272 778.179 185.548 777.58C185.81 777.009 185.222 776.346 185.047 775.714C184.867 775.069 184.951 774.325 184.5 773.815Z" fill="#FD822E"/>
<path fill-rule="evenodd" clip-rule="evenodd" d="M25.0135 766.206C25.6277 765.9 25.9912 765.249 26.2607 764.636C26.51 764.068 26.3796 763.457 26.4851 762.856C26.6111 762.138 27.1294 761.438 26.9426 760.751C26.7489 760.038 26.2101 759.34 25.4765 759.144C24.7351 758.945 24.001 759.608 23.2266 759.755C22.6079 759.873 21.9586 759.65 21.3857 759.923C20.7962 760.203 20.2815 760.691 20.0281 761.276C19.7841 761.838 19.9018 762.461 20.0355 763.037C20.149 763.527 20.5787 763.858 20.7374 764.333C20.9455 764.957 20.5981 765.822 21.1062 766.244C21.5898 766.645 22.3824 766.249 23.0377 766.243C23.7075 766.236 24.4041 766.51 25.0135 766.206Z" fill="#FD822E"/>
<path fill-rule="evenodd" clip-rule="evenodd" d="M23.1292 794.845C23.8142 794.887 24.4542 794.505 24.9943 794.109C25.4942 793.742 25.6869 793.147 26.0789 792.679C26.5468 792.121 27.3455 791.774 27.5274 791.085C27.7161 790.371 27.5984 789.497 27.0614 788.96C26.5186 788.417 25.5515 788.624 24.8072 788.365C24.2125 788.158 23.7615 787.64 23.1292 787.589C22.4785 787.537 21.7887 787.703 21.2769 788.082C20.7844 788.448 20.5748 789.046 20.4025 789.612C20.2561 790.092 20.4625 790.594 20.3623 791.085C20.231 791.729 19.4975 792.305 19.7266 792.924C19.9448 793.513 20.8292 793.567 21.3998 793.889C21.9831 794.218 22.4495 794.803 23.1292 794.845Z" fill="#FD822E"/>
<path fill-rule="evenodd" clip-rule="evenodd" d="M45.7781 784.463C45.82 783.778 45.4384 783.138 45.0419 782.598C44.6749 782.098 44.0801 781.905 43.6122 781.513C43.0538 781.046 42.7071 780.247 42.0182 780.065C41.3041 779.876 40.4304 779.994 39.8933 780.531C39.3506 781.074 39.5575 782.041 39.298 782.785C39.0906 783.38 38.573 783.831 38.5224 784.463C38.4703 785.114 38.6358 785.804 39.0154 786.315C39.3807 786.808 39.9791 787.018 40.5447 787.19C41.0254 787.336 41.5273 787.13 42.0182 787.23C42.6619 787.361 43.2377 788.095 43.8569 787.866C44.4463 787.648 44.4996 786.763 44.8218 786.192C45.1511 785.609 45.7365 785.143 45.7781 784.463Z" fill="#FD822E"/>
<path fill-rule="evenodd" clip-rule="evenodd" d="M67.3255 736.49C67.5433 735.839 67.3404 735.122 67.0971 734.498C66.872 733.92 66.3474 733.58 65.9969 733.08C65.5786 732.484 65.4504 731.622 64.8321 731.268C64.1912 730.901 63.3167 730.789 62.659 731.169C61.9942 731.552 61.9438 732.54 61.5005 733.192C61.1463 733.713 60.5296 734.014 60.3171 734.612C60.0984 735.227 60.0796 735.936 60.3138 736.529C60.5392 737.099 61.063 737.456 61.5648 737.769C61.9912 738.035 62.5293 737.965 62.9776 738.189C63.5654 738.483 63.9317 739.34 64.5892 739.279C65.2149 739.221 65.4953 738.381 65.9542 737.913C66.4233 737.435 67.1094 737.136 67.3255 736.49Z" fill="#FD822E"/>
<path fill-rule="evenodd" clip-rule="evenodd" d="M68.2522 755.015C68.2103 755.7 68.5918 756.34 68.9884 756.881C69.3554 757.38 69.9501 757.573 70.4181 757.965C70.9765 758.433 71.3232 759.232 72.0121 759.414C72.7261 759.602 73.5999 759.485 74.137 758.948C74.6797 758.405 74.4728 757.438 74.7323 756.693C74.9396 756.099 75.4572 755.648 75.5078 755.015C75.5599 754.365 75.3945 753.675 75.0149 753.163C74.6496 752.671 74.0512 752.461 73.4855 752.289C73.0048 752.142 72.503 752.349 72.0121 752.249C71.3683 752.117 70.7926 751.384 70.1734 751.613C69.5839 751.831 69.5307 752.715 69.2085 753.286C68.8791 753.869 68.2938 754.336 68.2522 755.015Z" fill="#FD822E"/>
<path fill-rule="evenodd" clip-rule="evenodd" d="M55.511 771.058C56.196 771.1 56.8361 770.719 57.3762 770.322C57.876 769.955 58.0688 769.36 58.4608 768.892C58.9286 768.334 59.7273 767.987 59.9093 767.298C60.0979 766.584 59.9803 765.711 59.4432 765.174C58.9004 764.631 57.9333 764.838 57.189 764.578C56.5943 764.371 56.1433 763.853 55.511 763.803C54.8604 763.751 54.1706 763.916 53.6588 764.296C53.1662 764.661 52.9566 765.259 52.7843 765.825C52.6379 766.306 52.8444 766.808 52.7442 767.298C52.6128 767.942 51.8793 768.518 52.1085 769.137C52.3266 769.727 53.211 769.78 53.7817 770.102C54.3649 770.431 54.8313 771.017 55.511 771.058Z" fill="#FD822E"/>
<path fill-rule="evenodd" clip-rule="evenodd" d="M69.119 785.336C69.7698 785.554 70.4868 785.351 71.1111 785.108C71.6889 784.883 72.0291 784.358 72.5288 784.008C73.1252 783.589 73.9865 783.461 74.3405 782.843C74.7076 782.202 74.8201 781.327 74.4403 780.67C74.0565 780.005 73.0688 779.955 72.417 779.511C71.8962 779.157 71.5946 778.54 70.9969 778.328C70.3819 778.109 69.6728 778.09 69.0802 778.325C68.5099 778.55 68.1525 779.074 67.8397 779.576C67.5739 780.002 67.6434 780.54 67.4196 780.988C67.1261 781.576 66.2686 781.942 66.3296 782.6C66.3878 783.226 67.2283 783.506 67.6961 783.965C68.1742 784.434 68.4733 785.12 69.119 785.336Z" fill="#FD822E"/>
<path fill-rule="evenodd" clip-rule="evenodd" d="M98.0204 750.468C98.4751 750.982 99.1975 751.164 99.8598 751.266C100.473 751.36 101.03 751.076 101.638 751.022C102.363 750.958 103.173 751.277 103.789 750.919C104.427 750.547 104.962 749.846 104.962 749.087C104.962 748.319 104.132 747.782 103.789 747.072C103.515 746.505 103.562 745.82 103.151 745.337C102.728 744.84 102.123 744.469 101.493 744.376C100.886 744.286 100.315 744.561 99.7929 744.839C99.3494 745.075 99.1406 745.576 98.7226 745.852C98.1745 746.215 97.2487 746.103 96.9729 746.703C96.7103 747.274 97.298 747.937 97.4737 748.569C97.6533 749.214 97.5692 749.958 98.0204 750.468Z" fill="#FD822E"/>
<path fill-rule="evenodd" clip-rule="evenodd" d="M89.2103 798.148C89.8952 798.19 90.5353 797.809 91.0754 797.412C91.5752 797.045 91.768 796.45 92.16 795.982C92.6278 795.424 93.4265 795.077 93.6085 794.388C93.7972 793.674 93.6795 792.8 93.1424 792.263C92.5997 791.721 91.6325 791.928 90.8882 791.668C90.2935 791.461 89.8426 790.943 89.2103 790.893C88.5596 790.84 87.8698 791.006 87.358 791.386C86.8654 791.751 86.6558 792.349 86.4835 792.915C86.3371 793.396 86.5436 793.897 86.4434 794.388C86.312 795.032 85.5785 795.608 85.8077 796.227C86.0258 796.816 86.9102 796.87 87.4809 797.192C88.0641 797.521 88.5306 798.107 89.2103 798.148Z" fill="#FD822E"/>
<path fill-rule="evenodd" clip-rule="evenodd" d="M110.647 779.029C110.133 779.484 109.95 780.206 109.849 780.869C109.755 781.482 110.039 782.038 110.093 782.646C110.157 783.372 109.837 784.182 110.196 784.798C110.567 785.436 111.268 785.971 112.028 785.971C112.795 785.971 113.333 785.141 114.043 784.798C114.61 784.524 115.295 784.571 115.778 784.16C116.275 783.736 116.645 783.132 116.739 782.501C116.829 781.895 116.554 781.323 116.276 780.802C116.039 780.358 115.539 780.149 115.262 779.731C114.9 779.183 115.012 778.258 114.412 777.982C113.841 777.719 113.178 778.307 112.546 778.483C111.901 778.662 111.157 778.578 110.647 779.029Z" fill="#FD822E"/>
<path fill-rule="evenodd" clip-rule="evenodd" d="M128.192 801.453C128.877 801.495 129.517 801.113 130.057 800.717C130.557 800.35 130.749 799.755 131.141 799.287C131.609 798.729 132.408 798.382 132.59 797.693C132.779 796.979 132.661 796.105 132.124 795.568C131.581 795.025 130.614 795.232 129.87 794.973C129.275 794.765 128.824 794.248 128.192 794.197C127.541 794.145 126.851 794.311 126.339 794.69C125.847 795.056 125.637 795.654 125.465 796.22C125.319 796.7 125.525 797.202 125.425 797.693C125.293 798.337 124.56 798.912 124.789 799.532C125.007 800.121 125.892 800.174 126.462 800.497C127.046 800.826 127.512 801.411 128.192 801.453Z" fill="#FD822E"/>
<path fill-rule="evenodd" clip-rule="evenodd" d="M133.213 742.388C133.864 742.606 134.581 742.403 135.205 742.16C135.783 741.935 136.123 741.41 136.623 741.06C137.219 740.642 138.08 740.513 138.434 739.895C138.801 739.254 138.914 738.38 138.534 737.722C138.15 737.057 137.163 737.007 136.511 736.563C135.99 736.209 135.688 735.593 135.091 735.38C134.476 735.161 133.767 735.143 133.174 735.377C132.604 735.602 132.246 736.126 131.933 736.628C131.668 737.054 131.737 737.592 131.513 738.041C131.22 738.628 130.362 738.995 130.423 739.652C130.482 740.278 131.322 740.558 131.79 741.017C132.268 741.486 132.567 742.172 133.213 742.388Z" fill="#FD822E"/>
<path fill-rule="evenodd" clip-rule="evenodd" d="M161.034 764.684C160.42 764.99 160.057 765.64 159.787 766.254C159.538 766.821 159.668 767.433 159.563 768.034C159.437 768.752 158.918 769.451 159.105 770.139C159.299 770.852 159.838 771.549 160.571 771.746C161.313 771.945 162.047 771.282 162.821 771.134C163.44 771.017 164.089 771.239 164.662 770.967C165.252 770.687 165.766 770.199 166.02 769.614C166.264 769.051 166.146 768.428 166.012 767.852C165.899 767.363 165.469 767.032 165.31 766.556C165.102 765.933 165.45 765.068 164.942 764.646C164.458 764.245 163.665 764.641 163.01 764.647C162.34 764.653 161.644 764.38 161.034 764.684Z" fill="#FD822E"/>
<path fill-rule="evenodd" clip-rule="evenodd" d="M172.463 796.827C173.148 796.869 173.788 796.488 174.328 796.091C174.828 795.724 175.021 795.129 175.413 794.662C175.881 794.103 176.679 793.756 176.861 793.068C177.05 792.353 176.932 791.48 176.395 790.943C175.853 790.4 174.885 790.607 174.141 790.347C173.546 790.14 173.095 789.622 172.463 789.572C171.813 789.52 171.123 789.685 170.611 790.065C170.118 790.43 169.909 791.028 169.736 791.594C169.59 792.075 169.797 792.577 169.696 793.068C169.565 793.711 168.831 794.287 169.061 794.906C169.279 795.496 170.163 795.549 170.734 795.871C171.317 796.2 171.783 796.786 172.463 796.827Z" fill="#FD822E"/>
<path fill-rule="evenodd" clip-rule="evenodd" d="M145.938 758.939C146.552 758.632 146.916 757.982 147.185 757.368C147.435 756.801 147.304 756.189 147.41 755.588C147.536 754.87 148.054 754.171 147.867 753.483C147.674 752.771 147.135 752.073 146.401 751.876C145.66 751.677 144.926 752.34 144.151 752.488C143.533 752.605 142.883 752.383 142.31 752.655C141.721 752.935 141.206 753.423 140.953 754.008C140.709 754.571 140.827 755.194 140.96 755.77C141.074 756.259 141.504 756.591 141.662 757.066C141.87 757.689 141.523 758.554 142.031 758.976C142.515 759.377 143.307 758.981 143.963 758.975C144.632 758.969 145.329 759.242 145.938 758.939Z" fill="#FD822E"/>
<path fill-rule="evenodd" clip-rule="evenodd" d="M146.031 787.577C146.716 787.619 147.356 787.237 147.896 786.841C148.396 786.474 148.588 785.879 148.98 785.411C149.448 784.853 150.247 784.506 150.429 783.817C150.617 783.103 150.5 782.229 149.963 781.692C149.42 781.149 148.453 781.356 147.709 781.097C147.114 780.889 146.663 780.372 146.031 780.321C145.38 780.269 144.69 780.435 144.178 780.814C143.686 781.18 143.476 781.778 143.304 782.344C143.157 782.824 143.364 783.326 143.264 783.817C143.132 784.461 142.399 785.036 142.628 785.656C142.846 786.245 143.731 786.298 144.301 786.621C144.884 786.95 145.351 787.535 146.031 787.577Z" fill="#FD822E"/>
<path fill-rule="evenodd" clip-rule="evenodd" d="M155.091 723.058C154.477 723.364 154.113 724.015 153.844 724.628C153.594 725.196 153.725 725.807 153.619 726.409C153.493 727.126 152.975 727.826 153.162 728.513C153.356 729.226 153.894 729.924 154.628 730.121C155.369 730.319 156.104 729.656 156.878 729.509C157.497 729.391 158.146 729.614 158.719 729.342C159.308 729.061 159.823 728.573 160.076 727.989C160.32 727.426 160.203 726.803 160.069 726.227C159.955 725.737 159.526 725.406 159.367 724.931C159.159 724.308 159.506 723.442 158.998 723.021C158.515 722.619 157.722 723.015 157.067 723.022C156.397 723.028 155.7 722.754 155.091 723.058Z" fill="#FD822E"/>
<path fill-rule="evenodd" clip-rule="evenodd" d="M181.936 753.11C182.391 753.624 183.114 753.807 183.776 753.908C184.389 754.002 184.946 753.718 185.554 753.664C186.279 753.6 187.089 753.92 187.705 753.562C188.343 753.19 188.878 752.489 188.878 751.729C188.878 750.962 188.048 750.424 187.705 749.715C187.431 749.147 187.478 748.463 187.067 747.98C186.644 747.483 186.039 747.112 185.409 747.018C184.802 746.928 184.231 747.203 183.709 747.482C183.265 747.718 183.057 748.219 182.639 748.495C182.091 748.857 181.165 748.746 180.889 749.346C180.626 749.917 181.214 750.58 181.39 751.211C181.569 751.856 181.485 752.6 181.936 753.11Z" fill="#FD822E"/>
<path fill-rule="evenodd" clip-rule="evenodd" d="M160.983 746.33C161.289 746.945 161.94 747.308 162.553 747.578C163.121 747.827 163.732 747.696 164.333 747.802C165.051 747.928 165.751 748.446 166.438 748.259C167.151 748.066 167.849 747.527 168.045 746.793C168.244 746.052 167.581 745.318 167.434 744.544C167.316 743.925 167.539 743.275 167.266 742.703C166.986 742.113 166.498 741.598 165.913 741.345C165.351 741.101 164.728 741.219 164.152 741.352C163.662 741.466 163.331 741.896 162.856 742.054C162.232 742.262 161.367 741.915 160.945 742.423C160.544 742.907 160.94 743.699 160.946 744.355C160.953 745.024 160.679 745.721 160.983 746.33Z" fill="#FD822E"/>
<path fill-rule="evenodd" clip-rule="evenodd" d="M23.9405 740.779C23.4859 740.266 22.7634 740.083 22.1011 739.981C21.4882 739.887 20.9313 740.172 20.3233 740.225C19.5976 740.289 18.7877 739.97 18.1719 740.328C17.5335 740.7 16.9989 741.401 16.9989 742.16C16.9989 742.928 17.8291 743.465 18.1719 744.175C18.4458 744.742 18.3987 745.427 18.81 745.91C19.2333 746.407 19.838 746.778 20.4684 746.871C21.075 746.961 21.6463 746.686 22.1681 746.408C22.6115 746.172 22.8204 745.671 23.2384 745.395C23.7864 745.032 24.7122 745.144 24.988 744.544C25.2506 743.973 24.6629 743.31 24.4872 742.679C24.3077 742.033 24.3917 741.29 23.9405 740.779Z" fill="#FD822E"/>
<path fill-rule="evenodd" clip-rule="evenodd" d="M117.847 764.343C118.301 764.857 119.024 765.04 119.686 765.141C120.299 765.235 120.856 764.951 121.464 764.897C122.19 764.833 122.999 765.153 123.615 764.794C124.254 764.423 124.788 763.722 124.788 762.962C124.788 762.195 123.958 761.657 123.615 760.947C123.341 760.38 123.388 759.695 122.977 759.213C122.554 758.716 121.949 758.345 121.319 758.251C120.712 758.161 120.141 758.436 119.619 758.714C119.176 758.951 118.967 759.452 118.549 759.728C118.001 760.09 117.075 759.979 116.799 760.579C116.537 761.15 117.124 761.813 117.3 762.444C117.479 763.089 117.395 763.833 117.847 764.343Z" fill="#FD822E"/>
<path fill-rule="evenodd" clip-rule="evenodd" d="M112.516 728.961C112.558 728.276 112.177 727.636 111.78 727.096C111.413 726.596 110.818 726.403 110.351 726.011C109.792 725.543 109.445 724.744 108.757 724.562C108.042 724.374 107.169 724.491 106.632 725.028C106.089 725.571 106.296 726.538 106.036 727.283C105.829 727.877 105.311 728.328 105.261 728.961C105.209 729.611 105.374 730.301 105.754 730.813C106.119 731.305 106.717 731.515 107.283 731.687C107.764 731.834 108.266 731.627 108.757 731.728C109.4 731.859 109.976 732.592 110.595 732.363C111.185 732.145 111.238 731.261 111.56 730.69C111.889 730.107 112.475 729.64 112.516 728.961Z" fill="#FD822E"/>
<path fill-rule="evenodd" clip-rule="evenodd" d="M97.3162 771.249C97.3581 770.564 96.9765 769.924 96.58 769.384C96.213 768.884 95.6182 768.691 95.1503 768.299C94.5919 767.832 94.2452 767.033 93.5563 766.851C92.8422 766.662 91.9685 766.78 91.4314 767.317C90.8886 767.86 91.0955 768.827 90.8361 769.571C90.6287 770.166 90.1111 770.617 90.0605 771.249C90.0084 771.9 90.1739 772.59 90.5535 773.101C90.9188 773.594 91.5172 773.804 92.0828 773.976C92.5635 774.122 93.0653 773.916 93.5563 774.016C94.2 774.147 94.7757 774.881 95.395 774.652C95.9844 774.434 96.0377 773.549 96.3599 772.979C96.6892 772.395 97.2746 771.929 97.3162 771.249Z" fill="#FD822E"/>
</g>
<g clip-path="url(#clip4_10138_53231)">
<path d="M64.9388 684.175H141.585V719.524C141.585 724.086 137.887 727.784 133.326 727.784H73.1981C68.6366 727.784 64.9388 724.086 64.9388 719.524V684.175Z" fill="white" stroke="black" stroke-width="0.660744"/>
<rect x="67.9131" y="691.113" width="8.58967" height="1.32149" rx="0.660744" fill="black"/>
<rect x="81.1328" y="705.837" width="8.58967" height="1.32149" rx="0.660744" transform="rotate(-34.0821 81.1328 705.837)" fill="black"/>
<rect x="69.1533" y="703.667" width="8.58967" height="1.32149" rx="0.660744" transform="rotate(69.3009 69.1533 703.667)" fill="black"/>
<rect x="117.75" y="718.741" width="8.58967" height="1.32149" rx="0.660744" transform="rotate(-124.823 117.75 718.741)" fill="black"/>
<rect x="127.432" y="721.061" width="8.58967" height="1.32149" rx="0.660744" transform="rotate(99.3272 127.432 721.061)" fill="black"/>
<rect x="128.446" y="700.638" width="8.58967" height="1.32149" rx="0.660744" transform="rotate(135 128.446 700.638)" fill="black"/>
<rect x="138.438" y="696.399" width="8.58967" height="1.32149" rx="0.660744" transform="rotate(60 138.438 696.399)" fill="black"/>
<rect x="137.953" y="712.917" width="8.58967" height="1.32149" rx="0.660744" transform="rotate(90 137.953 712.917)" fill="black"/>
<rect x="135.746" y="691.728" width="8.58967" height="1.32149" rx="0.660744" transform="rotate(-166.729 135.746 691.728)" fill="black"/>
<rect x="110.686" y="691.215" width="8.58967" height="1.32149" rx="0.660744" transform="rotate(96.4948 110.686 691.215)" fill="black"/>
<rect x="103.267" y="711.473" width="8.58967" height="1.32149" rx="0.660744" transform="rotate(-152.303 103.267 711.473)" fill="black"/>
<rect x="79.4893" y="716.882" width="8.58967" height="1.32149" rx="0.660744" transform="rotate(15 79.4893 716.882)" fill="black"/>
<rect x="72.6631" y="724.494" width="8.58967" height="1.32149" rx="0.660744" transform="rotate(139.531 72.6631 724.494)" fill="black"/>
<rect x="93.7998" y="728.424" width="8.58967" height="1.32149" rx="0.660744" transform="rotate(-21.8941 93.7998 728.424)" fill="black"/>
<rect x="86.7725" y="687.81" width="8.58967" height="1.32149" rx="0.660744" transform="rotate(15.5725 86.7725 687.81)" fill="black"/>
<path d="M64.6084 683.844H141.915V688.469H64.6084V683.844Z" fill="black"/>
</g>
<path d="M87.7344 589.688C96.5128 593.449 107.887 604.555 108.878 619.752" stroke="black" stroke-width="0.660744"/>
<path d="M72.9517 579.662C77.1616 573.425 101.28 577.796 93.1663 591.302C81.2306 607.499 68.9883 585.534 72.9517 579.662Z" stroke="black" stroke-width="0.660744"/>
<path d="M148.169 620.499C149.642 627.856 130.807 641.982 125.803 626.386C122.679 606.58 146.782 613.573 148.169 620.499Z" stroke="black" stroke-width="0.660744"/>
<path d="M56.8507 642.404C57.3322 634.917 79.1815 626.147 79.9782 642.507C77.8699 662.447 56.3975 649.453 56.8507 642.404Z" stroke="black" stroke-width="0.660744"/>
<path d="M132.11 556.232C140.023 558.795 137.519 588.949 121.287 583.285C103.392 577.042 124.66 553.82 132.11 556.232Z" stroke="black" stroke-width="0.660744"/>
<path d="M130.856 623.24C118.37 623.24 106.23 627.682 102.595 644.861" stroke="black" stroke-width="0.660744"/>
<path d="M71.3408 643.218C83.8268 642.386 96.7949 650.408 99.2921 669.969" stroke="black" stroke-width="0.660744"/>
<path d="M123.727 578.648C113.154 602.968 93.7598 658.819 100.772 687.671" stroke="black" stroke-width="0.660744"/>
<path d="M115.502 70.1255C119.713 70.1255 123.127 66.7117 123.127 62.5005C123.127 58.2893 119.713 54.8755 115.502 54.8755C111.291 54.8755 107.877 58.2893 107.877 62.5005C107.877 66.7117 111.291 70.1255 115.502 70.1255Z" stroke="black" stroke-miterlimit="10" stroke-linecap="round" stroke-linejoin="round"/>
<path d="M90.085 64.737V60.2636C90.085 57.6203 92.2454 55.4345 94.9141 55.4345C99.5145 55.4345 101.395 52.1811 99.0825 48.1907C97.7608 45.9032 98.5487 42.9295 100.862 41.6078L105.259 39.0916C107.267 37.897 109.859 38.6086 111.054 40.6166L111.333 41.0995C113.621 45.0899 117.382 45.0899 119.695 41.0995L119.975 40.6166C121.17 38.6086 123.762 37.897 125.77 39.0916L130.167 41.6078C132.48 42.9295 133.268 45.9032 131.946 48.1907C129.633 52.1811 131.514 55.4345 136.115 55.4345C138.758 55.4345 140.944 57.5949 140.944 60.2636V64.737C140.944 67.3803 138.783 69.5661 136.115 69.5661C131.514 69.5661 129.633 72.8195 131.946 76.8099C133.268 79.1228 132.48 82.0711 130.167 83.3928L125.77 85.9091C123.762 87.1036 121.17 86.392 119.975 84.3841L119.695 83.9011C117.408 79.9107 113.646 79.9107 111.333 83.9011L111.054 84.3841C109.859 86.392 107.267 87.1036 105.259 85.9091L100.862 83.3928C98.5487 82.0711 97.7608 79.0974 99.0825 76.8099C101.395 72.8195 99.5145 69.5661 94.9141 69.5661C92.2454 69.5661 90.085 67.3803 90.085 64.737Z" stroke="black" stroke-miterlimit="10" stroke-linecap="round" stroke-linejoin="round"/>
<g clip-path="url(#clip5_10138_53231)">
<path d="M830.452 91.7039C830.573 90.3665 830.687 89.103 830.82 87.8833C830.925 86.9277 830.235 86.0682 829.28 85.9635C821.88 85.153 816.479 82.4093 812.283 77.3288C811.682 76.6019 810.613 76.485 809.87 77.0646C804.674 81.1164 798.808 82.626 791.409 81.8156C790.453 81.7109 789.594 82.4008 789.489 83.3563C789.355 84.5763 789.193 85.8349 789.021 87.167C787.424 99.5612 785.236 116.536 805.159 125.982C805.336 126.066 805.524 126.119 805.716 126.14C805.907 126.161 806.102 126.15 806.293 126.106C827.79 121.196 829.329 104.15 830.452 91.7039ZM806.106 122.573C789.052 114.176 790.868 100.071 792.474 87.6119C792.571 86.8642 792.664 86.1394 792.752 85.4285C799.714 85.8951 805.486 84.402 810.683 80.7888C814.975 85.4413 820.288 88.1487 827.187 89.2002C827.118 89.9129 827.053 90.6402 826.985 91.3907C825.856 103.903 824.576 118.067 806.106 122.573Z" fill="black" stroke="white" stroke-width="2.62647"/>
<path d="M815.04 96.0654L805.774 103.501L802.6 99.5475C801.999 98.798 800.903 98.678 800.154 99.2795C799.404 99.8814 799.284 100.977 799.886 101.727L804.148 107.038C804.449 107.413 804.874 107.63 805.316 107.679C805.759 107.727 806.22 107.607 806.595 107.306L817.218 98.7804C817.968 98.1788 818.088 97.0831 817.486 96.3336C816.885 95.5839 815.789 95.4637 815.04 96.0654Z" fill="black" stroke="white" stroke-width="2.62647"/>
</g>
<path d="M797.781 414.611C792.75 414.617 787.927 416.617 784.37 420.174C780.813 423.732 778.812 428.555 778.807 433.585C778.807 438.655 780.779 443.419 784.362 447.001C786.12 448.769 788.211 450.171 790.514 451.125C792.818 452.079 795.287 452.566 797.781 452.559C802.811 452.554 807.634 450.553 811.191 446.996C814.749 443.439 816.749 438.616 816.754 433.585C816.749 428.555 814.749 423.732 811.191 420.174C807.634 416.617 802.811 414.617 797.781 414.611ZM786.311 446.878C787.623 445.172 789.303 443.784 791.225 442.818C793.148 441.851 795.264 441.332 797.416 441.298C797.483 441.3 797.548 441.317 797.615 441.317H797.68C797.741 441.317 797.797 441.3 797.859 441.298C800.04 441.335 802.184 441.871 804.126 442.867C806.067 443.862 807.755 445.289 809.059 447.038C805.904 449.7 801.909 451.159 797.781 451.156C793.566 451.164 789.491 449.644 786.311 446.878ZM797.623 439.881C797.553 439.881 797.486 439.892 797.416 439.895C795.778 439.839 794.227 439.147 793.092 437.966C791.956 436.785 791.326 435.207 791.336 433.568C791.339 432.739 791.506 431.918 791.827 431.153C792.147 430.389 792.616 429.695 793.206 429.111C793.795 428.528 794.494 428.067 795.262 427.754C796.031 427.442 796.853 427.284 797.682 427.29C798.512 427.293 799.332 427.459 800.097 427.78C800.862 428.101 801.556 428.569 802.139 429.159C802.723 429.749 803.184 430.447 803.497 431.216C803.809 431.984 803.967 432.806 803.961 433.636C803.961 437.036 801.24 439.799 797.862 439.898C797.783 439.895 797.705 439.881 797.623 439.881ZM810.1 446.095C807.93 443.232 804.845 441.2 801.358 440.338C802.571 439.673 803.583 438.694 804.288 437.504C804.993 436.313 805.365 434.955 805.364 433.571C805.361 432.558 805.157 431.555 804.766 430.62C804.375 429.685 803.803 428.837 803.083 428.123C802.363 427.41 801.51 426.845 800.571 426.462C799.633 426.078 798.628 425.884 797.615 425.89C796.601 425.893 795.599 426.096 794.664 426.488C793.729 426.879 792.88 427.451 792.167 428.171C791.453 428.89 790.889 429.744 790.506 430.682C790.122 431.62 789.928 432.625 789.933 433.639C789.939 435.009 790.311 436.353 791.013 437.531C791.715 438.708 792.72 439.676 793.923 440.333C790.495 441.175 787.45 443.146 785.279 445.93C782.023 442.65 780.201 438.212 780.212 433.591C780.217 428.932 782.07 424.466 785.364 421.172C788.659 417.878 793.125 416.025 797.783 416.02C802.442 416.025 806.908 417.878 810.202 421.172C813.496 424.466 815.349 428.932 815.354 433.591C815.353 435.92 814.888 438.225 813.986 440.372C813.083 442.519 811.762 444.465 810.1 446.095Z" fill="black" stroke="white" stroke-width="0.620801"/>
<path d="M698.655 104.045L679.223 104.045M698.373 98.4126L679.481 98.4126M688.798 157.554C700.345 157.554 709.92 147.978 709.92 136.432C709.92 124.04 701.471 120.379 701.471 116.718L701.471 113.902C701.471 111.649 699.5 109.678 697.247 109.678L680.349 109.678C678.096 109.678 676.125 111.649 676.125 113.902L676.125 116.718C676.125 120.379 667.676 124.04 667.676 136.432C667.676 147.978 677.252 157.554 688.798 157.554ZM698.655 109.678L698.655 100.102C698.655 98.9759 698.092 97.8494 697.528 97.0045L694.712 94.1882C693.586 93.0617 692.178 92.4985 690.769 92.4985L687.108 92.4985C685.7 92.4985 684.292 93.0617 683.166 94.1882L680.349 97.0045C679.504 97.8494 679.223 98.9759 679.223 100.102L679.223 109.678L698.655 109.678Z" stroke="black" stroke-width="0.716309" stroke-linecap="round" stroke-linejoin="round"/>
<path d="M693.023 109.678L693.023 113.902C693.023 122.069 694.994 130.236 698.655 137.84M684.574 109.678L684.574 113.902C684.574 122.069 682.603 130.236 678.942 137.84" stroke="black" stroke-width="0.716309" stroke-linecap="round" stroke-linejoin="round"/>
<path d="M699.438 137.684C696.778 137.684 696.778 134.554 694.118 134.554C691.458 134.554 691.458 137.684 688.798 137.684C686.139 137.684 686.139 134.554 683.479 134.554C680.819 134.554 680.819 137.684 678.159 137.684" stroke="black" stroke-width="0.716309" stroke-linecap="round" stroke-linejoin="round"/>
<rect width="0.938748" height="92.6231" transform="matrix(-1 0 0 1 689.424 0.000488281)" fill="black"/>
</g>
<defs>
<clipPath id="clip0_10138_53231">
<rect width="890" height="800" fill="white"/>
</clipPath>
<clipPath id="clip1_10138_53231">
<rect x="650.438" y="762.009" width="105.465" height="35.722" rx="3.40209" fill="white"/>
</clipPath>
<clipPath id="clip2_10138_53231">
<rect width="54.6448" height="44.1362" fill="white" transform="translate(30 393.454) rotate(-13.1739)"/>
</clipPath>
<clipPath id="clip3_10138_53231">
<rect x="20.999" y="728.116" width="163.864" height="68.0566" rx="5.28595" fill="white"/>
</clipPath>
<clipPath id="clip4_10138_53231">
<path d="M64.6064 683.845H141.913V719.525C141.913 724.269 138.068 728.115 133.324 728.115H73.1961C68.4522 728.115 64.6064 724.269 64.6064 719.525V683.845Z" fill="white"/>
</clipPath>
<clipPath id="clip5_10138_53231">
<rect width="49.7286" height="49.7286" fill="white" transform="translate(786.414 74) rotate(6.25061)"/>
</clipPath>
</defs>
</svg>
