<svg width="30" height="30" viewBox="0 0 30 30" fill="none" xmlns="http://www.w3.org/2000/svg">
<path d="M7.6797 12.4005V9.94055C7.6797 5.86925 8.9097 2.56055 15.0597 2.56055C21.2097 2.56055 22.4397 5.86925 22.4397 9.94055V12.4005" stroke="#5C5C5C" stroke-width="1.845" stroke-linecap="round" stroke-linejoin="round"/>
<path d="M15.0597 22.8556C16.758 22.8556 18.1347 21.4788 18.1347 19.7806C18.1347 18.0823 16.758 16.7056 15.0597 16.7056C13.3614 16.7056 11.9847 18.0823 11.9847 19.7806C11.9847 21.4788 13.3614 22.8556 15.0597 22.8556Z" stroke="#5C5C5C" stroke-width="1.845" stroke-linecap="round" stroke-linejoin="round"/>
<path d="M21.2097 27.1604H8.9097C3.9897 27.1604 2.7597 25.9304 2.7597 21.0104V18.5504C2.7597 13.6304 3.9897 12.4004 8.9097 12.4004H21.2097C26.1297 12.4004 27.3597 13.6304 27.3597 18.5504V21.0104C27.3597 25.9304 26.1297 27.1604 21.2097 27.1604Z" stroke="#5C5C5C" stroke-width="1.845" stroke-linecap="round" stroke-linejoin="round"/>
</svg>
