<svg width="888" height="800" viewBox="0 0 888 800" fill="none" xmlns="http://www.w3.org/2000/svg">
<g clip-path="url(#clip0_9400_14568)">
<circle opacity="0.05" cx="794.724" cy="-3.0317" r="85.2759" fill="white"/>
<circle opacity="0.05" cx="94.2759" cy="42.5704" r="85.2759" fill="white"/>
<circle opacity="0.05" cx="232.451" cy="197.162" r="46.5141" fill="white"/>
<circle opacity="0.05" cx="99.0629" cy="474.064" r="34.2016" fill="white"/>
<circle opacity="0.05" cx="648.341" cy="137.879" r="24.6251" fill="white"/>
<circle opacity="0.05" cx="721.305" cy="364.977" r="35.5696" fill="white"/>
<g opacity="0.5">
<path d="M771.123 504.744C771.083 504.854 771.033 505.194 770.853 505.424C770.563 505.784 770.213 506.134 769.823 506.394C767.683 507.794 765.343 508.764 762.903 509.514C762.563 509.614 762.213 509.534 762.103 509.214C762.013 508.954 762.053 508.574 762.203 508.354C762.413 508.034 762.743 507.774 763.073 507.564C764.893 506.434 766.713 505.304 768.543 504.204C768.943 503.964 769.413 503.814 769.863 503.684C770.393 503.544 771.053 504.034 771.123 504.744Z" fill="white"/>
<path d="M767.883 521.733C768.223 521.973 768.713 522.433 768.613 522.963C768.543 523.373 768.093 523.473 767.823 523.593C767.623 523.683 767.313 523.693 767.123 523.593C765.393 522.623 763.663 521.623 761.953 520.613C761.763 520.503 761.613 520.263 761.543 520.053C761.483 519.853 761.483 519.563 761.583 519.393C761.683 519.213 761.923 519.093 762.133 519.003C762.263 518.943 762.453 518.953 762.603 519.003C764.493 519.643 766.253 520.583 767.883 521.733Z" fill="white"/>
<path d="M766.893 514.854C767.053 514.914 767.223 515.284 767.173 515.424C767.083 515.674 766.853 515.924 766.623 516.074C766.443 516.194 766.173 516.164 765.883 516.214C765.483 516.084 765.023 515.974 764.593 515.774C764.223 515.604 763.943 515.274 764.033 514.844C764.123 514.424 764.503 514.144 764.903 514.224C765.603 514.354 766.253 514.594 766.893 514.854Z" fill="white"/>
<path d="M760.773 502.654C760.813 502.804 760.883 502.974 760.853 503.114C760.553 504.334 759.823 505.244 758.713 505.814C758.563 505.894 758.273 505.764 758.083 505.664C757.973 505.604 757.943 505.404 757.833 505.184C758.253 504.034 758.763 502.894 759.993 502.274C760.223 502.154 760.693 502.394 760.773 502.654Z" fill="white"/>
<path d="M758.223 529.824C758.153 530.124 758.103 530.354 758.043 530.584C757.953 530.924 757.293 531.094 757.053 530.814C756.803 530.524 756.503 530.204 756.413 529.854C755.843 527.714 755.323 525.554 754.793 523.404C754.743 523.184 754.733 522.894 754.833 522.704C754.963 522.444 755.183 522.134 755.433 522.044C755.683 521.964 756.063 522.064 756.303 522.214C756.553 522.364 756.753 522.654 756.893 522.924C757.073 523.264 757.233 523.654 757.293 524.034C757.623 525.974 757.923 527.934 758.223 529.824Z" fill="white"/>
<path d="M754.243 503.874C754.283 504.434 754.133 504.974 753.733 505.414C753.483 505.694 752.863 505.674 752.703 505.334C752.573 505.054 752.433 504.764 752.383 504.464C752.143 502.894 751.923 501.324 751.683 499.624C751.743 499.034 751.773 498.314 751.913 497.624C751.993 497.214 752.383 496.934 752.803 497.014C753.073 497.064 753.343 497.304 753.543 497.534C753.683 497.694 753.773 497.954 753.793 498.184C753.963 500.074 754.113 501.974 754.243 503.874Z" fill="white"/>
<path d="M750.683 521.713C750.823 521.883 750.973 522.163 750.923 522.333C750.563 523.733 749.653 524.683 748.303 525.183C748.243 525.203 748.143 525.163 747.973 525.133C747.893 525.013 747.733 524.843 747.663 524.643C747.613 524.513 747.643 524.313 747.703 524.173C748.193 523.153 748.863 522.263 749.813 521.633C750.123 521.453 750.453 521.433 750.683 521.713Z" fill="white"/>
<path d="M748.883 507.034C748.983 507.474 748.513 507.874 748.273 507.744C747.643 507.424 746.953 507.154 746.403 506.704C744.933 505.494 743.513 504.204 742.083 502.934C741.913 502.784 741.723 502.574 741.673 502.364C741.603 502.084 741.553 501.694 741.693 501.494C741.843 501.284 742.233 501.124 742.503 501.154C742.873 501.194 743.283 501.364 743.593 501.584C745.553 502.984 747.163 504.754 748.703 506.574C748.843 506.744 748.873 507.004 748.883 507.034Z" fill="white"/>
<path d="M747.343 518.094C747.223 518.334 747.173 518.594 747.013 518.744C746.673 519.064 746.303 519.384 745.893 519.614C744.013 520.634 742.133 521.654 740.213 522.604C739.743 522.834 739.153 522.874 738.623 522.914C738.153 522.944 737.823 522.214 738.103 521.834C738.293 521.584 738.483 521.284 738.733 521.154C741.063 519.964 743.383 518.784 745.743 517.654C746.063 517.494 746.523 517.534 746.893 517.594C747.063 517.614 747.193 517.914 747.343 518.094Z" fill="white"/>
<path d="M745.173 511.484C745.323 511.594 745.443 511.904 745.403 512.084C745.353 512.264 745.123 512.454 744.923 512.534C744.713 512.624 744.453 512.594 744.213 512.614C743.353 512.484 742.463 512.434 741.753 511.834C741.543 511.654 741.583 511.154 741.833 511.024C741.963 510.954 742.103 510.834 742.243 510.804C743.313 510.604 744.303 510.854 745.173 511.484Z" fill="white"/>
</g>
<g opacity="0.5">
<path d="M861.123 430.744C861.083 430.854 861.033 431.194 860.853 431.424C860.563 431.784 860.213 432.134 859.823 432.394C857.683 433.794 855.343 434.764 852.903 435.514C852.563 435.614 852.213 435.534 852.103 435.214C852.013 434.954 852.053 434.574 852.203 434.354C852.413 434.034 852.743 433.774 853.073 433.564C854.893 432.434 856.713 431.304 858.543 430.204C858.943 429.964 859.413 429.814 859.863 429.684C860.393 429.544 861.053 430.034 861.123 430.744Z" fill="white"/>
<path d="M857.883 447.733C858.223 447.973 858.713 448.433 858.613 448.963C858.543 449.373 858.093 449.473 857.823 449.593C857.623 449.683 857.313 449.693 857.123 449.593C855.393 448.623 853.663 447.623 851.953 446.613C851.763 446.503 851.613 446.263 851.543 446.053C851.483 445.853 851.483 445.563 851.583 445.393C851.683 445.213 851.923 445.093 852.133 445.003C852.263 444.943 852.453 444.953 852.603 445.003C854.493 445.643 856.253 446.583 857.883 447.733Z" fill="white"/>
<path d="M856.893 440.854C857.053 440.914 857.223 441.284 857.173 441.424C857.083 441.674 856.853 441.924 856.623 442.074C856.443 442.194 856.173 442.164 855.883 442.214C855.483 442.084 855.023 441.974 854.593 441.774C854.223 441.604 853.943 441.274 854.033 440.844C854.123 440.424 854.503 440.144 854.903 440.224C855.603 440.354 856.253 440.594 856.893 440.854Z" fill="white"/>
<path d="M850.773 428.654C850.813 428.804 850.883 428.974 850.853 429.114C850.553 430.334 849.823 431.244 848.713 431.814C848.563 431.894 848.273 431.764 848.083 431.664C847.973 431.604 847.943 431.404 847.833 431.184C848.253 430.034 848.763 428.894 849.993 428.274C850.223 428.154 850.693 428.394 850.773 428.654Z" fill="white"/>
<path d="M848.223 455.824C848.153 456.124 848.103 456.354 848.043 456.584C847.953 456.924 847.293 457.094 847.053 456.814C846.803 456.524 846.503 456.204 846.413 455.854C845.843 453.714 845.323 451.554 844.793 449.404C844.743 449.184 844.733 448.894 844.833 448.704C844.963 448.444 845.183 448.134 845.433 448.044C845.683 447.964 846.063 448.064 846.303 448.214C846.553 448.364 846.753 448.654 846.893 448.924C847.073 449.264 847.233 449.654 847.293 450.034C847.623 451.974 847.923 453.934 848.223 455.824Z" fill="white"/>
<path d="M844.243 429.874C844.283 430.434 844.133 430.974 843.733 431.414C843.483 431.694 842.863 431.674 842.703 431.334C842.573 431.054 842.433 430.764 842.383 430.464C842.143 428.894 841.923 427.324 841.683 425.624C841.743 425.034 841.773 424.314 841.913 423.624C841.993 423.214 842.383 422.934 842.803 423.014C843.073 423.064 843.343 423.304 843.543 423.534C843.683 423.694 843.773 423.954 843.793 424.184C843.963 426.074 844.113 427.974 844.243 429.874Z" fill="white"/>
<path d="M840.683 447.713C840.823 447.883 840.973 448.163 840.923 448.333C840.563 449.733 839.653 450.683 838.303 451.183C838.243 451.203 838.143 451.163 837.973 451.133C837.893 451.013 837.733 450.843 837.663 450.643C837.613 450.513 837.643 450.313 837.703 450.173C838.193 449.153 838.863 448.263 839.813 447.633C840.123 447.453 840.453 447.433 840.683 447.713Z" fill="white"/>
<path d="M838.883 433.034C838.983 433.474 838.513 433.874 838.273 433.744C837.643 433.424 836.953 433.154 836.403 432.704C834.933 431.494 833.513 430.204 832.083 428.934C831.913 428.784 831.723 428.574 831.673 428.364C831.603 428.084 831.553 427.694 831.693 427.494C831.843 427.284 832.233 427.124 832.503 427.154C832.873 427.194 833.283 427.364 833.593 427.584C835.553 428.984 837.163 430.754 838.703 432.574C838.843 432.744 838.873 433.004 838.883 433.034Z" fill="white"/>
<path d="M837.343 444.094C837.223 444.334 837.173 444.594 837.013 444.744C836.673 445.064 836.303 445.384 835.893 445.614C834.013 446.634 832.133 447.654 830.213 448.604C829.743 448.834 829.153 448.874 828.623 448.914C828.153 448.944 827.823 448.214 828.103 447.834C828.293 447.584 828.483 447.284 828.733 447.154C831.063 445.964 833.383 444.784 835.743 443.654C836.063 443.494 836.523 443.534 836.893 443.594C837.063 443.614 837.193 443.914 837.343 444.094Z" fill="white"/>
<path d="M835.173 437.484C835.323 437.594 835.443 437.904 835.403 438.084C835.353 438.264 835.123 438.454 834.923 438.534C834.713 438.624 834.453 438.594 834.213 438.614C833.353 438.484 832.463 438.434 831.753 437.834C831.543 437.654 831.583 437.154 831.833 437.024C831.963 436.954 832.103 436.834 832.243 436.804C833.313 436.604 834.303 436.854 835.173 437.484Z" fill="white"/>
</g>
<g opacity="0.5">
<path d="M103.123 610.744C103.083 610.854 103.033 611.194 102.853 611.424C102.563 611.784 102.213 612.134 101.823 612.394C99.6833 613.794 97.3433 614.764 94.9033 615.514C94.5633 615.614 94.2133 615.534 94.1033 615.214C94.0133 614.954 94.0532 614.574 94.2032 614.354C94.4132 614.034 94.7433 613.774 95.0733 613.564C96.8933 612.434 98.7132 611.304 100.543 610.204C100.943 609.964 101.413 609.814 101.863 609.684C102.393 609.544 103.053 610.034 103.123 610.744Z" fill="white"/>
<path d="M99.8829 627.733C100.223 627.973 100.713 628.433 100.613 628.963C100.543 629.373 100.093 629.473 99.8229 629.593C99.6229 629.683 99.3129 629.693 99.1229 629.593C97.3929 628.623 95.6629 627.623 93.9529 626.613C93.7629 626.503 93.6129 626.263 93.5429 626.053C93.4829 625.853 93.4829 625.563 93.5829 625.393C93.6829 625.213 93.9229 625.093 94.1329 625.003C94.2629 624.943 94.4529 624.953 94.6029 625.003C96.4929 625.643 98.2529 626.583 99.8829 627.733Z" fill="white"/>
<path d="M98.8926 620.854C99.0526 620.914 99.2226 621.284 99.1726 621.424C99.0826 621.674 98.8526 621.924 98.6226 622.074C98.4426 622.194 98.1726 622.164 97.8826 622.214C97.4826 622.084 97.0226 621.974 96.5926 621.774C96.2226 621.604 95.9426 621.274 96.0326 620.844C96.1226 620.424 96.5026 620.144 96.9026 620.224C97.6026 620.354 98.2526 620.594 98.8926 620.854Z" fill="white"/>
<path d="M92.773 608.654C92.813 608.804 92.883 608.974 92.853 609.114C92.553 610.334 91.823 611.244 90.713 611.814C90.563 611.894 90.273 611.764 90.083 611.664C89.973 611.604 89.943 611.404 89.833 611.184C90.253 610.034 90.763 608.894 91.993 608.274C92.223 608.154 92.693 608.394 92.773 608.654Z" fill="white"/>
<path d="M90.2227 635.824C90.1527 636.124 90.1027 636.354 90.0427 636.584C89.9527 636.924 89.2927 637.094 89.0527 636.814C88.8027 636.524 88.5027 636.204 88.4127 635.854C87.8427 633.714 87.3227 631.554 86.7927 629.404C86.7427 629.184 86.7327 628.894 86.8327 628.704C86.9627 628.444 87.1827 628.134 87.4327 628.044C87.6827 627.964 88.0627 628.064 88.3027 628.214C88.5527 628.364 88.7527 628.654 88.8927 628.924C89.0727 629.264 89.2327 629.654 89.2927 630.034C89.6227 631.974 89.9227 633.934 90.2227 635.824Z" fill="white"/>
<path d="M86.2426 609.874C86.2826 610.434 86.1326 610.974 85.7326 611.414C85.4826 611.694 84.8626 611.674 84.7026 611.334C84.5726 611.054 84.4326 610.764 84.3826 610.464C84.1426 608.894 83.9226 607.324 83.6826 605.624C83.7426 605.034 83.7726 604.314 83.9126 603.624C83.9926 603.214 84.3826 602.934 84.8026 603.014C85.0726 603.064 85.3426 603.304 85.5426 603.534C85.6826 603.694 85.7726 603.954 85.7926 604.184C85.9626 606.074 86.1126 607.974 86.2426 609.874Z" fill="white"/>
<path d="M82.6829 627.713C82.8229 627.883 82.9729 628.163 82.9229 628.333C82.5629 629.733 81.6529 630.683 80.3029 631.183C80.2429 631.203 80.1429 631.163 79.9729 631.133C79.8929 631.013 79.7329 630.843 79.6629 630.643C79.6129 630.513 79.6429 630.313 79.7029 630.173C80.1929 629.153 80.8629 628.263 81.8129 627.633C82.1229 627.453 82.4529 627.433 82.6829 627.713Z" fill="white"/>
<path d="M80.8827 613.034C80.9827 613.474 80.5127 613.874 80.2727 613.744C79.6427 613.424 78.9527 613.154 78.4027 612.704C76.9327 611.494 75.5127 610.204 74.0827 608.934C73.9127 608.784 73.7226 608.574 73.6726 608.364C73.6026 608.084 73.5527 607.694 73.6927 607.494C73.8427 607.284 74.2327 607.124 74.5027 607.154C74.8727 607.194 75.2827 607.364 75.5927 607.584C77.5527 608.984 79.1626 610.754 80.7026 612.574C80.8426 612.744 80.8727 613.004 80.8827 613.034Z" fill="white"/>
<path d="M79.343 624.094C79.223 624.334 79.173 624.594 79.013 624.744C78.673 625.064 78.303 625.384 77.893 625.614C76.013 626.634 74.133 627.654 72.213 628.604C71.743 628.834 71.153 628.874 70.623 628.914C70.153 628.944 69.823 628.214 70.103 627.834C70.293 627.584 70.483 627.284 70.733 627.154C73.063 625.964 75.383 624.784 77.743 623.654C78.063 623.494 78.523 623.534 78.893 623.594C79.063 623.614 79.193 623.914 79.343 624.094Z" fill="white"/>
<path d="M77.1726 617.484C77.3226 617.594 77.4426 617.904 77.4026 618.084C77.3526 618.264 77.1226 618.454 76.9226 618.534C76.7126 618.624 76.4526 618.594 76.2126 618.614C75.3526 618.484 74.4626 618.434 73.7526 617.834C73.5426 617.654 73.5826 617.154 73.8326 617.024C73.9626 616.954 74.1026 616.834 74.2426 616.804C75.3126 616.604 76.3026 616.854 77.1726 617.484Z" fill="white"/>
</g>
<g opacity="0.5">
<path d="M175.123 396.744C175.083 396.854 175.033 397.194 174.853 397.424C174.563 397.784 174.213 398.134 173.823 398.394C171.683 399.794 169.343 400.764 166.903 401.514C166.563 401.614 166.213 401.534 166.103 401.214C166.013 400.954 166.053 400.574 166.203 400.354C166.413 400.034 166.743 399.774 167.073 399.564C168.893 398.434 170.713 397.304 172.543 396.204C172.943 395.964 173.413 395.814 173.863 395.684C174.393 395.544 175.053 396.034 175.123 396.744Z" fill="white"/>
<path d="M171.883 413.733C172.223 413.973 172.713 414.433 172.613 414.963C172.543 415.373 172.093 415.473 171.823 415.593C171.623 415.683 171.313 415.693 171.123 415.593C169.393 414.623 167.663 413.623 165.953 412.613C165.763 412.503 165.613 412.263 165.543 412.053C165.483 411.853 165.483 411.563 165.583 411.393C165.683 411.213 165.923 411.093 166.133 411.003C166.263 410.943 166.453 410.953 166.603 411.003C168.493 411.643 170.253 412.583 171.883 413.733Z" fill="white"/>
<path d="M170.893 406.854C171.053 406.914 171.223 407.284 171.173 407.424C171.083 407.674 170.853 407.924 170.623 408.074C170.443 408.194 170.173 408.164 169.883 408.214C169.483 408.084 169.023 407.974 168.593 407.774C168.223 407.604 167.943 407.274 168.033 406.844C168.123 406.424 168.503 406.144 168.903 406.224C169.603 406.354 170.253 406.594 170.893 406.854Z" fill="white"/>
<path d="M164.773 394.654C164.813 394.804 164.883 394.974 164.853 395.114C164.553 396.334 163.823 397.244 162.713 397.814C162.563 397.894 162.273 397.764 162.083 397.664C161.973 397.604 161.943 397.404 161.833 397.184C162.253 396.034 162.763 394.894 163.993 394.274C164.223 394.154 164.693 394.394 164.773 394.654Z" fill="white"/>
<path d="M162.223 421.824C162.153 422.124 162.103 422.354 162.043 422.584C161.953 422.924 161.293 423.094 161.053 422.814C160.803 422.524 160.503 422.204 160.413 421.854C159.843 419.714 159.323 417.554 158.793 415.404C158.743 415.184 158.733 414.894 158.833 414.704C158.963 414.444 159.183 414.134 159.433 414.044C159.683 413.964 160.063 414.064 160.303 414.214C160.553 414.364 160.753 414.654 160.893 414.924C161.073 415.264 161.233 415.654 161.293 416.034C161.623 417.974 161.923 419.934 162.223 421.824Z" fill="white"/>
<path d="M158.243 395.874C158.283 396.434 158.133 396.974 157.733 397.414C157.483 397.694 156.863 397.674 156.703 397.334C156.573 397.054 156.433 396.764 156.383 396.464C156.143 394.894 155.923 393.324 155.683 391.624C155.743 391.034 155.773 390.314 155.913 389.624C155.993 389.214 156.383 388.934 156.803 389.014C157.073 389.064 157.343 389.304 157.543 389.534C157.683 389.694 157.773 389.954 157.793 390.184C157.963 392.074 158.113 393.974 158.243 395.874Z" fill="white"/>
<path d="M154.683 413.713C154.823 413.883 154.973 414.163 154.923 414.333C154.563 415.733 153.653 416.683 152.303 417.183C152.243 417.203 152.143 417.163 151.973 417.133C151.893 417.013 151.733 416.843 151.663 416.643C151.613 416.513 151.643 416.313 151.703 416.173C152.193 415.153 152.863 414.263 153.813 413.633C154.123 413.453 154.453 413.433 154.683 413.713Z" fill="white"/>
<path d="M152.883 399.034C152.983 399.474 152.513 399.874 152.273 399.744C151.643 399.424 150.953 399.154 150.403 398.704C148.933 397.494 147.513 396.204 146.083 394.934C145.913 394.784 145.723 394.574 145.673 394.364C145.603 394.084 145.553 393.694 145.693 393.494C145.843 393.284 146.233 393.124 146.503 393.154C146.873 393.194 147.283 393.364 147.593 393.584C149.553 394.984 151.163 396.754 152.703 398.574C152.843 398.744 152.873 399.004 152.883 399.034Z" fill="white"/>
<path d="M151.343 410.094C151.223 410.334 151.173 410.594 151.013 410.744C150.673 411.064 150.303 411.384 149.893 411.614C148.013 412.634 146.133 413.654 144.213 414.604C143.743 414.834 143.153 414.874 142.623 414.914C142.153 414.944 141.823 414.214 142.103 413.834C142.293 413.584 142.483 413.284 142.733 413.154C145.063 411.964 147.383 410.784 149.743 409.654C150.063 409.494 150.523 409.534 150.893 409.594C151.063 409.614 151.193 409.914 151.343 410.094Z" fill="white"/>
<path d="M149.173 403.484C149.323 403.594 149.443 403.904 149.403 404.084C149.353 404.264 149.123 404.454 148.923 404.534C148.713 404.624 148.453 404.594 148.213 404.614C147.353 404.484 146.463 404.434 145.753 403.834C145.543 403.654 145.583 403.154 145.833 403.024C145.963 402.954 146.103 402.834 146.243 402.804C147.313 402.604 148.303 402.854 149.173 403.484Z" fill="white"/>
</g>
<g opacity="0.5">
<path d="M266.123 80.7441C266.083 80.8541 266.033 81.1941 265.853 81.4241C265.563 81.7841 265.213 82.1341 264.823 82.3941C262.683 83.7941 260.343 84.7641 257.903 85.5141C257.563 85.6141 257.213 85.5341 257.103 85.2141C257.013 84.9541 257.053 84.5741 257.203 84.3541C257.413 84.0341 257.743 83.7741 258.073 83.5641C259.893 82.4341 261.713 81.3041 263.543 80.2041C263.943 79.9641 264.413 79.8141 264.863 79.6841C265.393 79.5441 266.053 80.0341 266.123 80.7441Z" fill="white"/>
<path d="M262.883 97.7333C263.223 97.9733 263.713 98.4333 263.613 98.9633C263.543 99.3733 263.093 99.4733 262.823 99.5933C262.623 99.6833 262.313 99.6933 262.123 99.5933C260.393 98.6233 258.663 97.6232 256.953 96.6132C256.763 96.5032 256.613 96.2633 256.543 96.0533C256.483 95.8533 256.483 95.5632 256.583 95.3932C256.683 95.2132 256.923 95.0932 257.133 95.0032C257.263 94.9432 257.453 94.9532 257.603 95.0032C259.493 95.6432 261.253 96.5833 262.883 97.7333Z" fill="white"/>
<path d="M261.893 90.8536C262.053 90.9136 262.223 91.2836 262.173 91.4236C262.083 91.6736 261.853 91.9236 261.623 92.0736C261.443 92.1936 261.173 92.1636 260.883 92.2136C260.483 92.0836 260.023 91.9736 259.593 91.7736C259.223 91.6036 258.943 91.2736 259.033 90.8436C259.123 90.4236 259.503 90.1436 259.903 90.2236C260.603 90.3536 261.253 90.5936 261.893 90.8536Z" fill="white"/>
<path d="M255.773 78.654C255.813 78.804 255.883 78.974 255.853 79.114C255.553 80.334 254.823 81.244 253.713 81.814C253.563 81.894 253.273 81.764 253.083 81.664C252.973 81.604 252.943 81.404 252.833 81.184C253.253 80.034 253.763 78.894 254.993 78.274C255.223 78.154 255.693 78.394 255.773 78.654Z" fill="white"/>
<path d="M253.223 105.824C253.153 106.124 253.103 106.354 253.043 106.584C252.953 106.924 252.293 107.094 252.053 106.814C251.803 106.524 251.503 106.204 251.413 105.854C250.843 103.714 250.323 101.554 249.793 99.4039C249.743 99.1839 249.733 98.8939 249.833 98.7039C249.963 98.4439 250.183 98.1339 250.433 98.0439C250.683 97.9639 251.063 98.0639 251.303 98.2139C251.553 98.3639 251.753 98.6539 251.893 98.9239C252.073 99.2639 252.233 99.6539 252.293 100.034C252.623 101.974 252.923 103.934 253.223 105.824Z" fill="white"/>
<path d="M249.243 79.8737C249.283 80.4337 249.133 80.9737 248.733 81.4137C248.483 81.6937 247.863 81.6737 247.703 81.3337C247.573 81.0537 247.433 80.7637 247.383 80.4637C247.143 78.8937 246.923 77.3237 246.683 75.6237C246.743 75.0337 246.773 74.3137 246.913 73.6237C246.993 73.2137 247.383 72.9337 247.803 73.0137C248.073 73.0637 248.343 73.3037 248.543 73.5337C248.683 73.6937 248.773 73.9537 248.793 74.1837C248.963 76.0737 249.113 77.9737 249.243 79.8737Z" fill="white"/>
<path d="M245.683 97.7132C245.823 97.8832 245.973 98.1632 245.923 98.3332C245.563 99.7332 244.653 100.683 243.303 101.183C243.243 101.203 243.143 101.163 242.973 101.133C242.893 101.013 242.733 100.843 242.663 100.643C242.613 100.513 242.643 100.313 242.703 100.173C243.193 99.1532 243.863 98.2632 244.813 97.6332C245.123 97.4532 245.453 97.4332 245.683 97.7132Z" fill="white"/>
<path d="M243.883 83.034C243.983 83.474 243.513 83.874 243.273 83.744C242.643 83.424 241.953 83.154 241.403 82.704C239.933 81.494 238.513 80.204 237.083 78.934C236.913 78.784 236.723 78.574 236.673 78.364C236.603 78.084 236.553 77.694 236.693 77.494C236.843 77.284 237.233 77.124 237.503 77.154C237.873 77.194 238.283 77.364 238.593 77.584C240.553 78.984 242.163 80.754 243.703 82.574C243.843 82.744 243.873 83.004 243.883 83.034Z" fill="white"/>
<path d="M242.343 94.0937C242.223 94.3337 242.173 94.5937 242.013 94.7437C241.673 95.0637 241.303 95.3837 240.893 95.6137C239.013 96.6337 237.133 97.6537 235.213 98.6037C234.743 98.8337 234.153 98.8737 233.623 98.9137C233.153 98.9437 232.823 98.2137 233.103 97.8337C233.293 97.5837 233.483 97.2837 233.733 97.1537C236.063 95.9637 238.383 94.7837 240.743 93.6537C241.063 93.4937 241.523 93.5337 241.893 93.5937C242.063 93.6137 242.193 93.9137 242.343 94.0937Z" fill="white"/>
<path d="M240.173 87.4838C240.323 87.5938 240.443 87.9038 240.403 88.0838C240.353 88.2638 240.123 88.4538 239.923 88.5338C239.713 88.6238 239.453 88.5938 239.213 88.6138C238.353 88.4838 237.463 88.4338 236.753 87.8338C236.543 87.6538 236.583 87.1538 236.833 87.0238C236.963 86.9538 237.103 86.8338 237.243 86.8038C238.313 86.6038 239.303 86.8538 240.173 87.4838Z" fill="white"/>
</g>
<g opacity="0.5">
<path d="M688.123 15.7441C688.083 15.8541 688.033 16.1941 687.853 16.4241C687.563 16.7841 687.213 17.1341 686.823 17.3941C684.683 18.7941 682.343 19.7641 679.903 20.5141C679.563 20.6141 679.213 20.5341 679.103 20.2141C679.013 19.9541 679.053 19.5741 679.203 19.3541C679.413 19.0341 679.743 18.7741 680.073 18.5641C681.893 17.4341 683.713 16.3041 685.543 15.2041C685.943 14.9641 686.413 14.8141 686.863 14.6841C687.393 14.5441 688.053 15.0341 688.123 15.7441Z" fill="white"/>
<path d="M684.883 32.7333C685.223 32.9733 685.713 33.4333 685.613 33.9633C685.543 34.3733 685.093 34.4733 684.823 34.5933C684.623 34.6833 684.313 34.6933 684.123 34.5933C682.393 33.6233 680.663 32.6232 678.953 31.6132C678.763 31.5032 678.613 31.2633 678.543 31.0533C678.483 30.8533 678.483 30.5632 678.583 30.3932C678.683 30.2132 678.923 30.0932 679.133 30.0032C679.263 29.9432 679.453 29.9532 679.603 30.0032C681.493 30.6432 683.253 31.5833 684.883 32.7333Z" fill="white"/>
<path d="M683.893 25.8536C684.053 25.9136 684.223 26.2836 684.173 26.4236C684.083 26.6736 683.853 26.9236 683.623 27.0736C683.443 27.1936 683.173 27.1636 682.883 27.2136C682.483 27.0836 682.023 26.9736 681.593 26.7736C681.223 26.6036 680.943 26.2736 681.033 25.8436C681.123 25.4236 681.503 25.1436 681.903 25.2236C682.603 25.3536 683.253 25.5936 683.893 25.8536Z" fill="white"/>
<path d="M677.773 13.654C677.813 13.804 677.883 13.974 677.853 14.114C677.553 15.334 676.823 16.244 675.713 16.814C675.563 16.894 675.273 16.764 675.083 16.664C674.973 16.604 674.943 16.404 674.833 16.184C675.253 15.034 675.763 13.894 676.993 13.274C677.223 13.154 677.693 13.394 677.773 13.654Z" fill="white"/>
<path d="M675.223 40.8239C675.153 41.1239 675.103 41.3539 675.043 41.5839C674.953 41.9239 674.293 42.0939 674.053 41.8139C673.803 41.5239 673.503 41.2039 673.413 40.8539C672.843 38.7139 672.323 36.5539 671.793 34.4039C671.743 34.1839 671.733 33.8939 671.833 33.7039C671.963 33.4439 672.183 33.1339 672.433 33.0439C672.683 32.9639 673.063 33.0639 673.303 33.2139C673.553 33.3639 673.753 33.6539 673.893 33.9239C674.073 34.2639 674.233 34.6539 674.293 35.0339C674.623 36.9739 674.923 38.9339 675.223 40.8239Z" fill="white"/>
<path d="M671.243 14.8737C671.283 15.4337 671.133 15.9737 670.733 16.4137C670.483 16.6937 669.863 16.6737 669.703 16.3337C669.573 16.0537 669.433 15.7637 669.383 15.4637C669.143 13.8937 668.923 12.3237 668.683 10.6237C668.743 10.0337 668.773 9.31367 668.913 8.62367C668.993 8.21367 669.383 7.93367 669.803 8.01367C670.073 8.06367 670.343 8.30366 670.543 8.53366C670.683 8.69366 670.773 8.95367 670.793 9.18367C670.963 11.0737 671.113 12.9737 671.243 14.8737Z" fill="white"/>
<path d="M667.683 32.7132C667.823 32.8832 667.973 33.1632 667.923 33.3332C667.563 34.7332 666.653 35.6832 665.303 36.1832C665.243 36.2032 665.143 36.1632 664.973 36.1332C664.893 36.0132 664.733 35.8432 664.663 35.6432C664.613 35.5132 664.643 35.3132 664.703 35.1732C665.193 34.1532 665.863 33.2632 666.813 32.6332C667.123 32.4532 667.453 32.4332 667.683 32.7132Z" fill="white"/>
<path d="M665.883 18.034C665.983 18.474 665.513 18.874 665.273 18.744C664.643 18.424 663.953 18.154 663.403 17.704C661.933 16.494 660.513 15.204 659.083 13.934C658.913 13.784 658.723 13.574 658.673 13.364C658.603 13.084 658.553 12.694 658.693 12.494C658.843 12.284 659.233 12.124 659.503 12.154C659.873 12.194 660.283 12.364 660.593 12.584C662.553 13.984 664.163 15.754 665.703 17.574C665.843 17.744 665.873 18.004 665.883 18.034Z" fill="white"/>
<path d="M664.343 29.0937C664.223 29.3337 664.173 29.5937 664.013 29.7437C663.673 30.0637 663.303 30.3837 662.893 30.6137C661.013 31.6337 659.133 32.6537 657.213 33.6037C656.743 33.8337 656.153 33.8737 655.623 33.9137C655.153 33.9437 654.823 33.2137 655.103 32.8337C655.293 32.5837 655.483 32.2837 655.733 32.1537C658.063 30.9637 660.383 29.7837 662.743 28.6537C663.063 28.4937 663.523 28.5337 663.893 28.5937C664.063 28.6137 664.193 28.9137 664.343 29.0937Z" fill="white"/>
<path d="M662.173 22.4838C662.323 22.5938 662.443 22.9038 662.403 23.0838C662.353 23.2638 662.123 23.4538 661.923 23.5338C661.713 23.6238 661.453 23.5938 661.213 23.6138C660.353 23.4838 659.463 23.4338 658.753 22.8338C658.543 22.6538 658.583 22.1538 658.833 22.0238C658.963 21.9538 659.103 21.8338 659.243 21.8038C660.313 21.6038 661.303 21.8538 662.173 22.4838Z" fill="white"/>
</g>
<g opacity="0.5">
<path d="M761.123 133.744C761.083 133.854 761.033 134.194 760.853 134.424C760.563 134.784 760.213 135.134 759.823 135.394C757.683 136.794 755.343 137.764 752.903 138.514C752.563 138.614 752.213 138.534 752.103 138.214C752.013 137.954 752.053 137.574 752.203 137.354C752.413 137.034 752.743 136.774 753.073 136.564C754.893 135.434 756.713 134.304 758.543 133.204C758.943 132.964 759.413 132.814 759.863 132.684C760.393 132.544 761.053 133.034 761.123 133.744Z" fill="white"/>
<path d="M757.883 150.733C758.223 150.973 758.713 151.433 758.613 151.963C758.543 152.373 758.093 152.473 757.823 152.593C757.623 152.683 757.313 152.693 757.123 152.593C755.393 151.623 753.663 150.623 751.953 149.613C751.763 149.503 751.613 149.263 751.543 149.053C751.483 148.853 751.483 148.563 751.583 148.393C751.683 148.213 751.923 148.093 752.133 148.003C752.263 147.943 752.453 147.953 752.603 148.003C754.493 148.643 756.253 149.583 757.883 150.733Z" fill="white"/>
<path d="M756.893 143.854C757.053 143.914 757.223 144.284 757.173 144.424C757.083 144.674 756.853 144.924 756.623 145.074C756.443 145.194 756.173 145.164 755.883 145.214C755.483 145.084 755.023 144.974 754.593 144.774C754.223 144.604 753.943 144.274 754.033 143.844C754.123 143.424 754.503 143.144 754.903 143.224C755.603 143.354 756.253 143.594 756.893 143.854Z" fill="white"/>
<path d="M750.773 131.654C750.813 131.804 750.883 131.974 750.853 132.114C750.553 133.334 749.823 134.244 748.713 134.814C748.563 134.894 748.273 134.764 748.083 134.664C747.973 134.604 747.943 134.404 747.833 134.184C748.253 133.034 748.763 131.894 749.993 131.274C750.223 131.154 750.693 131.394 750.773 131.654Z" fill="white"/>
<path d="M748.223 158.824C748.153 159.124 748.103 159.354 748.043 159.584C747.953 159.924 747.293 160.094 747.053 159.814C746.803 159.524 746.503 159.204 746.413 158.854C745.843 156.714 745.323 154.554 744.793 152.404C744.743 152.184 744.733 151.894 744.833 151.704C744.963 151.444 745.183 151.134 745.433 151.044C745.683 150.964 746.063 151.064 746.303 151.214C746.553 151.364 746.753 151.654 746.893 151.924C747.073 152.264 747.233 152.654 747.293 153.034C747.623 154.974 747.923 156.934 748.223 158.824Z" fill="white"/>
<path d="M744.243 132.874C744.283 133.434 744.133 133.974 743.733 134.414C743.483 134.694 742.863 134.674 742.703 134.334C742.573 134.054 742.433 133.764 742.383 133.464C742.143 131.894 741.923 130.324 741.683 128.624C741.743 128.034 741.773 127.314 741.913 126.624C741.993 126.214 742.383 125.934 742.803 126.014C743.073 126.064 743.343 126.304 743.543 126.534C743.683 126.694 743.773 126.954 743.793 127.184C743.963 129.074 744.113 130.974 744.243 132.874Z" fill="white"/>
<path d="M740.683 150.713C740.823 150.883 740.973 151.163 740.923 151.333C740.563 152.733 739.653 153.683 738.303 154.183C738.243 154.203 738.143 154.163 737.973 154.133C737.893 154.013 737.733 153.843 737.663 153.643C737.613 153.513 737.643 153.313 737.703 153.173C738.193 152.153 738.863 151.263 739.813 150.633C740.123 150.453 740.453 150.433 740.683 150.713Z" fill="white"/>
<path d="M738.883 136.034C738.983 136.474 738.513 136.874 738.273 136.744C737.643 136.424 736.953 136.154 736.403 135.704C734.933 134.494 733.513 133.204 732.083 131.934C731.913 131.784 731.723 131.574 731.673 131.364C731.603 131.084 731.553 130.694 731.693 130.494C731.843 130.284 732.233 130.124 732.503 130.154C732.873 130.194 733.283 130.364 733.593 130.584C735.553 131.984 737.163 133.754 738.703 135.574C738.843 135.744 738.873 136.004 738.883 136.034Z" fill="white"/>
<path d="M737.343 147.094C737.223 147.334 737.173 147.594 737.013 147.744C736.673 148.064 736.303 148.384 735.893 148.614C734.013 149.634 732.133 150.654 730.213 151.604C729.743 151.834 729.153 151.874 728.623 151.914C728.153 151.944 727.823 151.214 728.103 150.834C728.293 150.584 728.483 150.284 728.733 150.154C731.063 148.964 733.383 147.784 735.743 146.654C736.063 146.494 736.523 146.534 736.893 146.594C737.063 146.614 737.193 146.914 737.343 147.094Z" fill="white"/>
<path d="M735.173 140.484C735.323 140.594 735.443 140.904 735.403 141.084C735.353 141.264 735.123 141.454 734.923 141.534C734.713 141.624 734.453 141.594 734.213 141.614C733.353 141.484 732.463 141.434 731.753 140.834C731.543 140.654 731.583 140.154 731.833 140.024C731.963 139.954 732.103 139.834 732.243 139.804C733.313 139.604 734.303 139.854 735.173 140.484Z" fill="white"/>
</g>
<g opacity="0.4">
<path d="M145.226 192.347C145.606 192.777 145.686 193.367 145.356 193.917C145.016 194.477 144.466 194.577 143.886 194.467C143.266 194.347 142.656 194.117 142.036 193.967C141.336 193.797 140.636 193.597 139.926 193.517C138.496 193.367 138.336 193.507 137.966 194.927C137.586 196.397 137.196 197.867 136.786 199.327C136.676 199.707 136.486 200.067 136.256 200.387C135.956 200.827 135.106 200.877 134.766 200.457C134.476 200.087 134.216 199.677 134.016 199.247C133.556 198.227 133.156 197.177 132.706 196.157C132.456 195.587 132.206 195.457 131.566 195.577C130.226 195.817 128.896 196.107 127.556 196.317C126.526 196.487 125.786 195.717 126.056 194.737C126.246 194.057 126.536 193.377 126.886 192.757C127.476 191.707 128.116 190.687 128.786 189.697C129.286 188.967 129.306 188.307 128.976 187.467C128.446 186.137 128.076 184.737 127.706 183.347C127.546 182.737 127.466 182.077 127.486 181.447C127.506 180.377 128.556 179.707 129.536 180.127C130.036 180.337 130.496 180.697 130.926 181.047C131.986 181.897 133.006 182.797 134.056 183.657C134.656 184.137 134.966 184.147 135.576 183.737C136.636 183.027 137.666 182.257 138.746 181.567C139.346 181.177 139.986 180.827 140.666 180.597C141.856 180.187 142.766 180.927 142.686 182.507C142.576 182.877 142.396 183.577 142.166 184.247C141.776 185.377 141.346 186.507 140.916 187.627C140.716 188.157 140.836 188.577 141.266 188.897C141.836 189.327 142.476 189.687 143.016 190.157C143.806 190.847 144.546 191.577 145.226 192.347ZM138.956 185.617C139.036 185.337 139.026 185.017 139.076 184.637C137.916 184.967 137.156 185.717 136.316 186.307C135.406 186.937 134.546 186.967 133.666 186.307C132.896 185.737 132.146 185.137 131.356 184.587C131.196 184.477 130.826 184.407 130.736 184.507C130.606 184.637 130.566 184.957 130.616 185.157C130.836 186.007 130.916 186.957 131.386 187.647C132.006 188.547 131.906 189.267 131.426 190.077C130.896 190.967 130.336 191.847 129.816 192.747C129.716 192.927 129.676 193.277 129.786 193.387C129.906 193.527 130.236 193.577 130.446 193.527C131.156 193.387 131.836 193.157 132.536 193.007C133.286 192.847 133.796 193.087 134.136 193.747C134.456 194.377 134.726 195.037 135.136 195.947C135.376 195.337 135.566 195.007 135.636 194.657C135.756 194.037 135.766 193.387 135.876 192.757C136.036 191.817 136.506 191.347 137.446 191.217C138.076 191.137 138.706 191.127 139.536 191.067C139.256 190.687 139.146 190.387 138.916 190.227C138.066 189.617 137.936 188.827 138.236 187.897C138.466 187.137 138.736 186.387 138.956 185.617Z" fill="white"/>
</g>
<g opacity="0.4">
<path d="M105.535 33.0405C106.059 33.634 106.17 34.4483 105.714 35.2074C105.245 35.9803 104.486 36.1183 103.685 35.9665C102.83 35.8009 101.988 35.4834 101.132 35.2764C100.166 35.0418 99.1999 34.7657 98.22 34.6553C96.2464 34.4483 96.0256 34.6415 95.5149 36.6014C94.9904 38.6302 94.4522 40.659 93.8863 42.6741C93.7345 43.1985 93.4723 43.6954 93.1548 44.137C92.7408 44.7443 91.5677 44.8133 91.0984 44.2336C90.6982 43.723 90.3393 43.1571 90.0633 42.5636C89.4284 41.1559 88.8764 39.7067 88.2553 38.2989C87.9103 37.5123 87.5652 37.3328 86.6819 37.4985C84.8325 37.8297 82.9969 38.2299 81.1475 38.5198C79.7259 38.7544 78.7046 37.6917 79.0773 36.3391C79.3395 35.4006 79.7397 34.4621 80.2228 33.6064C81.0371 32.1573 81.9204 30.7495 82.8451 29.3831C83.5352 28.3756 83.5628 27.4647 83.1073 26.3054C82.3758 24.4698 81.8652 22.5376 81.3545 20.6191C81.1337 19.7772 81.0233 18.8664 81.0509 17.9969C81.0785 16.5201 82.5276 15.5954 83.8802 16.175C84.5703 16.4649 85.2052 16.9617 85.7986 17.4448C87.2616 18.6179 88.6694 19.8601 90.1185 21.047C90.9466 21.7095 91.3744 21.7233 92.2163 21.1574C93.6793 20.1775 95.1008 19.1148 96.5914 18.1625C97.4195 17.6242 98.3028 17.1411 99.2413 16.8237C100.884 16.2578 102.14 17.2792 102.029 19.4598C101.877 19.9705 101.629 20.9366 101.312 21.8613C100.773 23.4209 100.18 24.9804 99.5864 26.5262C99.3103 27.2577 99.476 27.8374 100.069 28.279C100.856 28.8725 101.739 29.3693 102.485 30.018C103.575 30.9703 104.596 31.9778 105.535 33.0405ZM96.8813 23.7521C96.9917 23.3657 96.9779 22.924 97.0469 22.3996C95.4459 22.855 94.397 23.8901 93.2376 24.7044C91.9817 25.5739 90.7948 25.6153 89.5802 24.7044C88.5175 23.9177 87.4824 23.0896 86.3921 22.3305C86.1713 22.1787 85.6606 22.0821 85.5364 22.2201C85.357 22.3995 85.3018 22.8412 85.3708 23.1172C85.6744 24.2904 85.7848 25.6015 86.4335 26.5538C87.2892 27.796 87.1512 28.7897 86.4887 29.9076C85.7572 31.1359 84.9843 32.3505 84.2666 33.5926C84.1286 33.8411 84.0734 34.3241 84.2252 34.4759C84.3908 34.6691 84.8463 34.7382 85.1361 34.6691C86.116 34.4759 87.0545 34.1585 88.0207 33.9515C89.0558 33.7306 89.7597 34.0619 90.2289 34.9728C90.6706 35.8423 91.0432 36.7532 91.6091 38.0091C91.9403 37.1672 92.2025 36.7118 92.2992 36.2287C92.4648 35.373 92.4786 34.4759 92.6304 33.6064C92.8512 32.3091 93.4999 31.6604 94.7972 31.481C95.6667 31.3706 96.5362 31.3568 97.6818 31.274C97.2953 30.7495 97.1435 30.3354 96.8261 30.1146C95.6529 29.2727 95.4735 28.1824 95.8876 26.8989C96.205 25.8499 96.5776 24.8148 96.8813 23.7521Z" fill="white"/>
</g>
<g opacity="0.4">
<path d="M787.348 54.8745C787.745 55.3229 787.828 55.9381 787.484 56.5116C787.13 57.0956 786.556 57.1999 785.951 57.0851C785.305 56.96 784.669 56.7202 784.022 56.5638C783.292 56.3865 782.562 56.178 781.822 56.0945C780.331 55.9381 780.164 56.0841 779.778 57.5648C779.382 59.0976 778.975 60.6305 778.548 62.1529C778.433 62.5491 778.235 62.9245 777.995 63.2582C777.682 63.717 776.796 63.7691 776.441 63.3312C776.139 62.9453 775.868 62.5178 775.659 62.0694C775.18 61.0058 774.763 59.911 774.293 58.8474C774.033 58.253 773.772 58.1175 773.105 58.2426C771.707 58.4928 770.321 58.7952 768.923 59.0142C767.849 59.1915 767.078 58.3886 767.359 57.3667C767.557 56.6576 767.86 55.9486 768.225 55.3021C768.84 54.2072 769.507 53.1436 770.206 52.1113C770.727 51.3501 770.748 50.6619 770.404 49.786C769.851 48.3991 769.465 46.9393 769.08 45.4899C768.913 44.8538 768.829 44.1656 768.85 43.5087C768.871 42.3929 769.966 41.6943 770.988 42.1322C771.509 42.3512 771.989 42.7266 772.437 43.0916C773.543 43.9779 774.606 44.9164 775.701 45.8131C776.327 46.3136 776.65 46.3241 777.286 45.8965C778.391 45.1562 779.465 44.3533 780.592 43.6338C781.217 43.2271 781.885 42.8622 782.594 42.6223C783.834 42.1948 784.783 42.9664 784.7 44.614C784.585 44.9998 784.398 45.7297 784.158 46.4283C783.751 47.6066 783.303 48.7849 782.854 49.9528C782.646 50.5054 782.771 50.9434 783.219 51.2771C783.814 51.7255 784.481 52.1008 785.044 52.5909C785.868 53.3104 786.639 54.0716 787.348 54.8745ZM780.811 47.8569C780.894 47.5649 780.883 47.2313 780.936 46.835C779.726 47.1791 778.934 47.9612 778.058 48.5764C777.109 49.2333 776.212 49.2646 775.294 48.5764C774.491 47.982 773.709 47.3564 772.886 46.7829C772.719 46.6682 772.333 46.5952 772.239 46.6995C772.104 46.835 772.062 47.1687 772.114 47.3772C772.343 48.2636 772.427 49.2542 772.917 49.9737C773.563 50.9121 773.459 51.6629 772.959 52.5075C772.406 53.4356 771.822 54.3532 771.28 55.2916C771.176 55.4793 771.134 55.8443 771.249 55.959C771.374 56.105 771.718 56.1571 771.937 56.105C772.677 55.959 773.386 55.7192 774.116 55.5627C774.898 55.3959 775.43 55.6462 775.784 56.3344C776.118 56.9913 776.4 57.6795 776.827 58.6284C777.077 57.9923 777.276 57.6482 777.349 57.2833C777.474 56.6368 777.484 55.959 777.599 55.3021C777.766 54.3219 778.256 53.8318 779.236 53.6962C779.893 53.6128 780.55 53.6024 781.415 53.5398C781.123 53.1436 781.009 52.8308 780.769 52.6639C779.882 52.0279 779.747 51.2041 780.06 50.2343C780.3 49.4419 780.581 48.6598 780.811 47.8569Z" fill="white"/>
</g>
<g opacity="0.4">
<path d="M693.226 277.347C693.606 277.777 693.686 278.367 693.356 278.917C693.016 279.477 692.466 279.577 691.886 279.467C691.266 279.347 690.656 279.117 690.036 278.967C689.336 278.797 688.636 278.597 687.926 278.517C686.496 278.367 686.336 278.507 685.966 279.927C685.586 281.397 685.196 282.867 684.786 284.327C684.676 284.707 684.486 285.067 684.256 285.387C683.956 285.827 683.106 285.877 682.766 285.457C682.476 285.087 682.216 284.677 682.016 284.247C681.556 283.227 681.156 282.177 680.706 281.157C680.456 280.587 680.206 280.457 679.566 280.577C678.226 280.817 676.896 281.107 675.556 281.317C674.526 281.487 673.786 280.717 674.056 279.737C674.246 279.057 674.536 278.377 674.886 277.757C675.476 276.707 676.116 275.687 676.786 274.697C677.286 273.967 677.306 273.307 676.976 272.467C676.446 271.137 676.076 269.737 675.706 268.347C675.546 267.737 675.466 267.077 675.486 266.447C675.506 265.377 676.556 264.707 677.536 265.127C678.036 265.337 678.496 265.697 678.926 266.047C679.986 266.897 681.006 267.797 682.056 268.657C682.656 269.137 682.966 269.147 683.576 268.737C684.636 268.027 685.666 267.257 686.746 266.567C687.346 266.177 687.986 265.827 688.666 265.597C689.856 265.187 690.766 265.927 690.686 267.507C690.576 267.877 690.396 268.577 690.166 269.247C689.776 270.377 689.346 271.507 688.916 272.627C688.716 273.157 688.836 273.577 689.266 273.897C689.836 274.327 690.476 274.687 691.016 275.157C691.806 275.847 692.546 276.577 693.226 277.347ZM686.956 270.617C687.036 270.337 687.026 270.017 687.076 269.637C685.916 269.967 685.156 270.717 684.316 271.307C683.406 271.937 682.546 271.967 681.666 271.307C680.896 270.737 680.146 270.137 679.356 269.587C679.196 269.477 678.826 269.407 678.736 269.507C678.606 269.637 678.566 269.957 678.616 270.157C678.836 271.007 678.916 271.957 679.386 272.647C680.006 273.547 679.906 274.267 679.426 275.077C678.896 275.967 678.336 276.847 677.816 277.747C677.716 277.927 677.676 278.277 677.786 278.387C677.906 278.527 678.236 278.577 678.446 278.527C679.156 278.387 679.836 278.157 680.536 278.007C681.286 277.847 681.796 278.087 682.136 278.747C682.456 279.377 682.726 280.037 683.136 280.947C683.376 280.337 683.566 280.007 683.636 279.657C683.756 279.037 683.766 278.387 683.876 277.757C684.036 276.817 684.506 276.347 685.446 276.217C686.076 276.137 686.706 276.127 687.536 276.067C687.256 275.687 687.146 275.387 686.916 275.227C686.066 274.617 685.936 273.827 686.236 272.897C686.466 272.137 686.736 271.387 686.956 270.617Z" fill="white"/>
</g>
<g opacity="0.4">
<path d="M110.226 342.347C110.606 342.777 110.686 343.367 110.356 343.917C110.016 344.477 109.466 344.577 108.886 344.467C108.266 344.347 107.656 344.117 107.036 343.967C106.336 343.797 105.636 343.597 104.926 343.517C103.496 343.367 103.336 343.507 102.966 344.927C102.586 346.397 102.196 347.867 101.786 349.327C101.676 349.707 101.486 350.067 101.256 350.387C100.956 350.827 100.106 350.877 99.766 350.457C99.476 350.087 99.216 349.677 99.016 349.247C98.556 348.227 98.156 347.177 97.706 346.157C97.456 345.587 97.206 345.457 96.566 345.577C95.226 345.817 93.896 346.107 92.556 346.317C91.526 346.487 90.786 345.717 91.056 344.737C91.246 344.057 91.536 343.377 91.886 342.757C92.476 341.707 93.116 340.687 93.786 339.697C94.286 338.967 94.306 338.307 93.976 337.467C93.446 336.137 93.076 334.737 92.706 333.347C92.546 332.737 92.466 332.077 92.486 331.447C92.506 330.377 93.556 329.707 94.536 330.127C95.036 330.337 95.496 330.697 95.926 331.047C96.986 331.897 98.006 332.797 99.056 333.657C99.656 334.137 99.966 334.147 100.576 333.737C101.636 333.027 102.666 332.257 103.746 331.567C104.346 331.177 104.986 330.827 105.666 330.597C106.856 330.187 107.766 330.927 107.686 332.507C107.576 332.877 107.396 333.577 107.166 334.247C106.776 335.377 106.346 336.507 105.916 337.627C105.716 338.157 105.836 338.577 106.266 338.897C106.836 339.327 107.476 339.687 108.016 340.157C108.806 340.847 109.546 341.577 110.226 342.347ZM103.956 335.617C104.036 335.337 104.026 335.017 104.076 334.637C102.916 334.967 102.156 335.717 101.316 336.307C100.406 336.937 99.546 336.967 98.666 336.307C97.896 335.737 97.146 335.137 96.356 334.587C96.196 334.477 95.826 334.407 95.736 334.507C95.606 334.637 95.566 334.957 95.616 335.157C95.836 336.007 95.916 336.957 96.386 337.647C97.006 338.547 96.906 339.267 96.426 340.077C95.896 340.967 95.336 341.847 94.816 342.747C94.716 342.927 94.676 343.277 94.786 343.387C94.906 343.527 95.236 343.577 95.446 343.527C96.156 343.387 96.836 343.157 97.536 343.007C98.286 342.847 98.796 343.087 99.136 343.747C99.456 344.377 99.726 345.037 100.136 345.947C100.376 345.337 100.566 345.007 100.636 344.657C100.756 344.037 100.766 343.387 100.876 342.757C101.036 341.817 101.506 341.347 102.446 341.217C103.076 341.137 103.706 341.127 104.536 341.067C104.256 340.687 104.146 340.387 103.916 340.227C103.066 339.617 102.936 338.827 103.236 337.897C103.466 337.137 103.736 336.387 103.956 335.617Z" fill="white"/>
</g>
<path opacity="0.1" d="M821.8 703.388C820.645 703.965 818.819 706.068 817.798 707.971C816.683 710.061 816.106 712.393 816.106 714.764C816.119 718.717 817.516 721.062 823.411 726.958C826.581 730.133 827.346 731.044 826.755 730.897C823.465 730.066 818.067 729.075 816.845 729.075C815.206 729.075 814.32 729.637 813.501 731.219C812.829 732.518 807.914 748.999 806.061 756.195C804.503 762.224 803.684 767.249 804.114 767.946C804.382 768.375 819.96 772.997 828.904 775.289C833.201 776.387 842.602 778.397 844.549 778.625C846.483 778.853 847.02 778.156 848.094 774.083C848.43 772.783 849.249 769.929 849.921 767.705C853.385 756.221 856.394 744.591 856.676 741.563L856.823 740.008L855.736 739.379C855.145 739.03 853.829 738.521 852.848 738.253C850.619 737.637 842.226 734.97 842.078 734.836C842.024 734.783 842.937 734.381 844.133 733.965C845.328 733.537 847.678 732.505 849.37 731.661C860.234 726.247 863.404 722.214 859.63 718.596C856.152 715.26 850.189 716.104 844.334 720.767C842.561 722.174 839.258 725.537 838.479 726.743L838.022 727.427L837.432 726.247C836.961 725.323 836.599 724.988 835.713 724.68C834.705 724.331 834.491 724.331 833.644 724.747C833.121 725.001 832.624 725.122 832.516 725.001C832.409 724.881 831.979 722.777 831.55 720.352C830.677 715.327 829.199 709.686 828.192 707.462C826.487 703.71 824.137 702.223 821.8 703.388ZM825.171 708.641C825.681 709.74 826.42 711.736 826.809 713.116C827.601 715.917 830.596 729.731 830.435 729.892C830.22 730.106 822.834 722.509 821.572 720.794C819.96 718.596 819.477 717.484 819.262 715.501C818.966 712.781 820.336 708.895 822.283 706.899C823.411 705.733 823.975 706.068 825.171 708.641ZM856.434 720.606C856.89 720.834 857.293 721.183 857.387 721.41C857.924 722.804 852.11 726.623 844.509 729.852C842.736 730.602 840.534 731.607 839.58 732.089C838.627 732.572 837.781 732.96 837.7 732.96C837.378 732.96 843.085 726.408 844.697 724.921C846.711 723.058 848.994 721.518 850.82 720.781C852.459 720.124 855.306 720.03 856.434 720.606ZM824.378 733.617C828.246 734.582 831.469 735.439 831.536 735.506C831.603 735.573 831.133 737.02 830.475 738.682C829.817 740.357 828.689 743.519 827.937 745.743C827.185 747.968 826.554 749.817 826.5 749.87C826.446 749.924 824.674 749.589 822.579 749.12C820.484 748.651 817.14 747.981 815.193 747.646C812.91 747.257 811.634 746.909 811.634 746.695C811.634 746.333 812.937 741.938 814.87 735.828C815.972 732.304 816.187 731.862 816.724 731.862C817.073 731.862 820.511 732.652 824.378 733.617ZM842.897 738.668C846.604 739.66 850.606 740.611 851.774 740.786L853.909 741.107L853.506 742.259C853.291 742.889 852.284 746.547 851.277 750.353C850.27 754.158 849.397 757.347 849.343 757.401C849.289 757.454 848.766 757.307 848.175 757.079C842.454 754.734 839.473 753.662 835.874 752.617C833.537 751.934 831.563 751.304 831.469 751.224C831.335 751.09 835.874 736.886 836.062 736.886C836.115 736.86 839.177 737.677 842.897 738.668ZM811.271 751.331C811.715 751.492 813.501 751.934 815.273 752.309C820.094 753.327 824.566 754.426 824.821 754.64C824.942 754.748 824.593 756.369 824.069 758.285C823.532 760.188 822.659 763.604 822.109 765.882C821.558 768.16 821.061 770.076 821.008 770.13C820.887 770.25 806.558 766.86 806.316 766.646C806.061 766.418 807.699 759.946 810.157 751.532C810.318 750.969 810.318 750.969 811.271 751.331ZM834.934 757.387C840.843 759.102 848.121 761.729 848.121 762.131C848.121 762.211 847.571 764.234 846.913 766.592C846.255 768.951 845.408 772.126 845.046 773.627C844.455 776.092 844.321 776.347 843.824 776.213C843.515 776.133 840.95 775.382 838.116 774.538C835.283 773.694 831.241 772.609 829.146 772.126L825.332 771.255L825.721 770.518C825.936 770.103 826.258 769.031 826.446 768.107C827.172 764.583 829.71 756.02 830.032 756.02C830.113 756.02 832.328 756.637 834.934 757.387Z" fill="white"/>
<path opacity="0.1" d="M70.705 714.429C69.8321 715.475 70.8125 721.759 72.3031 724.613C72.8 725.578 72.7597 725.551 70.3156 723.755C68.2475 722.241 65.1185 720.633 64.2187 720.633C61.6672 720.633 63.2921 724.707 67.5089 728.86L69.5233 730.843L67.7506 731.004C65.4945 731.205 64.0979 731.848 63.8696 732.773C63.7756 733.175 63.8159 733.684 63.977 733.939C64.3799 734.595 66.0317 735.654 66.9314 735.841C67.7103 736.002 67.6835 736.029 66.1525 736.833C65.2796 737.302 64.4605 737.891 64.3127 738.173C63.8427 739.057 65.0916 742.461 70.9065 756.114C74.989 765.695 75.5396 766.834 76.2916 767.37C76.8153 767.731 77.1914 767.678 79.9981 766.753C81.717 766.191 85.8129 764.462 89.1031 762.935C92.3932 761.407 95.8983 759.813 96.8786 759.397C100.142 758.044 106.373 754.761 106.655 754.252C106.803 753.984 106.924 753.528 106.924 753.274C106.924 752.336 101.847 741 97.9126 733.148C93.9913 725.323 93.9376 725.243 93.0244 725.162C92.5275 725.122 91.5069 725.283 90.822 725.511C89.0762 726.087 89.0762 726.087 89.694 724.854C90.4191 723.393 90.2848 722.134 89.3045 721.41C88.5793 720.874 88.5256 720.874 87.2767 721.343C86.5381 721.625 85.3832 722.442 84.564 723.259C83.7717 724.05 83.2345 724.439 83.3554 724.13C83.7717 723.059 83.8657 717.538 83.4762 716.091C83.0062 714.295 82.0259 713.652 80.8844 714.403C79.7698 715.126 78.5611 717.94 78.1314 720.834C77.7285 723.527 77.836 723.554 76.6005 720.459C75.0024 716.466 73.1895 714.001 71.8465 714.001C71.4302 713.987 70.9065 714.188 70.705 714.429ZM73.0417 717.565C73.458 718.315 74.6398 721.169 75.7007 723.916C76.7616 726.663 77.8225 729.289 78.0643 729.758C78.306 730.24 78.3866 730.696 78.2388 730.79C77.7688 731.085 76.0499 728.673 74.5324 725.578C72.8403 722.134 71.9405 719.454 71.6585 717.082C71.4974 715.702 71.5242 715.568 71.8868 715.863C72.1151 716.051 72.6389 716.828 73.0417 717.565ZM81.9587 716.466C82.1065 717.176 81.6767 723.286 81.1395 727.922C80.965 729.41 80.5621 730.093 79.8369 730.093C79.7698 730.093 79.5549 729.008 79.3535 727.681C78.7626 723.527 79.34 718.798 80.7367 716.546C81.4216 715.434 81.7439 715.421 81.9587 716.466ZM66.918 722.724C68.6101 723.715 71.1885 725.993 73.9415 728.927C75.835 730.937 76.2916 731.58 75.9827 731.781C75.4053 732.157 75.4053 732.157 73.3103 730.884C70.1545 728.968 68.3818 727.695 67.0254 726.382C65.6422 725.042 64.0576 722.75 64.0576 722.094C64.0576 721.544 65.4139 721.839 66.918 722.724ZM87.4378 725.283C86.6321 727.105 86.5247 727.212 85.0206 727.815C84.1477 728.164 83.3822 728.378 83.3151 728.311C82.9391 727.936 86.0144 723.889 87.2633 723.125C88.445 722.389 88.4853 722.898 87.4378 725.283ZM93.5481 729.879C94.045 731.286 94.515 732.585 94.5688 732.746C94.6225 732.907 92.5141 734.113 89.8954 735.386C87.2633 736.672 81.623 739.446 77.3525 741.536C73.082 743.626 69.5501 745.341 69.5098 745.341C69.4561 745.341 69.1875 744.752 68.919 744.028C68.6369 743.305 68.0595 742.005 67.6298 741.134C67.2 740.263 66.8509 739.486 66.8509 739.419C66.8509 739.245 73.6863 735.868 79.3669 733.255C87.2901 729.597 92.3127 727.333 92.4872 727.319C92.5678 727.319 93.0513 728.485 93.5481 729.879ZM72.9343 732.84C73.27 733.054 73.0954 733.228 72.1151 733.671C70.6916 734.327 67.8178 734.434 66.2868 733.885C65.1991 733.496 64.8902 732.974 65.6557 732.773C66.5957 732.532 72.5314 732.585 72.9343 732.84ZM96.5966 737.449C96.61 737.731 95.2268 738.602 88.8211 742.327C84.8729 744.618 77.0168 749.576 74.3981 751.425C73.4446 752.095 72.612 752.617 72.5717 752.55C72.3031 752.148 70.7319 748.276 70.7319 747.994C70.7319 747.82 75.6336 745.274 81.6499 742.327C87.6661 739.379 93.2527 736.645 94.0987 736.23L95.6297 735.48L96.1131 736.324C96.3817 736.806 96.5966 737.302 96.5966 737.449ZM99.363 743.492C100.155 745.288 100.8 746.855 100.8 746.976C100.786 747.097 99.4973 747.606 97.9395 748.128C96.3683 748.651 90.7011 750.996 85.3429 753.354C79.9846 755.712 75.4321 757.669 75.2307 757.695C75.0293 757.722 74.5727 757.106 74.2101 756.275L73.5655 754.801L74.1698 754.439C74.5055 754.238 77.9165 752.135 81.7439 749.763C85.5578 747.391 89.6134 744.913 90.728 744.269C91.8426 743.626 93.1855 742.729 93.7093 742.273C94.9045 741.228 97.55 739.767 97.7649 740.035C97.8455 740.142 98.5572 741.697 99.363 743.492ZM102.653 750.956L103.768 753.354L101.23 754.493C99.833 755.123 96.4488 756.65 93.6824 757.896C90.9294 759.143 87.223 760.791 85.4638 761.554C83.6911 762.332 81.2873 763.444 80.0921 764.047L77.93 765.132L77.4868 764.073C77.2451 763.497 76.8019 762.466 76.5199 761.796C76.2379 761.139 75.9962 760.429 75.9962 760.255C75.9962 760.081 77.8494 759.169 80.1055 758.245C88.2167 754.895 96.3011 751.197 98.7184 749.736C100.075 748.919 101.257 748.316 101.351 748.41C101.471 748.49 102.049 749.629 102.653 750.956Z" fill="white"/>
<g opacity="0.1">
<path d="M754.277 771.51H746.033V738.653C746.033 738.648 746.033 731.757 746.033 731.757C746.033 725.739 741.136 720.842 735.118 720.842H708.319V705.173C708.319 702.955 706.515 701.151 704.298 701.151H703.723V695.981C703.723 695.029 702.952 694.258 702 694.258C701.048 694.258 700.277 695.029 700.277 695.981V701.151H699.702C697.485 701.151 695.681 702.955 695.681 705.173V720.842H667.407C661.389 720.842 656.492 725.739 656.492 731.757V771.51H649.723C648.772 771.51 648 772.282 648 773.234C648 774.185 648.772 774.957 649.723 774.957H650.721L651.715 778.435C652.446 780.995 655.104 783 657.766 783H746.234C748.896 783 751.554 780.995 752.285 778.436L753.279 774.957H754.277C755.228 774.957 756 774.185 756 773.234C756 772.282 755.228 771.51 754.277 771.51ZM699.128 705.173C699.128 704.861 699.391 704.598 699.702 704.598H704.298C704.609 704.598 704.872 704.861 704.872 705.173V720.842H699.128V705.173ZM667.407 724.289H735.118C739.236 724.289 742.586 727.639 742.586 731.757V737.042C739.469 737.46 737.652 738.982 736.024 740.352C734.289 741.812 732.918 742.966 729.959 742.966C727 742.966 725.629 741.812 723.893 740.352C721.986 738.746 719.825 736.927 715.608 736.927C711.393 736.927 709.231 738.746 707.324 740.352C705.589 741.812 704.218 742.966 701.26 742.966C698.302 742.966 696.931 741.812 695.196 740.352C693.289 738.746 691.127 736.927 686.911 736.927C682.695 736.927 680.534 738.746 678.627 740.352C677.608 741.21 676.645 742.02 675.398 742.493C674.729 742.747 674.287 743.389 674.287 744.105V755.889C674.287 756.84 673.514 757.613 672.563 757.613C671.613 757.613 670.84 756.84 670.84 755.889V744.161C670.864 743.435 670.425 742.758 669.729 742.494C668.482 742.02 667.519 741.21 666.499 740.352C664.872 738.982 663.055 737.46 659.939 737.042V731.757C659.939 727.639 663.289 724.289 667.407 724.289ZM659.939 740.532C661.785 740.894 662.922 741.846 664.28 742.989C665.169 743.737 666.151 744.564 667.393 745.215V755.889C667.393 758.74 669.713 761.059 672.564 761.059C675.415 761.059 677.734 758.74 677.734 755.889L677.734 745.215C678.976 744.564 679.958 743.737 680.847 742.989C682.583 741.528 683.953 740.374 686.912 740.374C689.87 740.374 691.241 741.528 692.976 742.989C694.883 744.594 697.045 746.413 701.261 746.413C705.476 746.413 707.638 744.594 709.545 742.989C711.28 741.528 712.651 740.374 715.609 740.374C718.568 740.374 719.939 741.528 721.674 742.989C723.581 744.594 725.743 746.413 729.959 746.413C734.176 746.413 736.337 744.594 738.244 742.989C739.602 741.846 740.74 740.894 742.586 740.532V771.51H659.939V740.532ZM748.971 777.489C748.662 778.569 747.357 779.553 746.234 779.553H657.766C656.642 779.553 655.338 778.569 655.029 777.489L654.306 774.957H749.694L748.971 777.489Z" fill="white"/>
<path d="M695.107 696.956C695.515 696.956 695.926 696.811 696.254 696.518C696.964 695.884 697.026 694.794 696.392 694.084C695.162 692.707 694.485 690.934 694.485 689.092C694.485 685.056 697.541 680.843 702 678.625C706.46 680.842 709.516 685.056 709.516 689.092C709.516 690.934 708.838 692.707 707.609 694.084C706.975 694.794 707.036 695.884 707.746 696.518C708.456 697.151 709.545 697.09 710.179 696.38C711.974 694.37 712.962 691.782 712.962 689.092C712.962 683.523 708.738 677.787 702.69 675.144C702.25 674.952 701.75 674.952 701.31 675.144C695.262 677.787 691.038 683.523 691.038 689.092C691.038 691.782 692.026 694.37 693.821 696.38C694.161 696.761 694.633 696.956 695.107 696.956Z" fill="white"/>
</g>
<g opacity="0.1">
<path d="M250.538 713.265H246.612C249.431 710.93 251.229 707.405 251.229 703.468C251.229 696.453 245.523 690.747 238.509 690.747C235.15 690.747 231.982 692.045 229.585 694.404L218.565 705.297C217.414 702.527 214.681 700.574 211.5 700.574C208.319 700.574 205.586 702.527 204.435 705.297L193.413 694.402C191.018 692.045 187.85 690.747 184.491 690.747C177.477 690.747 171.771 696.453 171.771 703.467C171.771 707.405 173.569 710.929 176.387 713.265H172.462C171.654 713.265 171 713.919 171 714.726V734.214C171 735.022 171.654 735.676 172.462 735.676H174.898V780.88C174.898 781.687 175.552 782.342 176.359 782.342H246.641C247.448 782.342 248.102 781.687 248.102 780.88V735.676H250.538C251.346 735.676 252 735.022 252 734.215V714.726C252 713.919 251.346 713.265 250.538 713.265ZM231.638 696.485C233.482 694.67 235.922 693.67 238.509 693.67C243.911 693.67 248.306 698.065 248.306 703.467C248.306 708.87 243.911 713.265 238.509 713.265H219.147V708.832L231.638 696.485ZM203.217 716.188H210.038V749.805C210.038 750.612 210.693 751.267 211.5 751.267C212.307 751.267 212.962 750.612 212.962 749.805V716.188H219.782V758.917L212.252 754.398C211.789 754.121 211.211 754.121 210.748 754.398L203.217 758.917V716.188ZM211.5 703.497C214.105 703.497 216.224 705.617 216.224 708.221V713.265H206.776V708.221C206.776 705.616 208.895 703.497 211.5 703.497ZM174.694 703.467C174.694 698.065 179.089 693.67 184.491 693.67C187.078 693.67 189.518 694.67 191.36 696.483L203.853 708.831V713.265H184.491C179.089 713.265 174.694 708.87 174.694 703.467ZM249.077 732.753H227.091C226.283 732.753 225.629 733.407 225.629 734.215C225.629 735.022 226.283 735.676 227.091 735.676H245.179V779.419H177.821V735.676H195.909C196.717 735.676 197.371 735.022 197.371 734.215C197.371 733.407 196.717 732.753 195.909 732.753H173.923V716.188H200.294V761.498C200.294 762.025 200.578 762.511 201.036 762.77C201.494 763.03 202.056 763.022 202.508 762.751L211.5 757.356L220.492 762.752C220.723 762.89 220.983 762.96 221.244 762.96C221.492 762.96 221.741 762.897 221.964 762.77C222.422 762.511 222.706 762.025 222.706 761.498V716.188H249.077V732.753Z" fill="white"/>
<path d="M184.491 696.594C180.701 696.594 177.617 699.677 177.617 703.468C177.617 704.275 178.272 704.929 179.079 704.929C179.886 704.929 180.54 704.275 180.54 703.468C180.54 701.289 182.313 699.517 184.491 699.517C185.298 699.517 185.953 698.863 185.953 698.055C185.953 697.248 185.298 696.594 184.491 696.594Z" fill="white"/>
</g>
</g>
<defs>
<clipPath id="clip0_9400_14568">
<path d="M0 0H868C879.046 0 888 8.95431 888 20V780C888 791.046 879.046 800 868 800H0V0Z" fill="white"/>
</clipPath>
</defs>
</svg>
