<svg width="271" height="67" viewBox="0 0 271 67" fill="none" xmlns="http://www.w3.org/2000/svg">
<path d="M54.4798 39.3401C55.2522 39.3401 55.9157 39.1815 56.4702 38.8644C57.0446 38.5472 57.4803 38.0318 57.7774 37.3181C58.0745 36.6045 58.2329 35.6827 58.2527 34.5527H66.0661C66.0661 36.9712 65.5512 39.0626 64.5213 40.8269C63.5112 42.5714 62.1446 43.9194 60.4215 44.8709C58.7182 45.8027 56.7871 46.2685 54.6283 46.2685C52.4695 46.2685 50.5879 45.9216 48.9837 45.2278C47.3794 44.5339 46.0524 43.5229 45.0027 42.1947C43.9728 40.8665 43.1905 39.2509 42.6557 37.3478C42.1408 35.4249 41.8833 33.2245 41.8833 30.7466V28.3974C41.8833 25.9591 42.1408 23.7785 42.6557 21.8556C43.1905 19.9327 43.9728 18.3072 45.0027 16.979C46.0524 15.6508 47.3695 14.6398 48.954 13.946C50.5582 13.2521 52.4398 12.9052 54.5986 12.9052C56.9159 12.9052 58.9261 13.3909 60.6294 14.3623C62.3327 15.3138 63.6597 16.7213 64.6104 18.5847C65.5809 20.4481 66.0661 22.7477 66.0661 25.4834H58.2527C58.2329 24.2543 58.0844 23.2334 57.8071 22.4206C57.5496 21.588 57.1436 20.9536 56.5891 20.5175C56.0543 20.0616 55.3413 19.8336 54.45 19.8336C53.5192 19.8336 52.7666 20.0318 52.1922 20.4283C51.6376 20.805 51.2118 21.36 50.9147 22.0935C50.6374 22.8072 50.4493 23.6992 50.3503 24.7697C50.2512 25.8402 50.2017 27.0494 50.2017 28.3974V30.7466C50.2017 32.1937 50.2413 33.4525 50.3205 34.523C50.4196 35.5736 50.6077 36.4657 50.885 37.1992C51.1821 37.9128 51.6079 38.4481 52.1625 38.8049C52.7368 39.1617 53.5093 39.3401 54.4798 39.3401Z" fill="black"/>
<path d="M78.4432 41.9866L85.1573 13.4999H93.8323L83.256 50.491C83.0183 51.3037 82.6915 52.176 82.2756 53.1077C81.8597 54.0592 81.3051 54.9513 80.6119 55.7839C79.9385 56.6363 79.0869 57.3301 78.057 57.8654C77.0271 58.4006 75.7892 58.6682 74.3434 58.6682C73.6106 58.6682 73.0164 58.6187 72.5609 58.5196C72.1252 58.4403 71.5706 58.3015 70.8972 58.1033V51.6209C71.0755 51.6209 71.2438 51.6209 71.4023 51.6209C71.5805 51.6407 71.7489 51.6506 71.9073 51.6506C72.8382 51.6506 73.5809 51.5218 74.1354 51.2641C74.69 51.0262 75.1356 50.6495 75.4723 50.1341C75.8288 49.6187 76.1259 48.9744 76.3636 48.2013L78.4432 41.9866ZM76.7201 13.4999L81.7111 36.5747L82.8401 45.9711L77.2251 46.5064L67.8075 13.4999H76.7201Z" fill="black"/>
<path d="M96.9997 0H105.288V38.2102L104.694 45.6738H96.9997V0ZM121.985 28.5164V30.6276C121.985 33.2443 121.777 35.5241 121.361 37.4668C120.965 39.4095 120.341 41.035 119.489 42.3434C118.657 43.6518 117.588 44.633 116.281 45.2872C114.973 45.9414 113.429 46.2685 111.646 46.2685C110.042 46.2685 108.665 45.8919 107.517 45.1386C106.368 44.3654 105.397 43.3049 104.605 41.9569C103.833 40.589 103.199 38.9932 102.704 37.1694C102.228 35.3258 101.882 33.3137 101.664 31.1331V28.0109C101.862 25.8699 102.199 23.8776 102.674 22.034C103.169 20.1904 103.803 18.5946 104.575 17.2466C105.348 15.8788 106.308 14.8182 107.457 14.0649C108.626 13.2918 110.002 12.9052 111.587 12.9052C113.409 12.9052 114.973 13.2422 116.281 13.9162C117.588 14.5704 118.657 15.5517 119.489 16.8601C120.341 18.1684 120.965 19.8039 121.361 21.7664C121.777 23.7091 121.985 25.9591 121.985 28.5164ZM113.696 30.6276V28.5164C113.696 27.0296 113.636 25.751 113.518 24.6805C113.399 23.61 113.181 22.718 112.864 22.0043C112.547 21.2907 112.092 20.7554 111.497 20.3986C110.923 20.0418 110.161 19.8633 109.21 19.8633C108.358 19.8633 107.645 20.0318 107.071 20.3688C106.497 20.686 106.001 21.1618 105.585 21.7962C105.189 22.4107 104.902 23.1442 104.724 23.9966C104.546 24.8292 104.437 25.751 104.397 26.762V32.382C104.417 33.7498 104.585 34.9591 104.902 36.0097C105.219 37.0604 105.724 37.8732 106.417 38.4481C107.13 39.0229 108.081 39.3104 109.269 39.3104C110.2 39.3104 110.953 39.1518 111.527 38.8346C112.102 38.5174 112.547 38.0119 112.864 37.3181C113.201 36.6243 113.419 35.7322 113.518 34.6419C113.636 33.5318 113.696 32.1937 113.696 30.6276Z" fill="black"/>
<path d="M139.561 46.2685C137.362 46.2685 135.411 45.9315 133.708 45.2575C132.025 44.5835 130.599 43.6121 129.43 42.3434C128.262 41.0549 127.37 39.4987 126.756 37.6749C126.142 35.8512 125.835 33.7697 125.835 31.4305V28.784C125.835 26.1673 126.132 23.8776 126.727 21.9151C127.321 19.9327 128.162 18.2675 129.252 16.9195C130.341 15.5715 131.678 14.5704 133.262 13.9162C134.867 13.2422 136.679 12.9052 138.699 12.9052C140.719 12.9052 142.492 13.2422 144.017 13.9162C145.562 14.5704 146.839 15.5616 147.849 16.8898C148.859 18.1982 149.622 19.8237 150.137 21.7664C150.652 23.7091 150.909 25.969 150.909 28.5461V32.3523H129.371V26.4944H142.74V25.751C142.74 24.4426 142.601 23.3523 142.324 22.4801C142.046 21.588 141.611 20.9239 141.016 20.4878C140.422 20.0517 139.63 19.8336 138.64 19.8336C137.808 19.8336 137.105 20.0021 136.53 20.3391C135.956 20.6761 135.501 21.2014 135.164 21.9151C134.827 22.6288 134.58 23.5605 134.421 24.7102C134.263 25.8402 134.183 27.1981 134.183 28.784V31.4305C134.183 32.9172 134.312 34.1661 134.57 35.1772C134.827 36.1683 135.203 36.9811 135.699 37.6155C136.214 38.23 136.837 38.676 137.57 38.9536C138.303 39.2113 139.155 39.3401 140.125 39.3401C141.591 39.3401 142.908 39.0824 144.076 38.567C145.265 38.0318 146.275 37.3082 147.107 36.3963L150.434 41.4513C149.86 42.2047 149.067 42.958 148.057 43.7113C147.047 44.4646 145.839 45.0791 144.433 45.5549C143.027 46.0306 141.403 46.2685 139.561 46.2685Z" fill="black"/>
<path d="M163.554 20.6662V45.6738H155.235V13.4999H163.079L163.554 20.6662ZM171.13 13.2621L171.011 21.5583C170.634 21.479 170.179 21.4195 169.644 21.3799C169.129 21.3402 168.674 21.3204 168.278 21.3204C167.347 21.3204 166.554 21.4691 165.901 21.7664C165.247 22.044 164.703 22.4702 164.267 23.045C163.851 23.6001 163.534 24.2939 163.316 25.1265C163.098 25.9591 162.97 26.9008 162.93 27.9514L161.355 27.3567C161.355 25.2554 161.514 23.3325 161.831 21.588C162.167 19.8237 162.663 18.2973 163.316 17.0087C163.97 15.7004 164.752 14.6894 165.663 13.9757C166.594 13.2621 167.644 12.9052 168.812 12.9052C169.208 12.9052 169.624 12.9449 170.06 13.0242C170.516 13.0836 170.872 13.1629 171.13 13.2621Z" fill="black"/>
<path d="M185.913 39.3401C186.685 39.3401 187.349 39.1815 187.904 38.8644C188.478 38.5472 188.914 38.0318 189.211 37.3181C189.508 36.6045 189.666 35.6827 189.686 34.5527H197.499C197.499 36.9712 196.984 39.0626 195.955 40.8269C194.944 42.5714 193.578 43.9194 191.855 44.8709C190.151 45.8027 188.22 46.2685 186.062 46.2685C183.903 46.2685 182.021 45.9216 180.417 45.2278C178.813 44.5339 177.486 43.5229 176.436 42.1947C175.406 40.8665 174.624 39.2509 174.089 37.3478C173.574 35.4249 173.317 33.2245 173.317 30.7466V28.3974C173.317 25.9591 173.574 23.7785 174.089 21.8556C174.624 19.9327 175.406 18.3072 176.436 16.979C177.486 15.6508 178.803 14.6398 180.387 13.946C181.991 13.2521 183.873 12.9052 186.032 12.9052C188.349 12.9052 190.359 13.3909 192.063 14.3623C193.766 15.3138 195.093 16.7213 196.044 18.5847C197.014 20.4481 197.499 22.7477 197.499 25.4834H189.686C189.666 24.2543 189.518 23.2334 189.24 22.4206C188.983 21.588 188.577 20.9536 188.022 20.5175C187.488 20.0616 186.775 19.8336 185.883 19.8336C184.952 19.8336 184.2 20.0318 183.625 20.4283C183.071 20.805 182.645 21.36 182.348 22.0935C182.071 22.8072 181.883 23.6992 181.784 24.7697C181.684 25.8402 181.635 27.0494 181.635 28.3974V30.7466C181.635 32.1937 181.675 33.4525 181.754 34.523C181.853 35.5736 182.041 36.4657 182.318 37.1992C182.615 37.9128 183.041 38.4481 183.596 38.8049C184.17 39.1617 184.943 39.3401 185.913 39.3401Z" fill="black"/>
<path d="M200.845 30.6871V28.5164C200.845 25.9988 201.142 23.7686 201.736 21.8259C202.35 19.8832 203.222 18.2576 204.351 16.9493C205.48 15.6211 206.836 14.62 208.421 13.946C210.025 13.2521 211.817 12.9052 213.798 12.9052C215.798 12.9052 217.591 13.2521 219.175 13.946C220.78 14.62 222.146 15.6211 223.275 16.9493C224.424 18.2576 225.305 19.8832 225.919 21.8259C226.533 23.7686 226.84 25.9988 226.84 28.5164V30.6871C226.84 33.1849 226.533 35.4051 225.919 37.3478C225.305 39.2906 224.424 40.926 223.275 42.2542C222.146 43.5824 220.789 44.5835 219.205 45.2575C217.62 45.9315 215.838 46.2685 213.857 46.2685C211.877 46.2685 210.084 45.9315 208.48 45.2575C206.896 44.5835 205.529 43.5824 204.38 42.2542C203.232 40.926 202.35 39.2906 201.736 37.3478C201.142 35.4051 200.845 33.1849 200.845 30.6871ZM209.163 28.5164V30.6871C209.163 32.1739 209.262 33.4624 209.461 34.5527C209.678 35.643 209.985 36.545 210.382 37.2586C210.797 37.9723 211.293 38.4976 211.867 38.8346C212.441 39.1716 213.105 39.3401 213.857 39.3401C214.61 39.3401 215.283 39.1716 215.878 38.8346C216.472 38.4976 216.957 37.9723 217.333 37.2586C217.729 36.545 218.017 35.643 218.195 34.5527C218.393 33.4624 218.492 32.1739 218.492 30.6871V28.5164C218.492 27.0693 218.383 25.8005 218.165 24.7102C217.947 23.6001 217.64 22.6981 217.244 22.0043C216.848 21.2907 216.353 20.7554 215.759 20.3986C215.184 20.0219 214.531 19.8336 213.798 19.8336C213.065 19.8336 212.412 20.0219 211.837 20.3986C211.283 20.7554 210.797 21.2907 210.382 22.0043C209.985 22.6981 209.678 23.6001 209.461 24.7102C209.262 25.8005 209.163 27.0693 209.163 28.5164Z" fill="black"/>
<path d="M239.99 20.1607V45.6738H231.641V13.4999H239.485L239.99 20.1607ZM238.831 28.4867L236.514 28.5461C236.474 26.2862 236.672 24.2047 237.108 22.3017C237.544 20.3986 238.197 18.7433 239.069 17.3358C239.96 15.9283 241.079 14.838 242.426 14.0649C243.772 13.2918 245.347 12.9052 247.149 12.9052C248.318 12.9052 249.397 13.1233 250.388 13.5594C251.378 13.9757 252.23 14.6398 252.943 15.5517C253.675 16.4438 254.24 17.6134 254.636 19.0605C255.052 20.4878 255.26 22.2025 255.26 24.2047V45.6738H246.941V25.2157C246.941 23.7884 246.803 22.6981 246.525 21.9448C246.248 21.1717 245.852 20.6365 245.337 20.3391C244.822 20.0219 244.188 19.8633 243.436 19.8633C242.644 19.8633 241.95 20.0814 241.356 20.5175C240.762 20.9536 240.277 21.5682 239.9 22.3611C239.544 23.1343 239.267 24.0461 239.069 25.0968C238.89 26.1475 238.811 27.2774 238.831 28.4867ZM254.458 27.6541L251.457 28.0406C251.417 25.9195 251.606 23.947 252.022 22.1232C252.437 20.2796 253.081 18.6739 253.953 17.3061C254.824 15.9184 255.913 14.838 257.221 14.0649C258.548 13.2918 260.083 12.9052 261.825 12.9052C263.133 12.9052 264.321 13.1233 265.39 13.5594C266.46 13.9955 267.371 14.6993 268.124 15.6706C268.896 16.6222 269.48 17.881 269.876 19.447C270.292 20.9933 270.5 22.8964 270.5 25.1563V45.6738H262.152V25.186C262.152 23.7389 262.014 22.6287 261.736 21.8556C261.479 21.0825 261.083 20.5572 260.548 20.2796C260.033 20.0021 259.419 19.8633 258.706 19.8633C257.993 19.8633 257.369 20.0616 256.834 20.4581C256.319 20.8545 255.884 21.4096 255.527 22.1232C255.171 22.8369 254.903 23.6596 254.725 24.5913C254.547 25.523 254.458 26.5439 254.458 27.6541Z" fill="black"/>
<path d="M0 19.1881C0 16.805 1.93018 14.873 4.31118 14.873H31.0127C33.3937 14.873 35.3238 16.805 35.3238 19.1881C35.3238 21.5713 33.3937 23.5032 31.0127 23.5032H4.31118C1.93018 23.5032 0 21.5713 0 19.1881Z" fill="#FACA37"/>
<path d="M0 29.5592C0 27.1761 1.93018 25.2441 4.31118 25.2441H31.0127C33.3937 25.2441 35.3238 27.1761 35.3238 29.5592C35.3238 31.9424 33.3937 33.8743 31.0127 33.8743H4.31118C1.93018 33.8743 0 31.9424 0 29.5592Z" fill="#F7A02F"/>
<path d="M0 39.9254C0 37.5423 1.93018 35.6104 4.31118 35.6104H31.0127C33.3937 35.6104 35.3238 37.5423 35.3238 39.9254C35.3238 42.3086 33.3937 44.2405 31.0127 44.2405H4.31118C1.93018 44.2405 0 42.3086 0 39.9254Z" fill="#FACA37"/>
<path d="M182.28 64.8823C182.64 64.8823 182.966 64.8109 183.258 64.6682C183.557 64.5186 183.801 64.2875 183.991 63.9749C184.181 63.6555 184.29 63.2409 184.317 62.7311H186.008C185.981 63.4651 185.794 64.1108 185.448 64.6682C185.108 65.2187 184.66 65.6503 184.103 65.9629C183.553 66.2688 182.946 66.4217 182.28 66.4217C181.567 66.4217 180.946 66.3062 180.416 66.0751C179.893 65.844 179.459 65.511 179.112 65.076C178.773 64.6342 178.518 64.1006 178.348 63.4753C178.179 62.8432 178.094 62.1262 178.094 61.3242V60.0804C178.094 59.2784 178.179 58.5647 178.348 57.9394C178.518 57.3073 178.773 56.7738 179.112 56.3388C179.459 55.897 179.893 55.5606 180.416 55.3295C180.946 55.0984 181.567 54.9829 182.28 54.9829C183.027 54.9829 183.672 55.1426 184.215 55.462C184.765 55.7747 185.193 56.2301 185.499 56.8282C185.811 57.4195 185.981 58.1365 186.008 58.9793H184.317C184.29 58.4356 184.192 57.9836 184.022 57.6234C183.852 57.2564 183.621 56.9845 183.329 56.8078C183.037 56.6243 182.688 56.5325 182.28 56.5325C181.805 56.5325 181.411 56.6175 181.099 56.7874C180.793 56.9505 180.552 57.1884 180.375 57.501C180.199 57.8137 180.073 58.1875 179.998 58.6225C179.931 59.0575 179.897 59.5435 179.897 60.0804V61.3242C179.897 61.8611 179.931 62.3505 179.998 62.7923C180.073 63.2273 180.195 63.6011 180.365 63.9137C180.542 64.2264 180.786 64.4677 181.099 64.6376C181.411 64.8007 181.805 64.8823 182.28 64.8823Z" fill="#F7A02F"/>
<path d="M193.863 56.9199V66.2178H192.06V55.1868H193.801L193.863 56.9199ZM196.603 55.1256L196.613 56.8791C196.463 56.8452 196.328 56.8248 196.205 56.818C196.09 56.8044 195.954 56.7976 195.798 56.7976C195.458 56.7976 195.16 56.8656 194.902 57.0015C194.65 57.1374 194.433 57.3277 194.25 57.5724C194.066 57.8171 193.92 58.1093 193.812 58.4492C193.703 58.7822 193.628 59.1492 193.588 59.5502L193.119 59.8561C193.119 59.19 193.17 58.5647 193.272 57.9802C193.38 57.3957 193.547 56.8791 193.771 56.4306C193.995 55.9752 194.28 55.6218 194.627 55.3703C194.98 55.112 195.401 54.9829 195.89 54.9829C195.998 54.9829 196.131 54.9999 196.287 55.0338C196.45 55.061 196.555 55.0916 196.603 55.1256Z" fill="#F7A02F"/>
<path d="M206.117 66.4217C205.459 66.4217 204.865 66.3232 204.335 66.126C203.805 65.9289 203.354 65.6299 202.98 65.2289C202.607 64.8211 202.321 64.3079 202.125 63.6894C201.928 63.0709 201.829 62.3403 201.829 61.4975V60.2537C201.829 59.2818 201.941 58.4594 202.165 57.7865C202.396 57.1136 202.705 56.5733 203.092 56.1655C203.479 55.7509 203.917 55.4518 204.406 55.2683C204.895 55.078 205.398 54.9829 205.914 54.9829C206.606 54.9829 207.197 55.095 207.686 55.3193C208.175 55.5436 208.572 55.8766 208.878 56.3184C209.183 56.7602 209.407 57.3039 209.55 57.9496C209.699 58.5953 209.774 59.3395 209.774 60.1823V61.2324H202.888V59.693H207.971V59.4381C207.944 58.8672 207.866 58.3642 207.737 57.9292C207.615 57.4942 207.411 57.1544 207.126 56.9097C206.841 56.6583 206.437 56.5325 205.914 56.5325C205.581 56.5325 205.272 56.5903 204.987 56.7058C204.708 56.8146 204.467 57.0083 204.264 57.2869C204.067 57.5588 203.91 57.936 203.795 58.4186C203.686 58.9012 203.632 59.5129 203.632 60.2537V61.4975C203.632 62.0888 203.686 62.5986 203.795 63.0268C203.91 63.4482 204.077 63.7982 204.294 64.0768C204.518 64.3487 204.79 64.5526 205.109 64.6885C205.435 64.8177 205.805 64.8823 206.219 64.8823C206.824 64.8823 207.323 64.7667 207.717 64.5356C208.11 64.2977 208.453 63.9953 208.745 63.6283L209.693 64.7599C209.496 65.0386 209.238 65.307 208.918 65.5653C208.606 65.8168 208.219 66.0241 207.757 66.1872C207.302 66.3435 206.756 66.4217 206.117 66.4217Z" fill="#F7A02F"/>
<path d="M221.316 64.3317V58.3472C221.316 57.9122 221.248 57.5622 221.112 57.2971C220.983 57.0321 220.786 56.8384 220.521 56.716C220.263 56.5937 219.937 56.5325 219.543 56.5325C219.163 56.5325 218.834 56.6107 218.555 56.767C218.284 56.9233 218.073 57.1306 217.924 57.3889C217.781 57.6472 217.71 57.9326 217.71 58.2453H215.907C215.907 57.8511 215.992 57.4603 216.162 57.0729C216.338 56.6854 216.59 56.3354 216.916 56.0228C217.241 55.7033 217.632 55.4518 218.087 55.2683C218.549 55.078 219.065 54.9829 219.635 54.9829C220.314 54.9829 220.915 55.095 221.438 55.3193C221.961 55.5368 222.372 55.8936 222.671 56.3898C222.969 56.8859 223.119 57.5452 223.119 58.3676V63.8118C223.119 64.1788 223.146 64.5696 223.2 64.9842C223.261 65.3988 223.346 65.7556 223.455 66.0547V66.2178H221.591C221.503 66.0003 221.435 65.7115 221.387 65.3512C221.34 64.9842 221.316 64.6444 221.316 64.3317ZM221.601 59.5299L221.621 60.8552H220.369C219.941 60.8552 219.55 60.9028 219.197 60.9979C218.851 61.0931 218.552 61.2324 218.301 61.4159C218.05 61.5927 217.856 61.8135 217.72 62.0786C217.591 62.3437 217.527 62.6461 217.527 62.986C217.527 63.4278 217.588 63.7812 217.71 64.0463C217.832 64.3045 218.016 64.4914 218.26 64.607C218.505 64.7225 218.813 64.7803 219.187 64.7803C219.642 64.7803 220.043 64.675 220.389 64.4643C220.735 64.2536 221.003 63.9987 221.194 63.6996C221.391 63.4006 221.482 63.1219 221.469 62.8636L221.866 63.7098C221.839 63.9749 221.75 64.2638 221.601 64.5764C221.458 64.8823 221.258 65.1779 221 65.4634C220.742 65.742 220.436 65.9731 220.083 66.1566C219.737 66.3334 219.347 66.4217 218.912 66.4217C218.274 66.4217 217.713 66.2994 217.231 66.0547C216.756 65.81 216.386 65.4498 216.121 64.974C215.856 64.4982 215.724 63.9103 215.724 63.2103C215.724 62.6801 215.815 62.1908 215.999 61.7422C216.182 61.2936 216.454 60.9062 216.814 60.5799C217.174 60.2469 217.625 59.9886 218.168 59.8051C218.718 59.6216 219.353 59.5299 220.073 59.5299H221.601Z" fill="#F7A02F"/>
<path d="M233.907 55.1868V56.6345H228.763V55.1868H233.907ZM230.444 52.5055H232.246V63.4855C232.246 63.8594 232.291 64.1414 232.379 64.3317C232.474 64.522 232.593 64.6478 232.735 64.7089C232.878 64.7701 233.031 64.8007 233.194 64.8007C233.316 64.8007 233.452 64.7871 233.601 64.7599C233.751 64.7259 233.852 64.6987 233.907 64.6784L233.897 66.2178C233.774 66.2654 233.611 66.3096 233.408 66.3503C233.204 66.3979 232.946 66.4217 232.633 66.4217C232.246 66.4217 231.887 66.33 231.554 66.1464C231.221 65.9629 230.953 65.6571 230.749 65.2289C230.545 64.7939 230.444 64.2094 230.444 63.4753V52.5055Z" fill="#F7A02F"/>
<path d="M241.955 55.1868V66.2178H240.162V55.1868H241.955ZM240.06 52.2608C240.06 51.9549 240.145 51.6967 240.315 51.486C240.485 51.2753 240.739 51.1699 241.079 51.1699C241.418 51.1699 241.673 51.2753 241.843 51.486C242.019 51.6967 242.107 51.9549 242.107 52.2608C242.107 52.553 242.019 52.8045 241.843 53.0152C241.673 53.2191 241.418 53.3211 241.079 53.3211C240.739 53.3211 240.485 53.2191 240.315 53.0152C240.145 52.8045 240.06 52.553 240.06 52.2608Z" fill="#F7A02F"/>
<path d="M248.393 61.2324V60.1823C248.393 59.326 248.502 58.5749 248.719 57.9292C248.937 57.2768 249.239 56.733 249.626 56.298C250.013 55.863 250.464 55.5368 250.981 55.3193C251.497 55.095 252.05 54.9829 252.641 54.9829C253.245 54.9829 253.805 55.095 254.322 55.3193C254.838 55.5368 255.289 55.863 255.676 56.298C256.07 56.733 256.376 57.2768 256.593 57.9292C256.81 58.5749 256.919 59.326 256.919 60.1823V61.2324C256.919 62.0888 256.81 62.8432 256.593 63.4957C256.376 64.1414 256.073 64.6818 255.686 65.1167C255.299 65.5517 254.848 65.878 254.332 66.0955C253.816 66.313 253.259 66.4217 252.661 66.4217C252.064 66.4217 251.507 66.313 250.991 66.0955C250.475 65.878 250.02 65.5517 249.626 65.1167C249.239 64.6818 248.937 64.1414 248.719 63.4957C248.502 62.8432 248.393 62.0888 248.393 61.2324ZM250.196 60.1823V61.2324C250.196 61.8373 250.257 62.3675 250.38 62.8229C250.502 63.2782 250.675 63.6588 250.899 63.9647C251.123 64.2706 251.385 64.5016 251.683 64.658C251.982 64.8075 252.308 64.8823 252.661 64.8823C253.069 64.8823 253.425 64.8075 253.731 64.658C254.043 64.5016 254.301 64.2706 254.505 63.9647C254.709 63.6588 254.861 63.2782 254.963 62.8229C255.065 62.3675 255.116 61.8373 255.116 61.2324V60.1823C255.116 59.5774 255.055 59.0507 254.933 58.6021C254.81 58.1467 254.637 57.7661 254.413 57.4603C254.189 57.1476 253.924 56.9165 253.619 56.767C253.32 56.6107 252.994 56.5325 252.641 56.5325C252.295 56.5325 251.972 56.6107 251.673 56.767C251.374 56.9165 251.113 57.1476 250.889 57.4603C250.672 57.7661 250.502 58.1467 250.38 58.6021C250.257 59.0507 250.196 59.5774 250.196 60.1823Z" fill="#F7A02F"/>
<path d="M265.008 57.5418V66.2178H263.205V55.1868H264.906L265.008 57.5418ZM264.57 60.2843L263.836 60.2537C263.829 59.4993 263.914 58.8026 264.091 58.1637C264.274 57.518 264.532 56.9573 264.865 56.4815C265.205 56.0058 265.609 55.6387 266.077 55.3805C266.546 55.1154 267.065 54.9829 267.636 54.9829C268.084 54.9829 268.491 55.0576 268.858 55.2072C269.225 55.3499 269.537 55.581 269.795 55.9004C270.053 56.2199 270.25 56.6345 270.386 57.1442C270.528 57.6472 270.6 58.2623 270.6 58.9895V66.2178H268.797V58.9691C268.797 58.3914 268.732 57.9292 268.603 57.5826C268.481 57.2292 268.291 56.9743 268.033 56.818C267.782 56.6549 267.462 56.5733 267.075 56.5733C266.722 56.5733 266.393 56.6718 266.087 56.869C265.782 57.0661 265.514 57.3379 265.283 57.6846C265.059 58.0312 264.882 58.4288 264.753 58.8774C264.631 59.3192 264.57 59.7881 264.57 60.2843Z" fill="#F7A02F"/>
</svg>
