<svg width="163" height="41" viewBox="0 0 163 41" fill="none" xmlns="http://www.w3.org/2000/svg">
<path d="M32.8167 23.6972C33.282 23.6972 33.6816 23.6016 34.0157 23.4106C34.3617 23.2195 34.6241 22.9091 34.8031 22.4792C34.982 22.0493 35.0775 21.494 35.0894 20.8134H39.7959C39.7959 22.2702 39.4857 23.53 38.8654 24.5928C38.2569 25.6436 37.4337 26.4556 36.3958 27.0287C35.3698 27.59 34.2066 27.8706 32.9062 27.8706C31.6058 27.8706 30.4724 27.6616 29.506 27.2437C28.5397 26.8258 27.7403 26.2168 27.108 25.4167C26.4877 24.6166 26.0164 23.6434 25.6943 22.4971C25.3841 21.3388 25.229 20.0133 25.229 18.5207V17.1057C25.229 15.6369 25.3841 14.3234 25.6943 13.1651C26.0164 12.0068 26.4877 11.0276 27.108 10.2276C27.7403 9.42752 28.5337 8.81853 29.4881 8.40059C30.4545 7.98265 31.5879 7.77368 32.8883 7.77368C34.2841 7.77368 35.495 8.06623 36.521 8.65135C37.5471 9.22452 38.3464 10.0723 38.919 11.1948C39.5036 12.3173 39.7959 13.7024 39.7959 15.3503H35.0894C35.0775 14.61 34.988 13.995 34.821 13.5054C34.6659 13.0039 34.4213 12.6218 34.0873 12.3591C33.7651 12.0844 33.3357 11.9471 32.7988 11.9471C32.2381 11.9471 31.7847 12.0665 31.4387 12.3053C31.1047 12.5322 30.8482 12.8666 30.6692 13.3084C30.5022 13.7383 30.3889 14.2756 30.3292 14.9204C30.2696 15.5653 30.2397 16.2937 30.2397 17.1057V18.5207C30.2397 19.3924 30.2636 20.1507 30.3113 20.7955C30.371 21.4284 30.4843 21.9657 30.6513 22.4075C30.8303 22.8374 31.0868 23.1598 31.4208 23.3748C31.7668 23.5897 32.2321 23.6972 32.8167 23.6972Z" fill="white"/>
<path d="M47.2515 25.2913L51.2958 8.13191H56.5213L50.1505 30.4141C50.0074 30.9036 49.8105 31.4291 49.56 31.9903C49.3094 32.5635 48.9754 33.1008 48.5578 33.6023C48.1522 34.1158 47.6392 34.5338 47.0188 34.8562C46.3984 35.1786 45.6528 35.3398 44.7819 35.3398C44.3405 35.3398 43.9826 35.3099 43.7082 35.2502C43.4457 35.2025 43.1116 35.1189 42.706 34.9995V31.0947C42.8134 31.0947 42.9148 31.0947 43.0102 31.0947C43.1176 31.1066 43.219 31.1126 43.3145 31.1126C43.8752 31.1126 44.3226 31.035 44.6566 30.8798C44.9907 30.7365 45.2591 30.5096 45.4619 30.1991C45.6767 29.8887 45.8556 29.5006 45.9988 29.0349L47.2515 25.2913ZM46.2135 8.13191L49.22 22.0314L49.9 27.6915L46.5177 28.0139L40.8449 8.13191H46.2135Z" fill="white"/>
<path d="M58.4293 0H63.4221V23.0165L63.0642 27.5124H58.4293V0ZM73.4794 17.1773V18.449C73.4794 20.0253 73.3541 21.3985 73.1035 22.5687C72.8649 23.739 72.4891 24.7181 71.9761 25.5063C71.4751 26.2944 70.8308 26.8855 70.0434 27.2795C69.256 27.6736 68.3255 27.8706 67.2517 27.8706C66.2854 27.8706 65.4562 27.6437 64.7643 27.19C64.0723 26.7243 63.4877 26.0854 63.0105 25.2734C62.5452 24.4495 62.1634 23.4882 61.8652 22.3896C61.5789 21.2791 61.3701 20.0671 61.2388 18.7535V16.8728C61.3582 15.5832 61.561 14.3831 61.8473 13.2726C62.1455 12.162 62.5273 11.2008 62.9926 10.3888C63.4579 9.56485 64.0365 8.92599 64.7285 8.47223C65.4324 8.00653 66.2615 7.77368 67.2159 7.77368C68.3135 7.77368 69.256 7.97668 70.0434 8.38267C70.8308 8.77673 71.4751 9.36782 71.9761 10.1559C72.4891 10.944 72.8649 11.9292 73.1035 13.1114C73.3541 14.2816 73.4794 15.6369 73.4794 17.1773ZM68.4865 18.449V17.1773C68.4865 16.2817 68.4507 15.5115 68.3791 14.8667C68.3076 14.2219 68.1763 13.6845 67.9854 13.2547C67.7946 12.8248 67.5202 12.5024 67.1623 12.2874C66.8163 12.0725 66.357 11.965 65.7843 11.965C65.2713 11.965 64.8418 12.0665 64.4958 12.2695C64.1498 12.4606 63.8516 12.7472 63.601 13.1293C63.3624 13.4994 63.1895 13.9413 63.0821 14.4547C62.9747 14.9563 62.9091 15.5115 62.8852 16.1205V19.5058C62.8972 20.3298 62.9986 21.0582 63.1895 21.6911C63.3803 22.3239 63.6846 22.8135 64.1021 23.1598C64.5316 23.5061 65.1043 23.6793 65.8201 23.6793C66.3808 23.6793 66.8342 23.5837 67.1801 23.3927C67.5261 23.2016 67.7946 22.8971 67.9854 22.4792C68.1883 22.0612 68.3195 21.5239 68.3791 20.8671C68.4507 20.1984 68.4865 19.3924 68.4865 18.449Z" fill="white"/>
<path d="M84.0666 27.8706C82.7423 27.8706 81.5672 27.6676 80.5412 27.2616C79.5271 26.8556 78.6681 26.2705 77.9642 25.5063C77.2604 24.7301 76.7235 23.7927 76.3537 22.6941C75.9838 21.5955 75.7989 20.3417 75.7989 18.9327V17.3385C75.7989 15.7623 75.9778 14.3831 76.3358 13.2009C76.6937 12.0068 77.2007 11.0038 77.8569 10.1918C78.513 9.37976 79.3183 8.77673 80.2728 8.38267C81.2391 7.97668 82.3307 7.77368 83.5476 7.77368C84.7645 7.77368 85.8323 7.97668 86.7509 8.38267C87.6815 8.77673 88.451 9.37379 89.0594 10.1738C89.6679 10.962 90.1272 11.9411 90.4374 13.1114C90.7476 14.2816 90.9027 15.6429 90.9027 17.1952V19.4879H77.9285V15.9593H85.9814V15.5115C85.9814 14.7234 85.8979 14.0667 85.7309 13.5412C85.5639 13.0039 85.3014 12.6039 84.9435 12.3412C84.5856 12.0785 84.1084 11.9471 83.5118 11.9471C83.0108 11.9471 82.5872 12.0486 82.2413 12.2516C81.8953 12.4546 81.6209 12.771 81.4181 13.2009C81.2153 13.6308 81.0661 14.192 80.9707 14.8846C80.8752 15.5653 80.8275 16.3832 80.8275 17.3385V18.9327C80.8275 19.8282 80.9051 20.5805 81.0602 21.1895C81.2153 21.7866 81.4419 22.2762 81.7402 22.6583C82.0504 23.0285 82.4262 23.2971 82.8676 23.4643C83.309 23.6196 83.822 23.6972 84.4066 23.6972C85.2895 23.6972 86.0828 23.5419 86.7867 23.2315C87.5025 22.9091 88.111 22.4732 88.6121 21.9239L90.6163 24.9689C90.2704 25.4227 89.7932 25.8764 89.1847 26.3302C88.5763 26.784 87.8485 27.1541 87.0015 27.4407C86.1544 27.7273 85.1761 27.8706 84.0666 27.8706Z" fill="white"/>
<path d="M98.5193 12.4486V27.5124H93.5085V8.13191H98.2329L98.5193 12.4486ZM103.083 7.98862L103.011 12.986C102.784 12.9382 102.51 12.9024 102.188 12.8785C101.878 12.8546 101.603 12.8427 101.365 12.8427C100.804 12.8427 100.327 12.9322 99.933 13.1114C99.5393 13.2785 99.2112 13.5353 98.9488 13.8816C98.6982 14.2159 98.5073 14.6339 98.3761 15.1354C98.2449 15.6369 98.1673 16.2041 98.1435 16.837L97.195 16.4788C97.195 15.213 97.2905 14.0547 97.4813 13.0039C97.6842 11.9411 97.9824 11.0217 98.3761 10.2455C98.7698 9.45738 99.2411 8.84838 99.7898 8.4185C100.351 7.98862 100.983 7.77368 101.687 7.77368C101.925 7.77368 102.176 7.79756 102.438 7.84532C102.713 7.88115 102.928 7.92891 103.083 7.98862Z" fill="white"/>
<path d="M111.988 23.6972C112.453 23.6972 112.853 23.6016 113.187 23.4106C113.533 23.2195 113.795 22.9091 113.974 22.4792C114.153 22.0493 114.248 21.494 114.26 20.8134H118.967C118.967 22.2702 118.657 23.53 118.036 24.5928C117.428 25.6436 116.605 26.4556 115.567 27.0287C114.541 27.59 113.378 27.8706 112.077 27.8706C110.777 27.8706 109.643 27.6616 108.677 27.2437C107.711 26.8258 106.911 26.2168 106.279 25.4167C105.659 24.6166 105.187 23.6434 104.865 22.4971C104.555 21.3388 104.4 20.0133 104.4 18.5207V17.1057C104.4 15.6369 104.555 14.3234 104.865 13.1651C105.187 12.0068 105.659 11.0276 106.279 10.2276C106.911 9.42752 107.705 8.81853 108.659 8.40059C109.625 7.98265 110.759 7.77368 112.059 7.77368C113.455 7.77368 114.666 8.06623 115.692 8.65135C116.718 9.22452 117.517 10.0723 118.09 11.1948C118.675 12.3173 118.967 13.7024 118.967 15.3503H114.26C114.248 14.61 114.159 13.995 113.992 13.5054C113.837 13.0039 113.592 12.6218 113.258 12.3591C112.936 12.0844 112.507 11.9471 111.97 11.9471C111.409 11.9471 110.956 12.0665 110.61 12.3053C110.276 12.5322 110.019 12.8666 109.84 13.3084C109.673 13.7383 109.56 14.2756 109.5 14.9204C109.441 15.5653 109.411 16.2937 109.411 17.1057V18.5207C109.411 19.3924 109.435 20.1507 109.482 20.7955C109.542 21.4284 109.655 21.9657 109.822 22.4075C110.001 22.8374 110.258 23.1598 110.592 23.3748C110.938 23.5897 111.403 23.6972 111.988 23.6972Z" fill="white"/>
<path d="M120.982 18.4849V17.1773C120.982 15.6608 121.161 14.3174 121.519 13.1472C121.889 11.977 122.414 10.9978 123.094 10.2097C123.774 9.40961 124.591 8.80658 125.546 8.40059C126.512 7.98265 127.592 7.77368 128.785 7.77368C129.99 7.77368 131.069 7.98265 132.024 8.40059C132.99 8.80658 133.813 9.40961 134.493 10.2097C135.185 10.9978 135.716 11.977 136.086 13.1472C136.456 14.3174 136.641 15.6608 136.641 17.1773V18.4849C136.641 19.9895 136.456 21.3269 136.086 22.4971C135.716 23.6673 135.185 24.6525 134.493 25.4525C133.813 26.2526 132.996 26.8556 132.042 27.2616C131.087 27.6676 130.013 27.8706 128.82 27.8706C127.627 27.8706 126.548 27.6676 125.581 27.2616C124.627 26.8556 123.804 26.2526 123.112 25.4525C122.42 24.6525 121.889 23.6673 121.519 22.4971C121.161 21.3269 120.982 19.9895 120.982 18.4849ZM125.993 17.1773V18.4849C125.993 19.3805 126.053 20.1566 126.172 20.8134C126.303 21.4702 126.488 22.0135 126.727 22.4434C126.977 22.8732 127.275 23.1897 127.621 23.3927C127.967 23.5957 128.367 23.6972 128.82 23.6972C129.274 23.6972 129.679 23.5957 130.037 23.3927C130.395 23.1897 130.688 22.8732 130.914 22.4434C131.153 22.0135 131.326 21.4702 131.433 20.8134C131.552 20.1566 131.612 19.3805 131.612 18.4849V17.1773C131.612 16.3056 131.547 15.5414 131.415 14.8846C131.284 14.2159 131.099 13.6726 130.861 13.2547C130.622 12.8248 130.324 12.5024 129.966 12.2874C129.62 12.0605 129.226 11.9471 128.785 11.9471C128.343 11.9471 127.95 12.0605 127.604 12.2874C127.27 12.5024 126.977 12.8248 126.727 13.2547C126.488 13.6726 126.303 14.2159 126.172 14.8846C126.053 15.5414 125.993 16.3056 125.993 17.1773Z" fill="white"/>
<path d="M144.562 12.1441V27.5124H139.533V8.13191H144.257L144.562 12.1441ZM143.864 17.1594L142.468 17.1952C142.444 15.8339 142.563 14.5801 142.826 13.4338C143.088 12.2874 143.482 11.2903 144.007 10.4425C144.544 9.5947 145.218 8.93794 146.029 8.47223C146.84 8.00653 147.789 7.77368 148.874 7.77368C149.578 7.77368 150.228 7.90503 150.825 8.16773C151.422 8.4185 151.935 8.81853 152.364 9.36782C152.805 9.90517 153.145 10.6097 153.384 11.4814C153.635 12.3412 153.76 13.3741 153.76 14.5801V27.5124H148.749V15.1891C148.749 14.3294 148.666 13.6726 148.499 13.2188C148.332 12.7531 148.093 12.4307 147.783 12.2516C147.473 12.0605 147.091 11.965 146.637 11.965C146.16 11.965 145.743 12.0964 145.385 12.3591C145.027 12.6218 144.735 12.992 144.508 13.4696C144.293 13.9353 144.126 14.4846 144.007 15.1175C143.899 15.7504 143.852 16.431 143.864 17.1594ZM153.277 16.6579L151.469 16.8907C151.445 15.613 151.559 14.4249 151.809 13.3263C152.06 12.2158 152.448 11.2485 152.972 10.4246C153.497 9.58873 154.154 8.93794 154.941 8.47223C155.74 8.00653 156.665 7.77368 157.715 7.77368C158.502 7.77368 159.218 7.90503 159.862 8.16773C160.506 8.43044 161.055 8.85435 161.509 9.43946C161.974 10.0126 162.326 10.7709 162.564 11.7142C162.815 12.6457 162.94 13.792 162.94 15.1533V27.5124H157.912V15.1712C157.912 14.2995 157.828 13.6308 157.661 13.1651C157.506 12.6994 157.267 12.383 156.945 12.2158C156.635 12.0486 156.265 11.965 155.836 11.965C155.406 11.965 155.03 12.0844 154.708 12.3232C154.398 12.5621 154.136 12.8964 153.921 13.3263C153.706 13.7562 153.545 14.2517 153.438 14.813C153.33 15.3742 153.277 15.9892 153.277 16.6579Z" fill="white"/>
<path d="M0 11.5582C0 10.1227 1.16268 8.95898 2.59691 8.95898H18.681C20.1152 8.95898 21.2779 10.1227 21.2779 11.5582C21.2779 12.9938 20.1152 14.1575 18.681 14.1575H2.59691C1.16268 14.1575 0 12.9938 0 11.5582Z" fill="#FACA37"/>
<path d="M0 17.8053C0 16.3698 1.16268 15.2061 2.59691 15.2061H18.681C20.1152 15.2061 21.2779 16.3698 21.2779 17.8053C21.2779 19.2409 20.1152 20.4046 18.681 20.4046H2.59691C1.16268 20.4046 0 19.2409 0 17.8053Z" fill="#F7A02F"/>
<path d="M0 24.0495C0 22.6139 1.16268 21.4502 2.59691 21.4502H18.681C20.1152 21.4502 21.2779 22.6139 21.2779 24.0495C21.2779 25.485 20.1152 26.6487 18.681 26.6487H2.59691C1.16268 26.6487 0 25.485 0 24.0495Z" fill="#FACA37"/>
<path d="M109.8 39.0831C110.016 39.0831 110.213 39.0401 110.389 38.9541C110.569 38.8641 110.716 38.7249 110.83 38.5365C110.945 38.3441 111.01 38.0944 111.027 37.7873H112.045C112.029 38.2295 111.916 38.6184 111.708 38.9541C111.503 39.2858 111.233 39.5457 110.898 39.7341C110.567 39.9183 110.2 40.0104 109.8 40.0104C109.37 40.0104 108.996 39.9408 108.677 39.8016C108.362 39.6624 108.1 39.4618 107.891 39.1998C107.687 38.9337 107.533 38.6123 107.431 38.2356C107.329 37.8549 107.278 37.4229 107.278 36.9398V36.1906C107.278 35.7075 107.329 35.2776 107.431 34.901C107.533 34.5202 107.687 34.1988 107.891 33.9368C108.1 33.6707 108.362 33.468 108.677 33.3288C108.996 33.1896 109.37 33.12 109.8 33.12C110.25 33.12 110.638 33.2162 110.965 33.4087C111.297 33.597 111.554 33.8713 111.738 34.2316C111.927 34.5878 112.029 35.0197 112.045 35.5274H111.027C111.01 35.1998 110.951 34.9276 110.849 34.7106C110.746 34.4895 110.607 34.3257 110.432 34.2193C110.256 34.1088 110.045 34.0535 109.8 34.0535C109.513 34.0535 109.276 34.1047 109.088 34.207C108.904 34.3053 108.759 34.4486 108.652 34.6369C108.546 34.8252 108.47 35.0504 108.425 35.3124C108.384 35.5744 108.364 35.8672 108.364 36.1906V36.9398C108.364 37.2633 108.384 37.558 108.425 37.8242C108.47 38.0862 108.544 38.3114 108.646 38.4997C108.752 38.688 108.9 38.8334 109.088 38.9357C109.276 39.034 109.513 39.0831 109.8 39.0831Z" fill="#F7A02F"/>
<path d="M116.776 34.2869V39.8876H115.69V33.2429H116.74L116.776 34.2869ZM118.427 33.206L118.433 34.2623C118.343 34.2418 118.261 34.2295 118.188 34.2254C118.118 34.2173 118.036 34.2132 117.942 34.2132C117.738 34.2132 117.558 34.2541 117.402 34.336C117.251 34.4179 117.12 34.5325 117.01 34.6799C116.899 34.8273 116.811 35.0033 116.746 35.208C116.68 35.4086 116.635 35.6297 116.611 35.8713L116.329 36.0555C116.329 35.6543 116.359 35.2776 116.421 34.9255C116.486 34.5734 116.586 34.2623 116.721 33.9921C116.856 33.7178 117.028 33.5049 117.237 33.3534C117.449 33.1978 117.703 33.12 117.997 33.12C118.063 33.12 118.143 33.1303 118.237 33.1507C118.335 33.1671 118.398 33.1855 118.427 33.206Z" fill="#F7A02F"/>
<path d="M124.158 40.0104C123.762 40.0104 123.404 39.951 123.085 39.8323C122.766 39.7136 122.494 39.5334 122.269 39.2919C122.044 39.0462 121.872 38.7371 121.753 38.3646C121.635 37.992 121.575 37.5519 121.575 37.0442V36.295C121.575 35.7096 121.643 35.2142 121.778 34.8089C121.917 34.4035 122.103 34.0781 122.336 33.8324C122.569 33.5827 122.833 33.4025 123.128 33.292C123.422 33.1774 123.725 33.12 124.036 33.12C124.453 33.12 124.809 33.1876 125.103 33.3227C125.398 33.4578 125.637 33.6584 125.821 33.9245C126.005 34.1906 126.14 34.5182 126.226 34.9071C126.316 35.296 126.361 35.7444 126.361 36.252V36.8846H122.213V35.9572H125.275V35.8037C125.259 35.4598 125.212 35.1568 125.134 34.8948C125.06 34.6328 124.938 34.4281 124.766 34.2807C124.594 34.1292 124.351 34.0535 124.036 34.0535C123.835 34.0535 123.649 34.0883 123.477 34.1579C123.31 34.2234 123.164 34.3401 123.042 34.5079C122.923 34.6717 122.829 34.8989 122.759 35.1896C122.694 35.4803 122.661 35.8488 122.661 36.295V37.0442C122.661 37.4004 122.694 37.7075 122.759 37.9654C122.829 38.2192 122.929 38.4301 123.06 38.5979C123.195 38.7617 123.359 38.8845 123.551 38.9664C123.747 39.0442 123.97 39.0831 124.22 39.0831C124.584 39.0831 124.884 39.0135 125.122 38.8743C125.359 38.731 125.565 38.5488 125.741 38.3277L126.312 39.0094C126.193 39.1773 126.038 39.339 125.846 39.4946C125.657 39.646 125.424 39.7709 125.146 39.8692C124.872 39.9633 124.543 40.0104 124.158 40.0104Z" fill="#F7A02F"/>
<path d="M133.313 38.7515V35.1466C133.313 34.8846 133.272 34.6737 133.191 34.5141C133.113 34.3544 132.994 34.2377 132.835 34.164C132.679 34.0903 132.483 34.0535 132.246 34.0535C132.017 34.0535 131.818 34.1006 131.651 34.1947C131.487 34.2889 131.36 34.4138 131.27 34.5693C131.184 34.7249 131.141 34.8969 131.141 35.0852H130.055C130.055 34.8477 130.106 34.6123 130.209 34.379C130.315 34.1456 130.466 33.9348 130.663 33.7464C130.859 33.554 131.094 33.4025 131.368 33.292C131.647 33.1774 131.957 33.12 132.301 33.12C132.71 33.12 133.072 33.1876 133.387 33.3227C133.702 33.4537 133.949 33.6686 134.129 33.9675C134.309 34.2664 134.399 34.6635 134.399 35.1589V38.4383C134.399 38.6594 134.416 38.8948 134.448 39.1445C134.485 39.3942 134.536 39.6092 134.602 39.7893V39.8876H133.479C133.426 39.7566 133.385 39.5826 133.356 39.3656C133.328 39.1445 133.313 38.9398 133.313 38.7515ZM133.485 35.859L133.497 36.6573H132.743C132.485 36.6573 132.25 36.686 132.037 36.7433C131.829 36.8006 131.649 36.8846 131.497 36.9951C131.346 37.1015 131.229 37.2346 131.147 37.3943C131.07 37.5539 131.031 37.7361 131.031 37.9408C131.031 38.207 131.068 38.4198 131.141 38.5795C131.215 38.7351 131.325 38.8477 131.473 38.9173C131.62 38.9869 131.806 39.0217 132.031 39.0217C132.305 39.0217 132.546 38.9582 132.755 38.8313C132.964 38.7044 133.125 38.5509 133.24 38.3707C133.358 38.1906 133.414 38.0227 133.405 37.8671L133.645 38.3769C133.628 38.5365 133.575 38.7105 133.485 38.8989C133.399 39.0831 133.279 39.2612 133.123 39.4331C132.968 39.601 132.784 39.7402 132.571 39.8507C132.362 39.9572 132.127 40.0104 131.865 40.0104C131.481 40.0104 131.143 39.9367 130.853 39.7893C130.567 39.6419 130.344 39.425 130.184 39.1384C130.025 38.8518 129.945 38.4976 129.945 38.0759C129.945 37.7566 130 37.4618 130.111 37.1916C130.221 36.9214 130.385 36.688 130.601 36.4915C130.818 36.2909 131.09 36.1353 131.417 36.0248C131.749 35.9143 132.131 35.859 132.565 35.859H133.485Z" fill="#F7A02F"/>
<path d="M140.898 33.2429V34.1149H137.799V33.2429H140.898ZM138.812 31.6277H139.898V38.2418C139.898 38.4669 139.924 38.6368 139.977 38.7515C140.035 38.8661 140.106 38.9418 140.192 38.9787C140.278 39.0155 140.37 39.034 140.468 39.034C140.542 39.034 140.624 39.0258 140.714 39.0094C140.804 38.9889 140.865 38.9726 140.898 38.9603L140.892 39.8876C140.818 39.9162 140.72 39.9429 140.597 39.9674C140.474 39.9961 140.319 40.0104 140.131 40.0104C139.898 40.0104 139.681 39.9551 139.48 39.8446C139.28 39.7341 139.118 39.5498 138.996 39.2919C138.873 39.0299 138.812 38.6778 138.812 38.2356V31.6277Z" fill="#F7A02F"/>
<path d="M145.746 33.2429V39.8876H144.666V33.2429H145.746ZM144.604 31.4803C144.604 31.2961 144.655 31.1405 144.758 31.0136C144.86 30.8867 145.013 30.8232 145.218 30.8232C145.422 30.8232 145.576 30.8867 145.678 31.0136C145.784 31.1405 145.838 31.2961 145.838 31.4803C145.838 31.6564 145.784 31.8079 145.678 31.9348C145.576 32.0576 145.422 32.119 145.218 32.119C145.013 32.119 144.86 32.0576 144.758 31.9348C144.655 31.8079 144.604 31.6564 144.604 31.4803Z" fill="#F7A02F"/>
<path d="M149.624 36.8846V36.252C149.624 35.7362 149.689 35.2838 149.82 34.8948C149.951 34.5018 150.133 34.1743 150.366 33.9122C150.6 33.6502 150.872 33.4537 151.182 33.3227C151.493 33.1876 151.827 33.12 152.183 33.12C152.547 33.12 152.884 33.1876 153.195 33.3227C153.506 33.4537 153.778 33.6502 154.011 33.9122C154.248 34.1743 154.432 34.5018 154.563 34.8948C154.694 35.2838 154.759 35.7362 154.759 36.252V36.8846C154.759 37.4004 154.694 37.8549 154.563 38.2479C154.432 38.6368 154.25 38.9623 154.017 39.2243C153.784 39.4864 153.512 39.6829 153.201 39.8139C152.89 39.9449 152.555 40.0104 152.195 40.0104C151.835 40.0104 151.499 39.9449 151.189 39.8139C150.878 39.6829 150.604 39.4864 150.366 39.2243C150.133 38.9623 149.951 38.6368 149.82 38.2479C149.689 37.8549 149.624 37.4004 149.624 36.8846ZM150.71 36.252V36.8846C150.71 37.2489 150.747 37.5683 150.82 37.8426C150.894 38.1169 150.998 38.3462 151.133 38.5304C151.268 38.7146 151.426 38.8538 151.606 38.948C151.786 39.0381 151.982 39.0831 152.195 39.0831C152.44 39.0831 152.655 39.0381 152.839 38.948C153.027 38.8538 153.183 38.7146 153.305 38.5304C153.428 38.3462 153.52 38.1169 153.581 37.8426C153.643 37.5683 153.673 37.2489 153.673 36.8846V36.252C153.673 35.8876 153.637 35.5704 153.563 35.3001C153.489 35.0258 153.385 34.7966 153.25 34.6123C153.115 34.424 152.956 34.2848 152.772 34.1947C152.592 34.1006 152.395 34.0535 152.183 34.0535C151.974 34.0535 151.78 34.1006 151.6 34.1947C151.42 34.2848 151.262 34.424 151.127 34.6123C150.996 34.7966 150.894 35.0258 150.82 35.3001C150.747 35.5704 150.71 35.8876 150.71 36.252Z" fill="#F7A02F"/>
<path d="M159.632 34.6615V39.8876H158.546V33.2429H159.57L159.632 34.6615ZM159.368 36.3134L158.926 36.295C158.922 35.8406 158.973 35.4209 159.08 35.0361C159.19 34.6471 159.346 34.3094 159.546 34.0228C159.75 33.7362 159.994 33.5151 160.276 33.3595C160.558 33.1999 160.871 33.12 161.215 33.12C161.485 33.12 161.73 33.1651 161.951 33.2551C162.172 33.3411 162.36 33.4803 162.516 33.6727C162.671 33.8652 162.79 34.1149 162.871 34.422C162.957 34.7249 163 35.0954 163 35.5335V39.8876H161.914V35.5212C161.914 35.1732 161.875 34.8948 161.798 34.686C161.724 34.4731 161.61 34.3196 161.454 34.2254C161.303 34.1272 161.111 34.0781 160.877 34.0781C160.665 34.0781 160.466 34.1374 160.282 34.2561C160.098 34.3749 159.937 34.5386 159.798 34.7474C159.663 34.9562 159.556 35.1957 159.478 35.466C159.405 35.7321 159.368 36.0146 159.368 36.3134Z" fill="#F7A02F"/>
</svg>
