<svg width="36" height="36" viewBox="0 0 36 36" fill="none" xmlns="http://www.w3.org/2000/svg">
<rect width="36" height="36" rx="5" fill="#BFF1DF"/>
<path d="M19.8301 23.2875L20.9701 24.4275L23.2501 22.1475" stroke="#52CD9F" stroke-width="1.5" stroke-linecap="round" stroke-linejoin="round"/>
<path d="M18.12 17.1525C18.045 17.145 17.955 17.145 17.8725 17.1525C16.0875 17.0925 14.67 15.63 14.67 13.83C14.6625 11.9925 16.1549 10.5 17.9924 10.5C19.83 10.5 21.3225 11.9925 21.3225 13.83C21.3225 15.63 19.8974 17.0925 18.12 17.1525Z" stroke="#52CD9F" stroke-width="1.5" stroke-linecap="round" stroke-linejoin="round"/>
<path d="M17.9925 25.3575C16.6275 25.3575 15.27 25.0125 14.235 24.3225C12.42 23.1075 12.42 21.1275 14.235 19.92C16.2975 18.54 19.68 18.54 21.7425 19.92" stroke="#52CD9F" stroke-width="1.5" stroke-linecap="round" stroke-linejoin="round"/>
</svg>
