<svg width="22" height="22" viewBox="0 0 22 22" fill="none" xmlns="http://www.w3.org/2000/svg">
<path d="M16.9308 15.4277L17.2883 18.3243C17.3799 19.0852 16.5641 19.6168 15.9133 19.2226L12.0724 16.9401C11.6508 16.9401 11.2383 16.9127 10.8349 16.8577C11.5133 16.0602 11.9166 15.0518 11.9166 13.961C11.9166 11.3576 9.66161 9.24935 6.87494 9.24935C5.81161 9.24935 4.83078 9.55183 4.01495 10.0835C3.98745 9.85433 3.97827 9.62515 3.97827 9.38682C3.97827 5.21599 7.59911 1.8335 12.0724 1.8335C16.5458 1.8335 20.1666 5.21599 20.1666 9.38682C20.1666 11.8618 18.8924 14.0527 16.9308 15.4277Z" stroke="#A7A7A7" stroke-width="1.5" stroke-linecap="round" stroke-linejoin="round"/>
<path d="M11.9166 13.9606C11.9166 15.0515 11.5133 16.0598 10.8349 16.8573C9.92743 17.9573 8.48825 18.6632 6.87492 18.6632L4.48242 20.084C4.07908 20.3315 3.56575 19.9923 3.62075 19.5248L3.84992 17.719C2.62158 16.8665 1.83325 15.5006 1.83325 13.9606C1.83325 12.3473 2.69492 10.9265 4.01492 10.0832C4.83076 9.5515 5.81159 9.24902 6.87492 9.24902C9.66159 9.24902 11.9166 11.3573 11.9166 13.9606Z" stroke="#A7A7A7" stroke-width="1.5" stroke-linecap="round" stroke-linejoin="round"/>
</svg>
