<svg width="827" height="940" viewBox="0 0 827 940" fill="none" xmlns="http://www.w3.org/2000/svg">
<g clip-path="url(#clip0_6641_54920)">
<g filter="url(#filter0_d_6641_54920)">
<rect width="827" height="940" rx="30" fill="white"/>
</g>
<g clip-path="url(#clip1_6641_54920)">
<path d="M484.856 299.904H475.222C473.882 292.569 471.022 285.641 466.799 279.502L473.613 272.665C474.471 271.804 474.471 270.408 473.613 269.547L463.055 258.953C462.197 258.092 460.807 258.092 459.949 258.953L453.135 265.79C447.018 261.553 440.116 258.686 432.804 257.339V247.67C432.804 246.454 431.821 245.468 430.609 245.468H415.676C414.464 245.468 413.478 246.454 413.478 247.67V257.339C406.169 258.683 399.265 261.553 393.147 265.79L386.334 258.953C385.476 258.092 384.085 258.092 383.227 258.953L372.669 269.547C371.811 270.408 371.811 271.804 372.669 272.665L379.483 279.502C375.261 285.641 372.403 292.566 371.061 299.904H361.426C360.214 299.904 359.231 300.89 359.231 302.106V317.092C359.231 318.308 360.214 319.294 361.426 319.294H371.061C372.4 326.629 375.261 333.557 379.483 339.696L372.669 346.533C371.811 347.395 371.811 348.79 372.669 349.651L383.227 360.245C384.085 361.107 385.476 361.107 386.334 360.245L393.147 353.408C399.265 357.645 406.166 360.513 413.478 361.86V371.528C413.478 372.744 414.461 373.73 415.676 373.73H430.609C431.821 373.73 432.804 372.744 432.804 371.528V361.86C440.113 360.515 447.018 357.645 453.135 353.408L459.949 360.245C460.807 361.107 462.197 361.107 463.055 360.245L473.613 349.651C474.471 348.79 474.471 347.395 473.613 346.533L466.799 339.699C471.022 333.56 473.879 326.635 475.222 319.297H484.856C486.068 319.297 487.051 318.311 487.051 317.094V302.109C487.051 300.89 486.068 299.904 484.856 299.904ZM423.141 333.734C409.859 333.734 399.092 322.929 399.092 309.6C399.092 296.272 409.859 285.467 423.141 285.467C436.423 285.467 447.19 296.272 447.19 309.6C447.19 322.929 436.423 333.734 423.141 333.734Z" fill="#D1D1D1"/>
<path d="M423.141 345.07C403.651 345.07 387.795 329.158 387.795 309.6C387.795 290.043 403.651 274.131 423.141 274.131C442.631 274.131 458.487 290.043 458.487 309.6C458.487 329.158 442.631 345.07 423.141 345.07ZM423.141 275.788C404.563 275.788 389.446 290.955 389.446 309.6C389.446 328.246 404.56 343.413 423.141 343.413C441.719 343.413 456.836 328.246 456.836 309.6C456.836 290.955 441.722 275.788 423.141 275.788Z" fill="white"/>
<path d="M562.082 366.299H555.444C554.52 361.243 552.549 356.472 549.641 352.243L554.336 347.531C554.928 346.937 554.928 345.977 554.336 345.383L547.061 338.082C546.469 337.488 545.512 337.488 544.92 338.082L540.224 342.794C536.01 339.875 531.255 337.897 526.217 336.971V330.312C526.217 329.474 525.54 328.795 524.705 328.795H514.416C513.581 328.795 512.904 329.474 512.904 330.312V336.974C507.866 337.9 503.111 339.878 498.897 342.797L494.202 338.085C493.61 337.491 492.652 337.491 492.061 338.085L484.785 345.386C484.193 345.979 484.193 346.94 484.785 347.534L489.481 352.246C486.572 356.474 484.601 361.246 483.678 366.302H477.04C476.204 366.302 475.527 366.981 475.527 367.819V378.144C475.527 378.982 476.204 379.661 477.04 379.661H483.678C484.601 384.717 486.572 389.488 489.481 393.717L484.785 398.429C484.193 399.023 484.193 399.984 484.785 400.577L492.061 407.878C492.652 408.472 493.61 408.472 494.202 407.878L498.897 403.166C503.111 406.085 507.866 408.063 512.904 408.989V415.651C512.904 416.489 513.581 417.168 514.416 417.168H524.705C525.54 417.168 526.217 416.489 526.217 415.651V408.989C531.255 408.063 536.01 406.085 540.224 403.166L544.92 407.878C545.512 408.472 546.469 408.472 547.061 407.878L554.336 400.577C554.928 399.984 554.928 399.023 554.336 398.429L549.641 393.717C552.549 389.488 554.52 384.717 555.444 379.661H562.082C562.917 379.661 563.594 378.982 563.594 378.144V367.819C563.594 366.981 562.917 366.299 562.082 366.299ZM519.562 389.608C510.412 389.608 502.992 382.165 502.992 372.98C502.992 363.798 510.409 356.352 519.562 356.352C528.712 356.352 536.132 363.795 536.132 372.98C536.132 382.162 528.712 389.608 519.562 389.608Z" fill="#E8E8E8"/>
<path d="M519.562 397.417C506.136 397.417 495.21 386.456 495.21 372.98C495.21 359.507 506.133 348.543 519.562 348.543C532.992 348.543 543.915 359.504 543.915 372.98C543.915 386.453 532.992 397.417 519.562 397.417ZM519.562 349.685C506.762 349.685 496.348 360.135 496.348 372.98C496.348 385.825 506.762 396.275 519.562 396.275C532.363 396.275 542.776 385.825 542.776 372.98C542.776 360.135 532.363 349.685 519.562 349.685Z" fill="white"/>
<path d="M161.773 328.795H80.6108C77.9204 328.795 75.7397 326.606 75.7397 323.907V281.804C75.7397 279.105 77.9204 276.916 80.6108 276.916H161.773C164.463 276.916 166.644 279.105 166.644 281.804V323.907C166.641 326.606 164.461 328.795 161.773 328.795Z" fill="#E8E8E8"/>
<path d="M158.896 292.652H83.4854C82.7123 292.652 82.0864 292.024 82.0864 291.248V287.366C82.0864 286.59 82.7123 285.962 83.4854 285.962H158.896C159.669 285.962 160.295 286.59 160.295 287.366V291.248C160.295 292.024 159.669 292.652 158.896 292.652Z" fill="#D1D1D1"/>
<path d="M158.896 306.202H83.4854C82.7123 306.202 82.0864 305.574 82.0864 304.798V300.916C82.0864 300.14 82.7123 299.512 83.4854 299.512H158.896C159.669 299.512 160.295 300.14 160.295 300.916V304.798C160.295 305.574 159.669 306.202 158.896 306.202Z" fill="#F7F7F7"/>
<path d="M124.207 319.752H83.1258C82.5509 319.752 82.0864 319.286 82.0864 318.709V314.105C82.0864 313.528 82.5509 313.062 83.1258 313.062H124.204C124.779 313.062 125.243 313.528 125.243 314.105V318.709C125.246 319.286 124.779 319.752 124.207 319.752Z" fill="#F7F7F7"/>
<path d="M656.843 365.125H606.402C604.134 365.125 602.296 363.281 602.296 361.004V302.064C602.296 299.788 604.134 297.943 606.402 297.943H656.843C659.111 297.943 660.949 299.788 660.949 302.064V361.004C660.949 363.281 659.111 365.125 656.843 365.125Z" fill="#E8E8E8"/>
<path d="M621.197 315.628H610.905C610.43 315.628 610.044 315.242 610.044 314.764V304.437C610.044 303.959 610.43 303.573 610.905 303.573H621.197C621.673 303.573 622.058 303.959 622.058 304.437V314.764C622.058 315.242 621.673 315.628 621.197 315.628Z" fill="white"/>
<path d="M636.767 315.628H626.476C626 315.628 625.615 315.242 625.615 314.764V304.437C625.615 303.959 626 303.573 626.476 303.573H636.767C637.243 303.573 637.628 303.959 637.628 304.437V314.764C637.631 315.242 637.243 315.628 636.767 315.628Z" fill="white"/>
<path d="M652.34 315.628H642.049C641.573 315.628 641.188 315.242 641.188 314.764V304.437C641.188 303.959 641.573 303.573 642.049 303.573H652.34C652.816 303.573 653.201 303.959 653.201 304.437V314.764C653.204 315.242 652.816 315.628 652.34 315.628Z" fill="white"/>
<path d="M650.924 326.177H612.321C611.061 326.177 610.042 325.154 610.042 323.89C610.042 322.625 611.061 321.602 612.321 321.602H650.924C652.184 321.602 653.204 322.625 653.204 323.89C653.204 325.154 652.182 326.177 650.924 326.177Z" fill="#D1D1D1"/>
<path d="M650.924 334.265H612.321C611.061 334.265 610.042 333.242 610.042 331.977C610.042 330.713 611.061 329.69 612.321 329.69H650.924C652.184 329.69 653.204 330.713 653.204 331.977C653.204 333.239 652.182 334.265 650.924 334.265Z" fill="#D1D1D1"/>
<path d="M650.924 342.35H612.321C611.061 342.35 610.042 341.327 610.042 340.063C610.042 338.798 611.061 337.775 612.321 337.775H650.924C652.184 337.775 653.204 338.798 653.204 340.063C653.204 341.327 652.182 342.35 650.924 342.35Z" fill="#D1D1D1"/>
<path d="M650.924 350.438H612.321C611.061 350.438 610.042 349.415 610.042 348.15C610.042 346.886 611.061 345.863 612.321 345.863H650.924C652.184 345.863 653.204 346.886 653.204 348.15C653.204 349.415 652.182 350.438 650.924 350.438Z" fill="#D1D1D1"/>
<path d="M650.924 358.526H612.321C611.061 358.526 610.042 357.503 610.042 356.239C610.042 354.974 611.061 353.951 612.321 353.951H650.924C652.184 353.951 653.204 354.974 653.204 356.239C653.204 357.5 652.182 358.526 650.924 358.526Z" fill="#D1D1D1"/>
<path d="M580.719 570.155H363.233C362.349 570.155 361.633 569.436 361.633 568.549V563.487C361.633 562.601 362.349 561.882 363.233 561.882H580.722C581.605 561.882 582.322 562.601 582.322 563.487V568.549C582.319 569.436 581.603 570.155 580.719 570.155Z" fill="#FACA37"/>
<path d="M375.637 692.767H371.451L397.616 570.155H401.802L375.637 692.767Z" fill="#D07921"/>
<path d="M568.315 692.767H572.5L546.336 570.155H542.15L568.315 692.767Z" fill="#D07921"/>
<path d="M613.709 511.061L567.003 658.261L593.865 662.666L640.429 544.609C640.429 544.609 662.592 535.64 661.722 511.061H613.709Z" fill="#373660"/>
<path d="M570.059 671.129L567.02 675.528L547.446 682.425C544.124 683.596 541.269 686.455 540.25 689.638H582.274L585.839 671.163L570.059 671.129Z" fill="#4F5285"/>
<path d="M564.664 676.361L565.16 679.237C565.27 679.871 564.743 680.635 564.01 680.919C563.339 681.178 562.727 680.939 562.605 680.371L561.948 677.316L564.664 676.361Z" fill="#373660"/>
<path d="M559.884 678.052L560.379 680.928C560.49 681.561 559.963 682.326 559.23 682.61C558.558 682.869 557.947 682.63 557.825 682.062L557.168 679.007L559.884 678.052Z" fill="#373660"/>
<path d="M554.483 679.953L554.979 682.829C555.09 683.463 554.563 684.227 553.829 684.511C553.158 684.77 552.546 684.531 552.425 683.963L551.768 680.908L554.483 679.953Z" fill="#373660"/>
<path d="M582.276 689.638L581.271 692.767H539.247L540.252 689.638H582.276Z" fill="#373660"/>
<path d="M585.839 671.163L589.155 661.893L572.908 659.23L570.059 671.129L585.839 671.163Z" fill="#FFD1C1"/>
<mask id="mask0_6641_54920" style="mask-type:luminance" maskUnits="userSpaceOnUse" x="570" y="659" width="20" height="13">
<path d="M585.839 671.163L589.155 661.893L572.908 659.23L570.059 671.129L585.839 671.163Z" fill="white"/>
</mask>
<g mask="url(#mask0_6641_54920)">
<path d="M568.912 658.573L589.155 667.747L592.647 656.195L568.912 658.573Z" fill="#FFB2A0"/>
</g>
<path d="M653.66 525.401L675.401 645.183L651.774 652.793L620.282 538.493L653.66 525.401Z" fill="#373660"/>
<path d="M658.978 660.827L657.88 666.065L642.507 680.044C639.896 682.417 638.373 686.162 638.664 689.493L677.395 673.127L673.535 654.711L658.978 660.827Z" fill="#4F5285"/>
<path d="M656.027 667.747L657.596 670.205C657.942 670.745 657.755 671.657 657.186 672.203C656.667 672.703 656.01 672.72 655.679 672.246L653.892 669.688L656.027 667.747Z" fill="#373660"/>
<path d="M652.275 671.169L653.844 673.627C654.189 674.167 654.003 675.079 653.433 675.625C652.915 676.125 652.258 676.142 651.927 675.667L650.14 673.11L652.275 671.169Z" fill="#373660"/>
<path d="M648.033 675.022L649.602 677.48C649.947 678.02 649.76 678.933 649.191 679.478C648.673 679.978 648.016 679.995 647.684 679.521L645.897 676.963L648.033 675.022Z" fill="#373660"/>
<path d="M677.395 673.127L677.681 676.401L638.951 692.767L638.665 689.493L677.395 673.127Z" fill="#373660"/>
<path d="M673.535 654.711L673.062 645.936L656.574 651.247L658.978 660.827L673.535 654.711Z" fill="#FFD1C1"/>
<mask id="mask1_6641_54920" style="mask-type:luminance" maskUnits="userSpaceOnUse" x="656" y="645" width="18" height="16">
<path d="M673.535 654.711L673.062 645.936L656.574 651.247L658.978 660.827L673.535 654.711Z" fill="white"/>
</mask>
<g mask="url(#mask1_6641_54920)">
<path d="M651.918 652.426L675.741 651.994L673.433 642.162L651.918 652.426Z" fill="#FFB2A0"/>
</g>
<path d="M629.078 570.944C629.007 570.944 628.937 570.93 628.866 570.899C628.6 570.782 628.481 570.47 628.597 570.203L640.021 544.217L640.194 544.131C640.301 544.077 650.933 538.78 654.575 532.656C654.722 532.406 655.045 532.323 655.297 532.474C655.546 532.625 655.628 532.946 655.478 533.199C651.893 539.226 642.292 544.254 640.831 544.993L629.56 570.629C629.472 570.828 629.279 570.944 629.078 570.944Z" fill="#4F5285"/>
<path d="M619.024 470.615C616.501 472.789 556.276 477.626 556.276 477.626C556.276 477.626 548.799 483.58 547.536 481.718C546.621 480.371 546.052 480.059 544.755 477.041C544.359 476.12 543.532 472.931 543.673 471.937C544.22 468.148 546.797 467.452 546.797 467.452C548.666 466.682 555.384 467.29 555.384 467.29L610.523 453.47L619.024 470.615Z" fill="#FFD1C1"/>
<mask id="mask2_6641_54920" style="mask-type:luminance" maskUnits="userSpaceOnUse" x="543" y="453" width="77" height="30">
<path d="M619.024 470.615C616.501 472.789 556.276 477.626 556.276 477.626C556.276 477.626 548.799 483.58 547.536 481.718C546.621 480.371 546.052 480.059 544.755 477.041C544.359 476.12 543.532 472.931 543.673 471.937C544.22 468.148 546.797 467.452 546.797 467.452C548.666 466.682 555.384 467.29 555.384 467.29L610.523 453.47L619.024 470.615Z" fill="white"/>
</mask>
<g mask="url(#mask2_6641_54920)">
<path d="M576.445 475.893C576.808 475.858 597.252 467.063 597.252 467.063C597.252 467.063 598.32 457.625 602.001 453.467L608.175 452.41L607.461 477.473C607.461 477.47 576.771 478.169 576.445 475.893Z" fill="#FFB2A0"/>
</g>
<mask id="mask3_6641_54920" style="mask-type:luminance" maskUnits="userSpaceOnUse" x="543" y="453" width="77" height="30">
<path d="M619.024 470.615C616.501 472.789 556.276 477.626 556.276 477.626C556.276 477.626 548.799 483.58 547.536 481.718C546.621 480.371 546.052 480.059 544.755 477.041C544.359 476.12 543.532 472.931 543.673 471.937C544.22 468.148 546.797 467.452 546.797 467.452C548.666 466.682 555.384 467.29 555.384 467.29L610.523 453.47L619.024 470.615Z" fill="white"/>
</mask>
<g mask="url(#mask3_6641_54920)">
<path d="M550.093 473.861C548.51 472.224 546.995 470.524 545.483 468.825C543.319 469.416 541.798 471.556 541.487 473.784C541.175 476.012 541.903 478.283 543.042 480.224C543.741 481.417 544.65 482.563 545.913 483.122C547.389 483.776 549.111 483.523 550.64 483C552.512 482.361 554.251 481.332 555.715 479.996C556.193 479.559 556.723 478.905 556.638 478.212C556.564 477.603 555.958 477.629 555.483 477.518C554.109 477.203 552.897 476.413 551.832 475.509C551.218 474.995 550.648 474.435 550.093 473.861Z" fill="#FFB2A0"/>
</g>
<path d="M622.511 392.035C622.511 392.035 616.082 391.293 612.828 397.522C610.63 401.734 614.575 410.45 616.909 416.299C618.608 420.559 623.224 422.96 627.628 421.727C627.954 421.636 628.262 421.528 628.548 421.405L622.511 392.035Z" fill="#373660"/>
<path d="M635.246 408.367C636.577 408.617 637.953 407.247 638.316 405.303C638.678 403.36 637.894 401.581 636.563 401.331C635.761 401.18 634.949 401.618 634.345 402.41C632.997 396.812 629.537 392.828 625.478 392.828C620.248 392.828 616.008 399.446 616.008 407.611C616.008 415.776 620.248 422.394 625.478 422.394V433.392L637.563 433.432L635.716 423.301C635.204 420.493 634.949 417.646 634.949 414.792V408.276C635.048 408.319 635.144 408.347 635.246 408.367Z" fill="#FFD1C1"/>
<mask id="mask4_6641_54920" style="mask-type:luminance" maskUnits="userSpaceOnUse" x="616" y="392" width="23" height="42">
<path d="M635.246 408.367C636.577 408.617 637.953 407.247 638.316 405.303C638.678 403.36 637.894 401.581 636.563 401.331C635.761 401.18 634.949 401.618 634.345 402.41C632.997 396.812 629.537 392.828 625.478 392.828C620.248 392.828 616.008 399.446 616.008 407.611C616.008 415.776 620.248 422.394 625.478 422.394V433.392L637.563 433.432L635.716 423.301C635.204 420.493 634.949 417.646 634.949 414.792V408.276C635.048 408.319 635.144 408.347 635.246 408.367Z" fill="white"/>
</mask>
<g mask="url(#mask4_6641_54920)">
<path d="M629.217 392.828C629.217 392.828 630.383 401.996 625.481 405.662C621.468 408.66 614.572 407.057 614.572 407.057C614.572 407.057 618.291 392.819 621.335 391.904C624.377 390.989 629.217 392.828 629.217 392.828Z" fill="#FFB2A0"/>
</g>
<mask id="mask5_6641_54920" style="mask-type:luminance" maskUnits="userSpaceOnUse" x="616" y="392" width="23" height="42">
<path d="M635.246 408.367C636.577 408.617 637.953 407.247 638.316 405.303C638.678 403.36 637.894 401.581 636.563 401.331C635.761 401.18 634.949 401.618 634.345 402.41C632.997 396.812 629.537 392.828 625.478 392.828C620.248 392.828 616.008 399.446 616.008 407.611C616.008 415.776 620.248 422.394 625.478 422.394V433.392L637.563 433.432L635.716 423.301C635.204 420.493 634.949 417.646 634.949 414.792V408.276C635.048 408.319 635.144 408.347 635.246 408.367Z" fill="white"/>
</mask>
<g mask="url(#mask5_6641_54920)">
<path d="M619.16 416.054C619.16 416.054 621.363 416.711 623.836 413.602C623.836 413.602 624.02 417.583 621.944 417.768C619.868 417.956 619.16 416.054 619.16 416.054Z" fill="white"/>
</g>
<path d="M625.481 422.397C625.481 422.397 629.259 421.826 631.621 416.787C631.621 416.787 630.854 423.824 625.481 424.267V422.397Z" fill="#FFB2A0"/>
<path d="M621.55 394.163C621.55 394.163 619.882 404.508 634.348 402.41C634.348 402.41 636.447 400.037 637.948 402.425C639.449 404.809 637.299 408.344 634.951 408.282C634.951 408.282 634.362 419.697 635.954 424.583C635.954 424.583 637.152 420.664 640.106 416.171C644.104 410.089 644.147 402.129 639.862 396.249C637.999 393.694 635.359 391.444 631.621 390.153C618.546 385.646 621.55 394.163 621.55 394.163Z" fill="#373660"/>
<path d="M663.215 511.061L652.893 444.493C650.989 434.629 642.072 427.723 632.08 428.374C626.462 428.74 621.46 431.443 618.062 435.555V435.552L618.042 435.581C617.617 436.098 617.218 436.638 616.844 437.198L606.25 451.495C601.084 458.466 601.177 468.035 606.482 474.901L615.861 479.755L613.712 511.058H663.215V511.061Z" fill="#FACA37"/>
<mask id="mask6_6641_54920" style="mask-type:luminance" maskUnits="userSpaceOnUse" x="602" y="428" width="62" height="84">
<path d="M663.215 511.061L652.893 444.493C650.989 434.629 642.072 427.723 632.08 428.374C626.462 428.74 621.46 431.443 618.062 435.555V435.552L618.042 435.581C617.617 436.098 617.218 436.638 616.844 437.198L606.25 451.495C601.084 458.466 601.177 468.035 606.482 474.901L615.861 479.755L613.712 511.058H663.215V511.061Z" fill="white"/>
</mask>
<g mask="url(#mask6_6641_54920)">
<path d="M638.231 449.622C638.231 449.622 636.521 482.852 623.321 489.354L611.8 492.725L610.84 480.442L638.231 449.622Z" fill="#E3B526"/>
</g>
<path d="M652.334 398.599C656.506 399.543 660.142 402.609 661.785 406.571C663.059 409.649 663.155 413.076 663.11 416.409C662.988 425.265 662.042 434.432 665.146 442.722C663.532 442.901 661.912 442.529 660.335 442.145C655.546 440.977 650.25 439.238 648.047 434.816C646.492 431.693 646.908 427.956 647.797 424.583C648.687 421.209 650.023 417.91 650.216 414.426C650.411 410.942 649.157 407.079 646.101 405.411C644.878 404.743 639.202 403.51 641.205 401.14C641.961 400.245 643.368 399.671 644.43 399.253C645.611 398.787 646.857 398.486 648.123 398.358C649.528 398.213 650.955 398.29 652.334 398.599Z" fill="#373660"/>
<path d="M642.066 400.393L642.994 404.448C642.994 404.448 643.725 405.744 645.314 405.076C645.314 405.076 644.297 399.756 644.085 399.384C643.875 399.014 642.051 399.29 642.066 400.393Z" fill="#FFC967"/>
<path d="M556.845 502.038L556.658 502.095C555.828 502.348 554.953 501.876 554.701 501.043L540.771 454.868C540.519 454.036 540.989 453.158 541.819 452.905L542.005 452.848C542.835 452.595 543.71 453.067 543.962 453.899L557.893 500.074C558.145 500.904 557.675 501.785 556.845 502.038Z" fill="#373660"/>
<path d="M631.253 440.284C630.724 440.11 630.166 439.977 629.585 439.88C623.729 438.914 618.014 442.302 615.799 447.829L607.552 468.416L559.36 485.717C559.36 485.717 552.597 484.518 550.813 485.464C550.813 485.464 547.593 486.677 548.196 491.938C548.196 491.938 549.264 495.817 550.703 497.548C552.139 499.278 561.221 494.683 561.221 494.683C561.221 494.683 597.524 491.381 618.101 485.188C618.101 485.188 620.707 484.071 623.012 481.667C623.491 481.17 623.955 480.616 624.38 480.005C625.278 478.717 637.081 454.638 637.081 454.638C639.976 449.074 637.198 442.233 631.253 440.284Z" fill="#FFD1C1"/>
<mask id="mask7_6641_54920" style="mask-type:luminance" maskUnits="userSpaceOnUse" x="548" y="439" width="91" height="59">
<path d="M631.253 440.284C630.724 440.11 630.166 439.977 629.585 439.88C623.729 438.914 618.014 442.302 615.799 447.829L607.552 468.416L559.36 485.717C559.36 485.717 552.597 484.518 550.813 485.464C550.813 485.464 547.593 486.677 548.196 491.938C548.196 491.938 549.264 495.817 550.703 497.548C552.139 499.278 561.221 494.683 561.221 494.683C561.221 494.683 597.524 491.381 618.101 485.188C618.101 485.188 620.707 484.071 623.012 481.667C623.491 481.17 623.955 480.616 624.38 480.005C625.278 478.717 637.081 454.638 637.081 454.638C639.976 449.074 637.198 442.233 631.253 440.284Z" fill="white"/>
</mask>
<g mask="url(#mask7_6641_54920)">
<path d="M585.386 492.384C596.255 491.628 614.881 489.934 620.092 486.964C627.588 482.69 639.806 457.219 639.806 457.219C639.806 457.219 651.408 442.711 635.631 444.123C635.631 444.123 623.859 476.384 620.279 479.632C616.699 482.881 577.34 492.864 577.34 492.864C577.34 492.864 580.62 492.716 585.386 492.384Z" fill="#FFB2A0"/>
</g>
<path d="M446.236 405.266C446.236 405.266 451.051 389.673 452.444 389.969C453.837 390.264 452.079 397.98 453.985 397.616C455.891 397.252 458.751 381.949 459.85 382.833C460.949 383.717 467.473 392.103 466.522 396.812C465.568 401.521 453.659 410.981 453.659 410.981L446.236 405.266Z" fill="#FFD1C1"/>
<path d="M328.351 391.56C328.351 391.56 337.589 378.121 336.496 377.206C335.406 376.288 330.447 382.449 329.555 380.719C328.663 378.988 338.881 367.274 337.507 366.953C336.137 366.631 325.534 366.668 322.435 370.332C319.337 373.995 319.289 389.236 319.289 389.236L328.351 391.56Z" fill="#FFD1C1"/>
<path d="M347.091 369.439C340.855 370.707 337.388 379.624 339.351 389.358L341.078 397.923C341.764 401.325 342.143 404.783 342.208 408.253L342.443 420.777L356.844 417.805L354.199 404.69C360.435 403.422 363.901 394.504 361.939 384.771C359.976 375.038 353.329 368.172 347.091 369.439Z" fill="#FFD1C1"/>
<mask id="mask8_6641_54920" style="mask-type:luminance" maskUnits="userSpaceOnUse" x="338" y="369" width="25" height="52">
<path d="M347.091 369.439C340.855 370.707 337.388 379.624 339.351 389.358L341.078 397.923C341.764 401.325 342.143 404.783 342.208 408.253L342.443 420.777L356.844 417.805L354.199 404.69C360.435 403.422 363.901 394.504 361.939 384.771C359.976 375.038 353.329 368.172 347.091 369.439Z" fill="white"/>
</mask>
<g mask="url(#mask8_6641_54920)">
<path d="M360.681 398.98C360.681 398.98 354.68 402.044 353.123 400.418L354.199 404.695C354.199 404.692 360.307 403.885 360.681 398.98Z" fill="#FFB2A0"/>
</g>
<path d="M386.574 492.418L371.454 664.013H334.672L353.904 512.246L326.907 664.013H287.112L329.697 492.418H386.574Z" fill="#373660"/>
<mask id="mask9_6641_54920" style="mask-type:luminance" maskUnits="userSpaceOnUse" x="287" y="492" width="100" height="173">
<path d="M386.574 492.418L371.454 664.013H334.672L353.904 512.246L326.907 664.013H287.112L329.697 492.418H386.574Z" fill="white"/>
</mask>
<g mask="url(#mask9_6641_54920)">
<path d="M305.007 664.317C304.942 664.317 304.874 664.295 304.82 664.252C304.69 664.15 304.667 663.962 304.767 663.831C306.273 661.475 331.886 548.309 345.222 488.783C345.258 488.619 345.42 488.519 345.584 488.553C345.746 488.59 345.85 488.752 345.814 488.914C344.23 495.979 307.035 661.936 305.248 664.201C305.186 664.277 305.098 664.317 305.007 664.317Z" fill="#4F5285"/>
</g>
<mask id="mask10_6641_54920" style="mask-type:luminance" maskUnits="userSpaceOnUse" x="287" y="492" width="100" height="173">
<path d="M386.574 492.418L371.454 664.013H334.672L353.904 512.246L326.907 664.013H287.112L329.697 492.418H386.574Z" fill="white"/>
</mask>
<g mask="url(#mask10_6641_54920)">
<path d="M356.405 664.317C356.397 664.317 356.388 664.317 356.38 664.317C356.213 664.303 356.088 664.158 356.102 663.99L370.254 487.257C370.268 487.09 370.412 486.967 370.579 486.979C370.746 486.993 370.871 487.138 370.857 487.306L356.705 664.039C356.694 664.198 356.561 664.317 356.405 664.317Z" fill="#4F5285"/>
</g>
<path d="M365.462 664.013L364.692 669.825L386.583 679.004C390.299 680.561 392.372 684.367 391.808 688.601H335.882L339.144 664.013H365.462Z" fill="#4F5285"/>
<path d="M354.57 677.839C354.227 680.416 351.868 682.508 349.3 682.508C346.731 682.508 344.924 680.419 345.267 677.839C345.609 675.261 347.969 673.17 350.537 673.17C353.109 673.17 354.913 675.261 354.57 677.839Z" fill="#373660"/>
<path d="M367.328 670.933L364.932 674.761C364.406 675.602 364.641 676.623 365.448 677C366.184 677.344 367.141 677.026 367.648 676.273L370.367 672.209L367.328 670.933Z" fill="#373660"/>
<path d="M372.669 673.184L370.273 677.012C369.747 677.853 369.982 678.873 370.789 679.251C371.525 679.595 372.482 679.277 372.989 678.524L375.708 674.46L372.669 673.184Z" fill="#373660"/>
<path d="M378.71 675.713L376.314 679.541C375.788 680.382 376.023 681.403 376.83 681.781C377.566 682.124 378.523 681.806 379.03 681.053L381.749 676.989L378.71 675.713Z" fill="#373660"/>
<path d="M335.882 688.601L335.327 692.767H391.256L391.808 688.601H335.882Z" fill="#373660"/>
<path d="M295.951 664.013L295.18 669.825L270.853 679.004C266.724 680.561 263.64 684.367 263.08 688.601H319.006L322.268 664.013H295.951Z" fill="#4F5285"/>
<path d="M310.786 681.022C312.792 679.139 313.086 676.185 311.444 674.423C309.801 672.662 306.844 672.76 304.839 674.643C302.833 676.526 302.539 679.481 304.181 681.242C305.824 683.004 308.781 682.905 310.786 681.022Z" fill="#373660"/>
<path d="M292.249 670.933L293.628 674.761C293.931 675.602 293.425 676.623 292.518 677C291.689 677.344 290.816 677.026 290.513 676.273L288.874 672.209L292.249 670.933Z" fill="#373660"/>
<path d="M286.31 673.184L287.69 677.012C287.993 677.853 287.486 678.873 286.579 679.251C285.75 679.595 284.877 679.277 284.574 678.524L282.935 674.46L286.31 673.184Z" fill="#373660"/>
<path d="M279.598 675.713L280.978 679.541C281.281 680.382 280.777 681.403 279.867 681.781C279.038 682.124 278.165 681.806 277.862 681.053L276.223 676.989L279.598 675.713Z" fill="#373660"/>
<path d="M319.006 688.601L318.454 692.767H262.527L263.08 688.601H319.006Z" fill="#373660"/>
<path d="M442.968 400.572L412.065 442.452L411.975 442.572L385.133 420.655C377.167 414.15 367.453 410.535 357.946 410.535H333.078C332.127 410.535 331.186 410.572 330.258 410.646L336.049 391.08L317.052 385.769L292.045 444.05C289.831 449.213 290.035 455.102 292.606 460.098C295.132 465.006 299.68 468.549 305.044 469.786C309.666 470.846 314.492 469.212 317.528 465.557L320.085 462.479L321.283 497.531H393.983L384.977 460.646L393.029 467.694L392.998 467.734L395.235 469.624L397.39 471.511L397.421 471.471L398.916 472.735C403.125 476.293 408.681 477.814 414.107 476.89C419.63 475.95 424.444 472.576 427.225 467.697L458.618 412.616L442.968 400.572Z" fill="#FF9933"/>
<path d="M330.255 410.643C330.255 410.643 314.914 412.829 306.837 423.108L293.073 441.648L304.05 416.066C304.05 416.066 314.276 404.505 330.255 410.643Z" fill="#D07921"/>
<path d="M384.974 460.646L370.37 447.363C370.37 447.363 367.597 468.1 393.98 497.528L384.974 460.646Z" fill="#D07921"/>
<path d="M355.938 372.804C355.938 372.804 359.925 382.566 358.713 385.768C358.713 385.768 356.657 382.188 354.445 384.316C352.234 386.442 355.182 389.773 358.13 389.864C358.13 389.864 351.455 399.387 350.645 399.756C349.838 400.126 341.633 401.143 341.633 401.143C341.633 401.143 329.382 385.979 330.948 377.843C332.514 369.706 340.532 363.326 349.192 363.048C357.852 362.769 367.252 369.288 367.252 369.288C367.252 369.288 363.236 374.145 355.938 372.804Z" fill="#373660"/>
<path d="M320.082 462.479L319.289 444.786C319.289 444.786 311.257 470.073 305.044 469.783C305.044 469.783 313.823 473.202 320.082 462.479Z" fill="#D07921"/>
<path d="M484.406 536.049H461.857V558.676H484.406V536.049Z" fill="#373660"/>
<mask id="mask11_6641_54920" style="mask-type:luminance" maskUnits="userSpaceOnUse" x="461" y="536" width="24" height="23">
<path d="M484.406 536.049H461.857V558.676H484.406V536.049Z" fill="white"/>
</mask>
<g mask="url(#mask11_6641_54920)">
<path d="M484.406 540.278H461.857V544.007H484.406V540.278Z" fill="#4F5285"/>
</g>
<path d="M431.269 540.278C426.882 540.278 423.314 536.697 423.314 532.295V482.017C423.314 477.615 426.882 474.034 431.269 474.034H514.991C519.378 474.034 522.946 477.615 522.946 482.017V532.295C522.946 536.697 519.378 540.278 514.991 540.278H431.269Z" fill="#373660"/>
<path d="M514.992 537.376H431.269C428.474 537.376 426.206 535.103 426.206 532.295V482.017C426.206 479.212 428.471 476.936 431.269 476.936H514.992C517.787 476.936 520.055 479.209 520.055 482.017V532.295C520.055 535.1 517.787 537.376 514.992 537.376Z" fill="white"/>
<path d="M489.911 561.993H454.933V561.39C454.933 559.185 456.714 557.397 458.912 557.397H485.935C488.133 557.397 489.914 559.185 489.914 561.39V561.993H489.911Z" fill="#4F5285"/>
<path d="M454.752 489.042H446.14V525.27H454.752V489.042Z" fill="#FACA37"/>
<path d="M469.875 498.761H461.263V525.27H469.875V498.761Z" fill="#E8E8E8"/>
<path d="M484.997 503.149H476.385V525.27H484.997V503.149Z" fill="#E8E8E8"/>
<path d="M500.12 513.601H491.508V525.27H500.12V513.601Z" fill="#E8E8E8"/>
<path d="M537.724 561.993H521.332V560.731C521.332 556.19 525.002 552.507 529.528 552.507C534.053 552.507 537.724 556.19 537.724 560.731V561.993Z" fill="#373660"/>
<path d="M207.065 465.298L232.644 394.552L241.08 399.983C241.08 399.983 240.134 465.4 230.525 470.774C221.097 476.049 207.065 465.298 207.065 465.298Z" fill="#FFD1C1"/>
<mask id="mask12_6641_54920" style="mask-type:luminance" maskUnits="userSpaceOnUse" x="207" y="394" width="35" height="79">
<path d="M207.065 465.298L232.644 394.552L241.08 399.983C241.08 399.983 240.134 465.4 230.525 470.774C221.097 476.049 207.065 465.298 207.065 465.298Z" fill="white"/>
</mask>
<g mask="url(#mask12_6641_54920)">
<path d="M233.618 469.566C240.055 462.865 244.36 453.399 244.36 453.399C215.683 451.018 212.058 450.739 212.058 450.739L203.641 460.637C203.641 460.637 207.192 470.899 217.272 475.193C223.284 477.754 228.999 474.372 233.618 469.566Z" fill="#FFB2A0"/>
</g>
<path d="M173.905 365.651C167.737 366.904 164.313 375.722 166.253 385.348L167.961 393.819C167.967 393.853 167.975 393.887 167.981 393.922C168.986 398.952 169.065 404.124 168.338 409.199L167.618 414.241H183.931L180.934 400.515C187.102 399.261 190.526 390.443 188.586 380.818C186.646 371.189 180.073 364.4 173.905 365.651Z" fill="#FFD1C1"/>
<mask id="mask13_6641_54920" style="mask-type:luminance" maskUnits="userSpaceOnUse" x="165" y="365" width="25" height="50">
<path d="M173.905 365.651C167.737 366.904 164.313 375.722 166.253 385.348L167.961 393.819C167.967 393.853 167.975 393.887 167.981 393.922C168.986 398.952 169.065 404.124 168.338 409.199L167.618 414.241H183.931L180.934 400.515C187.102 399.261 190.526 390.443 188.586 380.818C186.646 371.189 180.073 364.4 173.905 365.651Z" fill="white"/>
</mask>
<g mask="url(#mask13_6641_54920)">
<path d="M173.311 377.839C173.311 377.839 180.702 380.843 190.481 379.741C190.481 379.741 189.682 371.931 185.092 368.225C185.092 368.225 171.821 369.527 171.521 370.428C171.223 371.332 173.311 377.839 173.311 377.839Z" fill="#FFB2A0"/>
</g>
<mask id="mask14_6641_54920" style="mask-type:luminance" maskUnits="userSpaceOnUse" x="165" y="365" width="25" height="50">
<path d="M173.905 365.651C167.737 366.904 164.313 375.722 166.253 385.348L167.961 393.819C167.967 393.853 167.975 393.887 167.981 393.922C168.986 398.952 169.065 404.124 168.338 409.199L167.618 414.241H183.931L180.934 400.515C187.102 399.261 190.526 390.443 188.586 380.818C186.646 371.189 180.073 364.4 173.905 365.651Z" fill="white"/>
</mask>
<g mask="url(#mask14_6641_54920)">
<path d="M180.935 400.512C180.935 400.512 177.692 400.486 175.653 398.443C175.653 398.443 176.174 402.97 181.546 403.322L180.935 400.512Z" fill="#FFB2A0"/>
</g>
<path d="M205.556 469.223L217.272 437.652L188.473 413.954C188.329 413.829 188.179 413.71 188.029 413.59L187.802 413.406V413.408C184.531 410.848 180.419 409.33 175.976 409.33H174.786C164.897 409.33 157.879 415.494 155.274 426.541L145.54 470.26L154.263 471.672C154.101 473.218 153.877 474.759 153.591 476.29L148.1 505.61H209.113L202.194 466.708L205.556 469.223Z" fill="#FF9933"/>
<mask id="mask15_6641_54920" style="mask-type:luminance" maskUnits="userSpaceOnUse" x="145" y="409" width="73" height="97">
<path d="M205.556 469.223L217.272 437.652L188.473 413.954C188.329 413.829 188.179 413.71 188.029 413.59L187.802 413.406V413.408C184.531 410.848 180.419 409.33 175.976 409.33H174.786C164.897 409.33 157.879 415.494 155.274 426.541L145.54 470.26L154.263 471.672C154.101 473.218 153.877 474.759 153.591 476.29L148.1 505.61H209.113L202.194 466.708L205.556 469.223Z" fill="white"/>
</mask>
<g mask="url(#mask15_6641_54920)">
<path d="M202.194 466.699L194.338 431.167L215.128 453.439L208.26 468.379L202.194 466.699Z" fill="#D07921"/>
</g>
<path d="M154.262 471.667L178.875 475.114L182.231 442.771C182.231 442.771 185.712 493.927 184.168 495.649C179.668 500.671 148.72 503.461 148.72 503.461L154.262 471.667Z" fill="#D07921"/>
<path d="M232.644 394.555C232.644 394.555 230.984 377.729 231.887 376.95C232.791 376.174 234.34 385.876 236.404 385.751C238.469 385.626 242.601 368.657 244.15 368.919C245.699 369.177 252.023 377.987 251.765 381.093C251.507 384.202 241.08 399.983 241.08 399.983C241.08 399.983 232.788 396.081 232.644 394.555Z" fill="#FFD1C1"/>
<mask id="mask16_6641_54920" style="mask-type:luminance" maskUnits="userSpaceOnUse" x="231" y="368" width="21" height="32">
<path d="M232.644 394.555C232.644 394.555 230.984 377.729 231.887 376.95C232.791 376.174 234.34 385.876 236.404 385.751C238.469 385.626 242.601 368.657 244.15 368.919C245.699 369.177 252.023 377.987 251.765 381.093C251.507 384.202 241.08 399.983 241.08 399.983C241.08 399.983 232.788 396.081 232.644 394.555Z" fill="white"/>
</mask>
<g mask="url(#mask16_6641_54920)">
<path d="M244.15 368.919C244.15 368.919 240.228 390.608 237.846 389.872C235.467 389.136 231.885 376.95 231.885 376.95C231.885 376.95 235.663 384.202 236.555 383.387C237.45 382.568 241.131 367.904 244.15 368.919Z" fill="#FFB2A0"/>
</g>
<path d="M239.86 454.132C237.988 454.036 149.669 470.788 149.669 470.788C149.669 470.788 150.544 487.777 158.236 491.551C167.763 496.229 224.125 469.544 224.125 469.544L224.136 469.402L234.524 464.545C234.524 464.545 242.179 466.006 245.368 464.673C248.557 463.34 253.651 458.617 253.651 458.617C253.651 458.617 241.729 454.226 239.86 454.132Z" fill="#FFD1C1"/>
<mask id="mask17_6641_54920" style="mask-type:luminance" maskUnits="userSpaceOnUse" x="149" y="454" width="105" height="39">
<path d="M239.86 454.132C237.988 454.036 149.669 470.788 149.669 470.788C149.669 470.788 150.544 487.777 158.236 491.551C167.763 496.229 224.125 469.544 224.125 469.544L224.136 469.402L234.524 464.545C234.524 464.545 242.179 466.006 245.368 464.673C248.557 463.34 253.651 458.617 253.651 458.617C253.651 458.617 241.729 454.226 239.86 454.132Z" fill="white"/>
</mask>
<g mask="url(#mask17_6641_54920)">
<path d="M177.205 465.588C177.205 465.588 154.526 483.375 149.168 483.108C143.81 482.841 146.817 469.586 146.817 469.586C146.817 469.586 175.806 465.852 177.205 465.588Z" fill="#FFB2A0"/>
</g>
<path d="M167.576 392.131C168.451 389.71 169.275 387.272 170.048 384.816C170.048 384.816 166.551 381.287 168.811 378.499C171.07 375.708 173.087 380.795 172.815 381.67C172.815 381.67 175.868 374.287 178.864 372.755C181.863 371.224 180.487 378.163 187.553 377.072C194.616 375.981 194.335 364.073 194.335 364.073C194.335 364.073 177.723 359.367 168.046 361.425C158.372 363.485 164.039 367.899 164.039 367.899C164.039 367.899 155.928 370.252 155.928 374.765C155.931 379.275 167.576 392.131 167.576 392.131Z" fill="#373660"/>
<path d="M141.292 657.025L139.086 661.964L155.234 678.592C157.975 681.414 158.72 685.631 157.114 689.229L109.599 667.855L118.931 646.965L141.292 657.025Z" fill="#4F5285"/>
<path d="M128.35 665.309C127.373 667.5 124.81 668.477 122.627 667.497C120.443 666.517 119.469 663.945 120.446 661.754C121.423 659.563 123.986 658.585 126.169 659.565C128.353 660.546 129.327 663.118 128.35 665.309Z" fill="#373660"/>
<path d="M141.031 663.965L137.976 666.497C137.305 667.054 137.231 668.063 137.817 668.711C138.352 669.302 139.25 669.381 139.879 668.895L143.272 666.275L141.031 663.965Z" fill="#373660"/>
<path d="M144.968 668.034L141.912 670.566C141.241 671.123 141.167 672.132 141.754 672.78C142.289 673.371 143.187 673.451 143.815 672.965L147.208 670.345L144.968 668.034Z" fill="#373660"/>
<path d="M149.426 672.618L146.37 675.15C145.699 675.707 145.625 676.716 146.211 677.364C146.746 677.955 147.644 678.035 148.273 677.549L151.666 674.929L149.426 672.618Z" fill="#373660"/>
<path d="M109.586 667.839L108.005 671.379L155.518 692.75L157.099 689.21L109.586 667.839Z" fill="#373660"/>
<path d="M204.528 505.601H151.575L143.402 577.654C142.464 585.762 140.17 593.654 136.613 600.994L113.997 647.678L148.29 660.321L169.739 606.817C171.226 603.109 172.107 599.181 172.35 595.191L178.921 525.671L177.485 665.974H211.729L204.528 505.601Z" fill="#373660"/>
<path d="M206.15 665.974V671.385L227.665 679.93C231.318 681.382 233.717 684.923 233.717 688.865H181.648V665.974H206.15Z" fill="#4F5285"/>
<path d="M197.613 679.857C198.159 677.521 196.714 675.182 194.386 674.635C192.057 674.087 189.727 675.537 189.181 677.873C188.635 680.209 190.08 682.548 192.409 683.096C194.737 683.643 197.067 682.193 197.613 679.857Z" fill="#373660"/>
<path d="M208.745 672.414L206.989 675.977C206.604 676.762 206.946 677.711 207.745 678.06C208.473 678.381 209.325 678.086 209.702 677.381L211.73 673.596L208.745 672.414Z" fill="#373660"/>
<path d="M213.995 674.508L212.239 678.072C211.851 678.856 212.197 679.805 212.995 680.155C213.723 680.476 214.576 680.18 214.952 679.476L216.98 675.69L213.995 674.508Z" fill="#373660"/>
<path d="M219.931 676.864L218.175 680.428C217.79 681.212 218.132 682.161 218.931 682.511C219.659 682.832 220.511 682.536 220.888 681.832L222.916 678.046L219.931 676.864Z" fill="#373660"/>
<path d="M233.717 688.865H181.648V692.744H233.717V688.865Z" fill="#373660"/>
<path d="M325.661 348.196H211.073C208.881 348.196 207.105 346.414 207.105 344.215V278.138C207.105 275.939 208.881 274.157 211.073 274.157H325.658C327.85 274.157 329.626 275.939 329.626 278.138V344.215C329.629 346.414 327.853 348.196 325.661 348.196Z" fill="#E8E8E8"/>
<mask id="mask18_6641_54920" style="mask-type:luminance" maskUnits="userSpaceOnUse" x="207" y="274" width="123" height="75">
<path d="M325.661 348.196H211.073C208.881 348.196 207.105 346.414 207.105 344.215V278.138C207.105 275.939 208.881 274.157 211.073 274.157H325.658C327.85 274.157 329.626 275.939 329.626 278.138V344.215C329.629 346.414 327.853 348.196 325.661 348.196Z" fill="white"/>
</mask>
<g mask="url(#mask18_6641_54920)">
<path d="M201.37 348.494C202.602 344.496 204.262 340.631 206.312 336.985C209.407 331.486 213.497 326.407 218.858 323.105C224.222 319.803 230.979 318.456 236.948 320.448C241.202 321.869 244.742 324.813 248.543 327.2C252.34 329.588 256.855 331.494 261.222 330.477C265.076 329.579 268.055 326.592 270.714 323.654C275.424 318.453 279.89 312.94 285.483 308.711C291.076 304.482 298.088 301.604 305.021 302.595C311.506 303.525 317.066 307.66 321.911 312.084C326.813 316.558 331.322 321.471 335.36 326.743V363.306H202.548L201.37 348.494Z" fill="#FF9933"/>
</g>
<mask id="mask19_6641_54920" style="mask-type:luminance" maskUnits="userSpaceOnUse" x="207" y="274" width="123" height="75">
<path d="M325.661 348.196H211.073C208.881 348.196 207.105 346.414 207.105 344.215V278.138C207.105 275.939 208.881 274.157 211.073 274.157H325.658C327.85 274.157 329.626 275.939 329.626 278.138V344.215C329.629 346.414 327.853 348.196 325.661 348.196Z" fill="white"/>
</mask>
<g mask="url(#mask19_6641_54920)">
<path d="M334.259 270.837H201.662V289.949H334.259V270.837Z" fill="#373660"/>
</g>
<path d="M220.412 280.795C220.412 282.336 219.169 283.58 217.637 283.58C216.102 283.58 214.859 282.333 214.859 280.795C214.859 279.255 216.102 278.008 217.637 278.008C219.169 278.01 220.412 279.258 220.412 280.795Z" fill="#FF9933"/>
<path d="M231.299 280.795C231.299 282.336 230.055 283.58 228.52 283.58C226.985 283.58 225.742 282.333 225.742 280.795C225.742 279.255 226.985 278.008 228.52 278.008C230.055 278.008 231.299 279.258 231.299 280.795Z" fill="white"/>
<path d="M242.185 280.795C242.185 282.336 240.942 283.58 239.41 283.58C237.875 283.58 236.634 282.333 236.634 280.795C236.634 279.255 237.878 278.008 239.41 278.008C240.942 278.01 242.185 279.258 242.185 280.795Z" fill="white"/>
<path d="M738.778 626.64C739.492 602.666 729.577 572.59 729.577 572.59C716.383 591.454 714.845 607.662 717.386 620.018C712.107 613.064 705.483 607.053 697.788 605.564C697.788 605.564 702.379 639.405 716.508 646.055H745.751C772.59 637.586 768.027 589.249 768.027 589.249C745.992 605.422 743.208 612.166 738.778 626.64Z" fill="#A2D89A"/>
<mask id="mask20_6641_54920" style="mask-type:luminance" maskUnits="userSpaceOnUse" x="697" y="572" width="72" height="75">
<path d="M738.778 626.64C739.492 602.666 729.577 572.59 729.577 572.59C716.383 591.454 714.845 607.662 717.386 620.018C712.107 613.064 705.483 607.053 697.788 605.564C697.788 605.564 702.379 639.405 716.508 646.055H745.751C772.59 637.586 768.027 589.249 768.027 589.249C745.992 605.422 743.208 612.166 738.778 626.64Z" fill="white"/>
</mask>
<g mask="url(#mask20_6641_54920)">
<path d="M707.519 641.079C707.519 641.079 718.544 644.384 720.317 635.356C720.317 635.356 724.752 641.585 730.962 640.57C737.17 639.553 738.184 633.196 738.184 633.196C738.184 633.196 742.619 643.751 757.824 640.951C757.824 640.951 745.533 649.215 740.084 649.471C734.635 649.727 717.023 649.218 716.261 648.962C715.502 648.71 707.519 641.079 707.519 641.079Z" fill="#8EBF87"/>
</g>
<path d="M700.9 646.052H762.61L748.733 692.767H712.951L700.9 646.052Z" fill="#D7C8C3"/>
<mask id="mask21_6641_54920" style="mask-type:luminance" maskUnits="userSpaceOnUse" x="700" y="646" width="63" height="47">
<path d="M700.9 646.052H762.61L748.733 692.767H712.951L700.9 646.052Z" fill="white"/>
</mask>
<g mask="url(#mask21_6641_54920)">
<path d="M702.126 676.185C702.126 676.185 744.278 663.266 762.609 640.173H768.86L752.751 696.749H705.865L702.126 676.185Z" fill="#B4A29C"/>
</g>
<path d="M139.582 379.349H79.7783C77.5495 379.349 75.7427 377.535 75.7427 375.299V343.078C75.7427 340.841 77.5495 339.028 79.7783 339.028H139.584C141.813 339.028 143.62 340.841 143.62 343.078V375.299C143.62 377.535 141.813 379.349 139.582 379.349Z" fill="#E8E8E8"/>
<path d="M109.882 351.362H82.5678C82.1515 351.362 81.8145 351.024 81.8145 350.606V347.446C81.8145 347.028 82.1515 346.69 82.5678 346.69H109.882C110.299 346.69 110.636 347.028 110.636 347.446V350.606C110.636 351.024 110.299 351.362 109.882 351.362Z" fill="#D1D1D1"/>
<path d="M109.882 365.54H82.5678C82.1515 365.54 81.8145 365.202 81.8145 364.784V361.624C81.8145 361.206 82.1515 360.868 82.5678 360.868H109.882C110.299 360.868 110.636 361.206 110.636 361.624V364.784C110.636 365.202 110.299 365.54 109.882 365.54Z" fill="#F7F7F7"/>
<path d="M138.106 365.54H113.969C113.578 365.54 113.261 365.222 113.261 364.829V361.581C113.261 361.189 113.578 360.871 113.969 360.871H138.106C138.497 360.871 138.814 361.189 138.814 361.581V364.829C138.814 365.222 138.497 365.54 138.106 365.54Z" fill="#F7F7F7"/>
<path d="M126.05 351.362H113.773C113.49 351.362 113.261 351.132 113.261 350.847V347.204C113.261 346.92 113.49 346.69 113.773 346.69H126.05C126.333 346.69 126.563 346.92 126.563 347.204V350.847C126.56 351.132 126.33 351.362 126.05 351.362Z" fill="#F7F7F7"/>
<path d="M96.3964 358.404H82.361C82.0608 358.404 81.8145 358.16 81.8145 357.855V354.28C81.8145 353.979 82.058 353.732 82.361 353.732H96.3964C96.6966 353.732 96.943 353.976 96.943 354.28V357.855C96.943 358.157 96.6994 358.404 96.3964 358.404Z" fill="#F7F7F7"/>
<path d="M125.838 358.404H100.624C100.225 358.404 99.8994 358.08 99.8994 357.676V354.459C99.8994 354.059 100.222 353.732 100.624 353.732H125.838C126.237 353.732 126.563 354.056 126.563 354.459V357.676C126.56 358.077 126.237 358.404 125.838 358.404Z" fill="#F7F7F7"/>
<path d="M138.369 358.404H129.14C128.893 358.404 128.692 358.202 128.692 357.955V354.181C128.692 353.934 128.893 353.732 129.14 353.732H138.369C138.616 353.732 138.817 353.934 138.817 354.181V357.955C138.814 358.202 138.616 358.404 138.369 358.404Z" fill="#F7F7F7"/>
<path d="M138.369 351.362H129.14C128.893 351.362 128.692 351.16 128.692 350.913V347.139C128.692 346.891 128.893 346.69 129.14 346.69H138.369C138.616 346.69 138.817 346.891 138.817 347.139V350.913C138.814 351.163 138.616 351.362 138.369 351.362Z" fill="#F7F7F7"/>
<path d="M110.437 368.009H119.469C119.712 368.009 119.91 368.208 119.91 368.453V372.238C119.91 372.482 119.712 372.681 119.469 372.681H110.437C110.194 372.681 109.996 372.482 109.996 372.238V368.453C109.996 368.208 110.194 368.009 110.437 368.009Z" fill="#D1D1D1"/>
<path d="M122.691 368.009H131.723C131.966 368.009 132.164 368.208 132.164 368.453V372.238C132.164 372.482 131.966 372.681 131.723 372.681H122.691C122.448 372.681 122.25 372.482 122.25 372.238V368.453C122.25 368.208 122.448 368.009 122.691 368.009Z" fill="#D1D1D1"/>
<path d="M135.535 368.009H137.789C138.356 368.009 138.817 368.47 138.817 369.041V371.65C138.817 372.218 138.358 372.681 137.789 372.681H135.535C134.968 372.681 134.507 372.221 134.507 371.65V369.041C134.507 368.47 134.966 368.009 135.535 368.009Z" fill="#D1D1D1"/>
<path d="M94.5839 368.009H106.861C107.144 368.009 107.373 368.239 107.373 368.524V372.167C107.373 372.451 107.144 372.681 106.861 372.681H94.5839C94.3007 372.681 94.0713 372.451 94.0713 372.167V368.524C94.0713 368.239 94.3007 368.009 94.5839 368.009Z" fill="#F7F7F7"/>
<path d="M82.2619 368.009H91.4914C91.7378 368.009 91.9388 368.211 91.9388 368.458V372.232C91.9388 372.48 91.7378 372.681 91.4914 372.681H82.2619C82.0155 372.681 81.8145 372.48 81.8145 372.232V368.458C81.8173 368.208 82.0155 368.009 82.2619 368.009Z" fill="#F7F7F7"/>
<path d="M804.801 691.986H23.5347V693.503H804.801V691.986Z" fill="#373660"/>
</g>
</g>
<defs>
<filter id="filter0_d_6641_54920" x="-34" y="-34" width="895" height="1008" filterUnits="userSpaceOnUse" color-interpolation-filters="sRGB">
<feFlood flood-opacity="0" result="BackgroundImageFix"/>
<feColorMatrix in="SourceAlpha" type="matrix" values="0 0 0 0 0 0 0 0 0 0 0 0 0 0 0 0 0 0 127 0" result="hardAlpha"/>
<feOffset/>
<feGaussianBlur stdDeviation="17"/>
<feComposite in2="hardAlpha" operator="out"/>
<feColorMatrix type="matrix" values="0 0 0 0 0 0 0 0 0 0 0 0 0 0 0 0 0 0 0.08 0"/>
<feBlend mode="normal" in2="BackgroundImageFix" result="effect1_dropShadow_6641_54920"/>
<feBlend mode="normal" in="SourceGraphic" in2="effect1_dropShadow_6641_54920" result="shape"/>
</filter>
<clipPath id="clip0_6641_54920">
<rect width="827" height="940" rx="30" fill="white"/>
</clipPath>
<clipPath id="clip1_6641_54920">
<rect width="782" height="449" fill="white" transform="translate(23 245)"/>
</clipPath>
</defs>
</svg>
