<svg width="25" height="24" viewBox="0 0 25 24" fill="none" xmlns="http://www.w3.org/2000/svg">
<path d="M9.5 22H15.5C20.5 22 22.5 20 22.5 15V9C22.5 4 20.5 2 15.5 2H9.5C4.5 2 2.5 4 2.5 9V15C2.5 20 4.5 22 9.5 22Z" stroke="#86969D" stroke-width="1.5" stroke-linecap="round" stroke-linejoin="round"/>
<path d="M5.5 9.21V8.17H7.58V15.46H6.43V9.21H5.5Z" fill="#86969D"/>
<path d="M9.77609 13.91C10.4161 13.3567 10.9194 12.9033 11.2861 12.55C11.6594 12.19 11.9694 11.8167 12.2161 11.43C12.4628 11.0433 12.5861 10.6567 12.5861 10.27C12.5861 9.87 12.4894 9.55667 12.2961 9.33C12.1094 9.10333 11.8128 8.99 11.4061 8.99C11.0128 8.99 10.7061 9.11667 10.4861 9.37C10.2728 9.61667 10.1594 9.95 10.1461 10.37H9.04609C9.06609 9.61 9.29276 9.03 9.72609 8.63C10.1661 8.22333 10.7228 8.02 11.3961 8.02C12.1228 8.02 12.6894 8.22 13.0961 8.62C13.5094 9.02 13.7161 9.55333 13.7161 10.22C13.7161 10.7 13.5928 11.1633 13.3461 11.61C13.1061 12.05 12.8161 12.4467 12.4761 12.8C12.1428 13.1467 11.7161 13.55 11.1961 14.01L10.7461 14.41H13.9161V15.36H9.05609V14.53L9.77609 13.91Z" fill="#86969D"/>
<path d="M14.8976 9.97C14.9376 9.35 15.1742 8.86667 15.6076 8.52C16.0476 8.17333 16.6076 8 17.2876 8C17.7542 8 18.1576 8.08333 18.4976 8.25C18.8376 8.41667 19.0942 8.64333 19.2676 8.93C19.4409 9.21667 19.5276 9.54 19.5276 9.9C19.5276 10.3133 19.4176 10.6667 19.1976 10.96C18.9776 11.2533 18.7142 11.45 18.4076 11.55V11.59C18.8009 11.71 19.1076 11.93 19.3276 12.25C19.5476 12.5633 19.6576 12.9667 19.6576 13.46C19.6576 13.8533 19.5676 14.2033 19.3876 14.51C19.2076 14.8167 18.9409 15.06 18.5876 15.24C18.2342 15.4133 17.8109 15.5 17.3176 15.5C16.5976 15.5 16.0042 15.3167 15.5376 14.95C15.0776 14.5767 14.8309 14.0433 14.7976 13.35H15.8976C15.9242 13.7033 16.0609 13.9933 16.3076 14.22C16.5542 14.44 16.8876 14.55 17.3076 14.55C17.7142 14.55 18.0276 14.44 18.2476 14.22C18.4676 13.9933 18.5776 13.7033 18.5776 13.35C18.5776 12.8833 18.4276 12.5533 18.1276 12.36C17.8342 12.16 17.3809 12.06 16.7676 12.06H16.5076V11.12H16.7776C17.3176 11.1133 17.7276 11.0233 18.0076 10.85C18.2942 10.6767 18.4376 10.4033 18.4376 10.03C18.4376 9.71 18.3342 9.45667 18.1276 9.27C17.9209 9.07667 17.6276 8.98 17.2476 8.98C16.8742 8.98 16.5842 9.07667 16.3776 9.27C16.1709 9.45667 16.0476 9.69 16.0076 9.97H14.8976Z" fill="#86969D"/>
</svg>
