<svg width="18" height="18" viewBox="0 0 18 18" fill="none" xmlns="http://www.w3.org/2000/svg">
<g id="Pause">
<path id="Vector" fill-rule="evenodd" clip-rule="evenodd" d="M7.71768 2.26522C9.05967 2.02401 10.4432 2.19464 11.6864 2.75467C12.9296 3.31472 13.9741 4.23791 14.6827 5.40284C15.3912 6.5678 15.7306 7.91993 15.6561 9.28139C15.6361 9.64712 15.3234 9.92741 14.9576 9.9074C14.5918 9.88739 14.3116 9.57467 14.3316 9.20891C14.3914 8.11487 14.1187 7.0283 13.5494 6.09215C12.98 5.15603 12.1406 4.41416 11.1416 3.9641C10.1426 3.51407 9.03075 3.37694 7.95234 3.57077C6.87393 3.76463 5.87943 4.28033 5.09967 5.05007C4.31991 5.81981 3.79139 6.80756 3.58364 7.88339C3.3759 8.95919 3.49863 10.0727 3.93573 11.0775C4.3728 12.0822 5.10378 12.9311 6.03246 13.5125C6.96117 14.094 8.04411 14.3807 9.13887 14.335C9.50484 14.3197 9.8139 14.604 9.8292 14.97C9.84447 15.3359 9.56018 15.645 9.19419 15.6603C7.83189 15.7172 6.48426 15.3604 5.32857 14.6368C4.17288 13.9133 3.26325 12.8569 2.71934 11.6066C2.17542 10.3563 2.02268 8.97062 2.28121 7.63187C2.53974 6.29312 3.19742 5.06396 4.16777 4.10606C5.13812 3.14819 6.37569 2.50642 7.71768 2.26522Z" fill="#FD822E"/>
<path id="Vector_2" fill-rule="evenodd" clip-rule="evenodd" d="M8.94952 4.94873C9.29839 4.94873 9.5812 5.23154 9.5812 5.58041V8.80016L10.6612 9.74846C10.9233 9.97862 10.9493 10.3777 10.7191 10.6399C10.4889 10.902 10.0898 10.9279 9.82765 10.6978L8.31787 9.37208V5.58041C8.31787 5.23154 8.60068 4.94873 8.94952 4.94873Z" fill="#FD822E"/>
<path id="Vector_3" fill-rule="evenodd" clip-rule="evenodd" d="M12.3284 11.6445C12.6773 11.6445 12.9601 11.9273 12.9601 12.2762V15.6872C12.9601 16.036 12.6773 16.3188 12.3284 16.3188C11.9796 16.3188 11.6968 16.036 11.6968 15.6872V12.2762C11.6968 11.9273 11.9796 11.6445 12.3284 11.6445Z" fill="#FD822E"/>
<path id="Vector_4" fill-rule="evenodd" clip-rule="evenodd" d="M15.013 11.6445C15.3619 11.6445 15.6447 11.9273 15.6447 12.2762V15.6872C15.6447 16.036 15.3619 16.3188 15.013 16.3188C14.6642 16.3188 14.3813 16.036 14.3813 15.6872V12.2762C14.3813 11.9273 14.6642 11.6445 15.013 11.6445Z" fill="#FD822E"/>
<path id="Vector_5" fill-rule="evenodd" clip-rule="evenodd" d="M8.94952 2.42236C9.29836 2.42236 9.58117 2.70517 9.58117 3.05404V3.3067C9.58117 3.65554 9.29836 3.93835 8.94952 3.93835C8.60065 3.93835 8.31787 3.65554 8.31787 3.3067V3.05404C8.31787 2.70517 8.60065 2.42236 8.94952 2.42236Z" fill="#FD822E"/>
<path id="Vector_6" fill-rule="evenodd" clip-rule="evenodd" d="M8.94952 13.8555C9.29836 13.8555 9.58117 14.1383 9.58117 14.4871V14.7398C9.58117 15.0886 9.29836 15.3715 8.94952 15.3715C8.60065 15.3715 8.31787 15.0886 8.31787 14.7398V14.4871C8.31787 14.1383 8.60065 13.8555 8.94952 13.8555Z" fill="#FD822E"/>
<path id="Vector_7" fill-rule="evenodd" clip-rule="evenodd" d="M15.4237 8.89679C15.4237 9.24566 15.1409 9.52847 14.7921 9.52847H14.5394C14.1905 9.52847 13.9077 9.24566 13.9077 8.89679C13.9077 8.54795 14.1905 8.26514 14.5394 8.26514H14.7921C15.1409 8.26514 15.4237 8.54795 15.4237 8.89679Z" fill="#FD822E"/>
<path id="Vector_8" fill-rule="evenodd" clip-rule="evenodd" d="M3.99058 8.89679C3.99058 9.24566 3.7078 9.52847 3.35893 9.52847H3.10627C2.75741 9.52847 2.47461 9.24566 2.47461 8.89679C2.47461 8.54795 2.75741 8.26514 3.10627 8.26514H3.35893C3.7078 8.26514 3.99058 8.54795 3.99058 8.89679Z" fill="#FD822E"/>
</g>
</svg>
