<svg width="22" height="22" viewBox="0 0 22 22" fill="none" xmlns="http://www.w3.org/2000/svg">
<path d="M18.1404 13.686C16.2521 15.5651 13.5479 16.1426 11.1738 15.4001L6.85627 19.7085C6.54461 20.0293 5.93044 20.2218 5.49044 20.1576L3.49211 19.8826C2.83211 19.791 2.21794 19.1676 2.11711 18.5076L1.84211 16.5093C1.77794 16.0693 1.98877 15.4551 2.29127 15.1435L6.59961 10.8351C5.86627 8.45179 6.43461 5.74762 8.32294 3.86846C11.0271 1.16429 15.4179 1.16429 18.1313 3.86846C20.8446 6.57262 20.8446 10.9818 18.1404 13.686Z" stroke="#A7A7A7" stroke-width="1.5" stroke-miterlimit="10" stroke-linecap="round" stroke-linejoin="round"/>
<path d="M6.31543 16.0327L8.42376 18.141" stroke="#A7A7A7" stroke-width="1.5" stroke-miterlimit="10" stroke-linecap="round" stroke-linejoin="round"/>
<path d="M13.2917 10.0835C14.0511 10.0835 14.6667 9.46789 14.6667 8.7085C14.6667 7.9491 14.0511 7.3335 13.2917 7.3335C12.5324 7.3335 11.9167 7.9491 11.9167 8.7085C11.9167 9.46789 12.5324 10.0835 13.2917 10.0835Z" stroke="#A7A7A7" stroke-width="1.5" stroke-linecap="round" stroke-linejoin="round"/>
</svg>
