<svg width="17" height="17" viewBox="0 0 17 17" fill="none" xmlns="http://www.w3.org/2000/svg">
<mask id="path-1-inside-1_7488_76087" fill="white">
<path d="M12.1249 5.74943C11.4535 5.74914 10.7924 5.91522 10.2008 6.23282C10.1469 6.09064 10.0509 5.96825 9.9257 5.88191C9.80051 5.79556 9.652 5.74936 9.49992 5.74943H6.49992C6.40141 5.74937 6.30386 5.76873 6.21284 5.8064C6.12182 5.84407 6.03912 5.89932 5.96946 5.96897C5.89981 6.03863 5.84456 6.12133 5.80689 6.21235C5.76922 6.30337 5.74986 6.40092 5.74992 6.49943V15.4994C5.74986 15.5979 5.76922 15.6955 5.80689 15.7865C5.84456 15.8775 5.8998 15.9602 5.96946 16.0299C6.03911 16.0995 6.12182 16.1548 6.21284 16.1925C6.30386 16.2301 6.40141 16.2495 6.49992 16.2494H9.49992C9.59842 16.2495 9.69598 16.2301 9.787 16.1925C9.87802 16.1548 9.96072 16.0995 10.0304 16.0299C10.1 15.9602 10.1553 15.8775 10.1929 15.7865C10.2306 15.6955 10.25 15.5979 10.2499 15.4994V11.3744C10.2499 11.1755 10.3289 10.9847 10.4696 10.8441C10.6102 10.7034 10.801 10.6244 10.9999 10.6244C11.1988 10.6244 11.3896 10.7034 11.5302 10.8441C11.6709 10.9847 11.7499 11.1755 11.7499 11.3744V15.4994C11.7499 15.5979 11.7692 15.6955 11.8069 15.7865C11.8446 15.8775 11.8998 15.9602 11.9695 16.0299C12.0391 16.0995 12.1218 16.1548 12.2128 16.1925C12.3039 16.2301 12.4014 16.2495 12.4999 16.2494H15.4999C15.5984 16.2495 15.696 16.2301 15.787 16.1925C15.878 16.1548 15.9607 16.0995 16.0304 16.0299C16.1 15.9602 16.1553 15.8775 16.1929 15.7865C16.2306 15.6955 16.25 15.5979 16.2499 15.4994V9.87443C16.2486 8.78083 15.8135 7.73241 15.0402 6.95911C14.2669 6.18582 13.2185 5.75079 12.1249 5.74943ZM14.7499 14.7494H13.2499V11.3744C13.2499 10.7777 13.0129 10.2054 12.5909 9.78344C12.169 9.36148 11.5967 9.12443 10.9999 9.12443C10.4032 9.12443 9.83088 9.36148 9.40893 9.78344C8.98697 10.2054 8.74992 10.7777 8.74992 11.3744V14.7494H7.24992V7.24943H8.74992V7.77677C8.75001 7.93217 8.79835 8.08371 8.88825 8.21046C8.97816 8.33721 9.10521 8.43292 9.25184 8.48437C9.39848 8.53582 9.55747 8.54048 9.70686 8.49769C9.85626 8.45491 9.98868 8.3668 10.0859 8.24552C10.4224 7.81805 10.8841 7.50635 11.4064 7.35395C11.9287 7.20156 12.4856 7.21607 12.9992 7.39546C13.5129 7.57485 13.9577 7.91017 14.2715 8.35459C14.5854 8.79901 14.7526 9.33035 14.7499 9.87443V14.7494ZM4.24992 5.74943H1.24992C1.15141 5.74937 1.05386 5.76873 0.962838 5.8064C0.871819 5.84407 0.789117 5.89932 0.719462 5.96897C0.649806 6.03863 0.594564 6.12133 0.556893 6.21235C0.519222 6.30337 0.499861 6.40092 0.499917 6.49943V15.4994C0.49986 15.5979 0.51922 15.6955 0.556891 15.7865C0.594562 15.8775 0.649804 15.9602 0.719459 16.0299C0.789115 16.0995 0.871817 16.1548 0.962837 16.1925C1.05386 16.2301 1.15141 16.2495 1.24992 16.2494H4.24992C4.34842 16.2495 4.44598 16.2301 4.537 16.1925C4.62802 16.1548 4.71072 16.0995 4.78037 16.0299C4.85003 15.9602 4.90527 15.8775 4.94294 15.7865C4.98061 15.6955 4.99997 15.5979 4.99992 15.4994V6.49943C4.99997 6.40092 4.98061 6.30337 4.94294 6.21235C4.90527 6.12133 4.85003 6.03863 4.78037 5.96897C4.71072 5.89932 4.62802 5.84407 4.537 5.8064C4.44598 5.76873 4.34842 5.74937 4.24992 5.74943ZM3.49992 14.7494H1.99992V7.24943H3.49992V14.7494ZM2.7609 0.156676C2.43268 0.137029 2.10388 0.184349 1.79451 0.29576C1.48514 0.40717 1.20167 0.580342 0.96133 0.804746C0.720989 1.02915 0.528804 1.30009 0.396461 1.6011C0.264118 1.90211 0.194384 2.22689 0.1915 2.55569C0.188615 2.8845 0.25264 3.21045 0.379681 3.51374C0.506722 3.81702 0.694124 4.0913 0.93049 4.31988C1.16686 4.54847 1.44725 4.72659 1.75461 4.84341C2.06198 4.96023 2.38989 5.01331 2.71842 4.99943H2.73966C3.06875 5.01897 3.39838 4.97121 3.7084 4.85906C4.01841 4.74692 4.30231 4.57273 4.54273 4.34716C4.78316 4.12158 4.97506 3.84936 5.10672 3.54711C5.23838 3.24486 5.30703 2.91895 5.30848 2.58927C5.30993 2.2596 5.24414 1.93309 5.11513 1.6297C4.98613 1.32631 4.79662 1.05241 4.55818 0.824736C4.31975 0.597061 4.03739 0.420394 3.72837 0.30553C3.41935 0.190666 3.09016 0.140016 2.7609 0.156676ZM2.73966 3.49943H2.71842C2.58872 3.51518 2.45715 3.50301 2.33254 3.46375C2.20792 3.42448 2.09314 3.35903 1.9959 3.27177C1.89865 3.18452 1.82119 3.07748 1.7687 2.95783C1.71621 2.83819 1.68992 2.7087 1.69157 2.57806C1.69157 2.01848 2.11125 1.65667 2.7609 1.65667C2.89193 1.6392 3.02517 1.65002 3.15167 1.68838C3.27816 1.72675 3.39496 1.79177 3.49421 1.87908C3.59345 1.96639 3.67283 2.07395 3.72701 2.19453C3.78118 2.3151 3.80889 2.44588 3.80826 2.57806C3.80826 3.13763 3.38859 3.49943 2.73966 3.49943Z"/>
</mask>
<path d="M12.1249 5.74943C11.4535 5.74914 10.7924 5.91522 10.2008 6.23282C10.1469 6.09064 10.0509 5.96825 9.9257 5.88191C9.80051 5.79556 9.652 5.74936 9.49992 5.74943H6.49992C6.40141 5.74937 6.30386 5.76873 6.21284 5.8064C6.12182 5.84407 6.03912 5.89932 5.96946 5.96897C5.89981 6.03863 5.84456 6.12133 5.80689 6.21235C5.76922 6.30337 5.74986 6.40092 5.74992 6.49943V15.4994C5.74986 15.5979 5.76922 15.6955 5.80689 15.7865C5.84456 15.8775 5.8998 15.9602 5.96946 16.0299C6.03911 16.0995 6.12182 16.1548 6.21284 16.1925C6.30386 16.2301 6.40141 16.2495 6.49992 16.2494H9.49992C9.59842 16.2495 9.69598 16.2301 9.787 16.1925C9.87802 16.1548 9.96072 16.0995 10.0304 16.0299C10.1 15.9602 10.1553 15.8775 10.1929 15.7865C10.2306 15.6955 10.25 15.5979 10.2499 15.4994V11.3744C10.2499 11.1755 10.3289 10.9847 10.4696 10.8441C10.6102 10.7034 10.801 10.6244 10.9999 10.6244C11.1988 10.6244 11.3896 10.7034 11.5302 10.8441C11.6709 10.9847 11.7499 11.1755 11.7499 11.3744V15.4994C11.7499 15.5979 11.7692 15.6955 11.8069 15.7865C11.8446 15.8775 11.8998 15.9602 11.9695 16.0299C12.0391 16.0995 12.1218 16.1548 12.2128 16.1925C12.3039 16.2301 12.4014 16.2495 12.4999 16.2494H15.4999C15.5984 16.2495 15.696 16.2301 15.787 16.1925C15.878 16.1548 15.9607 16.0995 16.0304 16.0299C16.1 15.9602 16.1553 15.8775 16.1929 15.7865C16.2306 15.6955 16.25 15.5979 16.2499 15.4994V9.87443C16.2486 8.78083 15.8135 7.73241 15.0402 6.95911C14.2669 6.18582 13.2185 5.75079 12.1249 5.74943ZM14.7499 14.7494H13.2499V11.3744C13.2499 10.7777 13.0129 10.2054 12.5909 9.78344C12.169 9.36148 11.5967 9.12443 10.9999 9.12443C10.4032 9.12443 9.83088 9.36148 9.40893 9.78344C8.98697 10.2054 8.74992 10.7777 8.74992 11.3744V14.7494H7.24992V7.24943H8.74992V7.77677C8.75001 7.93217 8.79835 8.08371 8.88825 8.21046C8.97816 8.33721 9.10521 8.43292 9.25184 8.48437C9.39848 8.53582 9.55747 8.54048 9.70686 8.49769C9.85626 8.45491 9.98868 8.3668 10.0859 8.24552C10.4224 7.81805 10.8841 7.50635 11.4064 7.35395C11.9287 7.20156 12.4856 7.21607 12.9992 7.39546C13.5129 7.57485 13.9577 7.91017 14.2715 8.35459C14.5854 8.79901 14.7526 9.33035 14.7499 9.87443V14.7494ZM4.24992 5.74943H1.24992C1.15141 5.74937 1.05386 5.76873 0.962838 5.8064C0.871819 5.84407 0.789117 5.89932 0.719462 5.96897C0.649806 6.03863 0.594564 6.12133 0.556893 6.21235C0.519222 6.30337 0.499861 6.40092 0.499917 6.49943V15.4994C0.49986 15.5979 0.51922 15.6955 0.556891 15.7865C0.594562 15.8775 0.649804 15.9602 0.719459 16.0299C0.789115 16.0995 0.871817 16.1548 0.962837 16.1925C1.05386 16.2301 1.15141 16.2495 1.24992 16.2494H4.24992C4.34842 16.2495 4.44598 16.2301 4.537 16.1925C4.62802 16.1548 4.71072 16.0995 4.78037 16.0299C4.85003 15.9602 4.90527 15.8775 4.94294 15.7865C4.98061 15.6955 4.99997 15.5979 4.99992 15.4994V6.49943C4.99997 6.40092 4.98061 6.30337 4.94294 6.21235C4.90527 6.12133 4.85003 6.03863 4.78037 5.96897C4.71072 5.89932 4.62802 5.84407 4.537 5.8064C4.44598 5.76873 4.34842 5.74937 4.24992 5.74943ZM3.49992 14.7494H1.99992V7.24943H3.49992V14.7494ZM2.7609 0.156676C2.43268 0.137029 2.10388 0.184349 1.79451 0.29576C1.48514 0.40717 1.20167 0.580342 0.96133 0.804746C0.720989 1.02915 0.528804 1.30009 0.396461 1.6011C0.264118 1.90211 0.194384 2.22689 0.1915 2.55569C0.188615 2.8845 0.25264 3.21045 0.379681 3.51374C0.506722 3.81702 0.694124 4.0913 0.93049 4.31988C1.16686 4.54847 1.44725 4.72659 1.75461 4.84341C2.06198 4.96023 2.38989 5.01331 2.71842 4.99943H2.73966C3.06875 5.01897 3.39838 4.97121 3.7084 4.85906C4.01841 4.74692 4.30231 4.57273 4.54273 4.34716C4.78316 4.12158 4.97506 3.84936 5.10672 3.54711C5.23838 3.24486 5.30703 2.91895 5.30848 2.58927C5.30993 2.2596 5.24414 1.93309 5.11513 1.6297C4.98613 1.32631 4.79662 1.05241 4.55818 0.824736C4.31975 0.597061 4.03739 0.420394 3.72837 0.30553C3.41935 0.190666 3.09016 0.140016 2.7609 0.156676ZM2.73966 3.49943H2.71842C2.58872 3.51518 2.45715 3.50301 2.33254 3.46375C2.20792 3.42448 2.09314 3.35903 1.9959 3.27177C1.89865 3.18452 1.82119 3.07748 1.7687 2.95783C1.71621 2.83819 1.68992 2.7087 1.69157 2.57806C1.69157 2.01848 2.11125 1.65667 2.7609 1.65667C2.89193 1.6392 3.02517 1.65002 3.15167 1.68838C3.27816 1.72675 3.39496 1.79177 3.49421 1.87908C3.59345 1.96639 3.67283 2.07395 3.72701 2.19453C3.78118 2.3151 3.80889 2.44588 3.80826 2.57806C3.80826 3.13763 3.38859 3.49943 2.73966 3.49943Z" fill="#5C5C5C" stroke="#F7F7F7" stroke-width="0.4" mask="url(#path-1-inside-1_7488_76087)"/>
</svg>
