<svg width="18" height="18" viewBox="0 0 18 18" fill="none" xmlns="http://www.w3.org/2000/svg">
<rect width="18" height="18" fill="#E4E4E4"/>
<g id="2.1.1_TL-PM Dashboard" clip-path="url(#clip0_26_439)">
<rect width="1920" height="1080" transform="translate(-875 -557)" fill="#343A40"/>
<g id="Rectangle 1073" filter="url(#filter0_d_26_439)">
<rect x="-595" y="-455" width="1610" height="948" rx="10" fill="white"/>
</g>
<g id="Group 5057">
<g id="Play">
<path id="Vector" fill-rule="evenodd" clip-rule="evenodd" d="M7.41787 2.26522C8.75986 2.02401 10.1434 2.19464 11.3866 2.75467C12.6298 3.31472 13.6743 4.23791 14.3829 5.40284C15.0914 6.5678 15.4308 7.91993 15.3563 9.28139C15.3363 9.64712 15.0236 9.92741 14.6578 9.9074C14.292 9.88739 14.0118 9.57467 14.0318 9.20891C14.0916 8.11487 13.8189 7.0283 13.2496 6.09215C12.6802 5.15603 11.8408 4.41416 10.8418 3.9641C9.84277 3.51407 8.73094 3.37694 7.65253 3.57077C6.57412 3.76463 5.57962 4.28033 4.79986 5.05007C4.0201 5.81981 3.49159 6.80756 3.28384 7.88339C3.07609 8.95919 3.19882 10.0727 3.63592 11.0775C4.07299 12.0822 4.80397 12.9311 5.73265 13.5125C6.66136 14.094 7.7443 14.3807 8.83906 14.335C9.20503 14.3197 9.51409 14.604 9.52939 14.97C9.54466 15.3359 9.26038 15.645 8.89438 15.6603C7.53208 15.7172 6.18445 15.3604 5.02876 14.6368C3.87307 13.9133 2.96345 12.8569 2.41953 11.6066C1.87561 10.3563 1.72287 8.97062 1.98141 7.63187C2.23994 6.29312 2.89763 5.06396 3.86797 4.10606C4.83832 3.14819 6.07588 2.50642 7.41787 2.26522Z" fill="#495057"/>
<path id="Vector_2" fill-rule="evenodd" clip-rule="evenodd" d="M8.62823 4.94873C8.9771 4.94873 9.25988 5.23154 9.25988 5.58041V8.80016L10.3399 9.74846C10.6021 9.97862 10.628 10.3777 10.3978 10.6399C10.1676 10.902 9.7685 10.9279 9.50636 10.6978L7.99658 9.37208V5.58041C7.99658 5.23154 8.27936 4.94873 8.62823 4.94873Z" fill="#495057"/>
<path id="Vector_3" d="M15.7142 13.0257C16.1008 13.259 16.1008 13.8197 15.7142 14.053L12.2641 16.1355C11.8642 16.3769 11.354 16.0889 11.354 15.6218V11.4569C11.354 10.9898 11.8642 10.7019 12.2641 10.9432L15.7142 13.0257Z" fill="#495057"/>
<path id="Vector_4" fill-rule="evenodd" clip-rule="evenodd" d="M8.60626 2.42236C8.95513 2.42236 9.23794 2.70517 9.23794 3.05404V3.3067C9.23794 3.65554 8.95513 3.93835 8.60626 3.93835C8.25742 3.93835 7.97461 3.65554 7.97461 3.3067V3.05404C7.97461 2.70517 8.25742 2.42236 8.60626 2.42236Z" fill="#495057"/>
<path id="Vector_5" fill-rule="evenodd" clip-rule="evenodd" d="M8.60626 13.8555C8.95513 13.8555 9.23794 14.1383 9.23794 14.4871V14.7398C9.23794 15.0886 8.95513 15.3715 8.60626 15.3715C8.25742 15.3715 7.97461 15.0886 7.97461 14.7398V14.4871C7.97461 14.1383 8.25742 13.8555 8.60626 13.8555Z" fill="#495057"/>
<path id="Vector_6" fill-rule="evenodd" clip-rule="evenodd" d="M15.0809 8.89679C15.0809 9.24566 14.7981 9.52847 14.4493 9.52847H14.1966C13.8477 9.52847 13.5649 9.24566 13.5649 8.89679C13.5649 8.54795 13.8477 8.26514 14.1966 8.26514H14.4493C14.7981 8.26514 15.0809 8.54795 15.0809 8.89679Z" fill="#495057"/>
<path id="Vector_7" fill-rule="evenodd" clip-rule="evenodd" d="M3.64782 8.89679C3.64782 9.24566 3.36501 9.52847 3.01617 9.52847H2.7635C2.41464 9.52847 2.13184 9.24566 2.13184 8.89679C2.13184 8.54795 2.41464 8.26514 2.7635 8.26514H3.01617C3.36501 8.26514 3.64782 8.54795 3.64782 8.89679Z" fill="#495057"/>
</g>
</g>
<path id="Rectangle 1031" d="M-579.5 -271C-579.5 -273.485 -577.485 -275.5 -575 -275.5H167C169.485 -275.5 171.5 -273.485 171.5 -271V179C171.5 181.485 169.485 183.5 167 183.5H-575C-577.485 183.5 -579.5 181.485 -579.5 179V-271Z" stroke="#CED4DA"/>
</g>
<defs>
<filter id="filter0_d_26_439" x="-607" y="-463" width="1634" height="972" filterUnits="userSpaceOnUse" color-interpolation-filters="sRGB">
<feFlood flood-opacity="0" result="BackgroundImageFix"/>
<feColorMatrix in="SourceAlpha" type="matrix" values="0 0 0 0 0 0 0 0 0 0 0 0 0 0 0 0 0 0 127 0" result="hardAlpha"/>
<feOffset dy="4"/>
<feGaussianBlur stdDeviation="6"/>
<feComposite in2="hardAlpha" operator="out"/>
<feColorMatrix type="matrix" values="0 0 0 0 0 0 0 0 0 0 0 0 0 0 0 0 0 0 0.03 0"/>
<feBlend mode="normal" in2="BackgroundImageFix" result="effect1_dropShadow_26_439"/>
<feBlend mode="normal" in="SourceGraphic" in2="effect1_dropShadow_26_439" result="shape"/>
</filter>
<clipPath id="clip0_26_439">
<rect width="1920" height="1080" fill="white" transform="translate(-875 -557)"/>
</clipPath>
</defs>
</svg>
