<svg width="15" height="15" viewBox="0 0 15 15" fill="none" xmlns="http://www.w3.org/2000/svg">
<path d="M10.5349 7.90915C11.0166 7.51672 11.403 7.03134 11.6678 6.48597C11.9326 5.94059 12.0696 5.34799 12.0696 4.74837C12.0696 3.62163 11.594 2.54104 10.7475 1.74432C9.901 0.947594 8.75288 0.5 7.55572 0.5C6.35856 0.5 5.21044 0.947594 4.36392 1.74432C3.5174 2.54104 3.04183 3.62163 3.04183 4.74837C3.04182 5.34799 3.17887 5.94059 3.44368 6.48597C3.70849 7.03134 4.09485 7.51672 4.57655 7.90915C3.31279 8.44774 2.24058 9.31751 1.48813 10.4144C0.735679 11.5114 0.334825 12.7891 0.333496 14.0948C0.333496 14.3201 0.42861 14.5362 0.597914 14.6956C0.767217 14.8549 0.996842 14.9444 1.23627 14.9444C1.47571 14.9444 1.70533 14.8549 1.87463 14.6956C2.04394 14.5362 2.13905 14.3201 2.13905 14.0948C2.13905 12.7427 2.70973 11.446 3.72556 10.4899C4.74138 9.53385 6.11913 8.99673 7.55572 8.99673C8.99231 8.99673 10.3701 9.53385 11.3859 10.4899C12.4017 11.446 12.9724 12.7427 12.9724 14.0948C12.9724 14.3201 13.0675 14.5362 13.2368 14.6956C13.4061 14.8549 13.6357 14.9444 13.8752 14.9444C14.1146 14.9444 14.3442 14.8549 14.5135 14.6956C14.6828 14.5362 14.7779 14.3201 14.7779 14.0948C14.7766 12.7891 14.3758 11.5114 13.6233 10.4144C12.8709 9.31751 11.7986 8.44774 10.5349 7.90915ZM7.55572 7.29739C7.02006 7.29739 6.49643 7.14789 6.05105 6.8678C5.60567 6.58771 5.25853 6.18961 5.05354 5.72383C4.84856 5.25806 4.79492 4.74554 4.89943 4.25108C5.00393 3.75662 5.26187 3.30242 5.64064 2.94594C6.0194 2.58945 6.50198 2.34668 7.02735 2.24833C7.55271 2.14997 8.09727 2.20045 8.59215 2.39338C9.08704 2.58631 9.51002 2.91302 9.80762 3.33221C10.1052 3.75139 10.2641 4.24422 10.2641 4.74837C10.2641 5.42441 9.97871 6.07276 9.4708 6.5508C8.96289 7.02883 8.27401 7.29739 7.55572 7.29739Z" fill="#5C5C5C"/>
</svg>
