<svg width="18" height="18" viewBox="0 0 18 18" fill="none" xmlns="http://www.w3.org/2000/svg">
<g clip-path="url(#clip0_9193_14396)">
<path d="M11.3544 8.85941C11.0541 8.66656 10.7282 8.5169 10.3862 8.41483C10.1763 8.35138 9.94401 8.28931 9.70336 8.22949C9.49402 8.17112 9.24487 8.11124 8.9367 8.04349C8.56975 7.9666 8.20959 7.8603 7.8597 7.72561C7.67942 7.65548 7.52035 7.53992 7.39791 7.39017C7.30855 7.2677 7.26618 7.1172 7.27852 6.9661C7.27812 6.80401 7.33201 6.64646 7.4316 6.51859C7.57131 6.35471 7.75259 6.23149 7.95638 6.16189C8.29965 6.04399 8.66142 5.98915 9.02421 6.00004C9.30448 5.99555 9.58388 6.03257 9.85331 6.1099C10.0322 6.15998 10.2007 6.24158 10.351 6.35086C10.4481 6.42006 10.5309 6.50736 10.5949 6.60795C10.6414 6.69498 10.7045 6.77198 10.7808 6.83454C10.8571 6.89711 10.945 6.944 11.0394 6.97253C11.1339 7.00106 11.233 7.01068 11.3312 7.00082C11.4294 6.99096 11.5246 6.96182 11.6115 6.91508C11.6984 6.86834 11.7752 6.80491 11.8375 6.72842C11.8998 6.65194 11.9465 6.56391 11.9747 6.46938C12.0029 6.37484 12.0122 6.27567 12.0021 6.17753C11.9919 6.0794 11.9625 5.98423 11.9154 5.8975C11.7572 5.61773 11.5435 5.37323 11.2874 5.179C10.9917 4.95183 10.6563 4.78169 10.2983 4.67728C9.8848 4.55503 9.45536 4.49529 9.02421 4.50004C8.47638 4.48839 7.93107 4.57752 7.41546 4.76298C6.94894 4.93232 6.539 5.22861 6.23185 5.61844C5.93791 6.00626 5.77871 6.47948 5.77848 6.9661C5.76633 7.45056 5.9198 7.92467 6.21354 8.3101C6.49709 8.66729 6.8688 8.94445 7.29204 9.1143C7.61186 9.23733 7.93931 9.33952 8.27233 9.42022C8.27861 9.42229 8.28283 9.42732 8.28923 9.42922C8.43278 9.47243 8.66239 9.53029 8.99419 9.60207C9.12346 9.62982 9.24527 9.66049 9.36703 9.69092C9.37885 9.69445 9.39592 9.69816 9.40727 9.70168L9.42082 9.70374C9.60709 9.75121 9.78612 9.80029 9.94999 9.85036C10.1519 9.90932 10.3447 9.99608 10.5227 10.1082C10.6335 10.1779 10.7265 10.2725 10.7945 10.3843C10.8606 10.5207 10.8912 10.6716 10.8835 10.823C10.894 11.0191 10.8374 11.2128 10.7231 11.3724C10.5686 11.5733 10.3596 11.7256 10.121 11.8111C9.76585 11.9482 9.38675 12.0124 9.00626 12C8.5659 12.0171 8.12784 11.9287 7.72855 11.7422C7.54429 11.644 7.38601 11.5035 7.26676 11.3321C7.18314 11.2223 7.13087 11.092 7.11551 10.9549C7.11551 10.756 7.03649 10.5652 6.89584 10.4245C6.75519 10.2839 6.56442 10.2049 6.36551 10.2049C6.1666 10.2049 5.97583 10.2839 5.83518 10.4245C5.69453 10.5652 5.61551 10.756 5.61551 10.9549C5.62809 11.3971 5.77343 11.8253 6.03263 12.1839C6.29171 12.5572 6.63689 12.8627 7.03897 13.0745C7.65076 13.3731 8.32576 13.5191 9.00626 13.5C9.58449 13.5139 10.1595 13.4106 10.6967 13.1961C11.196 13.0046 11.6295 12.6732 11.9454 12.2417C12.2456 11.821 12.3994 11.3133 12.3831 10.7967C12.3901 10.3962 12.2932 10.0008 12.1018 9.64896C11.9171 9.3315 11.6613 9.06124 11.3544 8.85941V8.85941ZM16.771 10.2686C16.9735 9.03581 16.8795 7.77255 16.4968 6.58331C16.1141 5.39406 15.4538 4.31303 14.5704 3.42965C13.687 2.54627 12.606 1.88592 11.4168 1.50325C10.2275 1.12058 8.96426 1.02659 7.73148 1.22904C6.82145 0.792737 5.79842 0.649669 4.80361 0.819583C3.8088 0.989498 2.89126 1.46402 2.17764 2.17764C1.46402 2.89126 0.989498 3.8088 0.819583 4.80361C0.649669 5.79842 0.792737 6.82145 1.22904 7.73148C1.02659 8.96426 1.12058 10.2275 1.50325 11.4168C1.88592 12.606 2.54627 13.687 3.42965 14.5704C4.31303 15.4538 5.39406 16.1141 6.58331 16.4968C7.77255 16.8795 9.03581 16.9735 10.2686 16.771C11.1786 17.2073 12.2017 17.3504 13.1965 17.1805C14.1913 17.0106 15.1088 16.5361 15.8224 15.8224C16.5361 15.1088 17.0106 14.1913 17.1805 13.1965C17.3504 12.2017 17.2073 11.1786 16.771 10.2686V10.2686ZM12.375 15.75C11.8061 15.7498 11.2465 15.606 10.748 15.3318C10.5933 15.2464 10.4135 15.2182 10.24 15.252C9.31569 15.4364 8.36195 15.4133 7.44762 15.1844C6.53328 14.9556 5.68113 14.5266 4.95265 13.9285C4.22417 13.3304 3.63752 12.5781 3.235 11.7259C2.83249 10.8736 2.62416 9.94258 2.62504 9.00004C2.62581 8.58345 2.66702 8.16793 2.74808 7.75931C2.78195 7.58605 2.75382 7.4064 2.66862 7.25179C2.3161 6.61134 2.1811 5.87374 2.28391 5.14996C2.38673 4.42617 2.72181 3.75535 3.23874 3.23841C3.75567 2.72148 4.42649 2.38639 5.15027 2.28357C5.87406 2.18074 6.61166 2.31574 7.25211 2.66825C7.40672 2.7539 7.58662 2.78218 7.76005 2.74808C8.68438 2.5637 9.63812 2.58678 10.5525 2.81564C11.4668 3.04451 12.3189 3.47345 13.0474 4.07154C13.7759 4.66963 14.3626 5.42194 14.7651 6.27422C15.1676 7.1265 15.3759 8.05749 15.375 9.00004C15.3743 9.41662 15.3331 9.83214 15.252 10.2408C15.2181 10.414 15.2463 10.5937 15.3315 10.7483C15.6145 11.2621 15.7586 11.8408 15.7497 12.4273C15.7408 13.0139 15.5791 13.5879 15.2806 14.0929C14.9821 14.5978 14.5572 15.0163 14.0476 15.3069C13.5381 15.5975 12.9616 15.7502 12.375 15.75Z" fill="#5C5C5C"/>
</g>
<defs>
<clipPath id="clip0_9193_14396">
<rect width="18" height="18" fill="white"/>
</clipPath>
</defs>
</svg>
