<svg width="18" height="19" viewBox="0 0 18 19" fill="none" xmlns="http://www.w3.org/2000/svg">
<path fill-rule="evenodd" clip-rule="evenodd" d="M7.71768 2.7657C9.05967 2.52449 10.4432 2.69513 11.6864 3.25516C12.9296 3.81521 13.9741 4.7384 14.6827 5.90333C15.3912 7.06828 15.7306 8.42041 15.6561 9.78188C15.6361 10.1476 15.3234 10.4279 14.9576 10.4079C14.5918 10.3879 14.3116 10.0752 14.3316 9.70939C14.3914 8.61536 14.1187 7.52878 13.5494 6.59263C12.98 5.65651 12.1406 4.91465 11.1416 4.46459C10.1426 4.01456 9.03075 3.87743 7.95234 4.07126C6.87393 4.26512 5.87943 4.78082 5.09967 5.55056C4.31991 6.3203 3.79139 7.30805 3.58364 8.38387C3.3759 9.45967 3.49863 10.5732 3.93573 11.5779C4.3728 12.5827 5.10378 13.4316 6.03246 14.013C6.96117 14.5944 8.04411 14.8812 9.13887 14.8355C9.50484 14.8202 9.8139 15.1045 9.8292 15.4704C9.84447 15.8364 9.56018 16.1455 9.19419 16.1608C7.83189 16.2177 6.48426 15.8609 5.32857 15.1373C4.17288 14.4138 3.26325 13.3574 2.71934 12.1071C2.17542 10.8568 2.02268 9.47111 2.28121 8.13236C2.53974 6.79361 3.19742 5.56445 4.16777 4.60655C5.13812 3.64868 6.37569 3.00691 7.71768 2.7657Z" fill="#86969D"/>
<path fill-rule="evenodd" clip-rule="evenodd" d="M8.94952 5.44922C9.29839 5.44922 9.5812 5.73203 9.5812 6.0809V9.30065L10.6612 10.2489C10.9233 10.4791 10.9493 10.8782 10.7191 11.1404C10.4889 11.4025 10.0898 11.4284 9.82765 11.1982L8.31787 9.87257V6.0809C8.31787 5.73203 8.60068 5.44922 8.94952 5.44922Z" fill="#86969D"/>
<path fill-rule="evenodd" clip-rule="evenodd" d="M12.3284 12.1445C12.6773 12.1445 12.9601 12.4273 12.9601 12.7762V16.1872C12.9601 16.536 12.6773 16.8188 12.3284 16.8188C11.9796 16.8188 11.6968 16.536 11.6968 16.1872V12.7762C11.6968 12.4273 11.9796 12.1445 12.3284 12.1445Z" fill="#86969D"/>
<path fill-rule="evenodd" clip-rule="evenodd" d="M15.013 12.1445C15.3619 12.1445 15.6447 12.4273 15.6447 12.7762V16.1872C15.6447 16.536 15.3619 16.8188 15.013 16.8188C14.6642 16.8188 14.3813 16.536 14.3813 16.1872V12.7762C14.3813 12.4273 14.6642 12.1445 15.013 12.1445Z" fill="#86969D"/>
<path fill-rule="evenodd" clip-rule="evenodd" d="M8.94952 2.92188C9.29836 2.92188 9.58117 3.20468 9.58117 3.55355V3.80621C9.58117 4.15505 9.29836 4.43786 8.94952 4.43786C8.60065 4.43786 8.31787 4.15505 8.31787 3.80621V3.55355C8.31787 3.20468 8.60065 2.92188 8.94952 2.92188Z" fill="#86969D"/>
<path fill-rule="evenodd" clip-rule="evenodd" d="M8.94952 14.3555C9.29836 14.3555 9.58117 14.6383 9.58117 14.9871V15.2398C9.58117 15.5886 9.29836 15.8715 8.94952 15.8715C8.60065 15.8715 8.31787 15.5886 8.31787 15.2398V14.9871C8.31787 14.6383 8.60065 14.3555 8.94952 14.3555Z" fill="#86969D"/>
<path fill-rule="evenodd" clip-rule="evenodd" d="M15.4237 9.3963C15.4237 9.74517 15.1409 10.028 14.7921 10.028H14.5394C14.1905 10.028 13.9077 9.74517 13.9077 9.3963C13.9077 9.04746 14.1905 8.76465 14.5394 8.76465H14.7921C15.1409 8.76465 15.4237 9.04746 15.4237 9.3963Z" fill="#86969D"/>
<path fill-rule="evenodd" clip-rule="evenodd" d="M3.99058 9.3963C3.99058 9.74517 3.7078 10.028 3.35893 10.028H3.10627C2.75741 10.028 2.47461 9.74517 2.47461 9.3963C2.47461 9.04746 2.75741 8.76465 3.10627 8.76465H3.35893C3.7078 8.76465 3.99058 9.04746 3.99058 9.3963Z" fill="#86969D"/>
</svg>
