<svg width="32" height="33" viewBox="0 0 32 33" fill="none" xmlns="http://www.w3.org/2000/svg">
<path d="M10.6665 3.16699V7.16699" stroke="#CBAC8F" stroke-width="2" stroke-miterlimit="10" stroke-linecap="round" stroke-linejoin="round"/>
<path d="M21.3335 3.16699V7.16699" stroke="#CBAC8F" stroke-width="2" stroke-miterlimit="10" stroke-linecap="round" stroke-linejoin="round"/>
<path d="M4.6665 12.6201H27.3332" stroke="#CBAC8F" stroke-width="2" stroke-miterlimit="10" stroke-linecap="round" stroke-linejoin="round"/>
<path d="M28 11.8337V23.167C28 27.167 26 29.8337 21.3333 29.8337H10.6667C6 29.8337 4 27.167 4 23.167V11.8337C4 7.83366 6 5.16699 10.6667 5.16699H21.3333C26 5.16699 28 7.83366 28 11.8337Z" stroke="#CBAC8F" stroke-width="2" stroke-miterlimit="10" stroke-linecap="round" stroke-linejoin="round"/>
<path d="M16.8775 16.9497L17.6694 18.5466C17.7774 18.7689 18.0654 18.9821 18.3084 19.023L19.7437 19.2634C20.6616 19.4176 20.8776 20.0891 20.2162 20.7514L19.1003 21.8765C18.9113 22.0671 18.8078 22.4345 18.8663 22.6977L19.1858 24.0904C19.4378 25.1928 18.8573 25.6193 17.8899 25.0431L16.5446 24.2401C16.3016 24.095 15.9011 24.095 15.6537 24.2401L14.3083 25.0431C13.3454 25.6193 12.7605 25.1883 13.0125 24.0904L13.3319 22.6977C13.3904 22.4345 13.2869 22.0671 13.098 21.8765L11.9821 20.7514C11.3251 20.0891 11.5366 19.4176 12.4545 19.2634L13.8899 19.023C14.1283 18.9821 14.4163 18.7689 14.5243 18.5466L15.3162 16.9497C15.7482 16.0832 16.4501 16.0832 16.8775 16.9497Z" stroke="#CBAC8F" stroke-width="2" stroke-linecap="round" stroke-linejoin="round"/>
</svg>
