<svg width="32" height="32" viewBox="0 0 32 32" fill="none" xmlns="http://www.w3.org/2000/svg">
<path d="M6.58466 21.4882C7.80066 21.4882 9.00066 21.5042 10.1847 21.4722C10.3607 21.4722 10.5847 21.2482 10.6807 21.0722C11.1927 19.9842 12.0407 19.5042 13.2247 19.5042C17.0967 19.5202 20.9527 19.5042 24.8247 19.5042C26.3927 19.5042 27.4807 20.5282 27.4967 21.9682C27.5127 23.4402 26.4087 24.4802 24.7927 24.4802C20.9207 24.4802 17.0647 24.4802 13.1927 24.4802C12.0407 24.4802 11.2247 23.9842 10.6807 22.9602C10.5687 22.7362 10.2327 22.5282 9.99266 22.5122C8.82466 22.4642 7.64066 22.4642 6.47266 22.4962C5.75266 22.5122 5.48066 22.2562 5.49666 21.5202C5.52866 18.8322 5.51266 16.1442 5.51266 13.4402C5.51266 13.1522 5.51266 12.8642 5.51266 12.5282C5.24066 12.4962 5.04866 12.4802 4.84066 12.4642C3.46466 12.3522 2.47266 11.2642 2.50466 9.90417C2.53666 8.56017 3.59266 7.50417 4.98466 7.48817C7.62466 7.47217 10.2647 7.47217 12.9047 7.47217C16.9367 7.47217 20.9527 7.47217 24.9847 7.47217C26.2967 7.47217 27.3207 8.38417 27.4807 9.61617C27.6407 10.8642 26.8887 12.0322 25.6727 12.3522C25.3207 12.4482 24.9367 12.4482 24.5687 12.4482C18.9207 12.4482 13.2727 12.4482 7.62466 12.4482C7.30466 12.4482 6.98466 12.4482 6.60066 12.4482C6.58466 15.4722 6.58466 18.4162 6.58466 21.4882ZM14.9207 11.5042C15.6887 11.5042 16.4727 11.5042 17.2407 11.5042C19.7687 11.5042 22.2967 11.5042 24.8407 11.5042C25.6087 11.5042 26.1847 11.1842 26.4247 10.4162C26.6327 9.79217 26.4567 9.20017 25.9287 8.86417C25.5607 8.62417 25.0327 8.49617 24.5847 8.49617C18.2007 8.48017 11.8007 8.49617 5.40066 8.49617C5.19266 8.49617 4.96866 8.48017 4.76066 8.52817C3.88066 8.68817 3.32066 9.53617 3.54466 10.3682C3.73666 11.1202 4.31266 11.5202 5.24066 11.5202C8.47266 11.5202 11.6887 11.5042 14.9207 11.5042ZM18.9207 23.5042C20.8407 23.5042 22.7607 23.5042 24.6807 23.5042C25.8167 23.5042 26.5367 22.8802 26.5047 21.9522C26.4727 21.0562 25.7847 20.4802 24.6807 20.4802C20.9047 20.4802 17.1127 20.4802 13.3367 20.4802C12.2007 20.4802 11.4807 21.0882 11.5127 22.0162C11.5447 22.9122 12.2327 23.4882 13.3367 23.4882C15.1927 23.5202 17.0487 23.5042 18.9207 23.5042Z" fill="black" stroke="black" stroke-width="0.6"/>
</svg>
