<svg width="32" height="32" viewBox="0 0 32 32" fill="none" xmlns="http://www.w3.org/2000/svg">
<g id="Cup">
<g id="Group">
<g id="Group 5002">
<path id="Vector" d="M2.6665 12.5813C2.87479 12.1306 3.23277 12 3.71442 12C10.3534 12.0131 16.9924 12.0065 23.6314 12.0065C24.3799 12.0065 24.6468 12.2808 24.6403 13.0319C24.6403 13.2018 24.6403 13.3781 24.6403 13.574C25.187 13.574 25.7142 13.561 26.2414 13.5806C26.7101 13.5936 27.1917 13.5806 27.6343 13.6916C28.6822 13.9659 29.3396 14.8999 29.3331 15.9841C29.3136 19.3151 26.8923 22.2411 23.6249 22.842C23.0716 22.9465 22.5054 22.9465 21.9391 22.9726C21.7764 22.9791 21.6722 23.0314 21.5746 23.162C21.2166 23.6388 20.8456 24.1025 20.4551 24.5989C20.5592 24.5989 20.6439 24.5989 20.7285 24.5989C21.7373 24.5989 22.7397 24.5989 23.7486 24.5989C24.4971 24.5989 24.8551 25.1933 24.4971 25.8399C23.2864 28.0279 21.4249 29.2362 18.932 29.2819C15.4173 29.3472 11.9025 29.3537 8.38775 29.2819C5.79074 29.2296 3.88365 27.956 2.70556 25.6178C2.69905 25.6047 2.67952 25.5982 2.6665 25.5917C2.6665 25.4676 2.6665 25.35 2.6665 25.2259C2.82922 24.7557 3.16768 24.5859 3.64934 24.5924C4.63867 24.612 5.62802 24.5989 6.61735 24.5989C6.68895 24.5989 6.76055 24.5924 6.8712 24.5859C6.67593 24.3573 6.5002 24.1678 6.33748 23.9654C6.16825 23.7564 5.99902 23.5474 5.84281 23.3253C4.10495 20.9022 3.18721 18.1721 2.82272 15.233C2.75763 14.7497 2.71857 14.2664 2.6665 13.7831C2.6665 13.3846 2.6665 12.9797 2.6665 12.5813ZM23.0651 13.5936C16.7776 13.5936 10.5161 13.5936 4.24815 13.5936C4.34578 15.8469 4.82092 17.9958 5.74517 20.027C6.52623 21.7513 7.57415 23.2861 9.07118 24.4748C9.15579 24.5467 9.28597 24.5924 9.39662 24.5924C12.2345 24.5989 15.0723 24.5989 17.9101 24.5924C18.0078 24.5924 18.1184 24.5597 18.19 24.5009C19.0036 23.8739 19.6871 23.1294 20.2729 22.2868C22.0758 19.6874 22.8699 16.7483 23.0651 13.5936ZM22.3492 26.173C16.5368 26.173 10.77 26.173 4.95761 26.173C5.01619 26.2383 5.04222 26.2775 5.08127 26.3101C6.05109 27.2637 7.22267 27.7274 8.57651 27.7339C11.9611 27.7339 15.3457 27.7339 18.7238 27.7339C19.4007 27.7339 20.0515 27.6164 20.6764 27.3486C21.3078 27.0873 21.861 26.7151 22.3492 26.173ZM22.6551 21.379C25.4669 21.2418 27.8166 18.7338 27.7645 15.9449C27.758 15.4877 27.4391 15.1546 26.9769 15.1416C26.4823 15.1285 25.9876 15.1416 25.4929 15.1416C25.1675 15.1416 24.842 15.1416 24.5036 15.1416C24.2367 17.3361 23.6574 19.4065 22.6551 21.379Z" fill="white"/>
<path id="Vector_2" d="M9.52844 2.66675C9.54674 2.68675 9.55894 2.70676 9.57723 2.71343C10.1139 3.00683 10.2237 3.54696 9.83337 4.04042C9.47965 4.49386 9.35768 4.99399 9.54674 5.54746C9.63212 5.79418 9.79678 6.0209 9.96144 6.22762C10.9128 7.42125 10.9006 9.16834 9.93094 10.3353C9.60772 10.7221 9.18083 10.7754 8.85151 10.4687C8.53438 10.1686 8.51609 9.70181 8.80882 9.30171C9.36988 8.55486 9.34549 7.88803 8.73564 7.14118C7.75377 5.91421 7.75377 4.16712 8.74173 3.00016C8.85151 2.8668 9.00397 2.78011 9.13814 2.66675C9.26621 2.66675 9.40037 2.66675 9.52844 2.66675Z" fill="white"/>
<path id="Vector_3" d="M13.533 2.66675C13.5512 2.68675 13.5634 2.70676 13.5816 2.71343C14.1161 3.00683 14.2254 3.54696 13.8367 4.04042C13.4844 4.49386 13.3629 4.99399 13.5512 5.54746C13.6362 5.79418 13.8002 6.0209 13.9642 6.22762C14.9118 7.42125 14.8997 9.16834 13.9339 10.3353C13.6119 10.7221 13.1867 10.7754 12.8587 10.4687C12.5429 10.1686 12.5247 9.70848 12.8162 9.30838C13.369 8.55486 13.3447 7.8947 12.7373 7.14118C11.7532 5.92088 11.7532 4.17378 12.7433 3.00016C12.8527 2.8668 13.0045 2.78011 13.1382 2.66675C13.2718 2.66675 13.4054 2.66675 13.533 2.66675Z" fill="white"/>
<path id="Vector_4" d="M17.5302 2.66675C17.5485 2.68675 17.5608 2.70675 17.5791 2.71342C18.1174 3.00676 18.2031 3.52012 17.8483 4.05348C17.6831 4.30016 17.5424 4.60017 17.4874 4.90018C17.3895 5.39354 17.6036 5.80689 17.9095 6.17357C18.46 6.8136 18.7047 7.58697 18.6619 8.46034C18.6252 9.20704 18.356 9.85374 17.885 10.3938C17.5914 10.7338 17.1631 10.7538 16.8573 10.4671C16.5514 10.1738 16.5086 9.70707 16.79 9.34705C17.157 8.88703 17.3222 8.38034 17.1264 7.80031C17.0408 7.5403 16.8695 7.30696 16.7043 7.10028C15.7562 5.90023 15.7623 4.15348 16.7411 3.0001C16.8512 2.86676 17.0041 2.78009 17.1387 2.66675C17.2671 2.66675 17.4017 2.66675 17.5302 2.66675Z" fill="white"/>
</g>
</g>
</g>
</svg>
