<svg width="22" height="22" viewBox="0 0 22 22" fill="none" xmlns="http://www.w3.org/2000/svg">
<path fill-rule="evenodd" clip-rule="evenodd" d="M6.41675 6.41667C6.41675 5.91041 6.82715 5.5 7.33341 5.5H18.3334C18.8397 5.5 19.2501 5.91041 19.2501 6.41667C19.2501 6.92293 18.8397 7.33333 18.3334 7.33333H7.33341C6.82715 7.33333 6.41675 6.92293 6.41675 6.41667Z" fill="#A7A7A7"/>
<path fill-rule="evenodd" clip-rule="evenodd" d="M6.41675 11.0002C6.41675 10.4939 6.82715 10.0835 7.33341 10.0835H18.3334C18.8397 10.0835 19.2501 10.4939 19.2501 11.0002C19.2501 11.5064 18.8397 11.9168 18.3334 11.9168H7.33341C6.82715 11.9168 6.41675 11.5064 6.41675 11.0002Z" fill="#A7A7A7"/>
<path fill-rule="evenodd" clip-rule="evenodd" d="M6.41675 15.5832C6.41675 15.0769 6.82715 14.6665 7.33341 14.6665H18.3334C18.8397 14.6665 19.2501 15.0769 19.2501 15.5832C19.2501 16.0894 18.8397 16.4998 18.3334 16.4998H7.33341C6.82715 16.4998 6.41675 16.0894 6.41675 15.5832Z" fill="#A7A7A7"/>
<path d="M4.58333 6.41667C4.58333 6.92293 4.17293 7.33333 3.66667 7.33333C3.16041 7.33333 2.75 6.92293 2.75 6.41667C2.75 5.91041 3.16041 5.5 3.66667 5.5C4.17293 5.5 4.58333 5.91041 4.58333 6.41667Z" fill="#A7A7A7"/>
<path d="M4.58333 11.0002C4.58333 11.5064 4.17293 11.9168 3.66667 11.9168C3.16041 11.9168 2.75 11.5064 2.75 11.0002C2.75 10.4939 3.16041 10.0835 3.66667 10.0835C4.17293 10.0835 4.58333 10.4939 4.58333 11.0002Z" fill="#A7A7A7"/>
<path d="M4.58333 15.5832C4.58333 16.0894 4.17293 16.4998 3.66667 16.4998C3.16041 16.4998 2.75 16.0894 2.75 15.5832C2.75 15.0769 3.16041 14.6665 3.66667 14.6665C4.17293 14.6665 4.58333 15.0769 4.58333 15.5832Z" fill="#A7A7A7"/>
</svg>
