<svg width="32" height="32" viewBox="0 0 32 32" fill="none" xmlns="http://www.w3.org/2000/svg">
<circle cx="16" cy="16" r="16" fill="#F7F7F7"/>
<g clip-path="url(#clip0_10017_15825)">
<path d="M16.5887 6C16.9012 6.04167 17.2189 6.08333 17.5314 6.11458C17.646 6.125 17.7033 6.15625 17.7033 6.28646C17.6981 7.71875 17.6981 9.15104 17.6981 10.5833C17.6981 10.6094 17.6929 10.6354 17.6877 10.6875C17.6148 10.6875 17.5471 10.6875 17.4794 10.6875C16.771 10.6979 16.0627 10.6979 15.3544 10.7292C14.7554 10.7552 14.7554 10.776 14.7398 11.3594C14.7241 11.9427 14.6044 12.5052 14.3491 13.0625C14.4221 13.0677 14.4741 13.0729 14.5314 13.0729C15.271 13.0729 16.0158 13.0677 16.7554 13.0781C16.8804 13.0781 16.9533 13.0417 17.021 12.9323C17.3387 12.4479 17.6669 11.9688 17.9794 11.4844C18.0627 11.3542 18.1564 11.3073 18.3075 11.3125C18.7554 11.3229 19.2033 11.3125 19.6564 11.3177C19.7867 11.3177 19.8544 11.2917 19.9169 11.1562C20.2919 10.349 21.1981 9.95833 22.0419 10.224C22.8804 10.4948 23.3856 11.3437 23.2294 12.2187C23.0731 13.0833 22.2919 13.7083 21.4064 13.651C20.6512 13.599 20.146 13.1875 19.8439 12.4844C19.5054 12.4844 19.1617 12.4792 18.8179 12.4896C18.7606 12.4896 18.6825 12.5573 18.646 12.6146C18.3179 13.0937 17.995 13.5729 17.6825 14.0625C17.5939 14.1979 17.5054 14.25 17.3387 14.25C16.1356 14.2396 14.9325 14.25 13.7241 14.2448C13.5939 14.2448 13.5106 14.2812 13.4429 14.3958C13.2554 14.7083 13.1044 15.0365 13.0367 15.4167C13.12 15.4167 13.1877 15.4167 13.2606 15.4167C16.2814 15.4167 19.3023 15.4167 22.3231 15.4219C22.4741 15.4219 22.5471 15.375 22.6096 15.2396C22.9585 14.5 23.7762 14.1146 24.5783 14.2917C25.3648 14.4687 25.9377 15.1875 25.9377 16.0052C25.9377 16.8229 25.3648 17.5417 24.5783 17.7187C23.7762 17.901 22.9585 17.5104 22.6096 16.7708C22.5419 16.6302 22.4741 16.5885 22.3231 16.5885C19.3023 16.5937 16.2814 16.5937 13.2606 16.5937C13.1877 16.5937 13.12 16.5937 13.0367 16.5937C13.1148 17 13.2658 17.3594 13.495 17.6771C13.5314 17.7292 13.6356 17.7604 13.7085 17.7604C14.9169 17.7656 16.1304 17.7656 17.3387 17.7604C17.5054 17.7604 17.5939 17.8125 17.6825 17.9479C17.995 18.4375 18.3179 18.9167 18.646 19.3906C18.6929 19.4531 18.7971 19.5104 18.8752 19.5156C19.1929 19.5312 19.5106 19.5208 19.8387 19.5208C19.8752 19.4479 19.9064 19.3802 19.9429 19.3125C20.3075 18.5885 21.12 18.2135 21.9116 18.3958C22.6981 18.5781 23.271 19.3021 23.2658 20.1146C23.2606 20.9219 22.6981 21.6354 21.9169 21.8177C21.1252 22.0052 20.3075 21.6302 19.9533 20.901C19.8752 20.7344 19.7867 20.6823 19.6044 20.6875C19.1773 20.7031 18.745 20.6875 18.3179 20.6979C18.1669 20.7031 18.0731 20.6562 17.9898 20.526C17.6721 20.0312 17.3439 19.5469 17.0158 19.0625C16.9794 19.0052 16.9064 18.9687 16.8439 18.9375C16.8127 18.9219 16.7658 18.9323 16.7294 18.9323C15.9481 18.9323 15.1669 18.9323 14.396 18.9323C14.495 19.2865 14.6148 19.6302 14.6773 19.9844C14.7346 20.3021 14.745 20.6302 14.745 20.9531C14.745 21.1406 14.8075 21.2083 14.9741 21.224C15.3439 21.25 15.7137 21.2969 16.0835 21.3073C16.6148 21.3229 17.1512 21.3125 17.7085 21.3125C17.7085 21.3854 17.7085 21.4479 17.7085 21.5104C17.7085 22.8906 17.7033 24.2708 17.7137 25.651C17.7137 25.8177 17.6669 25.875 17.5002 25.8906C17.1981 25.9115 16.896 25.9635 16.5939 26C16.1773 26 15.7606 26 15.3439 26C15.0679 25.9635 14.7919 25.9219 14.5158 25.8958C14.4064 25.8854 14.3596 25.8385 14.3179 25.7448C14.1616 25.3854 14.0002 25.0313 13.8283 24.6823C13.7971 24.6146 13.7241 24.5521 13.6564 24.526C13.37 24.4219 13.0783 24.3281 12.7867 24.2448C12.7189 24.224 12.62 24.2396 12.5575 24.2708C12.2189 24.4531 11.8856 24.6406 11.5575 24.8385C11.4533 24.901 11.3804 24.901 11.2762 24.8437C10.4481 24.3958 9.6929 23.8438 9.0054 23.1979C8.90644 23.1042 8.87519 23.0208 8.90644 22.8958C8.98457 22.5469 9.05227 22.1979 9.1304 21.849C9.16165 21.7135 9.14602 21.6094 9.05227 21.4948C8.8804 21.2865 8.73457 21.0521 8.56269 20.8385C8.51061 20.776 8.42727 20.7135 8.34915 20.7031C7.97415 20.651 7.59915 20.6094 7.22415 20.5781C7.09394 20.5677 7.02102 20.5208 6.95852 20.3958C6.54707 19.5417 6.26061 18.651 6.08352 17.7292C6.05748 17.6042 6.08873 17.526 6.18248 17.4427C6.46894 17.1927 6.74498 16.9427 7.01582 16.6771C7.07311 16.6198 7.11477 16.5156 7.11998 16.4323C7.1304 16.1458 7.1304 15.8594 7.11998 15.5729C7.11477 15.4896 7.07311 15.3854 7.01061 15.3281C6.73457 15.0625 6.4429 14.8125 6.16686 14.5417C6.10957 14.4844 6.0679 14.3698 6.08352 14.2917C6.25019 13.3542 6.53665 12.4479 6.96373 11.5937C7.00019 11.5208 7.09394 11.4531 7.17207 11.4375C7.55227 11.3802 7.93248 11.3542 8.31269 11.3021C8.39602 11.2917 8.48977 11.2292 8.54186 11.1615C8.71894 10.9375 8.89082 10.7083 9.04707 10.4688C9.09394 10.3958 9.12519 10.2917 9.10957 10.2083C9.04707 9.83854 8.96373 9.46875 8.88561 9.09896C8.85957 8.97917 8.87519 8.90104 8.97415 8.80729C9.66165 8.16146 10.4116 7.60937 11.2398 7.16146C11.3596 7.09375 11.4429 7.10417 11.5575 7.16667C11.8804 7.35937 12.2085 7.54687 12.5419 7.72396C12.6096 7.76042 12.7137 7.76562 12.7919 7.74479C13.0731 7.66667 13.3491 7.57812 13.6252 7.47396C13.6981 7.44792 13.7814 7.38021 13.8127 7.3125C13.9846 6.96354 14.1356 6.60417 14.3075 6.25521C14.3387 6.19271 14.4273 6.125 14.5002 6.11458C14.7606 6.06771 15.0262 6.04167 15.2866 6.00521C15.7294 6 16.1564 6 16.5887 6ZM16.5262 22.474C14.7346 22.5677 13.1408 22.1094 11.7814 20.9635C10.4221 19.8177 9.64602 18.3437 9.48457 16.5729C9.33873 14.9427 9.75019 13.4427 10.745 12.1354C12.1929 10.2344 14.1512 9.42187 16.5262 9.52083C16.5262 8.76562 16.5262 8.03646 16.5262 7.30729C16.5262 7.19271 16.4585 7.18229 16.3752 7.18229C16.0262 7.1875 15.6721 7.19792 15.3231 7.19792C15.2033 7.19792 15.1408 7.24479 15.0939 7.35937C14.9585 7.68229 14.8127 8.00521 14.6564 8.31771C14.62 8.39062 14.5314 8.46354 14.4533 8.48958C13.8804 8.68229 13.3075 8.86979 12.7346 9.04687C12.6564 9.07292 12.5419 9.06771 12.4689 9.03125C12.1512 8.86458 11.8439 8.6875 11.5314 8.50521C11.4429 8.45312 11.3752 8.4375 11.2866 8.50521C10.9429 8.76042 10.5887 9.00521 10.2502 9.27083C10.1981 9.30729 10.1669 9.41146 10.1773 9.47396C10.2398 9.83854 10.3231 10.2031 10.3856 10.5677C10.396 10.6354 10.3804 10.724 10.3439 10.776C9.97936 11.2865 9.60957 11.7969 9.23457 12.3021C9.19811 12.3542 9.12519 12.3958 9.0679 12.4062C8.70852 12.4531 8.34394 12.4948 7.98457 12.526C7.87519 12.5365 7.80227 12.5625 7.76582 12.6771C7.64082 13.0781 7.5054 13.4792 7.37519 13.8802C7.33873 13.9896 7.36998 14.0573 7.45332 14.1302C7.71894 14.3646 7.97936 14.599 8.22936 14.8437C8.29186 14.9062 8.33352 15.0156 8.33873 15.1094C8.34915 15.7083 8.34915 16.3021 8.33873 16.901C8.33873 16.9844 8.30227 17.0938 8.23977 17.151C7.98457 17.401 7.71373 17.6354 7.45332 17.8854C7.40123 17.9375 7.35957 18.0469 7.37519 18.1146C7.50019 18.5313 7.63561 18.9427 7.78144 19.3542C7.80227 19.4062 7.88561 19.4688 7.94811 19.474C8.30748 19.526 8.67207 19.5521 9.03144 19.6042C9.10957 19.6146 9.20332 19.6823 9.2554 19.75C9.61477 20.2344 9.97415 20.724 10.3231 21.2135C10.37 21.276 10.396 21.375 10.3856 21.4531C10.3231 21.8177 10.2398 22.1771 10.1773 22.5469C10.1669 22.6042 10.1981 22.7031 10.2398 22.7396C10.5835 23.0052 10.9377 23.2604 11.2971 23.5104C11.3491 23.5469 11.4585 23.5417 11.5158 23.5156C11.8387 23.3437 12.1512 23.1562 12.4689 22.9844C12.5366 22.9479 12.6408 22.9427 12.7189 22.9635C13.3023 23.1458 13.8804 23.3333 14.4585 23.526C14.5314 23.5521 14.6148 23.6146 14.6512 23.6823C14.8127 24.0104 14.9533 24.3437 15.1096 24.6719C15.1408 24.7344 15.2241 24.7969 15.2919 24.8021C15.6512 24.8229 16.0054 24.8177 16.3648 24.8281C16.4898 24.8333 16.5366 24.7865 16.5314 24.6563C16.5262 24.2865 16.5314 23.9167 16.5314 23.5417C16.5262 23.1927 16.5262 22.849 16.5262 22.474ZM13.5887 20.724C13.5523 20.4688 13.5314 20.224 13.4794 19.9844C13.3648 19.4687 13.0939 19.0417 12.7606 18.6406C11.4846 17.1094 11.4898 14.8906 12.7554 13.349C12.995 13.0573 13.1929 12.7187 13.3596 12.3802C13.5262 12.0417 13.5731 11.6667 13.5627 11.2812C12.0471 11.7187 10.6304 14.0104 10.6304 16C10.6304 17.9896 12.0523 20.2865 13.5887 20.724ZM22.0939 11.8906C22.0887 11.5729 21.8231 11.3125 21.5054 11.3125C21.1877 11.3125 20.9221 11.5781 20.9221 11.8958C20.9221 12.2187 21.1981 12.4896 21.521 12.4844C21.8387 12.4792 22.0991 12.2083 22.0939 11.8906ZM21.5054 20.6875C21.8231 20.6875 22.0887 20.4271 22.0939 20.1094C22.0991 19.7917 21.8387 19.526 21.521 19.5156C21.1981 19.5104 20.9221 19.7812 20.9221 20.1042C20.9221 20.4167 21.1877 20.6875 21.5054 20.6875ZM24.1877 16.5833C24.5054 16.5833 24.771 16.3125 24.7658 15.9948C24.7658 15.6719 24.5002 15.4115 24.1773 15.4115C23.8596 15.4115 23.5939 15.6771 23.5991 16C23.6044 16.3229 23.87 16.5885 24.1877 16.5833Z" fill="#5C5C5C" stroke="#5C5C5C" stroke-width="0.4"/>
<path d="M18.8857 7.875C19.2764 7.875 19.6462 7.875 20.0316 7.875C20.0316 8.26563 20.0316 8.64062 20.0316 9.02604C19.6462 9.02604 19.2712 9.02604 18.8857 9.02604C18.8857 8.64583 18.8857 8.27083 18.8857 7.875Z" fill="#5C5C5C"/>
<path d="M18.8857 24.1146C18.8857 23.724 18.8857 23.3542 18.8857 22.9688C19.2712 22.9688 19.6462 22.9688 20.0316 22.9688C20.0316 23.3542 20.0316 23.7344 20.0316 24.1146C19.641 24.1146 19.2607 24.1146 18.8857 24.1146Z" fill="#5C5C5C"/>
</g>
<defs>
<clipPath id="clip0_10017_15825">
<rect width="22" height="22" fill="white" transform="translate(5 5)"/>
</clipPath>
</defs>
</svg>
