<svg width="16" height="17" viewBox="0 0 16 17" fill="none" xmlns="http://www.w3.org/2000/svg">
<path d="M14 4.48665C11.78 4.26665 9.54667 4.15332 7.32 4.15332C6 4.15332 4.68 4.21999 3.36 4.35332L2 4.48665" stroke="#F14A5B" stroke-linecap="round" stroke-linejoin="round"/>
<path d="M5.6665 3.81301L5.81317 2.93967C5.91984 2.30634 5.99984 1.83301 7.1265 1.83301H8.87317C9.99984 1.83301 10.0865 2.33301 10.1865 2.94634L10.3332 3.81301" stroke="#F14A5B" stroke-linecap="round" stroke-linejoin="round"/>
<path d="M12.5664 6.59375L12.1331 13.3071C12.0598 14.3537 11.9998 15.1671 10.1398 15.1671H5.85977C3.99977 15.1671 3.93977 14.3537 3.86644 13.3071L3.43311 6.59375" stroke="#F14A5B" stroke-linecap="round" stroke-linejoin="round"/>
<path d="M6.88672 11.5H9.10672" stroke="#F14A5B" stroke-linecap="round" stroke-linejoin="round"/>
<path d="M6.3335 8.83301H9.66683" stroke="#F14A5B" stroke-linecap="round" stroke-linejoin="round"/>
</svg>
