<svg width="8" height="16" viewBox="0 0 8 16" fill="none" xmlns="http://www.w3.org/2000/svg">
<path fill-rule="evenodd" clip-rule="evenodd" d="M0.8 7.2C0.358172 7.2 0 6.84183 0 6.4V4C0 1.79086 1.79086 0 4 0C6.20914 0 8 1.79086 8 4V6.4C8 6.84183 7.64183 7.2 7.2 7.2C6.75817 7.2 6.4 6.84183 6.4 6.4V4C6.4 2.67452 5.32548 1.6 4 1.6C2.67452 1.6 1.6 2.67452 1.6 4L1.6 6.4C1.6 6.84183 1.24183 7.2 0.8 7.2ZM4 16C1.79086 16 0 14.2091 0 12V9.6C0 9.15817 0.358172 8.8 0.8 8.8C1.24183 8.8 1.6 9.15817 1.6 9.6L1.6 12C1.6 13.3255 2.67452 14.4 4 14.4C5.32548 14.4 6.4 13.3255 6.4 12L6.4 9.6C6.4 9.15817 6.75817 8.8 7.2 8.8C7.64183 8.8 8 9.15817 8 9.6V12C8 14.2091 6.20914 16 4 16ZM3.19995 10.4C3.19995 10.8418 3.55812 11.2 3.99995 11.2C4.44178 11.2 4.79995 10.8418 4.79995 10.4V5.60001C4.79995 5.15818 4.44178 4.80001 3.99995 4.80001C3.55812 4.80001 3.19995 5.15818 3.19995 5.60001L3.19995 10.4Z" fill="#86969D"/>
</svg>
